<?xml version="1.0" encoding="UTF-8" standalone="no"?><svg xmlns="http://www.w3.org/2000/svg" xmlns:xlink="http://www.w3.org/1999/xlink" contentScriptType="application/ecmascript" contentStyleType="text/css" height="469px" preserveAspectRatio="none" style="width:384px;height:469px;background:#FFFFFF;" version="1.1" viewBox="0 0 384 469" width="384px" zoomAndPan="magnify"><defs><filter height="300%" id="f1ee45s0faiake" width="300%" x="-1" y="-1"><feGaussianBlur result="blurOut" stdDeviation="2.0"/><feColorMatrix in="blurOut" result="blurOut2" type="matrix" values="0 0 0 0 0 0 0 0 0 0 0 0 0 0 0 0 0 0 .4 0"/><feOffset dx="4.0" dy="4.0" in="blurOut2" result="blurOut3"/><feBlend in="SourceGraphic" in2="blurOut3" mode="normal"/></filter></defs><g><!--MD5=[8fd473fd151a2794da4f2c8684676405]
cluster Presentation--><polygon fill="#FFFFFF" filter="url(#f1ee45s0faiake)" points="37,6,133,6,140,29.6094,185,29.6094,185,106,37,106,37,6" style="stroke:#000000;stroke-width:1.5;"/><line style="stroke:#000000;stroke-width:1.5;" x1="37" x2="140" y1="29.6094" y2="29.6094"/><text fill="#000000" font-family="sans-serif" font-size="14" font-weight="bold" lengthAdjust="spacing" textLength="90" x="41" y="22.5332">Presentation</text><!--MD5=[d64883541e3d62e3241c4d12decf100d]
cluster Application--><polygon fill="#FFFFFF" filter="url(#f1ee45s0faiake)" points="16,130,100,130,107,153.6094,206,153.6094,206,230,16,230,16,130" style="stroke:#000000;stroke-width:1.5;"/><line style="stroke:#000000;stroke-width:1.5;" x1="16" x2="107" y1="153.6094" y2="153.6094"/><text fill="#000000" font-family="sans-serif" font-size="14" font-weight="bold" lengthAdjust="spacing" textLength="78" x="20" y="146.5332">Application</text><!--MD5=[121a8bf1197281ab89ed693fab589f94]
cluster Domain--><polygon fill="#FFFFFF" filter="url(#f1ee45s0faiake)" points="30,254,88,254,95,277.6094,164,277.6094,164,462,30,462,30,254" style="stroke:#000000;stroke-width:1.5;"/><line style="stroke:#000000;stroke-width:1.5;" x1="30" x2="95" y1="277.6094" y2="277.6094"/><text fill="#000000" font-family="sans-serif" font-size="14" font-weight="bold" lengthAdjust="spacing" textLength="52" x="34" y="270.5332">Domain</text><!--MD5=[bc6b40dadbf86ab6a0c8405a467a48af]
cluster Persistence--><polygon fill="#FFFFFF" filter="url(#f1ee45s0faiake)" points="188,254,278,254,285,277.6094,350,277.6094,350,462,188,462,188,254" style="stroke:#000000;stroke-width:1.5;"/><line style="stroke:#000000;stroke-width:1.5;" x1="188" x2="285" y1="277.6094" y2="277.6094"/><text fill="#000000" font-family="sans-serif" font-size="14" font-weight="bold" lengthAdjust="spacing" textLength="84" x="192" y="270.5332">Persistence</text><!--MD5=[5c4f27341de6de4368943288466531e3]
class UpdateOrderUI--><rect codeLine="5" fill="#FEFECE" filter="url(#f1ee45s0faiake)" height="48" id="UpdateOrderUI" style="stroke:#A80036;stroke-width:1.5;" width="115" x="53.5" y="42"/><ellipse cx="68.5" cy="58" fill="#ADD1B2" rx="11" ry="11" style="stroke:#A80036;stroke-width:1.0;"/><path d="M70.5,54.5 Q70.7031,54 70.9375,53.75 Q71.1719,53.5 71.4375,53.5 Q71.9063,53.5 72.2031,53.7813 Q72.5,54.0625 72.5,54.7188 L72.5,56.2813 Q72.5,56.9375 72.2188,57.2188 Q71.9375,57.5 71.5,57.5 Q71.1094,57.5 70.8594,57.3281 Q70.6094,57.1563 70.5,56.7031 Q70.4531,56.3906 70.2813,56.2188 Q69.9688,55.8906 69.4063,55.7031 Q68.8438,55.5 68.2813,55.5 Q67.5781,55.5 66.9844,55.7813 Q66.4063,56.0625 65.9531,56.6875 Q65.5,57.3125 65.5,58.1719 L65.5,59.0938 Q65.5,60.125 66.3438,60.8125 Q67.1875,61.5 68.6875,61.5 Q69.5781,61.5 70.2031,61.2969 Q70.5625,61.1875 70.9688,60.8281 Q71.2344,60.625 71.375,60.5625 Q71.5156,60.5 71.6875,60.5 Q72.0156,60.5 72.25,60.7656 Q72.5,61.0156 72.5,61.375 Q72.5,61.7188 72.1563,62.125 Q71.6563,62.7188 70.8594,63.0469 Q69.8125,63.5 68.5313,63.5 Q67.0313,63.5 65.8281,62.9063 Q64.8594,62.4375 64.1719,61.4219 Q63.5,60.4063 63.5,59.2031 L63.5,58.1094 Q63.5,56.8594 64.0938,55.7656 Q64.7031,54.6719 65.75,54.0938 Q66.8125,53.5 68,53.5 Q68.7188,53.5 69.3438,53.75 Q69.9688,54 70.5,54.5 Z " fill="#000000"/><text fill="#000000" font-family="sans-serif" font-size="12" lengthAdjust="spacing" textLength="83" x="82.5" y="62.9102">UpdateOrderUI</text><line style="stroke:#A80036;stroke-width:1.5;" x1="54.5" x2="167.5" y1="74" y2="74"/><line style="stroke:#A80036;stroke-width:1.5;" x1="54.5" x2="167.5" y1="82" y2="82"/><!--MD5=[71ecf3b8d628b175ab06da4dfe6a570f]
class UpdateOrderController--><rect codeLine="11" fill="#FEFECE" filter="url(#f1ee45s0faiake)" height="48" id="UpdateOrderController" style="stroke:#A80036;stroke-width:1.5;" width="157" x="32.5" y="166"/><ellipse cx="47.5" cy="182" fill="#ADD1B2" rx="11" ry="11" style="stroke:#A80036;stroke-width:1.0;"/><path d="M49.5,178.5 Q49.7031,178 49.9375,177.75 Q50.1719,177.5 50.4375,177.5 Q50.9063,177.5 51.2031,177.7813 Q51.5,178.0625 51.5,178.7188 L51.5,180.2813 Q51.5,180.9375 51.2188,181.2188 Q50.9375,181.5 50.5,181.5 Q50.1094,181.5 49.8594,181.3281 Q49.6094,181.1563 49.5,180.7031 Q49.4531,180.3906 49.2813,180.2188 Q48.9688,179.8906 48.4063,179.7031 Q47.8438,179.5 47.2813,179.5 Q46.5781,179.5 45.9844,179.7813 Q45.4063,180.0625 44.9531,180.6875 Q44.5,181.3125 44.5,182.1719 L44.5,183.0938 Q44.5,184.125 45.3438,184.8125 Q46.1875,185.5 47.6875,185.5 Q48.5781,185.5 49.2031,185.2969 Q49.5625,185.1875 49.9688,184.8281 Q50.2344,184.625 50.375,184.5625 Q50.5156,184.5 50.6875,184.5 Q51.0156,184.5 51.25,184.7656 Q51.5,185.0156 51.5,185.375 Q51.5,185.7188 51.1563,186.125 Q50.6563,186.7188 49.8594,187.0469 Q48.8125,187.5 47.5313,187.5 Q46.0313,187.5 44.8281,186.9063 Q43.8594,186.4375 43.1719,185.4219 Q42.5,184.4063 42.5,183.2031 L42.5,182.1094 Q42.5,180.8594 43.0938,179.7656 Q43.7031,178.6719 44.75,178.0938 Q45.8125,177.5 47,177.5 Q47.7188,177.5 48.3438,177.75 Q48.9688,178 49.5,178.5 Z " fill="#000000"/><text fill="#000000" font-family="sans-serif" font-size="12" lengthAdjust="spacing" textLength="125" x="61.5" y="186.9102">UpdateOrderController</text><line style="stroke:#A80036;stroke-width:1.5;" x1="33.5" x2="188.5" y1="198" y2="198"/><line style="stroke:#A80036;stroke-width:1.5;" x1="33.5" x2="188.5" y1="206" y2="206"/><!--MD5=[cf4d6237fcae255cd2e1656cf84a30e2]
class Order--><rect codeLine="19" fill="#FEFECE" filter="url(#f1ee45s0faiake)" height="48" id="Order" style="stroke:#A80036;stroke-width:1.5;" width="63" x="55.5" y="398"/><ellipse cx="70.5" cy="414" fill="#ADD1B2" rx="11" ry="11" style="stroke:#A80036;stroke-width:1.0;"/><path d="M72.5,410.5 Q72.7031,410 72.9375,409.75 Q73.1719,409.5 73.4375,409.5 Q73.9063,409.5 74.2031,409.7813 Q74.5,410.0625 74.5,410.7188 L74.5,412.2813 Q74.5,412.9375 74.2188,413.2188 Q73.9375,413.5 73.5,413.5 Q73.1094,413.5 72.8594,413.3281 Q72.6094,413.1563 72.5,412.7031 Q72.4531,412.3906 72.2813,412.2188 Q71.9688,411.8906 71.4063,411.7031 Q70.8438,411.5 70.2813,411.5 Q69.5781,411.5 68.9844,411.7813 Q68.4063,412.0625 67.9531,412.6875 Q67.5,413.3125 67.5,414.1719 L67.5,415.0938 Q67.5,416.125 68.3438,416.8125 Q69.1875,417.5 70.6875,417.5 Q71.5781,417.5 72.2031,417.2969 Q72.5625,417.1875 72.9688,416.8281 Q73.2344,416.625 73.375,416.5625 Q73.5156,416.5 73.6875,416.5 Q74.0156,416.5 74.25,416.7656 Q74.5,417.0156 74.5,417.375 Q74.5,417.7188 74.1563,418.125 Q73.6563,418.7188 72.8594,419.0469 Q71.8125,419.5 70.5313,419.5 Q69.0313,419.5 67.8281,418.9063 Q66.8594,418.4375 66.1719,417.4219 Q65.5,416.4063 65.5,415.2031 L65.5,414.1094 Q65.5,412.8594 66.0938,411.7656 Q66.7031,410.6719 67.75,410.0938 Q68.8125,409.5 70,409.5 Q70.7188,409.5 71.3438,409.75 Q71.9688,410 72.5,410.5 Z " fill="#000000"/><text fill="#000000" font-family="sans-serif" font-size="12" lengthAdjust="spacing" textLength="31" x="84.5" y="418.9102">Order</text><line style="stroke:#A80036;stroke-width:1.5;" x1="56.5" x2="117.5" y1="430" y2="430"/><line style="stroke:#A80036;stroke-width:1.5;" x1="56.5" x2="117.5" y1="438" y2="438"/><!--MD5=[80239a474f159a768dcd4df4e04d46d6]
class OrderFactory--><rect codeLine="24" fill="#FEFECE" filter="url(#f1ee45s0faiake)" height="48" id="OrderFactory" style="stroke:#A80036;stroke-width:1.5;" width="102" x="46" y="290"/><ellipse cx="61" cy="306" fill="#ADD1B2" rx="11" ry="11" style="stroke:#A80036;stroke-width:1.0;"/><path d="M63,302.5 Q63.2031,302 63.4375,301.75 Q63.6719,301.5 63.9375,301.5 Q64.4063,301.5 64.7031,301.7813 Q65,302.0625 65,302.7188 L65,304.2813 Q65,304.9375 64.7188,305.2188 Q64.4375,305.5 64,305.5 Q63.6094,305.5 63.3594,305.3281 Q63.1094,305.1563 63,304.7031 Q62.9531,304.3906 62.7813,304.2188 Q62.4688,303.8906 61.9063,303.7031 Q61.3438,303.5 60.7813,303.5 Q60.0781,303.5 59.4844,303.7813 Q58.9063,304.0625 58.4531,304.6875 Q58,305.3125 58,306.1719 L58,307.0938 Q58,308.125 58.8438,308.8125 Q59.6875,309.5 61.1875,309.5 Q62.0781,309.5 62.7031,309.2969 Q63.0625,309.1875 63.4688,308.8281 Q63.7344,308.625 63.875,308.5625 Q64.0156,308.5 64.1875,308.5 Q64.5156,308.5 64.75,308.7656 Q65,309.0156 65,309.375 Q65,309.7188 64.6563,310.125 Q64.1563,310.7188 63.3594,311.0469 Q62.3125,311.5 61.0313,311.5 Q59.5313,311.5 58.3281,310.9063 Q57.3594,310.4375 56.6719,309.4219 Q56,308.4063 56,307.2031 L56,306.1094 Q56,304.8594 56.5938,303.7656 Q57.2031,302.6719 58.25,302.0938 Q59.3125,301.5 60.5,301.5 Q61.2188,301.5 61.8438,301.75 Q62.4688,302 63,302.5 Z " fill="#000000"/><text fill="#000000" font-family="sans-serif" font-size="12" lengthAdjust="spacing" textLength="70" x="75" y="310.9102">OrderFactory</text><line style="stroke:#A80036;stroke-width:1.5;" x1="47" x2="147" y1="322" y2="322"/><line style="stroke:#A80036;stroke-width:1.5;" x1="47" x2="147" y1="330" y2="330"/><!--MD5=[48590afff58a68e2fcba47824d6f8a11]
class RepositoryFactory--><rect codeLine="32" fill="#FEFECE" filter="url(#f1ee45s0faiake)" height="48" id="RepositoryFactory" style="stroke:#A80036;stroke-width:1.5;" width="130" x="204" y="290"/><ellipse cx="219" cy="306" fill="#ADD1B2" rx="11" ry="11" style="stroke:#A80036;stroke-width:1.0;"/><path d="M221,302.5 Q221.2031,302 221.4375,301.75 Q221.6719,301.5 221.9375,301.5 Q222.4063,301.5 222.7031,301.7813 Q223,302.0625 223,302.7188 L223,304.2813 Q223,304.9375 222.7188,305.2188 Q222.4375,305.5 222,305.5 Q221.6094,305.5 221.3594,305.3281 Q221.1094,305.1563 221,304.7031 Q220.9531,304.3906 220.7813,304.2188 Q220.4688,303.8906 219.9063,303.7031 Q219.3438,303.5 218.7813,303.5 Q218.0781,303.5 217.4844,303.7813 Q216.9063,304.0625 216.4531,304.6875 Q216,305.3125 216,306.1719 L216,307.0938 Q216,308.125 216.8438,308.8125 Q217.6875,309.5 219.1875,309.5 Q220.0781,309.5 220.7031,309.2969 Q221.0625,309.1875 221.4688,308.8281 Q221.7344,308.625 221.875,308.5625 Q222.0156,308.5 222.1875,308.5 Q222.5156,308.5 222.75,308.7656 Q223,309.0156 223,309.375 Q223,309.7188 222.6563,310.125 Q222.1563,310.7188 221.3594,311.0469 Q220.3125,311.5 219.0313,311.5 Q217.5313,311.5 216.3281,310.9063 Q215.3594,310.4375 214.6719,309.4219 Q214,308.4063 214,307.2031 L214,306.1094 Q214,304.8594 214.5938,303.7656 Q215.2031,302.6719 216.25,302.0938 Q217.3125,301.5 218.5,301.5 Q219.2188,301.5 219.8438,301.75 Q220.4688,302 221,302.5 Z " fill="#000000"/><text fill="#000000" font-family="sans-serif" font-size="12" lengthAdjust="spacing" textLength="98" x="233" y="310.9102">RepositoryFactory</text><line style="stroke:#A80036;stroke-width:1.5;" x1="205" x2="333" y1="322" y2="322"/><line style="stroke:#A80036;stroke-width:1.5;" x1="205" x2="333" y1="330" y2="330"/><!--MD5=[708e328039b60d50c6285936843ac334]
class OrderRepository--><rect codeLine="36" fill="#FEFECE" filter="url(#f1ee45s0faiake)" height="48" id="OrderRepository" style="stroke:#A80036;stroke-width:1.5;" width="122" x="210" y="398"/><ellipse cx="225" cy="414" fill="#ADD1B2" rx="11" ry="11" style="stroke:#A80036;stroke-width:1.0;"/><path d="M227,410.5 Q227.2031,410 227.4375,409.75 Q227.6719,409.5 227.9375,409.5 Q228.4063,409.5 228.7031,409.7813 Q229,410.0625 229,410.7188 L229,412.2813 Q229,412.9375 228.7188,413.2188 Q228.4375,413.5 228,413.5 Q227.6094,413.5 227.3594,413.3281 Q227.1094,413.1563 227,412.7031 Q226.9531,412.3906 226.7813,412.2188 Q226.4688,411.8906 225.9063,411.7031 Q225.3438,411.5 224.7813,411.5 Q224.0781,411.5 223.4844,411.7813 Q222.9063,412.0625 222.4531,412.6875 Q222,413.3125 222,414.1719 L222,415.0938 Q222,416.125 222.8438,416.8125 Q223.6875,417.5 225.1875,417.5 Q226.0781,417.5 226.7031,417.2969 Q227.0625,417.1875 227.4688,416.8281 Q227.7344,416.625 227.875,416.5625 Q228.0156,416.5 228.1875,416.5 Q228.5156,416.5 228.75,416.7656 Q229,417.0156 229,417.375 Q229,417.7188 228.6563,418.125 Q228.1563,418.7188 227.3594,419.0469 Q226.3125,419.5 225.0313,419.5 Q223.5313,419.5 222.3281,418.9063 Q221.3594,418.4375 220.6719,417.4219 Q220,416.4063 220,415.2031 L220,414.1094 Q220,412.8594 220.5938,411.7656 Q221.2031,410.6719 222.25,410.0938 Q223.3125,409.5 224.5,409.5 Q225.2188,409.5 225.8438,409.75 Q226.4688,410 227,410.5 Z " fill="#000000"/><text fill="#000000" font-family="sans-serif" font-size="12" lengthAdjust="spacing" textLength="90" x="239" y="418.9102">OrderRepository</text><line style="stroke:#A80036;stroke-width:1.5;" x1="211" x2="331" y1="430" y2="430"/><line style="stroke:#A80036;stroke-width:1.5;" x1="211" x2="331" y1="438" y2="438"/><!--MD5=[4441484996d01258805a3ab8383c5c85]
link UpdateOrderUI to UpdateOrderController--><path codeLine="43" d="M111,90.23 C111,110.25 111,139.2 111,160.59 " fill="none" id="UpdateOrderUI-to-UpdateOrderController" style="stroke:#A80036;stroke-width:1.0;stroke-dasharray:7.0,7.0;"/><polygon fill="#A80036" points="111,165.85,115,156.85,111,160.85,107,156.85,111,165.85" style="stroke:#A80036;stroke-width:1.0;"/><!--MD5=[eaea0e8884a5693c1c9de56739019e0d]
link UpdateOrderController to Order--><path codeLine="44" d="M60.15,214.06 C47.74,222.27 36.02,232.84 29,246 C9.76,282.08 16.72,299 29,338 C35.47,358.54 49.02,378.42 61.4,393.58 " fill="none" id="UpdateOrderController-to-Order" style="stroke:#A80036;stroke-width:1.0;stroke-dasharray:7.0,7.0;"/><polygon fill="#A80036" points="64.86,397.73,62.1747,388.2543,61.6605,393.8877,56.027,393.3735,64.86,397.73" style="stroke:#A80036;stroke-width:1.0;"/><!--MD5=[8f07c30b5283adb007b0500c2bc0f3cd]
link UpdateOrderController to OrderRepository--><path codeLine="45" d="M189.8,198.46 C252.11,206.18 331.86,220.75 352,246 C377.49,277.97 367.42,300.13 352,338 C342.97,360.18 324.85,379.66 308.04,394.17 " fill="none" id="UpdateOrderController-to-OrderRepository" style="stroke:#A80036;stroke-width:1.0;stroke-dasharray:7.0,7.0;"/><polygon fill="#A80036" points="303.79,397.75,313.2498,395.0092,307.6134,394.528,308.0946,388.8916,303.79,397.75" style="stroke:#A80036;stroke-width:1.0;"/><!--MD5=[565b0d0ab24f446fb68a25d678557bc0]
link UpdateOrderController to RepositoryFactory--><path codeLine="46" d="M141.09,214.23 C167.89,234.93 207.06,265.17 234.99,286.74 " fill="none" id="UpdateOrderController-to-RepositoryFactory" style="stroke:#A80036;stroke-width:1.0;stroke-dasharray:7.0,7.0;"/><polygon fill="#A80036" points="239.02,289.85,234.3433,281.1823,235.0633,286.7932,229.4524,287.5131,239.02,289.85" style="stroke:#A80036;stroke-width:1.0;"/><!--MD5=[1541323312f5fb14d0f212597f8299a9]
link UpdateOrderController to OrderFactory--><path codeLine="47" d="M108.33,214.23 C106.03,234.33 102.69,263.45 100.23,284.86 " fill="none" id="UpdateOrderController-to-OrderFactory" style="stroke:#A80036;stroke-width:1.0;stroke-dasharray:7.0,7.0;"/><polygon fill="#A80036" points="99.66,289.85,104.6375,281.3515,100.2169,284.8811,96.6872,280.4605,99.66,289.85" style="stroke:#A80036;stroke-width:1.0;"/><!--MD5=[4961dc0a1f38b4bb8bde6c7779428d74]
link RepositoryFactory to OrderRepository--><path codeLine="48" d="M269.43,338 C269.74,354 270.14,375.45 270.46,392.53 " fill="none" id="RepositoryFactory-to-OrderRepository" style="stroke:#A80036;stroke-width:1.0;stroke-dasharray:7.0,7.0;"/><polygon fill="#A80036" points="270.56,397.68,274.4051,388.6128,270.4743,392.6807,266.4063,388.7499,270.56,397.68" style="stroke:#A80036;stroke-width:1.0;"/><!--MD5=[f72047070bee124741d6651ababda3fc]
link OrderFactory to Order--><path codeLine="49" d="M94.83,338 C93.32,354 91.3,375.45 89.69,392.53 " fill="none" id="OrderFactory-to-Order" style="stroke:#A80036;stroke-width:1.0;stroke-dasharray:7.0,7.0;"/><polygon fill="#A80036" points="89.2,397.68,94.0073,389.0841,89.6578,392.701,86.0409,388.3515,89.2,397.68" style="stroke:#A80036;stroke-width:1.0;"/><!--MD5=[c24acfa5f8a7b81fca66a9b08fa8d4b1]
@startuml
skinparam classAttributeIconSize 0


Package Presentation{
class UpdateOrderUI {
}
}

Package Application{

class UpdateOrderController {


}
}

Package Domain{

class Order {


}

class OrderFactory{
}


}


Package Persistence{
class RepositoryFactory{

}

class OrderRepository{

}


}

UpdateOrderUI ..> UpdateOrderController
UpdateOrderController ..> Order
UpdateOrderController ..> OrderRepository
UpdateOrderController ..> RepositoryFactory
UpdateOrderController ..> OrderFactory
RepositoryFactory ..> OrderRepository
OrderFactory..> Order


@enduml

PlantUML version 1.2021.11(Sat Oct 02 14:26:11 BST 2021)
(GPL source distribution)
Java Runtime: OpenJDK Runtime Environment
JVM: OpenJDK 64-Bit Server VM
Default Encoding: Cp1252
Language: pt
Country: PT
--></g></svg>