<?xml version="1.0" encoding="UTF-8" standalone="no"?><svg xmlns="http://www.w3.org/2000/svg" xmlns:xlink="http://www.w3.org/1999/xlink" contentScriptType="application/ecmascript" contentStyleType="text/css" height="633px" preserveAspectRatio="none" style="width:1097px;height:633px;background:#FFFFFF;" version="1.1" viewBox="0 0 1097 633" width="1097px" zoomAndPan="magnify"><defs><filter height="300%" id="frwswx5ufwgh1" width="300%" x="-1" y="-1"><feGaussianBlur result="blurOut" stdDeviation="2.0"/><feColorMatrix in="blurOut" result="blurOut2" type="matrix" values="0 0 0 0 0 0 0 0 0 0 0 0 0 0 0 0 0 0 .4 0"/><feOffset dx="4.0" dy="4.0" in="blurOut2" result="blurOut3"/><feBlend in="SourceGraphic" in2="blurOut3" mode="normal"/></filter></defs><g><text fill="#000000" font-family="sans-serif" font-size="18" lengthAdjust="spacing" textLength="150" x="471.25" y="30.6855">SD - Update Order</text><rect fill="#FFFFFF" filter="url(#frwswx5ufwgh1)" height="472.5703" style="stroke:#A80036;stroke-width:1.0;" width="10" x="72.5" y="136.25"/><rect fill="#FFFFFF" filter="url(#frwswx5ufwgh1)" height="450.2188" style="stroke:#A80036;stroke-width:1.0;" width="10" x="344.5" y="158.6016"/><rect fill="#FFFFFF" filter="url(#frwswx5ufwgh1)" height="376.5156" style="stroke:#A80036;stroke-width:1.0;" width="10" x="503.5" y="232.3047"/><rect fill="#FFFFFF" filter="url(#frwswx5ufwgh1)" height="30.3516" style="stroke:#A80036;stroke-width:1.0;" width="10" x="956" y="262.6563"/><rect fill="#FFFFFF" filter="url(#frwswx5ufwgh1)" height="30.3516" style="stroke:#A80036;stroke-width:1.0;" width="10" x="956" y="384.0625"/><rect fill="#FFFFFF" filter="url(#frwswx5ufwgh1)" height="30" style="stroke:#A80036;stroke-width:1.0;" width="10" x="956" y="548.4688"/><rect fill="#FFFFFF" filter="url(#frwswx5ufwgh1)" height="30" style="stroke:#A80036;stroke-width:1.0;" width="10" x="1053" y="488.1172"/><line style="stroke:#A80036;stroke-width:1.0;stroke-dasharray:5.0,5.0;" x1="77" x2="77" y1="126.25" y2="626.8203"/><line style="stroke:#A80036;stroke-width:1.0;stroke-dasharray:5.0,5.0;" x1="349.5" x2="349.5" y1="126.25" y2="626.8203"/><line style="stroke:#A80036;stroke-width:1.0;stroke-dasharray:5.0,5.0;" x1="508.5" x2="508.5" y1="126.25" y2="626.8203"/><line style="stroke:#A80036;stroke-width:1.0;stroke-dasharray:5.0,5.0;" x1="673.5" x2="673.5" y1="126.25" y2="626.8203"/><line style="stroke:#A80036;stroke-width:1.0;stroke-dasharray:5.0,5.0;" x1="824.5" x2="824.5" y1="126.25" y2="626.8203"/><line style="stroke:#A80036;stroke-width:1.0;stroke-dasharray:5.0,5.0;" x1="960.5" x2="960.5" y1="126.25" y2="626.8203"/><line style="stroke:#A80036;stroke-width:1.0;stroke-dasharray:5.0,5.0;" x1="1057.5" x2="1057.5" y1="126.25" y2="626.8203"/><text fill="#000000" font-family="sans-serif" font-size="14" lengthAdjust="spacing" textLength="139" x="5" y="123.1738">Warehouse Employee</text><ellipse cx="77.5" cy="51.6406" fill="#FEFECE" filter="url(#frwswx5ufwgh1)" rx="8" ry="8" style="stroke:#A80036;stroke-width:2.0;"/><path d="M77.5,59.6406 L77.5,86.6406 M64.5,67.6406 L90.5,67.6406 M77.5,86.6406 L64.5,101.6406 M77.5,86.6406 L90.5,101.6406 " fill="none" filter="url(#frwswx5ufwgh1)" style="stroke:#A80036;stroke-width:2.0;"/><rect fill="#FEFECE" filter="url(#frwswx5ufwgh1)" height="31.6094" style="stroke:#A80036;stroke-width:1.5;" width="112" x="291.5" y="89.6406"/><text fill="#000000" font-family="sans-serif" font-size="14" lengthAdjust="spacing" textLength="98" x="298.5" y="111.1738">:UpdateOrderUI</text><rect fill="#FEFECE" filter="url(#frwswx5ufwgh1)" height="31.6094" style="stroke:#A80036;stroke-width:1.5;" width="162" x="425.5" y="89.6406"/><text fill="#000000" font-family="sans-serif" font-size="14" lengthAdjust="spacing" textLength="148" x="432.5" y="111.1738">:UpdateOrderController</text><rect fill="#FEFECE" filter="url(#frwswx5ufwgh1)" height="31.6094" style="stroke:#A80036;stroke-width:1.5;" width="140" x="601.5" y="89.6406"/><text fill="#000000" font-family="sans-serif" font-size="14" lengthAdjust="spacing" textLength="126" x="608.5" y="111.1738">:PersistenceContext</text><rect fill="#FEFECE" filter="url(#frwswx5ufwgh1)" height="31.6094" style="stroke:#A80036;stroke-width:1.5;" width="134" x="755.5" y="89.6406"/><text fill="#000000" font-family="sans-serif" font-size="14" lengthAdjust="spacing" textLength="120" x="762.5" y="111.1738">:RepositoryFactory</text><text fill="#000000" font-family="sans-serif" font-size="14" lengthAdjust="spacing" textLength="109" x="903.5" y="123.1738">:OrderRepository</text><path d="M943,72.6406 C943,62.6406 961,62.6406 961,62.6406 C961,62.6406 979,62.6406 979,72.6406 L979,98.6406 C979,108.6406 961,108.6406 961,108.6406 C961,108.6406 943,108.6406 943,98.6406 L943,72.6406 " fill="#FEFECE" filter="url(#frwswx5ufwgh1)" style="stroke:#000000;stroke-width:1.5;"/><path d="M943,72.6406 C943,82.6406 961,82.6406 961,82.6406 C961,82.6406 979,82.6406 979,72.6406 " fill="none" style="stroke:#000000;stroke-width:1.5;"/><rect fill="#FEFECE" filter="url(#frwswx5ufwgh1)" height="31.6094" style="stroke:#A80036;stroke-width:1.5;" width="55" x="1028.5" y="89.6406"/><text fill="#000000" font-family="sans-serif" font-size="14" lengthAdjust="spacing" textLength="41" x="1035.5" y="111.1738">:Order</text><rect fill="#FFFFFF" filter="url(#frwswx5ufwgh1)" height="472.5703" style="stroke:#A80036;stroke-width:1.0;" width="10" x="72.5" y="136.25"/><rect fill="#FFFFFF" filter="url(#frwswx5ufwgh1)" height="450.2188" style="stroke:#A80036;stroke-width:1.0;" width="10" x="344.5" y="158.6016"/><rect fill="#FFFFFF" filter="url(#frwswx5ufwgh1)" height="376.5156" style="stroke:#A80036;stroke-width:1.0;" width="10" x="503.5" y="232.3047"/><rect fill="#FFFFFF" filter="url(#frwswx5ufwgh1)" height="30.3516" style="stroke:#A80036;stroke-width:1.0;" width="10" x="956" y="262.6563"/><rect fill="#FFFFFF" filter="url(#frwswx5ufwgh1)" height="30.3516" style="stroke:#A80036;stroke-width:1.0;" width="10" x="956" y="384.0625"/><rect fill="#FFFFFF" filter="url(#frwswx5ufwgh1)" height="30" style="stroke:#A80036;stroke-width:1.0;" width="10" x="956" y="548.4688"/><rect fill="#FFFFFF" filter="url(#frwswx5ufwgh1)" height="30" style="stroke:#A80036;stroke-width:1.0;" width="10" x="1053" y="488.1172"/><polygon fill="#A80036" points="332.5,154.6016,342.5,158.6016,332.5,162.6016,336.5,158.6016" style="stroke:#A80036;stroke-width:1.0;"/><line style="stroke:#A80036;stroke-width:1.0;" x1="82.5" x2="338.5" y1="158.6016" y2="158.6016"/><text fill="#000000" font-family="sans-serif" font-size="13" font-weight="bold" lengthAdjust="spacing" textLength="7" x="89.5" y="153.7451">1</text><text fill="#000000" font-family="sans-serif" font-size="13" lengthAdjust="spacing" textLength="153" x="100.5" y="153.7451">Wishes to update an order</text><line style="stroke:#A80036;stroke-width:1.0;" x1="354.5" x2="396.5" y1="188.9531" y2="188.9531"/><line style="stroke:#A80036;stroke-width:1.0;" x1="396.5" x2="396.5" y1="188.9531" y2="201.9531"/><line style="stroke:#A80036;stroke-width:1.0;" x1="355.5" x2="396.5" y1="201.9531" y2="201.9531"/><polygon fill="#A80036" points="365.5,197.9531,355.5,201.9531,365.5,205.9531,361.5,201.9531" style="stroke:#A80036;stroke-width:1.0;"/><text fill="#000000" font-family="sans-serif" font-size="13" font-weight="bold" lengthAdjust="spacing" textLength="7" x="361.5" y="184.0967">2</text><text fill="#000000" font-family="sans-serif" font-size="13" lengthAdjust="spacing" textLength="54" x="372.5" y="184.0967">doShow()</text><polygon fill="#A80036" points="491.5,228.3047,501.5,232.3047,491.5,236.3047,495.5,232.3047" style="stroke:#A80036;stroke-width:1.0;"/><line style="stroke:#A80036;stroke-width:1.0;" x1="354.5" x2="497.5" y1="232.3047" y2="232.3047"/><text fill="#000000" font-family="sans-serif" font-size="13" font-weight="bold" lengthAdjust="spacing" textLength="7" x="361.5" y="227.4482">3</text><text fill="#000000" font-family="sans-serif" font-size="13" lengthAdjust="spacing" textLength="119" x="372.5" y="227.4482">orderUpdate(orderID)</text><polygon fill="#A80036" points="944,258.6563,954,262.6563,944,266.6563,948,262.6563" style="stroke:#A80036;stroke-width:1.0;"/><line style="stroke:#A80036;stroke-width:1.0;" x1="513.5" x2="950" y1="262.6563" y2="262.6563"/><text fill="#000000" font-family="sans-serif" font-size="13" font-weight="bold" lengthAdjust="spacing" textLength="7" x="520.5" y="257.7998">4</text><text fill="#000000" font-family="sans-serif" font-size="13" lengthAdjust="spacing" textLength="226" x="531.5" y="257.7998">orders = orderRepository.readyOrders()</text><polygon fill="#A80036" points="524.5,289.0078,514.5,293.0078,524.5,297.0078,520.5,293.0078" style="stroke:#A80036;stroke-width:1.0;"/><line style="stroke:#A80036;stroke-width:1.0;" x1="518.5" x2="960" y1="293.0078" y2="293.0078"/><text fill="#000000" font-family="sans-serif" font-size="13" font-weight="bold" lengthAdjust="spacing" textLength="7" x="530.5" y="288.1514">5</text><text fill="#000000" font-family="sans-serif" font-size="13" lengthAdjust="spacing" textLength="96" x="541.5" y="288.1514">ordersPrepared()</text><polygon fill="#A80036" points="93.5,319.3594,83.5,323.3594,93.5,327.3594,89.5,323.3594" style="stroke:#A80036;stroke-width:1.0;"/><line style="stroke:#A80036;stroke-width:1.0;stroke-dasharray:2.0,2.0;" x1="87.5" x2="343.5" y1="323.3594" y2="323.3594"/><text fill="#000000" font-family="sans-serif" font-size="13" font-weight="bold" lengthAdjust="spacing" textLength="7" x="99.5" y="318.5029">6</text><text fill="#000000" font-family="sans-serif" font-size="13" lengthAdjust="spacing" textLength="227" x="110.5" y="318.5029">shows order list and asks to select one</text><polygon fill="#A80036" points="332.5,349.7109,342.5,353.7109,332.5,357.7109,336.5,353.7109" style="stroke:#A80036;stroke-width:1.0;"/><line style="stroke:#A80036;stroke-width:1.0;" x1="82.5" x2="338.5" y1="353.7109" y2="353.7109"/><text fill="#000000" font-family="sans-serif" font-size="13" font-weight="bold" lengthAdjust="spacing" textLength="7" x="89.5" y="348.8545">7</text><text fill="#000000" font-family="sans-serif" font-size="13" lengthAdjust="spacing" textLength="155" x="100.5" y="348.8545">selects the order to update</text><polygon fill="#A80036" points="944,380.0625,954,384.0625,944,388.0625,948,384.0625" style="stroke:#A80036;stroke-width:1.0;"/><line style="stroke:#A80036;stroke-width:1.0;" x1="513.5" x2="950" y1="384.0625" y2="384.0625"/><text fill="#000000" font-family="sans-serif" font-size="13" font-weight="bold" lengthAdjust="spacing" textLength="7" x="520.5" y="379.2061">8</text><text fill="#000000" font-family="sans-serif" font-size="13" lengthAdjust="spacing" textLength="129" x="531.5" y="379.2061">findOrderByID(orderID)</text><polygon fill="#A80036" points="524.5,410.4141,514.5,414.4141,524.5,418.4141,520.5,414.4141" style="stroke:#A80036;stroke-width:1.0;"/><line style="stroke:#A80036;stroke-width:1.0;" x1="518.5" x2="960" y1="414.4141" y2="414.4141"/><text fill="#000000" font-family="sans-serif" font-size="13" font-weight="bold" lengthAdjust="spacing" textLength="7" x="530.5" y="409.5576">9</text><text fill="#000000" font-family="sans-serif" font-size="13" lengthAdjust="spacing" textLength="29" x="541.5" y="409.5576">order</text><line style="stroke:#A80036;stroke-width:1.0;" x1="513.5" x2="555.5" y1="444.7656" y2="444.7656"/><line style="stroke:#A80036;stroke-width:1.0;" x1="555.5" x2="555.5" y1="444.7656" y2="457.7656"/><line style="stroke:#A80036;stroke-width:1.0;" x1="514.5" x2="555.5" y1="457.7656" y2="457.7656"/><polygon fill="#A80036" points="524.5,453.7656,514.5,457.7656,524.5,461.7656,520.5,457.7656" style="stroke:#A80036;stroke-width:1.0;"/><text fill="#000000" font-family="sans-serif" font-size="13" font-weight="bold" lengthAdjust="spacing" textLength="14" x="520.5" y="439.9092">10</text><text fill="#000000" font-family="sans-serif" font-size="13" lengthAdjust="spacing" textLength="119" x="538.5" y="439.9092">orderUpdate(orderID)</text><polygon fill="#A80036" points="1041,484.1172,1051,488.1172,1041,492.1172,1045,488.1172" style="stroke:#A80036;stroke-width:1.0;"/><line style="stroke:#A80036;stroke-width:1.0;" x1="513.5" x2="1047" y1="488.1172" y2="488.1172"/><text fill="#000000" font-family="sans-serif" font-size="13" font-weight="bold" lengthAdjust="spacing" textLength="14" x="520.5" y="483.2607">11</text><text fill="#000000" font-family="sans-serif" font-size="13" lengthAdjust="spacing" textLength="235" x="538.5" y="483.2607">changeStatus(OrderStatus.DELIVERED)</text><polygon fill="#A80036" points="944,544.4688,954,548.4688,944,552.4688,948,548.4688" style="stroke:#A80036;stroke-width:1.0;"/><line style="stroke:#A80036;stroke-width:1.0;" x1="513.5" x2="950" y1="548.4688" y2="548.4688"/><text fill="#000000" font-family="sans-serif" font-size="13" font-weight="bold" lengthAdjust="spacing" textLength="14" x="520.5" y="543.6123">12</text><text fill="#000000" font-family="sans-serif" font-size="13" lengthAdjust="spacing" textLength="104" x="538.5" y="543.6123">save(orderUpdate)</text><polygon fill="#A80036" points="88.5,604.8203,78.5,608.8203,88.5,612.8203,84.5,608.8203" style="stroke:#A80036;stroke-width:1.0;"/><line style="stroke:#A80036;stroke-width:1.0;stroke-dasharray:2.0,2.0;" x1="82.5" x2="348.5" y1="608.8203" y2="608.8203"/><text fill="#000000" font-family="sans-serif" font-size="13" font-weight="bold" lengthAdjust="spacing" textLength="14" x="94.5" y="603.9639">13</text><text fill="#000000" font-family="sans-serif" font-size="13" lengthAdjust="spacing" textLength="119" x="112.5" y="603.9639">successful operation</text><!--MD5=[3cb51a2e81165e102ecdeb9a1290c747]
@startuml
autonumber
hide footbox

title SD - Update Order

        actor "Warehouse Employee" as wm
		participant ":UpdateOrderUI" as ui
		participant ":UpdateOrderController" as ctrl
		participant ":PersistenceContext" as pc
		participant ":RepositoryFactory" as rf
		database ":OrderRepository" as repoPC
        participant ":Order" as prod
        activate wm

        wm -> ui: Wishes to update an order
        activate ui
		ui->ui:doShow()
        		ui->ctrl:orderUpdate(orderID)
        		activate ctrl

        		ctrl->repoPC:orders = orderRepository.readyOrders()
        		activate repoPC
        		repoPC->ctrl: ordersPrepared()
        		deactivate repoPC
        		ui - -> wm :  shows order list and asks to select one
        		wm -> ui : selects the order to update
        		ctrl -> repoPC: findOrderByID(orderID)
        		activate repoPC
        		repoPC->ctrl: order
        		deactivate repoPC


        		ctrl->ctrl: orderUpdate(orderID)
        		ctrl -> prod : changeStatus(OrderStatus.DELIVERED)
        		activate prod
        		deactivate prod


        		ctrl->repoPC:save(orderUpdate)
        		activate repoPC
        		deactivate repoPC
        		ui - -> wm: successful operation
        		deactivate ctrl
        		deactivate ui
        		deactivate wm




@enduml

PlantUML version 1.2022.0(Tue Jan 11 16:16:42 GMT 2022)
(GPL source distribution)
Java Runtime: OpenJDK Runtime Environment
JVM: OpenJDK 64-Bit Server VM
Default Encoding: Cp1252
Language: pt
Country: PT
--></g></svg>