<?xml version="1.0" encoding="UTF-8" standalone="no"?><svg xmlns="http://www.w3.org/2000/svg" xmlns:xlink="http://www.w3.org/1999/xlink" contentScriptType="application/ecmascript" contentStyleType="text/css" height="539px" preserveAspectRatio="none" style="width:387px;height:539px;background:#FFFFFF;" version="1.1" viewBox="0 0 387 539" width="387px" zoomAndPan="magnify"><defs><filter height="300%" id="f1nsa0af7vy863" width="300%" x="-1" y="-1"><feGaussianBlur result="blurOut" stdDeviation="2.0"/><feColorMatrix in="blurOut" result="blurOut2" type="matrix" values="0 0 0 0 0 0 0 0 0 0 0 0 0 0 0 0 0 0 .4 0"/><feOffset dx="4.0" dy="4.0" in="blurOut2" result="blurOut3"/><feBlend in="SourceGraphic" in2="blurOut3" mode="normal"/></filter></defs><g><!--MD5=[8fd473fd151a2794da4f2c8684676405]
cluster Presentation--><polygon fill="#FFFFFF" filter="url(#f1nsa0af7vy863)" points="37,6,133,6,140,29.6094,185,29.6094,185,120,37,120,37,6" style="stroke:#000000;stroke-width:1.5;"/><line style="stroke:#000000;stroke-width:1.5;" x1="37" x2="140" y1="29.6094" y2="29.6094"/><text fill="#000000" font-family="sans-serif" font-size="14" font-weight="bold" lengthAdjust="spacing" textLength="90" x="41" y="22.5332">Presentation</text><!--MD5=[d64883541e3d62e3241c4d12decf100d]
cluster Application--><polygon fill="#FFFFFF" filter="url(#f1nsa0af7vy863)" points="16,144,100,144,107,167.6094,206,167.6094,206,272,16,272,16,144" style="stroke:#000000;stroke-width:1.5;"/><line style="stroke:#000000;stroke-width:1.5;" x1="16" x2="107" y1="167.6094" y2="167.6094"/><text fill="#000000" font-family="sans-serif" font-size="14" font-weight="bold" lengthAdjust="spacing" textLength="78" x="20" y="160.5332">Application</text><!--MD5=[121a8bf1197281ab89ed693fab589f94]
cluster Domain--><polygon fill="#FFFFFF" filter="url(#f1nsa0af7vy863)" points="30,303,88,303,95,326.6094,164,326.6094,164,532,30,532,30,303" style="stroke:#000000;stroke-width:1.5;"/><line style="stroke:#000000;stroke-width:1.5;" x1="30" x2="95" y1="326.6094" y2="326.6094"/><text fill="#000000" font-family="sans-serif" font-size="14" font-weight="bold" lengthAdjust="spacing" textLength="52" x="34" y="319.5332">Domain</text><!--MD5=[bc6b40dadbf86ab6a0c8405a467a48af]
cluster Persistence--><polygon fill="#FFFFFF" filter="url(#f1nsa0af7vy863)" points="188,296,278,296,285,319.6094,350,319.6094,350,532,188,532,188,296" style="stroke:#000000;stroke-width:1.5;"/><line style="stroke:#000000;stroke-width:1.5;" x1="188" x2="285" y1="319.6094" y2="319.6094"/><text fill="#000000" font-family="sans-serif" font-size="14" font-weight="bold" lengthAdjust="spacing" textLength="84" x="192" y="312.5332">Persistence</text><!--MD5=[5c4f27341de6de4368943288466531e3]
class UpdateOrderUI--><rect codeLine="5" fill="#FEFECE" filter="url(#f1nsa0af7vy863)" height="61.8359" id="UpdateOrderUI" style="stroke:#A80036;stroke-width:1.5;" width="115" x="53.5" y="42"/><ellipse cx="68.5" cy="58" fill="#ADD1B2" rx="11" ry="11" style="stroke:#A80036;stroke-width:1.0;"/><path d="M70.5,54.5 Q70.7031,54 70.9375,53.75 Q71.1719,53.5 71.4375,53.5 Q71.9063,53.5 72.2031,53.7813 Q72.5,54.0625 72.5,54.7188 L72.5,56.2813 Q72.5,56.9375 72.2188,57.2188 Q71.9375,57.5 71.5,57.5 Q71.1094,57.5 70.8594,57.3281 Q70.6094,57.1563 70.5,56.7031 Q70.4531,56.3906 70.2813,56.2188 Q69.9688,55.8906 69.4063,55.7031 Q68.8438,55.5 68.2813,55.5 Q67.5781,55.5 66.9844,55.7813 Q66.4063,56.0625 65.9531,56.6875 Q65.5,57.3125 65.5,58.1719 L65.5,59.0938 Q65.5,60.125 66.3438,60.8125 Q67.1875,61.5 68.6875,61.5 Q69.5781,61.5 70.2031,61.2969 Q70.5625,61.1875 70.9688,60.8281 Q71.2344,60.625 71.375,60.5625 Q71.5156,60.5 71.6875,60.5 Q72.0156,60.5 72.25,60.7656 Q72.5,61.0156 72.5,61.375 Q72.5,61.7188 72.1563,62.125 Q71.6563,62.7188 70.8594,63.0469 Q69.8125,63.5 68.5313,63.5 Q67.0313,63.5 65.8281,62.9063 Q64.8594,62.4375 64.1719,61.4219 Q63.5,60.4063 63.5,59.2031 L63.5,58.1094 Q63.5,56.8594 64.0938,55.7656 Q64.7031,54.6719 65.75,54.0938 Q66.8125,53.5 68,53.5 Q68.7188,53.5 69.3438,53.75 Q69.9688,54 70.5,54.5 Z " fill="#000000"/><text fill="#000000" font-family="sans-serif" font-size="12" lengthAdjust="spacing" textLength="83" x="82.5" y="62.9102">UpdateOrderUI</text><line style="stroke:#A80036;stroke-width:1.5;" x1="54.5" x2="167.5" y1="74" y2="74"/><line style="stroke:#A80036;stroke-width:1.5;" x1="54.5" x2="167.5" y1="82" y2="82"/><text fill="#000000" font-family="sans-serif" font-size="11" lengthAdjust="spacing" textLength="58" x="59.5" y="97.4189">+doShow();</text><!--MD5=[71ecf3b8d628b175ab06da4dfe6a570f]
class UpdateOrderController--><rect codeLine="12" fill="#FEFECE" filter="url(#f1nsa0af7vy863)" height="75.6719" id="UpdateOrderController" style="stroke:#A80036;stroke-width:1.5;" width="157" x="32.5" y="180"/><ellipse cx="47.5" cy="196" fill="#ADD1B2" rx="11" ry="11" style="stroke:#A80036;stroke-width:1.0;"/><path d="M49.5,192.5 Q49.7031,192 49.9375,191.75 Q50.1719,191.5 50.4375,191.5 Q50.9063,191.5 51.2031,191.7813 Q51.5,192.0625 51.5,192.7188 L51.5,194.2813 Q51.5,194.9375 51.2188,195.2188 Q50.9375,195.5 50.5,195.5 Q50.1094,195.5 49.8594,195.3281 Q49.6094,195.1563 49.5,194.7031 Q49.4531,194.3906 49.2813,194.2188 Q48.9688,193.8906 48.4063,193.7031 Q47.8438,193.5 47.2813,193.5 Q46.5781,193.5 45.9844,193.7813 Q45.4063,194.0625 44.9531,194.6875 Q44.5,195.3125 44.5,196.1719 L44.5,197.0938 Q44.5,198.125 45.3438,198.8125 Q46.1875,199.5 47.6875,199.5 Q48.5781,199.5 49.2031,199.2969 Q49.5625,199.1875 49.9688,198.8281 Q50.2344,198.625 50.375,198.5625 Q50.5156,198.5 50.6875,198.5 Q51.0156,198.5 51.25,198.7656 Q51.5,199.0156 51.5,199.375 Q51.5,199.7188 51.1563,200.125 Q50.6563,200.7188 49.8594,201.0469 Q48.8125,201.5 47.5313,201.5 Q46.0313,201.5 44.8281,200.9063 Q43.8594,200.4375 43.1719,199.4219 Q42.5,198.4063 42.5,197.2031 L42.5,196.1094 Q42.5,194.8594 43.0938,193.7656 Q43.7031,192.6719 44.75,192.0938 Q45.8125,191.5 47,191.5 Q47.7188,191.5 48.3438,191.75 Q48.9688,192 49.5,192.5 Z " fill="#000000"/><text fill="#000000" font-family="sans-serif" font-size="12" lengthAdjust="spacing" textLength="125" x="61.5" y="200.9102">UpdateOrderController</text><line style="stroke:#A80036;stroke-width:1.5;" x1="33.5" x2="188.5" y1="212" y2="212"/><line style="stroke:#A80036;stroke-width:1.5;" x1="33.5" x2="188.5" y1="220" y2="220"/><text fill="#000000" font-family="sans-serif" font-size="11" lengthAdjust="spacing" textLength="93" x="38.5" y="235.4189">+ordersPrepared();</text><text fill="#000000" font-family="sans-serif" font-size="11" lengthAdjust="spacing" textLength="112" x="38.5" y="249.2549">+orderUpdate(Long id);</text><!--MD5=[cf4d6237fcae255cd2e1656cf84a30e2]
class Order--><rect codeLine="21" fill="#FEFECE" filter="url(#f1nsa0af7vy863)" height="61.8359" id="Order" style="stroke:#A80036;stroke-width:1.5;" width="91" x="48.5" y="454"/><ellipse cx="76.1" cy="470" fill="#ADD1B2" rx="11" ry="11" style="stroke:#A80036;stroke-width:1.0;"/><path d="M78.1,466.5 Q78.3031,466 78.5375,465.75 Q78.7719,465.5 79.0375,465.5 Q79.5063,465.5 79.8031,465.7813 Q80.1,466.0625 80.1,466.7188 L80.1,468.2813 Q80.1,468.9375 79.8188,469.2188 Q79.5375,469.5 79.1,469.5 Q78.7094,469.5 78.4594,469.3281 Q78.2094,469.1563 78.1,468.7031 Q78.0531,468.3906 77.8813,468.2188 Q77.5688,467.8906 77.0063,467.7031 Q76.4438,467.5 75.8813,467.5 Q75.1781,467.5 74.5844,467.7813 Q74.0063,468.0625 73.5531,468.6875 Q73.1,469.3125 73.1,470.1719 L73.1,471.0938 Q73.1,472.125 73.9438,472.8125 Q74.7875,473.5 76.2875,473.5 Q77.1781,473.5 77.8031,473.2969 Q78.1625,473.1875 78.5688,472.8281 Q78.8344,472.625 78.975,472.5625 Q79.1156,472.5 79.2875,472.5 Q79.6156,472.5 79.85,472.7656 Q80.1,473.0156 80.1,473.375 Q80.1,473.7188 79.7563,474.125 Q79.2563,474.7188 78.4594,475.0469 Q77.4125,475.5 76.1313,475.5 Q74.6313,475.5 73.4281,474.9063 Q72.4594,474.4375 71.7719,473.4219 Q71.1,472.4063 71.1,471.2031 L71.1,470.1094 Q71.1,468.8594 71.6938,467.7656 Q72.3031,466.6719 73.35,466.0938 Q74.4125,465.5 75.6,465.5 Q76.3188,465.5 76.9438,465.75 Q77.5688,466 78.1,466.5 Z " fill="#000000"/><text fill="#000000" font-family="sans-serif" font-size="12" lengthAdjust="spacing" textLength="31" x="92.9" y="474.9102">Order</text><line style="stroke:#A80036;stroke-width:1.5;" x1="49.5" x2="138.5" y1="486" y2="486"/><line style="stroke:#A80036;stroke-width:1.5;" x1="49.5" x2="138.5" y1="494" y2="494"/><text fill="#000000" font-family="sans-serif" font-size="11" lengthAdjust="spacing" textLength="79" x="54.5" y="509.4189">+readyOrders();</text><!--MD5=[80239a474f159a768dcd4df4e04d46d6]
class OrderFactory--><rect codeLine="26" fill="#FEFECE" filter="url(#f1nsa0af7vy863)" height="48" id="OrderFactory" style="stroke:#A80036;stroke-width:1.5;" width="102" x="46" y="339"/><ellipse cx="61" cy="355" fill="#ADD1B2" rx="11" ry="11" style="stroke:#A80036;stroke-width:1.0;"/><path d="M63,351.5 Q63.2031,351 63.4375,350.75 Q63.6719,350.5 63.9375,350.5 Q64.4063,350.5 64.7031,350.7813 Q65,351.0625 65,351.7188 L65,353.2813 Q65,353.9375 64.7188,354.2188 Q64.4375,354.5 64,354.5 Q63.6094,354.5 63.3594,354.3281 Q63.1094,354.1563 63,353.7031 Q62.9531,353.3906 62.7813,353.2188 Q62.4688,352.8906 61.9063,352.7031 Q61.3438,352.5 60.7813,352.5 Q60.0781,352.5 59.4844,352.7813 Q58.9063,353.0625 58.4531,353.6875 Q58,354.3125 58,355.1719 L58,356.0938 Q58,357.125 58.8438,357.8125 Q59.6875,358.5 61.1875,358.5 Q62.0781,358.5 62.7031,358.2969 Q63.0625,358.1875 63.4688,357.8281 Q63.7344,357.625 63.875,357.5625 Q64.0156,357.5 64.1875,357.5 Q64.5156,357.5 64.75,357.7656 Q65,358.0156 65,358.375 Q65,358.7188 64.6563,359.125 Q64.1563,359.7188 63.3594,360.0469 Q62.3125,360.5 61.0313,360.5 Q59.5313,360.5 58.3281,359.9063 Q57.3594,359.4375 56.6719,358.4219 Q56,357.4063 56,356.2031 L56,355.1094 Q56,353.8594 56.5938,352.7656 Q57.2031,351.6719 58.25,351.0938 Q59.3125,350.5 60.5,350.5 Q61.2188,350.5 61.8438,350.75 Q62.4688,351 63,351.5 Z " fill="#000000"/><text fill="#000000" font-family="sans-serif" font-size="12" lengthAdjust="spacing" textLength="70" x="75" y="359.9102">OrderFactory</text><line style="stroke:#A80036;stroke-width:1.5;" x1="47" x2="147" y1="371" y2="371"/><line style="stroke:#A80036;stroke-width:1.5;" x1="47" x2="147" y1="379" y2="379"/><!--MD5=[48590afff58a68e2fcba47824d6f8a11]
class RepositoryFactory--><rect codeLine="34" fill="#FEFECE" filter="url(#f1nsa0af7vy863)" height="61.8359" id="RepositoryFactory" style="stroke:#A80036;stroke-width:1.5;" width="130" x="204" y="332"/><ellipse cx="219" cy="348" fill="#ADD1B2" rx="11" ry="11" style="stroke:#A80036;stroke-width:1.0;"/><path d="M221,344.5 Q221.2031,344 221.4375,343.75 Q221.6719,343.5 221.9375,343.5 Q222.4063,343.5 222.7031,343.7813 Q223,344.0625 223,344.7188 L223,346.2813 Q223,346.9375 222.7188,347.2188 Q222.4375,347.5 222,347.5 Q221.6094,347.5 221.3594,347.3281 Q221.1094,347.1563 221,346.7031 Q220.9531,346.3906 220.7813,346.2188 Q220.4688,345.8906 219.9063,345.7031 Q219.3438,345.5 218.7813,345.5 Q218.0781,345.5 217.4844,345.7813 Q216.9063,346.0625 216.4531,346.6875 Q216,347.3125 216,348.1719 L216,349.0938 Q216,350.125 216.8438,350.8125 Q217.6875,351.5 219.1875,351.5 Q220.0781,351.5 220.7031,351.2969 Q221.0625,351.1875 221.4688,350.8281 Q221.7344,350.625 221.875,350.5625 Q222.0156,350.5 222.1875,350.5 Q222.5156,350.5 222.75,350.7656 Q223,351.0156 223,351.375 Q223,351.7188 222.6563,352.125 Q222.1563,352.7188 221.3594,353.0469 Q220.3125,353.5 219.0313,353.5 Q217.5313,353.5 216.3281,352.9063 Q215.3594,352.4375 214.6719,351.4219 Q214,350.4063 214,349.2031 L214,348.1094 Q214,346.8594 214.5938,345.7656 Q215.2031,344.6719 216.25,344.0938 Q217.3125,343.5 218.5,343.5 Q219.2188,343.5 219.8438,343.75 Q220.4688,344 221,344.5 Z " fill="#000000"/><text fill="#000000" font-family="sans-serif" font-size="12" lengthAdjust="spacing" textLength="98" x="233" y="352.9102">RepositoryFactory</text><line style="stroke:#A80036;stroke-width:1.5;" x1="205" x2="333" y1="364" y2="364"/><line style="stroke:#A80036;stroke-width:1.5;" x1="205" x2="333" y1="372" y2="372"/><text fill="#000000" font-family="sans-serif" font-size="11" lengthAdjust="spacing" textLength="77" x="210" y="387.4189">+orderUpdate();</text><!--MD5=[708e328039b60d50c6285936843ac334]
class OrderRepository--><rect codeLine="39" fill="#FEFECE" filter="url(#f1nsa0af7vy863)" height="61.8359" id="OrderRepository" style="stroke:#A80036;stroke-width:1.5;" width="122" x="210" y="454"/><ellipse cx="225" cy="470" fill="#ADD1B2" rx="11" ry="11" style="stroke:#A80036;stroke-width:1.0;"/><path d="M227,466.5 Q227.2031,466 227.4375,465.75 Q227.6719,465.5 227.9375,465.5 Q228.4063,465.5 228.7031,465.7813 Q229,466.0625 229,466.7188 L229,468.2813 Q229,468.9375 228.7188,469.2188 Q228.4375,469.5 228,469.5 Q227.6094,469.5 227.3594,469.3281 Q227.1094,469.1563 227,468.7031 Q226.9531,468.3906 226.7813,468.2188 Q226.4688,467.8906 225.9063,467.7031 Q225.3438,467.5 224.7813,467.5 Q224.0781,467.5 223.4844,467.7813 Q222.9063,468.0625 222.4531,468.6875 Q222,469.3125 222,470.1719 L222,471.0938 Q222,472.125 222.8438,472.8125 Q223.6875,473.5 225.1875,473.5 Q226.0781,473.5 226.7031,473.2969 Q227.0625,473.1875 227.4688,472.8281 Q227.7344,472.625 227.875,472.5625 Q228.0156,472.5 228.1875,472.5 Q228.5156,472.5 228.75,472.7656 Q229,473.0156 229,473.375 Q229,473.7188 228.6563,474.125 Q228.1563,474.7188 227.3594,475.0469 Q226.3125,475.5 225.0313,475.5 Q223.5313,475.5 222.3281,474.9063 Q221.3594,474.4375 220.6719,473.4219 Q220,472.4063 220,471.2031 L220,470.1094 Q220,468.8594 220.5938,467.7656 Q221.2031,466.6719 222.25,466.0938 Q223.3125,465.5 224.5,465.5 Q225.2188,465.5 225.8438,465.75 Q226.4688,466 227,466.5 Z " fill="#000000"/><text fill="#000000" font-family="sans-serif" font-size="12" lengthAdjust="spacing" textLength="90" x="239" y="474.9102">OrderRepository</text><line style="stroke:#A80036;stroke-width:1.5;" x1="211" x2="331" y1="486" y2="486"/><line style="stroke:#A80036;stroke-width:1.5;" x1="211" x2="331" y1="494" y2="494"/><text fill="#000000" font-family="sans-serif" font-size="11" lengthAdjust="spacing" textLength="98" x="216" y="509.4189">+save(orderUpdate)</text><!--MD5=[4441484996d01258805a3ab8383c5c85]
link UpdateOrderUI to UpdateOrderController--><path codeLine="46" d="M111,104.33 C111,124.83 111,152.19 111,174.81 " fill="none" id="UpdateOrderUI-to-UpdateOrderController" style="stroke:#A80036;stroke-width:1.0;stroke-dasharray:7.0,7.0;"/><polygon fill="#A80036" points="111,179.85,115,170.85,111,174.85,107,170.85,111,179.85" style="stroke:#A80036;stroke-width:1.0;"/><!--MD5=[eaea0e8884a5693c1c9de56739019e0d]
link UpdateOrderController to Order--><path codeLine="47" d="M53.16,256.26 C43.36,265.38 34.57,276.02 29,288 C9.12,330.71 14.51,349.17 29,394 C35.61,414.46 48.81,434.17 61.59,449.91 " fill="none" id="UpdateOrderController-to-Order" style="stroke:#A80036;stroke-width:1.0;stroke-dasharray:7.0,7.0;"/><polygon fill="#A80036" points="64.82,453.83,62.1728,444.3436,61.636,449.9749,56.0046,449.438,64.82,453.83" style="stroke:#A80036;stroke-width:1.0;"/><!--MD5=[8f07c30b5283adb007b0500c2bc0f3cd]
link UpdateOrderController to OrderRepository--><path codeLine="48" d="M189.7,231.12 C252.19,242.53 332.25,261.81 352,288 C380.36,325.62 368.88,350.02 352,394 C343.81,415.35 327.95,434.81 312.42,450.12 " fill="none" id="UpdateOrderController-to-OrderRepository" style="stroke:#A80036;stroke-width:1.0;stroke-dasharray:7.0,7.0;"/><polygon fill="#A80036" points="308.49,453.93,317.7451,450.5622,312.0892,450.4593,312.1921,444.8034,308.49,453.93" style="stroke:#A80036;stroke-width:1.0;"/><!--MD5=[565b0d0ab24f446fb68a25d678557bc0]
link UpdateOrderController to RepositoryFactory--><path codeLine="49" d="M152.1,256.2 C176.84,278.59 208.07,306.85 232.03,328.54 " fill="none" id="UpdateOrderController-to-RepositoryFactory" style="stroke:#A80036;stroke-width:1.0;stroke-dasharray:7.0,7.0;"/><polygon fill="#A80036" points="235.81,331.96,231.8135,322.9585,232.0999,328.6081,226.4504,328.8946,235.81,331.96" style="stroke:#A80036;stroke-width:1.0;"/><!--MD5=[1541323312f5fb14d0f212597f8299a9]
link UpdateOrderController to OrderFactory--><path codeLine="50" d="M107.36,256.2 C104.99,280.41 101.94,311.49 99.77,333.69 " fill="none" id="UpdateOrderController-to-OrderFactory" style="stroke:#A80036;stroke-width:1.0;stroke-dasharray:7.0,7.0;"/><polygon fill="#A80036" points="99.27,338.85,104.1238,330.2803,99.7548,333.8736,96.1615,329.5046,99.27,338.85" style="stroke:#A80036;stroke-width:1.0;"/><!--MD5=[4961dc0a1f38b4bb8bde6c7779428d74]
link RepositoryFactory to OrderRepository--><path codeLine="51" d="M269.5,394.28 C269.78,410.77 270.12,431.26 270.41,448.49 " fill="none" id="RepositoryFactory-to-OrderRepository" style="stroke:#A80036;stroke-width:1.0;stroke-dasharray:7.0,7.0;"/><polygon fill="#A80036" points="270.5,453.73,274.3451,444.6628,270.4143,448.7307,266.3463,444.7999,270.5,453.73" style="stroke:#A80036;stroke-width:1.0;"/><!--MD5=[f72047070bee124741d6651ababda3fc]
link OrderFactory to Order--><path codeLine="52" d="M96.42,387.14 C95.99,404.52 95.38,428.64 94.89,448.46 " fill="none" id="OrderFactory-to-Order" style="stroke:#A80036;stroke-width:1.0;stroke-dasharray:7.0,7.0;"/><polygon fill="#A80036" points="94.76,453.66,98.99,444.7658,94.8885,448.6617,90.9927,444.5602,94.76,453.66" style="stroke:#A80036;stroke-width:1.0;"/><!--MD5=[029550b45633668e13bc928ef3a3d18e]
@startuml
skinparam classAttributeIconSize 0


Package Presentation{
class UpdateOrderUI {
+doShow();
}
}

Package Application{

class UpdateOrderController {
+ordersPrepared();
+orderUpdate(Long id);

}
}

Package Domain{

class Order {
+readyOrders();

}

class OrderFactory{
}


}


Package Persistence{
class RepositoryFactory{
+orderUpdate();

}

class OrderRepository{
+save(orderUpdate)
}


}

UpdateOrderUI ..> UpdateOrderController
UpdateOrderController ..> Order
UpdateOrderController ..> OrderRepository
UpdateOrderController ..> RepositoryFactory
UpdateOrderController ..> OrderFactory
RepositoryFactory ..> OrderRepository
OrderFactory..> Order


@enduml

PlantUML version 1.2022.0(Tue Jan 11 16:16:42 GMT 2022)
(GPL source distribution)
Java Runtime: OpenJDK Runtime Environment
JVM: OpenJDK 64-Bit Server VM
Default Encoding: Cp1252
Language: pt
Country: PT
--></g></svg>