<?xml version="1.0" encoding="UTF-8" standalone="no"?><svg xmlns="http://www.w3.org/2000/svg" xmlns:xlink="http://www.w3.org/1999/xlink" contentScriptType="application/ecmascript" contentStyleType="text/css" height="621px" preserveAspectRatio="none" style="width:1447px;height:621px;background:#FFFFFF;" version="1.1" viewBox="0 0 1447 621" width="1447px" zoomAndPan="magnify"><defs><filter height="300%" id="fv5cylqa1fd4l" width="300%" x="-1" y="-1"><feGaussianBlur result="blurOut" stdDeviation="2.0"/><feColorMatrix in="blurOut" result="blurOut2" type="matrix" values="0 0 0 0 0 0 0 0 0 0 0 0 0 0 0 0 0 0 .4 0"/><feOffset dx="4.0" dy="4.0" in="blurOut2" result="blurOut3"/><feBlend in="SourceGraphic" in2="blurOut3" mode="normal"/></filter></defs><g><rect fill="#FFFFFF" filter="url(#fv5cylqa1fd4l)" height="416.9219" style="stroke:#A80036;stroke-width:1.0;" width="10" x="37" y="99.6094"/><rect fill="#FFFFFF" filter="url(#fv5cylqa1fd4l)" height="30.3516" style="stroke:#A80036;stroke-width:1.0;" width="10" x="439" y="121.9609"/><rect fill="#FFFFFF" filter="url(#fv5cylqa1fd4l)" height="333.8672" style="stroke:#A80036;stroke-width:1.0;" width="10" x="439" y="182.6641"/><rect fill="#FFFFFF" filter="url(#fv5cylqa1fd4l)" height="312.5156" style="stroke:#A80036;stroke-width:1.0;" width="10" x="760" y="213.0156"/><rect fill="#FFFFFF" filter="url(#fv5cylqa1fd4l)" height="60.7031" style="stroke:#A80036;stroke-width:1.0;" width="10" x="932" y="243.3672"/><rect fill="#FFFFFF" filter="url(#fv5cylqa1fd4l)" height="60.7031" style="stroke:#A80036;stroke-width:1.0;" width="10" x="1079" y="334.4219"/><line style="stroke:#A80036;stroke-width:1.0;stroke-dasharray:5.0,5.0;" x1="42" x2="42" y1="89.6094" y2="534.5313"/><line style="stroke:#A80036;stroke-width:1.0;stroke-dasharray:5.0,5.0;" x1="444" x2="444" y1="89.6094" y2="534.5313"/><line style="stroke:#A80036;stroke-width:1.0;stroke-dasharray:5.0,5.0;" x1="765" x2="765" y1="89.6094" y2="534.5313"/><line style="stroke:#A80036;stroke-width:1.0;stroke-dasharray:5.0,5.0;" x1="937" x2="937" y1="89.6094" y2="534.5313"/><line style="stroke:#A80036;stroke-width:1.0;stroke-dasharray:5.0,5.0;" x1="1084" x2="1084" y1="89.6094" y2="534.5313"/><line style="stroke:#A80036;stroke-width:1.0;stroke-dasharray:5.0,5.0;" x1="1232" x2="1232" y1="89.6094" y2="534.5313"/><line style="stroke:#A80036;stroke-width:1.0;stroke-dasharray:5.0,5.0;" x1="1380" x2="1380" y1="89.6094" y2="534.5313"/><text fill="#000000" font-family="sans-serif" font-size="14" lengthAdjust="spacing" textLength="68" x="5" y="86.5332">SalesClerk</text><ellipse cx="42" cy="15" fill="#FEFECE" filter="url(#fv5cylqa1fd4l)" rx="8" ry="8" style="stroke:#A80036;stroke-width:2.0;"/><path d="M42,23 L42,50 M29,31 L55,31 M42,50 L29,65 M42,50 L55,65 " fill="none" filter="url(#fv5cylqa1fd4l)" style="stroke:#A80036;stroke-width:2.0;"/><text fill="#000000" font-family="sans-serif" font-size="14" lengthAdjust="spacing" textLength="68" x="5" y="548.0645">SalesClerk</text><ellipse cx="42" cy="561.1406" fill="#FEFECE" filter="url(#fv5cylqa1fd4l)" rx="8" ry="8" style="stroke:#A80036;stroke-width:2.0;"/><path d="M42,569.1406 L42,596.1406 M29,577.1406 L55,577.1406 M42,596.1406 L29,611.1406 M42,596.1406 L55,611.1406 " fill="none" filter="url(#fv5cylqa1fd4l)" style="stroke:#A80036;stroke-width:2.0;"/><rect fill="#FEFECE" filter="url(#fv5cylqa1fd4l)" height="49.2188" style="stroke:#A80036;stroke-width:1.5;" width="130" x="377" y="35.3906"/><text fill="#000000" font-family="sans-serif" font-size="14" font-style="italic" lengthAdjust="spacing" textLength="95" x="394.5" y="56.9238">«presentation»</text><text fill="#000000" font-family="sans-serif" font-size="14" lengthAdjust="spacing" textLength="116" x="384" y="74.5332">SpecifyCategoryUI</text><rect fill="#FEFECE" filter="url(#fv5cylqa1fd4l)" height="49.2188" style="stroke:#A80036;stroke-width:1.5;" width="130" x="377" y="533.5313"/><text fill="#000000" font-family="sans-serif" font-size="14" font-style="italic" lengthAdjust="spacing" textLength="95" x="394.5" y="555.0645">«presentation»</text><text fill="#000000" font-family="sans-serif" font-size="14" lengthAdjust="spacing" textLength="116" x="384" y="572.6738">SpecifyCategoryUI</text><rect fill="#FEFECE" filter="url(#fv5cylqa1fd4l)" height="49.2188" style="stroke:#A80036;stroke-width:1.5;" width="180" x="673" y="35.3906"/><text fill="#000000" font-family="sans-serif" font-size="14" font-style="italic" lengthAdjust="spacing" textLength="84" x="721" y="56.9238">«application»</text><text fill="#000000" font-family="sans-serif" font-size="14" lengthAdjust="spacing" textLength="166" x="680" y="74.5332">SpeficyCategoryController</text><rect fill="#FEFECE" filter="url(#fv5cylqa1fd4l)" height="49.2188" style="stroke:#A80036;stroke-width:1.5;" width="180" x="673" y="533.5313"/><text fill="#000000" font-family="sans-serif" font-size="14" font-style="italic" lengthAdjust="spacing" textLength="84" x="721" y="555.0645">«application»</text><text fill="#000000" font-family="sans-serif" font-size="14" lengthAdjust="spacing" textLength="166" x="680" y="572.6738">SpeficyCategoryController</text><rect fill="#FEFECE" filter="url(#fv5cylqa1fd4l)" height="49.2188" style="stroke:#A80036;stroke-width:1.5;" width="136" x="867" y="35.3906"/><text fill="#000000" font-family="sans-serif" font-size="14" font-style="italic" lengthAdjust="spacing" textLength="89" x="890.5" y="56.9238">«persistence»</text><text fill="#000000" font-family="sans-serif" font-size="14" lengthAdjust="spacing" textLength="122" x="874" y="74.5332">PersistenceContext</text><rect fill="#FEFECE" filter="url(#fv5cylqa1fd4l)" height="49.2188" style="stroke:#A80036;stroke-width:1.5;" width="136" x="867" y="533.5313"/><text fill="#000000" font-family="sans-serif" font-size="14" font-style="italic" lengthAdjust="spacing" textLength="89" x="890.5" y="555.0645">«persistence»</text><text fill="#000000" font-family="sans-serif" font-size="14" lengthAdjust="spacing" textLength="122" x="874" y="572.6738">PersistenceContext</text><rect fill="#FEFECE" filter="url(#fv5cylqa1fd4l)" height="49.2188" style="stroke:#A80036;stroke-width:1.5;" width="130" x="1017" y="35.3906"/><text fill="#000000" font-family="sans-serif" font-size="14" font-style="italic" lengthAdjust="spacing" textLength="59" x="1052.5" y="56.9238">«factory»</text><text fill="#000000" font-family="sans-serif" font-size="14" lengthAdjust="spacing" textLength="116" x="1024" y="74.5332">RepositoryFactory</text><rect fill="#FEFECE" filter="url(#fv5cylqa1fd4l)" height="49.2188" style="stroke:#A80036;stroke-width:1.5;" width="130" x="1017" y="533.5313"/><text fill="#000000" font-family="sans-serif" font-size="14" font-style="italic" lengthAdjust="spacing" textLength="59" x="1052.5" y="555.0645">«factory»</text><text fill="#000000" font-family="sans-serif" font-size="14" lengthAdjust="spacing" textLength="116" x="1024" y="572.6738">RepositoryFactory</text><rect fill="#FEFECE" filter="url(#fv5cylqa1fd4l)" height="49.2188" style="stroke:#A80036;stroke-width:1.5;" width="139" x="1161" y="35.3906"/><text fill="#000000" font-family="sans-serif" font-size="14" font-style="italic" lengthAdjust="spacing" textLength="62" x="1199.5" y="56.9238">«domain»</text><text fill="#000000" font-family="sans-serif" font-size="14" lengthAdjust="spacing" textLength="125" x="1168" y="74.5332">category : Category</text><rect fill="#FEFECE" filter="url(#fv5cylqa1fd4l)" height="49.2188" style="stroke:#A80036;stroke-width:1.5;" width="139" x="1161" y="533.5313"/><text fill="#000000" font-family="sans-serif" font-size="14" font-style="italic" lengthAdjust="spacing" textLength="62" x="1199.5" y="555.0645">«domain»</text><text fill="#000000" font-family="sans-serif" font-size="14" lengthAdjust="spacing" textLength="125" x="1168" y="572.6738">category : Category</text><text fill="#000000" font-family="sans-serif" font-size="14" font-style="italic" lengthAdjust="spacing" textLength="79" x="1337.5" y="68.9238">«repository»</text><text fill="#000000" font-family="sans-serif" font-size="14" lengthAdjust="spacing" textLength="126" x="1314" y="86.5332">CategoryRepository</text><path d="M1362,18.3906 C1362,8.3906 1380,8.3906 1380,8.3906 C1380,8.3906 1398,8.3906 1398,18.3906 L1398,44.3906 C1398,54.3906 1380,54.3906 1380,54.3906 C1380,54.3906 1362,54.3906 1362,44.3906 L1362,18.3906 " fill="#FEFECE" filter="url(#fv5cylqa1fd4l)" style="stroke:#000000;stroke-width:1.5;"/><path d="M1362,18.3906 C1362,28.3906 1380,28.3906 1380,28.3906 C1380,28.3906 1398,28.3906 1398,18.3906 " fill="none" style="stroke:#000000;stroke-width:1.5;"/><text fill="#000000" font-family="sans-serif" font-size="14" font-style="italic" lengthAdjust="spacing" textLength="79" x="1337.5" y="548.0645">«repository»</text><text fill="#000000" font-family="sans-serif" font-size="14" lengthAdjust="spacing" textLength="126" x="1314" y="565.6738">CategoryRepository</text><path d="M1362,578.75 C1362,568.75 1380,568.75 1380,568.75 C1380,568.75 1398,568.75 1398,578.75 L1398,604.75 C1398,614.75 1380,614.75 1380,614.75 C1380,614.75 1362,614.75 1362,604.75 L1362,578.75 " fill="#FEFECE" filter="url(#fv5cylqa1fd4l)" style="stroke:#000000;stroke-width:1.5;"/><path d="M1362,578.75 C1362,588.75 1380,588.75 1380,588.75 C1380,588.75 1398,588.75 1398,578.75 " fill="none" style="stroke:#000000;stroke-width:1.5;"/><rect fill="#FFFFFF" filter="url(#fv5cylqa1fd4l)" height="416.9219" style="stroke:#A80036;stroke-width:1.0;" width="10" x="37" y="99.6094"/><rect fill="#FFFFFF" filter="url(#fv5cylqa1fd4l)" height="30.3516" style="stroke:#A80036;stroke-width:1.0;" width="10" x="439" y="121.9609"/><rect fill="#FFFFFF" filter="url(#fv5cylqa1fd4l)" height="333.8672" style="stroke:#A80036;stroke-width:1.0;" width="10" x="439" y="182.6641"/><rect fill="#FFFFFF" filter="url(#fv5cylqa1fd4l)" height="312.5156" style="stroke:#A80036;stroke-width:1.0;" width="10" x="760" y="213.0156"/><rect fill="#FFFFFF" filter="url(#fv5cylqa1fd4l)" height="60.7031" style="stroke:#A80036;stroke-width:1.0;" width="10" x="932" y="243.3672"/><rect fill="#FFFFFF" filter="url(#fv5cylqa1fd4l)" height="60.7031" style="stroke:#A80036;stroke-width:1.0;" width="10" x="1079" y="334.4219"/><polygon fill="#A80036" points="427,117.9609,437,121.9609,427,125.9609,431,121.9609" style="stroke:#A80036;stroke-width:1.0;"/><line style="stroke:#A80036;stroke-width:1.0;" x1="47" x2="433" y1="121.9609" y2="121.9609"/><text fill="#000000" font-family="sans-serif" font-size="13" font-weight="bold" lengthAdjust="spacing" textLength="7" x="54" y="117.1045">1</text><text fill="#000000" font-family="sans-serif" font-size="13" lengthAdjust="spacing" textLength="258" x="65" y="117.1045">inicia a especificação de uma nova categoria</text><polygon fill="#A80036" points="58,148.3125,48,152.3125,58,156.3125,54,152.3125" style="stroke:#A80036;stroke-width:1.0;"/><line style="stroke:#A80036;stroke-width:1.0;stroke-dasharray:2.0,2.0;" x1="52" x2="443" y1="152.3125" y2="152.3125"/><text fill="#000000" font-family="sans-serif" font-size="13" font-weight="bold" lengthAdjust="spacing" textLength="7" x="64" y="147.4561">2</text><text fill="#000000" font-family="sans-serif" font-size="13" lengthAdjust="spacing" textLength="328" x="75" y="147.4561">solicita o código alfanumérico e a descrição da categoria</text><polygon fill="#A80036" points="427,178.6641,437,182.6641,427,186.6641,431,182.6641" style="stroke:#A80036;stroke-width:1.0;"/><line style="stroke:#A80036;stroke-width:1.0;" x1="47" x2="433" y1="182.6641" y2="182.6641"/><text fill="#000000" font-family="sans-serif" font-size="13" font-weight="bold" lengthAdjust="spacing" textLength="7" x="54" y="177.8076">3</text><text fill="#000000" font-family="sans-serif" font-size="13" lengthAdjust="spacing" textLength="117" x="65" y="177.8076">submete informação</text><polygon fill="#A80036" points="748,209.0156,758,213.0156,748,217.0156,752,213.0156" style="stroke:#A80036;stroke-width:1.0;"/><line style="stroke:#A80036;stroke-width:1.0;" x1="449" x2="754" y1="213.0156" y2="213.0156"/><text fill="#000000" font-family="sans-serif" font-size="13" font-weight="bold" lengthAdjust="spacing" textLength="7" x="456" y="208.1592">4</text><text fill="#000000" font-family="sans-serif" font-size="13" lengthAdjust="spacing" textLength="281" x="467" y="208.1592">specifyCategory(alphaNumericCode,description);</text><polygon fill="#A80036" points="920,239.3672,930,243.3672,920,247.3672,924,243.3672" style="stroke:#A80036;stroke-width:1.0;"/><line style="stroke:#A80036;stroke-width:1.0;" x1="770" x2="926" y1="243.3672" y2="243.3672"/><text fill="#000000" font-family="sans-serif" font-size="13" font-weight="bold" lengthAdjust="spacing" textLength="7" x="777" y="238.5107">5</text><text fill="#000000" font-family="sans-serif" font-size="13" lengthAdjust="spacing" textLength="75" x="788" y="238.5107">repositories()</text><polygon fill="#A80036" points="1072,269.7188,1082,273.7188,1072,277.7188,1076,273.7188" style="stroke:#A80036;stroke-width:1.0;"/><line style="stroke:#A80036;stroke-width:1.0;" x1="942" x2="1078" y1="273.7188" y2="273.7188"/><text fill="#000000" font-family="sans-serif" font-size="13" font-weight="bold" lengthAdjust="spacing" textLength="7" x="949" y="268.8623">6</text><text fill="#000000" font-family="sans-serif" font-size="13" lengthAdjust="spacing" textLength="36" x="960" y="268.8623">create</text><polygon fill="#A80036" points="781,300.0703,771,304.0703,781,308.0703,777,304.0703" style="stroke:#A80036;stroke-width:1.0;"/><line style="stroke:#A80036;stroke-width:1.0;stroke-dasharray:2.0,2.0;" x1="775" x2="936" y1="304.0703" y2="304.0703"/><text fill="#000000" font-family="sans-serif" font-size="13" font-weight="bold" lengthAdjust="spacing" textLength="7" x="787" y="299.2139">7</text><text fill="#000000" font-family="sans-serif" font-size="13" lengthAdjust="spacing" textLength="39" x="798" y="299.2139">factory</text><polygon fill="#A80036" points="1067,330.4219,1077,334.4219,1067,338.4219,1071,334.4219" style="stroke:#A80036;stroke-width:1.0;"/><line style="stroke:#A80036;stroke-width:1.0;" x1="770" x2="1073" y1="334.4219" y2="334.4219"/><text fill="#000000" font-family="sans-serif" font-size="13" font-weight="bold" lengthAdjust="spacing" textLength="7" x="777" y="329.5654">8</text><text fill="#000000" font-family="sans-serif" font-size="13" lengthAdjust="spacing" textLength="68" x="788" y="329.5654">categories()</text><polygon fill="#A80036" points="1368,360.7734,1378,364.7734,1368,368.7734,1372,364.7734" style="stroke:#A80036;stroke-width:1.0;"/><line style="stroke:#A80036;stroke-width:1.0;" x1="1089" x2="1374" y1="364.7734" y2="364.7734"/><text fill="#000000" font-family="sans-serif" font-size="13" font-weight="bold" lengthAdjust="spacing" textLength="7" x="1096" y="359.917">9</text><text fill="#000000" font-family="sans-serif" font-size="13" lengthAdjust="spacing" textLength="36" x="1107" y="359.917">create</text><polygon fill="#A80036" points="781,391.125,771,395.125,781,399.125,777,395.125" style="stroke:#A80036;stroke-width:1.0;"/><line style="stroke:#A80036;stroke-width:1.0;stroke-dasharray:2.0,2.0;" x1="775" x2="1083" y1="395.125" y2="395.125"/><text fill="#000000" font-family="sans-serif" font-size="13" font-weight="bold" lengthAdjust="spacing" textLength="14" x="787" y="390.2686">10</text><text fill="#000000" font-family="sans-serif" font-size="13" lengthAdjust="spacing" textLength="112" x="805" y="390.2686">categoryRepository</text><polygon fill="#A80036" points="1220.5,421.4766,1230.5,425.4766,1220.5,429.4766,1224.5,425.4766" style="stroke:#A80036;stroke-width:1.0;"/><line style="stroke:#A80036;stroke-width:1.0;" x1="770" x2="1226.5" y1="425.4766" y2="425.4766"/><text fill="#000000" font-family="sans-serif" font-size="13" font-weight="bold" lengthAdjust="spacing" textLength="14" x="777" y="420.6201">11</text><text fill="#000000" font-family="sans-serif" font-size="13" lengthAdjust="spacing" textLength="281" x="795" y="420.6201">specifyCategory(alphaNumericCode,description);</text><polygon fill="#A80036" points="1368,451.8281,1378,455.8281,1368,459.8281,1372,455.8281" style="stroke:#A80036;stroke-width:1.0;"/><line style="stroke:#A80036;stroke-width:1.0;" x1="770" x2="1374" y1="455.8281" y2="455.8281"/><text fill="#000000" font-family="sans-serif" font-size="13" font-weight="bold" lengthAdjust="spacing" textLength="14" x="777" y="450.9717">12</text><text fill="#000000" font-family="sans-serif" font-size="13" lengthAdjust="spacing" textLength="90" x="795" y="450.9717">save(Category);</text><polygon fill="#A80036" points="460,482.1797,450,486.1797,460,490.1797,456,486.1797" style="stroke:#A80036;stroke-width:1.0;"/><line style="stroke:#A80036;stroke-width:1.0;" x1="454" x2="759" y1="486.1797" y2="486.1797"/><text fill="#000000" font-family="sans-serif" font-size="13" font-weight="bold" lengthAdjust="spacing" textLength="14" x="466" y="481.3232">13</text><text fill="#000000" font-family="sans-serif" font-size="13" lengthAdjust="spacing" textLength="50" x="484" y="481.3232">category</text><polygon fill="#A80036" points="53,512.5313,43,516.5313,53,520.5313,49,516.5313" style="stroke:#A80036;stroke-width:1.0;"/><line style="stroke:#A80036;stroke-width:1.0;stroke-dasharray:2.0,2.0;" x1="47" x2="443" y1="516.5313" y2="516.5313"/><text fill="#000000" font-family="sans-serif" font-size="13" font-weight="bold" lengthAdjust="spacing" textLength="14" x="59" y="511.6748">14</text><text fill="#000000" font-family="sans-serif" font-size="13" lengthAdjust="spacing" textLength="350" x="77" y="511.6748">informa do sucesso da operação e mostra a categoria criada</text><!--MD5=[bfb0929948eebbcad41d217cf9cf4d4f]
@startuml
autonumber
actor "SalesClerk" as SC
participant "SpecifyCategoryUI" as UI <<presentation>>
participant "SpeficyCategoryController" as CTRL <<application>>
participant PersistenceContext as PER <<persistence>>
participant "RepositoryFactory" as REPOFACT <<factory>>
participant "category : Category" as CUST <<domain>>
database "CategoryRepository" as custREPO <<repository>>



activate SC
SC -> UI : inicia a especificação de uma nova categoria
activate UI
UI - -> SC : solicita o código alfanumérico e a descrição da categoria
deactivate UI
SC -> UI : submete informação
activate UI
UI -> CTRL : specifyCategory(alphaNumericCode,description);
activate CTRL
CTRL -> PER : repositories()
activate PER
PER -> REPOFACT : create
PER - -> CTRL : factory
deactivate PER
CTRL -> REPOFACT : categories()
activate REPOFACT
REPOFACT -> custREPO : create
REPOFACT - -> CTRL : categoryRepository
deactivate REPOFACT
CTRL -> CUST : specifyCategory(alphaNumericCode,description);
CTRL -> custREPO: save(Category);
CTRL -> UI : category
UI - -> SC : informa do sucesso da operação e mostra a categoria criada
deactivate UI
deactivate SC

@enduml

PlantUML version 1.2021.11(Sat Oct 02 14:26:11 BST 2021)
(GPL source distribution)
Java Runtime: OpenJDK Runtime Environment
JVM: OpenJDK 64-Bit Server VM
Default Encoding: Cp1252
Language: pt
Country: PT
--></g></svg>