<?xml version="1.0" encoding="UTF-8" standalone="no"?><svg xmlns="http://www.w3.org/2000/svg" xmlns:xlink="http://www.w3.org/1999/xlink" contentScriptType="application/ecmascript" contentStyleType="text/css" height="316px" preserveAspectRatio="none" style="width:334px;height:316px;background:#FFFFFF;" version="1.1" viewBox="0 0 334 316" width="334px" zoomAndPan="magnify"><defs><filter height="300%" id="fr2q5y3p1b5cu" width="300%" x="-1" y="-1"><feGaussianBlur result="blurOut" stdDeviation="2.0"/><feColorMatrix in="blurOut" result="blurOut2" type="matrix" values="0 0 0 0 0 0 0 0 0 0 0 0 0 0 0 0 0 0 .4 0"/><feOffset dx="4.0" dy="4.0" in="blurOut2" result="blurOut3"/><feBlend in="SourceGraphic" in2="blurOut3" mode="normal"/></filter></defs><g><rect fill="#FFFFFF" filter="url(#fr2q5y3p1b5cu)" height="113.4063" style="stroke:#A80036;stroke-width:1.0;" width="10" x="33.5" y="99.6094"/><rect fill="#FFFFFF" filter="url(#fr2q5y3p1b5cu)" height="30.3516" style="stroke:#A80036;stroke-width:1.0;" width="10" x="285.5" y="121.9609"/><rect fill="#FFFFFF" filter="url(#fr2q5y3p1b5cu)" height="30.3516" style="stroke:#A80036;stroke-width:1.0;" width="10" x="285.5" y="182.6641"/><line style="stroke:#A80036;stroke-width:1.0;stroke-dasharray:5.0,5.0;" x1="38" x2="38" y1="89.6094" y2="231.0156"/><line style="stroke:#A80036;stroke-width:1.0;stroke-dasharray:5.0,5.0;" x1="290.5" x2="290.5" y1="89.6094" y2="231.0156"/><text fill="#000000" font-family="sans-serif" font-size="14" lengthAdjust="spacing" textLength="61" x="5" y="86.5332">Customer</text><ellipse cx="38.5" cy="15" fill="#FEFECE" filter="url(#fr2q5y3p1b5cu)" rx="8" ry="8" style="stroke:#A80036;stroke-width:2.0;"/><path d="M38.5,23 L38.5,50 M25.5,31 L51.5,31 M38.5,50 L25.5,65 M38.5,50 L51.5,65 " fill="none" filter="url(#fr2q5y3p1b5cu)" style="stroke:#A80036;stroke-width:2.0;"/><text fill="#000000" font-family="sans-serif" font-size="14" lengthAdjust="spacing" textLength="61" x="5" y="244.5488">Customer</text><ellipse cx="38.5" cy="257.625" fill="#FEFECE" filter="url(#fr2q5y3p1b5cu)" rx="8" ry="8" style="stroke:#A80036;stroke-width:2.0;"/><path d="M38.5,265.625 L38.5,292.625 M25.5,273.625 L51.5,273.625 M38.5,292.625 L25.5,307.625 M38.5,292.625 L51.5,307.625 " fill="none" filter="url(#fr2q5y3p1b5cu)" style="stroke:#A80036;stroke-width:2.0;"/><rect fill="#FEFECE" filter="url(#fr2q5y3p1b5cu)" height="31.6094" style="stroke:#A80036;stroke-width:1.5;" width="64" x="256.5" y="53"/><text fill="#000000" font-family="sans-serif" font-size="14" lengthAdjust="spacing" textLength="50" x="263.5" y="74.5332">:System</text><rect fill="#FEFECE" filter="url(#fr2q5y3p1b5cu)" height="31.6094" style="stroke:#A80036;stroke-width:1.5;" width="64" x="256.5" y="230.0156"/><text fill="#000000" font-family="sans-serif" font-size="14" lengthAdjust="spacing" textLength="50" x="263.5" y="251.5488">:System</text><rect fill="#FFFFFF" filter="url(#fr2q5y3p1b5cu)" height="113.4063" style="stroke:#A80036;stroke-width:1.0;" width="10" x="33.5" y="99.6094"/><rect fill="#FFFFFF" filter="url(#fr2q5y3p1b5cu)" height="30.3516" style="stroke:#A80036;stroke-width:1.0;" width="10" x="285.5" y="121.9609"/><rect fill="#FFFFFF" filter="url(#fr2q5y3p1b5cu)" height="30.3516" style="stroke:#A80036;stroke-width:1.0;" width="10" x="285.5" y="182.6641"/><polygon fill="#A80036" points="273.5,117.9609,283.5,121.9609,273.5,125.9609,277.5,121.9609" style="stroke:#A80036;stroke-width:1.0;"/><line style="stroke:#A80036;stroke-width:1.0;" x1="43.5" x2="279.5" y1="121.9609" y2="121.9609"/><text fill="#000000" font-family="sans-serif" font-size="13" font-weight="bold" lengthAdjust="spacing" textLength="7" x="50.5" y="117.1045">1</text><text fill="#000000" font-family="sans-serif" font-size="13" lengthAdjust="spacing" textLength="140" x="61.5" y="117.1045">Starts the CustomerApp</text><polygon fill="#A80036" points="54.5,148.3125,44.5,152.3125,54.5,156.3125,50.5,152.3125" style="stroke:#A80036;stroke-width:1.0;"/><line style="stroke:#A80036;stroke-width:1.0;stroke-dasharray:2.0,2.0;" x1="48.5" x2="289.5" y1="152.3125" y2="152.3125"/><text fill="#000000" font-family="sans-serif" font-size="13" font-weight="bold" lengthAdjust="spacing" textLength="7" x="60.5" y="147.4561">2</text><text fill="#000000" font-family="sans-serif" font-size="13" lengthAdjust="spacing" textLength="175" x="71.5" y="147.4561">Asks for Customer credentials</text><polygon fill="#A80036" points="273.5,178.6641,283.5,182.6641,273.5,186.6641,277.5,182.6641" style="stroke:#A80036;stroke-width:1.0;"/><line style="stroke:#A80036;stroke-width:1.0;" x1="43.5" x2="279.5" y1="182.6641" y2="182.6641"/><text fill="#000000" font-family="sans-serif" font-size="13" font-weight="bold" lengthAdjust="spacing" textLength="7" x="50.5" y="177.8076">3</text><text fill="#000000" font-family="sans-serif" font-size="13" lengthAdjust="spacing" textLength="159" x="61.5" y="177.8076">Gives Customer credentials</text><polygon fill="#A80036" points="49.5,209.0156,39.5,213.0156,49.5,217.0156,45.5,213.0156" style="stroke:#A80036;stroke-width:1.0;"/><line style="stroke:#A80036;stroke-width:1.0;stroke-dasharray:2.0,2.0;" x1="43.5" x2="289.5" y1="213.0156" y2="213.0156"/><text fill="#000000" font-family="sans-serif" font-size="13" font-weight="bold" lengthAdjust="spacing" textLength="7" x="55.5" y="208.1592">4</text><text fill="#000000" font-family="sans-serif" font-size="13" lengthAdjust="spacing" textLength="207" x="66.5" y="208.1592">Has access to the customer menus</text><!--MD5=[bf2d2c056321981a1dc7078990be0d07]
@startuml US1901_SSD

autonumber

actor "Customer" as C

activate C
C -> ":System" : Starts the CustomerApp
activate ":System"
":System" - -> C : Asks for Customer credentials
deactivate ":System"
C -> ":System" : Gives Customer credentials
activate ":System"
":System" - -> C : Has access to the customer menus
deactivate ":System"
deactivate C


@enduml

PlantUML version 1.2021.11(Sat Oct 02 14:26:11 BST 2021)
(GPL source distribution)
Java Runtime: OpenJDK Runtime Environment
JVM: OpenJDK 64-Bit Server VM
Default Encoding: Cp1252
Language: pt
Country: PT
--></g></svg>