<?xml version="1.0" encoding="UTF-8" standalone="no"?><svg xmlns="http://www.w3.org/2000/svg" xmlns:xlink="http://www.w3.org/1999/xlink" contentScriptType="application/ecmascript" contentStyleType="text/css" height="457px" preserveAspectRatio="none" style="width:441px;height:457px;background:#FFFFFF;" version="1.1" viewBox="0 0 441 457" width="441px" zoomAndPan="magnify"><defs><filter height="300%" id="f142arkxeaszv1" width="300%" x="-1" y="-1"><feGaussianBlur result="blurOut" stdDeviation="2.0"/><feColorMatrix in="blurOut" result="blurOut2" type="matrix" values="0 0 0 0 0 0 0 0 0 0 0 0 0 0 0 0 0 0 .4 0"/><feOffset dx="4.0" dy="4.0" in="blurOut2" result="blurOut3"/><feBlend in="SourceGraphic" in2="blurOut3" mode="normal"/></filter></defs><g><rect fill="#FFFFFF" filter="url(#f142arkxeaszv1)" height="104.0547" style="stroke:#A80036;stroke-width:1.0;" width="10" x="178" y="121.9219"/><rect fill="#FFFFFF" filter="url(#f142arkxeaszv1)" height="191.1094" style="stroke:#A80036;stroke-width:1.0;" width="10" x="339" y="195.625"/><line style="stroke:#A80036;stroke-width:1.0;stroke-dasharray:5.0,5.0;" x1="57" x2="57" y1="59.2188" y2="395.7344"/><line style="stroke:#A80036;stroke-width:1.0;stroke-dasharray:5.0,5.0;" x1="183" x2="183" y1="59.2188" y2="395.7344"/><line style="stroke:#A80036;stroke-width:1.0;stroke-dasharray:5.0,5.0;" x1="344" x2="344" y1="59.2188" y2="395.7344"/><rect fill="#FEFECE" filter="url(#f142arkxeaszv1)" height="49.2188" style="stroke:#A80036;stroke-width:1.5;" width="100" x="5" y="5"/><text fill="#000000" font-family="sans-serif" font-size="14" font-style="italic" lengthAdjust="spacing" textLength="49" x="30.5" y="26.5332">«client»</text><text fill="#000000" font-family="sans-serif" font-size="14" lengthAdjust="spacing" textLength="86" x="12" y="44.1426">CustomerApp</text><rect fill="#FEFECE" filter="url(#f142arkxeaszv1)" height="49.2188" style="stroke:#A80036;stroke-width:1.5;" width="100" x="5" y="394.7344"/><text fill="#000000" font-family="sans-serif" font-size="14" font-style="italic" lengthAdjust="spacing" textLength="49" x="30.5" y="416.2676">«client»</text><text fill="#000000" font-family="sans-serif" font-size="14" lengthAdjust="spacing" textLength="86" x="12" y="433.877">CustomerApp</text><rect fill="#FEFECE" filter="url(#f142arkxeaszv1)" height="31.6094" style="stroke:#A80036;stroke-width:1.5;" width="124" x="119" y="22.6094"/><text fill="#000000" font-family="sans-serif" font-size="14" lengthAdjust="spacing" textLength="110" x="126" y="44.1426">TcpOrdersServer</text><rect fill="#FEFECE" filter="url(#f142arkxeaszv1)" height="31.6094" style="stroke:#A80036;stroke-width:1.5;" width="124" x="119" y="394.7344"/><text fill="#000000" font-family="sans-serif" font-size="14" lengthAdjust="spacing" textLength="110" x="126" y="416.2676">TcpOrdersServer</text><rect fill="#FEFECE" filter="url(#f142arkxeaszv1)" height="49.2188" style="stroke:#A80036;stroke-width:1.5;" width="170" x="257" y="5"/><text fill="#000000" font-family="sans-serif" font-size="14" font-style="italic" lengthAdjust="spacing" textLength="57" x="313.5" y="26.5332">«thread»</text><text fill="#000000" font-family="sans-serif" font-size="14" lengthAdjust="spacing" textLength="156" x="264" y="44.1426">TcpOrdersServerThread</text><rect fill="#FEFECE" filter="url(#f142arkxeaszv1)" height="49.2188" style="stroke:#A80036;stroke-width:1.5;" width="170" x="257" y="394.7344"/><text fill="#000000" font-family="sans-serif" font-size="14" font-style="italic" lengthAdjust="spacing" textLength="57" x="313.5" y="416.2676">«thread»</text><text fill="#000000" font-family="sans-serif" font-size="14" lengthAdjust="spacing" textLength="156" x="264" y="433.877">TcpOrdersServerThread</text><rect fill="#FFFFFF" filter="url(#f142arkxeaszv1)" height="104.0547" style="stroke:#A80036;stroke-width:1.0;" width="10" x="178" y="121.9219"/><rect fill="#FFFFFF" filter="url(#f142arkxeaszv1)" height="191.1094" style="stroke:#A80036;stroke-width:1.0;" width="10" x="339" y="195.625"/><polygon fill="#A80036" points="171,87.5703,181,91.5703,171,95.5703,175,91.5703" style="stroke:#A80036;stroke-width:1.0;"/><line style="stroke:#A80036;stroke-width:1.0;" x1="57" x2="177" y1="91.5703" y2="91.5703"/><text fill="#000000" font-family="sans-serif" font-size="13" lengthAdjust="spacing" textLength="23" x="64" y="86.7139">new</text><polygon fill="#A80036" points="166,117.9219,176,121.9219,166,125.9219,170,121.9219" style="stroke:#A80036;stroke-width:1.0;"/><line style="stroke:#A80036;stroke-width:1.0;" x1="57" x2="172" y1="121.9219" y2="121.9219"/><text fill="#000000" font-family="sans-serif" font-size="13" lengthAdjust="spacing" textLength="26" x="64" y="117.0654">start</text><line style="stroke:#A80036;stroke-width:1.0;" x1="188" x2="230" y1="152.2734" y2="152.2734"/><line style="stroke:#A80036;stroke-width:1.0;" x1="230" x2="230" y1="152.2734" y2="165.2734"/><line style="stroke:#A80036;stroke-width:1.0;" x1="189" x2="230" y1="165.2734" y2="165.2734"/><polygon fill="#A80036" points="199,161.2734,189,165.2734,199,169.2734,195,165.2734" style="stroke:#A80036;stroke-width:1.0;"/><text fill="#000000" font-family="sans-serif" font-size="13" lengthAdjust="spacing" textLength="39" x="195" y="147.417">accept</text><polygon fill="#A80036" points="166,191.625,176,195.625,166,199.625,170,195.625" style="stroke:#A80036;stroke-width:1.0;"/><line style="stroke:#A80036;stroke-width:1.0;stroke-dasharray:2.0,2.0;" x1="57" x2="172" y1="195.625" y2="195.625"/><text fill="#000000" font-family="sans-serif" font-size="13" lengthAdjust="spacing" textLength="43" x="64" y="190.7686">request</text><polygon fill="#A80036" points="327,221.9766,337,225.9766,327,229.9766,331,225.9766" style="stroke:#A80036;stroke-width:1.0;"/><line style="stroke:#A80036;stroke-width:1.0;" x1="183" x2="333" y1="225.9766" y2="225.9766"/><text fill="#000000" font-family="sans-serif" font-size="13" lengthAdjust="spacing" textLength="26" x="190" y="221.1201">start</text><polygon fill="#A80036" points="327,252.3281,337,256.3281,327,260.3281,331,256.3281" style="stroke:#A80036;stroke-width:1.0;"/><line style="stroke:#A80036;stroke-width:1.0;stroke-dasharray:2.0,2.0;" x1="57" x2="333" y1="256.3281" y2="256.3281"/><text fill="#000000" font-family="sans-serif" font-size="13" lengthAdjust="spacing" textLength="65" x="64" y="251.4717">Test Server</text><polygon fill="#A80036" points="68,282.6797,58,286.6797,68,290.6797,64,286.6797" style="stroke:#A80036;stroke-width:1.0;"/><line style="stroke:#A80036;stroke-width:1.0;stroke-dasharray:2.0,2.0;" x1="62" x2="338" y1="286.6797" y2="286.6797"/><text fill="#000000" font-family="sans-serif" font-size="13" lengthAdjust="spacing" textLength="121" x="74" y="281.8232">Responds to the test</text><polygon fill="#A80036" points="68,313.0313,58,317.0313,68,321.0313,64,317.0313" style="stroke:#A80036;stroke-width:1.0;"/><line style="stroke:#A80036;stroke-width:1.0;" x1="62" x2="338" y1="317.0313" y2="317.0313"/><text fill="#000000" font-family="sans-serif" font-size="13" lengthAdjust="spacing" textLength="175" x="74" y="312.1748">Asks for Customer credentials</text><polygon fill="#A80036" points="327,343.3828,337,347.3828,327,351.3828,331,347.3828" style="stroke:#A80036;stroke-width:1.0;"/><line style="stroke:#A80036;stroke-width:1.0;" x1="57" x2="333" y1="347.3828" y2="347.3828"/><text fill="#000000" font-family="sans-serif" font-size="13" lengthAdjust="spacing" textLength="159" x="64" y="342.5264">Gives Customer credentials</text><polygon fill="#A80036" points="68,373.7344,58,377.7344,68,381.7344,64,377.7344" style="stroke:#A80036;stroke-width:1.0;"/><line style="stroke:#A80036;stroke-width:1.0;" x1="62" x2="338" y1="377.7344" y2="377.7344"/><text fill="#000000" font-family="sans-serif" font-size="13" lengthAdjust="spacing" textLength="207" x="74" y="372.8779">Has access to the customer menus</text><!--MD5=[61df95f63e4f06317b12449357454ff5]
@startuml US1901_SD

participant CustomerApp <<client>>

CustomerApp -> TcpOrdersServer : new
CustomerApp -> TcpOrdersServer: start
Activate TcpOrdersServer
TcpOrdersServer -> TcpOrdersServer: accept

CustomerApp - -> TcpOrdersServer: request

participant TcpOrdersServerThread <<thread>>
activate TcpOrdersServerThread
TcpOrdersServer -> TcpOrdersServerThread: start
deactivate TcpOrdersServer

CustomerApp - -> TcpOrdersServerThread:Test Server
TcpOrdersServerThread - -> CustomerApp:Responds to the test

TcpOrdersServerThread -> CustomerApp:Asks for Customer credentials
CustomerApp -> TcpOrdersServerThread:Gives Customer credentials


TcpOrdersServerThread -> CustomerApp: Has access to the customer menus

@enduml

PlantUML version 1.2021.11(Sat Oct 02 14:26:11 BST 2021)
(GPL source distribution)
Java Runtime: OpenJDK Runtime Environment
JVM: OpenJDK 64-Bit Server VM
Default Encoding: Cp1252
Language: pt
Country: PT
--></g></svg>