<?xml version="1.0" encoding="UTF-8" standalone="no"?><svg xmlns="http://www.w3.org/2000/svg" xmlns:xlink="http://www.w3.org/1999/xlink" contentScriptType="application/ecmascript" contentStyleType="text/css" height="455px" preserveAspectRatio="none" style="width:578px;height:455px;background:#FFFFFF;" version="1.1" viewBox="0 0 578 455" width="578px" zoomAndPan="magnify"><defs><filter height="300%" id="fwdj6xzi0jaam" width="300%" x="-1" y="-1"><feGaussianBlur result="blurOut" stdDeviation="2.0"/><feColorMatrix in="blurOut" result="blurOut2" type="matrix" values="0 0 0 0 0 0 0 0 0 0 0 0 0 0 0 0 0 0 .4 0"/><feOffset dx="4.0" dy="4.0" in="blurOut2" result="blurOut3"/><feBlend in="SourceGraphic" in2="blurOut3" mode="normal"/></filter></defs><g><rect fill="#FFFFFF" filter="url(#fwdj6xzi0jaam)" height="255.3281" style="stroke:#A80036;stroke-width:1.0;" width="10" x="41" y="98.2969"/><rect fill="#FFFFFF" filter="url(#fwdj6xzi0jaam)" height="29.1328" style="stroke:#A80036;stroke-width:1.0;" width="10" x="526" y="119.4297"/><rect fill="#FFFFFF" filter="url(#fwdj6xzi0jaam)" height="59.3984" style="stroke:#A80036;stroke-width:1.0;" width="10" x="526" y="177.6953"/><rect fill="#FFFFFF" filter="url(#fwdj6xzi0jaam)" height="29.1328" style="stroke:#A80036;stroke-width:1.0;" width="10" x="526" y="266.2266"/><rect fill="#FFFFFF" filter="url(#fwdj6xzi0jaam)" height="29.1328" style="stroke:#A80036;stroke-width:1.0;" width="10" x="526" y="324.4922"/><line style="stroke:#A80036;stroke-width:1.0;stroke-dasharray:5.0,5.0;" x1="46" x2="46" y1="88.2969" y2="371.625"/><line style="stroke:#A80036;stroke-width:1.0;stroke-dasharray:5.0,5.0;" x1="531" x2="531" y1="88.2969" y2="371.625"/><text fill="#000000" font-family="sans-serif" font-size="14" lengthAdjust="spacing" textLength="76" x="5" y="84.9951">Sales Clerk</text><ellipse cx="46" cy="15" fill="#FEFECE" filter="url(#fwdj6xzi0jaam)" rx="8" ry="8" style="stroke:#A80036;stroke-width:2.0;"/><path d="M46,23 L46,50 M33,31 L59,31 M46,50 L33,65 M46,50 L59,65 " fill="none" filter="url(#fwdj6xzi0jaam)" style="stroke:#A80036;stroke-width:2.0;"/><text fill="#000000" font-family="sans-serif" font-size="14" lengthAdjust="spacing" textLength="76" x="5" y="383.6201">Sales Clerk</text><ellipse cx="46" cy="396.9219" fill="#FEFECE" filter="url(#fwdj6xzi0jaam)" rx="8" ry="8" style="stroke:#A80036;stroke-width:2.0;"/><path d="M46,404.9219 L46,431.9219 M33,412.9219 L59,412.9219 M46,431.9219 L33,446.9219 M46,431.9219 L59,446.9219 " fill="none" filter="url(#fwdj6xzi0jaam)" style="stroke:#A80036;stroke-width:2.0;"/><rect fill="#FEFECE" filter="url(#fwdj6xzi0jaam)" height="30.2969" style="stroke:#A80036;stroke-width:1.5;" width="70" x="494" y="53"/><text fill="#000000" font-family="sans-serif" font-size="14" lengthAdjust="spacing" textLength="56" x="501" y="72.9951">:System</text><rect fill="#FEFECE" filter="url(#fwdj6xzi0jaam)" height="30.2969" style="stroke:#A80036;stroke-width:1.5;" width="70" x="494" y="370.625"/><text fill="#000000" font-family="sans-serif" font-size="14" lengthAdjust="spacing" textLength="56" x="501" y="390.6201">:System</text><rect fill="#FFFFFF" filter="url(#fwdj6xzi0jaam)" height="255.3281" style="stroke:#A80036;stroke-width:1.0;" width="10" x="41" y="98.2969"/><rect fill="#FFFFFF" filter="url(#fwdj6xzi0jaam)" height="29.1328" style="stroke:#A80036;stroke-width:1.0;" width="10" x="526" y="119.4297"/><rect fill="#FFFFFF" filter="url(#fwdj6xzi0jaam)" height="59.3984" style="stroke:#A80036;stroke-width:1.0;" width="10" x="526" y="177.6953"/><rect fill="#FFFFFF" filter="url(#fwdj6xzi0jaam)" height="29.1328" style="stroke:#A80036;stroke-width:1.0;" width="10" x="526" y="266.2266"/><rect fill="#FFFFFF" filter="url(#fwdj6xzi0jaam)" height="29.1328" style="stroke:#A80036;stroke-width:1.0;" width="10" x="526" y="324.4922"/><polygon fill="#A80036" points="514,115.4297,524,119.4297,514,123.4297,518,119.4297" style="stroke:#A80036;stroke-width:1.0;"/><line style="stroke:#A80036;stroke-width:1.0;" x1="51" x2="520" y1="119.4297" y2="119.4297"/><text fill="#000000" font-family="sans-serif" font-size="13" font-weight="bold" lengthAdjust="spacing" textLength="9" x="58" y="114.3638">1</text><text fill="#000000" font-family="sans-serif" font-size="13" lengthAdjust="spacing" textLength="166" x="71" y="114.3638">Inicia o registo do produto</text><polygon fill="#A80036" points="62,144.5625,52,148.5625,62,152.5625,58,148.5625" style="stroke:#A80036;stroke-width:1.0;"/><line style="stroke:#A80036;stroke-width:1.0;stroke-dasharray:2.0,2.0;" x1="56" x2="530" y1="148.5625" y2="148.5625"/><text fill="#000000" font-family="sans-serif" font-size="13" font-weight="bold" lengthAdjust="spacing" textLength="9" x="68" y="143.4966">2</text><text fill="#000000" font-family="sans-serif" font-size="13" lengthAdjust="spacing" textLength="187" x="81" y="143.4966">Pede para escolher categoria</text><polygon fill="#A80036" points="514,173.6953,524,177.6953,514,181.6953,518,177.6953" style="stroke:#A80036;stroke-width:1.0;"/><line style="stroke:#A80036;stroke-width:1.0;" x1="51" x2="520" y1="177.6953" y2="177.6953"/><text fill="#000000" font-family="sans-serif" font-size="13" font-weight="bold" lengthAdjust="spacing" textLength="9" x="58" y="172.6294">3</text><text fill="#000000" font-family="sans-serif" font-size="13" lengthAdjust="spacing" textLength="138" x="71" y="172.6294">Seleciona a categoria</text><polygon fill="#A80036" points="62,233.0938,52,237.0938,62,241.0938,58,237.0938" style="stroke:#A80036;stroke-width:1.0;"/><line style="stroke:#A80036;stroke-width:1.0;stroke-dasharray:2.0,2.0;" x1="56" x2="530" y1="237.0938" y2="237.0938"/><text fill="#000000" font-family="sans-serif" font-size="13" font-weight="bold" lengthAdjust="spacing" textLength="9" x="68" y="216.895">4</text><text fill="#000000" font-family="sans-serif" font-size="13" lengthAdjust="spacing" textLength="270" x="81" y="201.7622">Pede para inserir a informação do produto</text><text fill="#000000" font-family="sans-serif" font-size="13" lengthAdjust="spacing" textLength="438" x="81" y="216.895">(short description, extended description, technical description,brand,</text><text fill="#000000" font-family="sans-serif" font-size="13" lengthAdjust="spacing" textLength="412" x="85" y="232.0278">reference, production code, internal code, price, photo, barcode)</text><polygon fill="#A80036" points="514,262.2266,524,266.2266,514,270.2266,518,266.2266" style="stroke:#A80036;stroke-width:1.0;"/><line style="stroke:#A80036;stroke-width:1.0;" x1="51" x2="520" y1="266.2266" y2="266.2266"/><text fill="#000000" font-family="sans-serif" font-size="13" font-weight="bold" lengthAdjust="spacing" textLength="9" x="58" y="261.1606">5</text><text fill="#000000" font-family="sans-serif" font-size="13" lengthAdjust="spacing" textLength="155" x="71" y="261.1606">Insere os dados pedidos</text><polygon fill="#A80036" points="62,291.3594,52,295.3594,62,299.3594,58,295.3594" style="stroke:#A80036;stroke-width:1.0;"/><line style="stroke:#A80036;stroke-width:1.0;stroke-dasharray:2.0,2.0;" x1="56" x2="530" y1="295.3594" y2="295.3594"/><text fill="#000000" font-family="sans-serif" font-size="13" font-weight="bold" lengthAdjust="spacing" textLength="9" x="68" y="290.2935">6</text><text fill="#000000" font-family="sans-serif" font-size="13" lengthAdjust="spacing" textLength="296" x="81" y="290.2935">Mostra toda a informação e pede confirmação</text><polygon fill="#A80036" points="514,320.4922,524,324.4922,514,328.4922,518,324.4922" style="stroke:#A80036;stroke-width:1.0;"/><line style="stroke:#A80036;stroke-width:1.0;" x1="51" x2="520" y1="324.4922" y2="324.4922"/><text fill="#000000" font-family="sans-serif" font-size="13" font-weight="bold" lengthAdjust="spacing" textLength="9" x="58" y="319.4263">7</text><text fill="#000000" font-family="sans-serif" font-size="13" lengthAdjust="spacing" textLength="120" x="71" y="319.4263">Confirma os dados</text><polygon fill="#A80036" points="57,349.625,47,353.625,57,357.625,53,353.625" style="stroke:#A80036;stroke-width:1.0;"/><line style="stroke:#A80036;stroke-width:1.0;stroke-dasharray:2.0,2.0;" x1="51" x2="530" y1="353.625" y2="353.625"/><text fill="#000000" font-family="sans-serif" font-size="13" font-weight="bold" lengthAdjust="spacing" textLength="9" x="63" y="348.5591">8</text><text fill="#000000" font-family="sans-serif" font-size="13" lengthAdjust="spacing" textLength="209" x="76" y="348.5591">Informa do sucesso da operação</text><!--MD5=[544c7cbacd5b9c0e76af27747f9b1182]
@startuml
autonumber
actor "Sales Clerk" as SL

activate SL
SL -> ":System" : Inicia o registo do produto
activate ":System"
":System" - -> SL : Pede para escolher categoria
deactivate ":System"

SL -> ":System" : Seleciona a categoria
activate ":System"
":System" - -> SL : Pede para inserir a informação do produto \n(short description, extended description, technical description,brand,\n reference, production code, internal code, price, photo, barcode)
deactivate ":System"

SL -> ":System" : Insere os dados pedidos
activate ":System"
":System" - -> SL : Mostra toda a informação e pede confirmação
deactivate ":System"

SL -> ":System" : Confirma os dados
activate ":System"
":System" - -> SL : Informa do sucesso da operação
deactivate ":System"

deactivate SL
@enduml

PlantUML version 1.2021.16(Wed Dec 08 17:25:22 UTC 2021)
(GPL source distribution)
Java Runtime: OpenJDK Runtime Environment
JVM: OpenJDK 64-Bit Server VM
Default Encoding: UTF-8
Language: en
Country: US
--></g></svg>