<?xml version="1.0" encoding="UTF-8" standalone="no"?><svg xmlns="http://www.w3.org/2000/svg" xmlns:xlink="http://www.w3.org/1999/xlink" contentScriptType="application/ecmascript" contentStyleType="text/css" height="862px" preserveAspectRatio="none" style="width:536px;height:862px;background:#FFFFFF;" version="1.1" viewBox="0 0 536 862" width="536px" zoomAndPan="magnify"><defs><filter height="300%" id="f7otdyyvhqsez" width="300%" x="-1" y="-1"><feGaussianBlur result="blurOut" stdDeviation="2.0"/><feColorMatrix in="blurOut" result="blurOut2" type="matrix" values="0 0 0 0 0 0 0 0 0 0 0 0 0 0 0 0 0 0 .4 0"/><feOffset dx="4.0" dy="4.0" in="blurOut2" result="blurOut3"/><feBlend in="SourceGraphic" in2="blurOut3" mode="normal"/></filter></defs><g><!--MD5=[8fd473fd151a2794da4f2c8684676405]
cluster Presentation--><polygon fill="#FFFFFF" filter="url(#f7otdyyvhqsez)" points="186,6,293,6,300,28.2969,356,28.2969,356,105,186,105,186,6" style="stroke:#000000;stroke-width:1.5;"/><line style="stroke:#000000;stroke-width:1.5;" x1="186" x2="300" y1="28.2969" y2="28.2969"/><text fill="#000000" font-family="sans-serif" font-size="14" font-weight="bold" lengthAdjust="spacing" textLength="101" x="190" y="20.9951">Presentation</text><!--MD5=[d64883541e3d62e3241c4d12decf100d]
cluster Application--><polygon fill="#FFFFFF" filter="url(#f7otdyyvhqsez)" points="162,129,255,129,262,151.2969,380,151.2969,380,254,162,254,162,129" style="stroke:#000000;stroke-width:1.5;"/><line style="stroke:#000000;stroke-width:1.5;" x1="162" x2="262" y1="151.2969" y2="151.2969"/><text fill="#000000" font-family="sans-serif" font-size="14" font-weight="bold" lengthAdjust="spacing" textLength="87" x="166" y="143.9951">Application</text><!--MD5=[121a8bf1197281ab89ed693fab589f94]
cluster Domain--><polygon fill="#FFFFFF" filter="url(#f7otdyyvhqsez)" points="16,278,80,278,87,300.2969,184,300.2969,184,613,16,613,16,278" style="stroke:#000000;stroke-width:1.5;"/><line style="stroke:#000000;stroke-width:1.5;" x1="16" x2="87" y1="300.2969" y2="300.2969"/><text fill="#000000" font-family="sans-serif" font-size="14" font-weight="bold" lengthAdjust="spacing" textLength="58" x="20" y="292.9951">Domain</text><!--MD5=[bc6b40dadbf86ab6a0c8405a467a48af]
cluster Persistence--><polygon fill="#FFFFFF" filter="url(#f7otdyyvhqsez)" points="208,342,308,342,315,364.2969,431,364.2969,431,855,208,855,208,342" style="stroke:#000000;stroke-width:1.5;"/><line style="stroke:#000000;stroke-width:1.5;" x1="208" x2="315" y1="364.2969" y2="364.2969"/><text fill="#000000" font-family="sans-serif" font-size="14" font-weight="bold" lengthAdjust="spacing" textLength="94" x="212" y="356.9951">Persistence</text><!--MD5=[c70e63285b4949167153f04013086d37]
class SpecifyProductUI--><rect codeLine="4" fill="#FEFECE" filter="url(#f7otdyyvhqsez)" height="48" id="SpecifyProductUI" style="stroke:#A80036;stroke-width:1.5;" width="137" x="202.5" y="41"/><ellipse cx="217.5" cy="57" fill="#ADD1B2" rx="11" ry="11" style="stroke:#A80036;stroke-width:1.0;"/><path d="M220.4688,62.6406 Q219.8906,62.9375 219.25,63.0781 Q218.6094,63.2344 217.9063,63.2344 Q215.4063,63.2344 214.0781,61.5938 Q212.7656,59.9375 212.7656,56.8125 Q212.7656,53.6875 214.0781,52.0313 Q215.4063,50.375 217.9063,50.375 Q218.6094,50.375 219.25,50.5313 Q219.9063,50.6875 220.4688,50.9844 L220.4688,53.7031 Q219.8438,53.125 219.25,52.8594 Q218.6563,52.5781 218.0313,52.5781 Q216.6875,52.5781 216,53.6563 Q215.3125,54.7188 215.3125,56.8125 Q215.3125,58.9063 216,59.9844 Q216.6875,61.0469 218.0313,61.0469 Q218.6563,61.0469 219.25,60.7813 Q219.8438,60.5 220.4688,59.9219 L220.4688,62.6406 Z " fill="#000000"/><text fill="#000000" font-family="sans-serif" font-size="12" lengthAdjust="spacing" textLength="105" x="231.5" y="61.1543">SpecifyProductUI</text><line style="stroke:#A80036;stroke-width:1.5;" x1="203.5" x2="338.5" y1="73" y2="73"/><line style="stroke:#A80036;stroke-width:1.5;" x1="203.5" x2="338.5" y1="81" y2="81"/><!--MD5=[2d72639f973b9c0572a0d5b710ab470f]
class SpecifyProductController--><rect codeLine="10" fill="#FEFECE" filter="url(#f7otdyyvhqsez)" height="73.6094" id="SpecifyProductController" style="stroke:#A80036;stroke-width:1.5;" width="186" x="178" y="164"/><ellipse cx="193" cy="180" fill="#ADD1B2" rx="11" ry="11" style="stroke:#A80036;stroke-width:1.0;"/><path d="M195.9688,185.6406 Q195.3906,185.9375 194.75,186.0781 Q194.1094,186.2344 193.4063,186.2344 Q190.9063,186.2344 189.5781,184.5938 Q188.2656,182.9375 188.2656,179.8125 Q188.2656,176.6875 189.5781,175.0313 Q190.9063,173.375 193.4063,173.375 Q194.1094,173.375 194.75,173.5313 Q195.4063,173.6875 195.9688,173.9844 L195.9688,176.7031 Q195.3438,176.125 194.75,175.8594 Q194.1563,175.5781 193.5313,175.5781 Q192.1875,175.5781 191.5,176.6563 Q190.8125,177.7188 190.8125,179.8125 Q190.8125,181.9063 191.5,182.9844 Q192.1875,184.0469 193.5313,184.0469 Q194.1563,184.0469 194.75,183.7813 Q195.3438,183.5 195.9688,182.9219 L195.9688,185.6406 Z " fill="#000000"/><text fill="#000000" font-family="sans-serif" font-size="12" lengthAdjust="spacing" textLength="154" x="207" y="184.1543">SpecifyProductController</text><line style="stroke:#A80036;stroke-width:1.5;" x1="179" x2="363" y1="196" y2="196"/><line style="stroke:#A80036;stroke-width:1.5;" x1="179" x2="363" y1="204" y2="204"/><text fill="#000000" font-family="sans-serif" font-size="11" lengthAdjust="spacing" textLength="86" x="184" y="218.2104">+getCategory()</text><text fill="#000000" font-family="sans-serif" font-size="11" lengthAdjust="spacing" textLength="105" x="184" y="231.0151">+registerProduct()</text><!--MD5=[72136138052d025cffdce3c22fbd185f]
class Product--><rect codeLine="18" fill="#FEFECE" filter="url(#f7otdyyvhqsez)" height="176.0469" id="Product" style="stroke:#A80036;stroke-width:1.5;" width="135" x="32.5" y="313"/><ellipse cx="71.8" cy="329" fill="#ADD1B2" rx="11" ry="11" style="stroke:#A80036;stroke-width:1.0;"/><path d="M74.7688,334.6406 Q74.1906,334.9375 73.55,335.0781 Q72.9094,335.2344 72.2063,335.2344 Q69.7063,335.2344 68.3781,333.5938 Q67.0656,331.9375 67.0656,328.8125 Q67.0656,325.6875 68.3781,324.0313 Q69.7063,322.375 72.2063,322.375 Q72.9094,322.375 73.55,322.5313 Q74.2063,322.6875 74.7688,322.9844 L74.7688,325.7031 Q74.1438,325.125 73.55,324.8594 Q72.9563,324.5781 72.3313,324.5781 Q70.9875,324.5781 70.3,325.6563 Q69.6125,326.7188 69.6125,328.8125 Q69.6125,330.9063 70.3,331.9844 Q70.9875,333.0469 72.3313,333.0469 Q72.9563,333.0469 73.55,332.7813 Q74.1438,332.5 74.7688,331.9219 L74.7688,334.6406 Z " fill="#000000"/><text fill="#000000" font-family="sans-serif" font-size="12" lengthAdjust="spacing" textLength="49" x="91.2" y="333.1543">Product</text><line style="stroke:#A80036;stroke-width:1.5;" x1="33.5" x2="166.5" y1="345" y2="345"/><text fill="#000000" font-family="sans-serif" font-size="11" lengthAdjust="spacing" textLength="80" x="38.5" y="359.2104">-internal Code</text><text fill="#000000" font-family="sans-serif" font-size="11" lengthAdjust="spacing" textLength="101" x="38.5" y="372.0151">-short description</text><text fill="#000000" font-family="sans-serif" font-size="11" lengthAdjust="spacing" textLength="123" x="38.5" y="384.8198">-extended description</text><text fill="#000000" font-family="sans-serif" font-size="11" lengthAdjust="spacing" textLength="121" x="38.5" y="397.6245">-technical description</text><text fill="#000000" font-family="sans-serif" font-size="11" lengthAdjust="spacing" textLength="37" x="38.5" y="410.4292">-brand</text><text fill="#000000" font-family="sans-serif" font-size="11" lengthAdjust="spacing" textLength="59" x="38.5" y="423.2339">-reference</text><text fill="#000000" font-family="sans-serif" font-size="11" lengthAdjust="spacing" textLength="95" x="38.5" y="436.0386">-production code</text><text fill="#000000" font-family="sans-serif" font-size="11" lengthAdjust="spacing" textLength="32" x="38.5" y="448.8433">-price</text><text fill="#000000" font-family="sans-serif" font-size="11" lengthAdjust="spacing" textLength="50" x="38.5" y="461.6479">-barcode</text><text fill="#000000" font-family="sans-serif" font-size="11" lengthAdjust="spacing" textLength="36" x="38.5" y="474.4526">-photo</text><line style="stroke:#A80036;stroke-width:1.5;" x1="33.5" x2="166.5" y1="481.0469" y2="481.0469"/><!--MD5=[a96594a83e2ecdc78cbf17c2ddf01934]
class Category--><rect codeLine="32" fill="#FEFECE" filter="url(#f7otdyyvhqsez)" height="48" id="Category" style="stroke:#A80036;stroke-width:1.5;" width="88" x="56" y="549"/><ellipse cx="71" cy="565" fill="#ADD1B2" rx="11" ry="11" style="stroke:#A80036;stroke-width:1.0;"/><path d="M73.9688,570.6406 Q73.3906,570.9375 72.75,571.0781 Q72.1094,571.2344 71.4063,571.2344 Q68.9063,571.2344 67.5781,569.5938 Q66.2656,567.9375 66.2656,564.8125 Q66.2656,561.6875 67.5781,560.0313 Q68.9063,558.375 71.4063,558.375 Q72.1094,558.375 72.75,558.5313 Q73.4063,558.6875 73.9688,558.9844 L73.9688,561.7031 Q73.3438,561.125 72.75,560.8594 Q72.1563,560.5781 71.5313,560.5781 Q70.1875,560.5781 69.5,561.6563 Q68.8125,562.7188 68.8125,564.8125 Q68.8125,566.9063 69.5,567.9844 Q70.1875,569.0469 71.5313,569.0469 Q72.1563,569.0469 72.75,568.7813 Q73.3438,568.5 73.9688,567.9219 L73.9688,570.6406 Z " fill="#000000"/><text fill="#000000" font-family="sans-serif" font-size="12" lengthAdjust="spacing" textLength="56" x="85" y="569.1543">Category</text><line style="stroke:#A80036;stroke-width:1.5;" x1="57" x2="143" y1="581" y2="581"/><line style="stroke:#A80036;stroke-width:1.5;" x1="57" x2="143" y1="589" y2="589"/><!--MD5=[48590afff58a68e2fcba47824d6f8a11]
class RepositoryFactory--><rect codeLine="38" fill="#FEFECE" filter="url(#f7otdyyvhqsez)" height="48" id="RepositoryFactory" style="stroke:#A80036;stroke-width:1.5;" width="144" x="245" y="549"/><ellipse cx="260" cy="565" fill="#ADD1B2" rx="11" ry="11" style="stroke:#A80036;stroke-width:1.0;"/><path d="M262.9688,570.6406 Q262.3906,570.9375 261.75,571.0781 Q261.1094,571.2344 260.4063,571.2344 Q257.9063,571.2344 256.5781,569.5938 Q255.2656,567.9375 255.2656,564.8125 Q255.2656,561.6875 256.5781,560.0313 Q257.9063,558.375 260.4063,558.375 Q261.1094,558.375 261.75,558.5313 Q262.4063,558.6875 262.9688,558.9844 L262.9688,561.7031 Q262.3438,561.125 261.75,560.8594 Q261.1563,560.5781 260.5313,560.5781 Q259.1875,560.5781 258.5,561.6563 Q257.8125,562.7188 257.8125,564.8125 Q257.8125,566.9063 258.5,567.9844 Q259.1875,569.0469 260.5313,569.0469 Q261.1563,569.0469 261.75,568.7813 Q262.3438,568.5 262.9688,567.9219 L262.9688,570.6406 Z " fill="#000000"/><text fill="#000000" font-family="sans-serif" font-size="12" lengthAdjust="spacing" textLength="112" x="274" y="569.1543">RepositoryFactory</text><line style="stroke:#A80036;stroke-width:1.5;" x1="246" x2="388" y1="581" y2="581"/><line style="stroke:#A80036;stroke-width:1.5;" x1="246" x2="388" y1="589" y2="589"/><!--MD5=[18fe620d353c7278b252292b5533264b]
class ProductFactory--><rect codeLine="41" fill="#FEFECE" filter="url(#f7otdyyvhqsez)" height="48" id="ProductFactory" style="stroke:#A80036;stroke-width:1.5;" width="127" x="274.5" y="377"/><ellipse cx="289.5" cy="393" fill="#ADD1B2" rx="11" ry="11" style="stroke:#A80036;stroke-width:1.0;"/><path d="M292.4688,398.6406 Q291.8906,398.9375 291.25,399.0781 Q290.6094,399.2344 289.9063,399.2344 Q287.4063,399.2344 286.0781,397.5938 Q284.7656,395.9375 284.7656,392.8125 Q284.7656,389.6875 286.0781,388.0313 Q287.4063,386.375 289.9063,386.375 Q290.6094,386.375 291.25,386.5313 Q291.9063,386.6875 292.4688,386.9844 L292.4688,389.7031 Q291.8438,389.125 291.25,388.8594 Q290.6563,388.5781 290.0313,388.5781 Q288.6875,388.5781 288,389.6563 Q287.3125,390.7188 287.3125,392.8125 Q287.3125,394.9063 288,395.9844 Q288.6875,397.0469 290.0313,397.0469 Q290.6563,397.0469 291.25,396.7813 Q291.8438,396.5 292.4688,395.9219 L292.4688,398.6406 Z " fill="#000000"/><text fill="#000000" font-family="sans-serif" font-size="12" lengthAdjust="spacing" textLength="95" x="303.5" y="397.1543">ProductFactory</text><line style="stroke:#A80036;stroke-width:1.5;" x1="275.5" x2="400.5" y1="409" y2="409"/><line style="stroke:#A80036;stroke-width:1.5;" x1="275.5" x2="400.5" y1="417" y2="417"/><!--MD5=[f9761e4ec0e5a044b983a0fb01ce84a9]
class ProductRepository--><rect codeLine="43" fill="#FEFECE" filter="url(#f7otdyyvhqsez)" height="60.8047" id="ProductRepository" style="stroke:#A80036;stroke-width:1.5;" width="147" x="264.5" y="778"/><ellipse cx="279.5" cy="794" fill="#ADD1B2" rx="11" ry="11" style="stroke:#A80036;stroke-width:1.0;"/><path d="M282.4688,799.6406 Q281.8906,799.9375 281.25,800.0781 Q280.6094,800.2344 279.9063,800.2344 Q277.4063,800.2344 276.0781,798.5938 Q274.7656,796.9375 274.7656,793.8125 Q274.7656,790.6875 276.0781,789.0313 Q277.4063,787.375 279.9063,787.375 Q280.6094,787.375 281.25,787.5313 Q281.9063,787.6875 282.4688,787.9844 L282.4688,790.7031 Q281.8438,790.125 281.25,789.8594 Q280.6563,789.5781 280.0313,789.5781 Q278.6875,789.5781 278,790.6563 Q277.3125,791.7188 277.3125,793.8125 Q277.3125,795.9063 278,796.9844 Q278.6875,798.0469 280.0313,798.0469 Q280.6563,798.0469 281.25,797.7813 Q281.8438,797.5 282.4688,796.9219 L282.4688,799.6406 Z " fill="#000000"/><text fill="#000000" font-family="sans-serif" font-size="12" lengthAdjust="spacing" textLength="115" x="293.5" y="798.1543">ProductRepository</text><line style="stroke:#A80036;stroke-width:1.5;" x1="265.5" x2="410.5" y1="810" y2="810"/><line style="stroke:#A80036;stroke-width:1.5;" x1="265.5" x2="410.5" y1="818" y2="818"/><text fill="#000000" font-family="sans-serif" font-size="11" lengthAdjust="spacing" textLength="110" x="270.5" y="832.2104">+save(newProduct)</text><!--MD5=[b3c2230271250b561f28a9e8cd979a92]
class CategoryRepository--><rect codeLine="47" fill="#FEFECE" filter="url(#f7otdyyvhqsez)" height="60.8047" id="CategoryRepository" style="stroke:#A80036;stroke-width:1.5;" width="154" x="261" y="657"/><ellipse cx="276" cy="673" fill="#ADD1B2" rx="11" ry="11" style="stroke:#A80036;stroke-width:1.0;"/><path d="M278.9688,678.6406 Q278.3906,678.9375 277.75,679.0781 Q277.1094,679.2344 276.4063,679.2344 Q273.9063,679.2344 272.5781,677.5938 Q271.2656,675.9375 271.2656,672.8125 Q271.2656,669.6875 272.5781,668.0313 Q273.9063,666.375 276.4063,666.375 Q277.1094,666.375 277.75,666.5313 Q278.4063,666.6875 278.9688,666.9844 L278.9688,669.7031 Q278.3438,669.125 277.75,668.8594 Q277.1563,668.5781 276.5313,668.5781 Q275.1875,668.5781 274.5,669.6563 Q273.8125,670.7188 273.8125,672.8125 Q273.8125,674.9063 274.5,675.9844 Q275.1875,677.0469 276.5313,677.0469 Q277.1563,677.0469 277.75,676.7813 Q278.3438,676.5 278.9688,675.9219 L278.9688,678.6406 Z " fill="#000000"/><text fill="#000000" font-family="sans-serif" font-size="12" lengthAdjust="spacing" textLength="122" x="290" y="677.1543">CategoryRepository</text><line style="stroke:#A80036;stroke-width:1.5;" x1="262" x2="414" y1="689" y2="689"/><line style="stroke:#A80036;stroke-width:1.5;" x1="262" x2="414" y1="697" y2="697"/><text fill="#000000" font-family="sans-serif" font-size="11" lengthAdjust="spacing" textLength="51" x="267" y="711.2104">+findall()</text><!--MD5=[bcdbf31ed7a2f0c7bf1e35265265f093]
link SpecifyProductUI to SpecifyProductController--><path codeLine="52" d="M271,89.04 C271,108.17 271,135.86 271,158.79 " fill="none" id="SpecifyProductUI-to-SpecifyProductController" style="stroke:#A80036;stroke-width:1.0;stroke-dasharray:7.0,7.0;"/><polygon fill="#A80036" points="271,163.91,275,154.91,271,158.91,267,154.91,271,163.91" style="stroke:#A80036;stroke-width:1.0;"/><!--MD5=[1f6a3dbe2963fdc96600115fdd7820ac]
link SpecifyProductController to Product--><path codeLine="53" d="M236.96,238.02 C227.47,248.25 217.23,259.48 208,270 C195.88,283.81 183.23,298.64 171.03,313.17 " fill="none" id="SpecifyProductController-to-Product" style="stroke:#A80036;stroke-width:1.0;stroke-dasharray:7.0,7.0;"/><polygon fill="#A80036" points="167.61,317.26,176.4604,312.9391,170.825,313.4306,170.3334,307.7952,167.61,317.26" style="stroke:#A80036;stroke-width:1.0;"/><!--MD5=[35d1995974f0386f40a57225b68db2fd]
link SpecifyProductController to ProductRepository--><path codeLine="54" d="M364.19,226.26 C385.6,236.29 405.9,250.36 419,270 C529.52,435.74 511.97,535.11 433,718 C423.4,740.24 405.24,759.52 387.36,774.42 " fill="none" id="SpecifyProductController-to-ProductRepository" style="stroke:#A80036;stroke-width:1.0;stroke-dasharray:7.0,7.0;"/><polygon fill="#A80036" points="383.31,777.73,392.8127,775.142,387.1849,774.57,387.7568,768.9422,383.31,777.73" style="stroke:#A80036;stroke-width:1.0;"/><!--MD5=[3bc1f30ec071c45e229fb810d4340fc7]
link SpecifyProductController to RepositoryFactory--><path codeLine="55" d="M261.16,238.43 C247.92,294 229.05,402.62 257,489 C263.71,509.72 277.73,529.61 290.53,544.73 " fill="none" id="SpecifyProductController-to-RepositoryFactory" style="stroke:#A80036;stroke-width:1.0;stroke-dasharray:7.0,7.0;"/><polygon fill="#A80036" points="294.11,548.86,291.2519,539.435,290.8408,545.0768,285.1989,544.6657,294.11,548.86" style="stroke:#A80036;stroke-width:1.0;"/><!--MD5=[af0d50a891893c81e30d603b77729b1f]
link SpecifyProductController to ProductFactory--><path codeLine="56" d="M283.29,238.32 C296.32,276.84 316.64,336.86 328.5,371.92 " fill="none" id="SpecifyProductController-to-ProductFactory" style="stroke:#A80036;stroke-width:1.0;stroke-dasharray:7.0,7.0;"/><polygon fill="#A80036" points="330.19,376.91,331.1033,367.1036,328.5917,372.1723,323.523,369.6608,330.19,376.91" style="stroke:#A80036;stroke-width:1.0;"/><!--MD5=[a107a52b6e2b3fb29ad79d2f6a7df605]
link RepositoryFactory to ProductRepository--><path codeLine="57" d="M287.74,597.14 C271.17,612.19 252.01,633.37 243,657 C233.35,682.33 232.25,693.11 243,718 C252.6,740.24 270.76,759.52 288.64,774.42 " fill="none" id="RepositoryFactory-to-ProductRepository" style="stroke:#A80036;stroke-width:1.0;stroke-dasharray:7.0,7.0;"/><polygon fill="#A80036" points="292.69,777.73,288.2432,768.9422,288.8151,774.57,283.1873,775.142,292.69,777.73" style="stroke:#A80036;stroke-width:1.0;"/><!--MD5=[982d16d4d7400e6c46bfc612526ecb29]
link RepositoryFactory to CategoryRepository--><path codeLine="58" d="M321.3,597.04 C324.24,612.79 328.19,633.94 331.51,651.73 " fill="none" id="RepositoryFactory-to-CategoryRepository" style="stroke:#A80036;stroke-width:1.0;stroke-dasharray:7.0,7.0;"/><polygon fill="#A80036" points="332.43,656.65,334.6894,647.0638,331.5017,651.7369,326.8285,648.5492,332.43,656.65" style="stroke:#A80036;stroke-width:1.0;"/><!--MD5=[f8d8919504c6c1ed1d29181e052eec43]
link ProductFactory to RepositoryFactory--><path codeLine="59" d="M335.12,425.28 C331.31,456.18 324.57,510.7 320.48,543.87 " fill="none" id="ProductFactory-to-RepositoryFactory" style="stroke:#A80036;stroke-width:1.0;stroke-dasharray:7.0,7.0;"/><polygon fill="#A80036" points="319.84,549,324.9164,540.5602,320.4549,544.038,316.9772,539.5764,319.84,549" style="stroke:#A80036;stroke-width:1.0;"/><!--MD5=[41043388d0f8d1cf0966079386e80353]
link Product to Category--><path codeLine="60" d="M100,489.49 C100,509.05 100,528.44 100,543.5 " fill="none" id="Product-to-Category" style="stroke:#A80036;stroke-width:1.0;stroke-dasharray:7.0,7.0;"/><polygon fill="#A80036" points="100,548.85,104,539.85,100,543.85,96,539.85,100,548.85" style="stroke:#A80036;stroke-width:1.0;"/><!--MD5=[5d160f0b7656fc51c05b4bd76d8e9bcb]
link CategoryRepository to ProductRepository--><path codeLine="61" d="M338,718.22 C338,730.15 338,744.23 338,757.63 " fill="none" id="CategoryRepository-to-ProductRepository" style="stroke:#A80036;stroke-width:1.0;stroke-dasharray:7.0,7.0;"/><polygon fill="none" points="345,757.74,338,777.74,331,757.74,345,757.74" style="stroke:#A80036;stroke-width:1.0;"/><!--MD5=[ff5e8a723a2b549bd09a36b7f955eebe]
@startuml
skinparam classAttributeIconSize 0

Package Presentation{
class SpecifyProductUI {
}
}

Package Application{

class SpecifyProductController {
 + getCategory()
 + registerProduct()
}
}

Package Domain{

class Product {
  -internal Code
  -short description
  -extended description
  -technical description
  -brand
  -reference
  -production code
  -price
  -barcode
  -photo
}


class Category{
}
}


Package Persistence{
class RepositoryFactory{
}

class ProductFactory{
}
class ProductRepository{
  +save(newProduct)
}

class CategoryRepository{
  +findall()
}
}

SpecifyProductUI ..> SpecifyProductController
SpecifyProductController ..> Product
SpecifyProductController ..> ProductRepository
SpecifyProductController ..> RepositoryFactory
SpecifyProductController ..> ProductFactory
RepositoryFactory ..> ProductRepository
RepositoryFactory ..> CategoryRepository
ProductFactory ..> RepositoryFactory
Product..> Category
CategoryRepository ..|> ProductRepository
@enduml

PlantUML version 1.2021.16(Wed Dec 08 17:25:22 UTC 2021)
(GPL source distribution)
Java Runtime: OpenJDK Runtime Environment
JVM: OpenJDK 64-Bit Server VM
Default Encoding: UTF-8
Language: en
Country: US
--></g></svg>