<?xml version="1.0" encoding="UTF-8" standalone="no"?><svg xmlns="http://www.w3.org/2000/svg" xmlns:xlink="http://www.w3.org/1999/xlink" contentScriptType="application/ecmascript" contentStyleType="text/css" height="969px" preserveAspectRatio="none" style="width:2227px;height:969px;background:#FFFFFF;" version="1.1" viewBox="0 0 2227 969" width="2227px" zoomAndPan="magnify"><defs><filter height="300%" id="f1g4pop99ubb64" width="300%" x="-1" y="-1"><feGaussianBlur result="blurOut" stdDeviation="2.0"/><feColorMatrix in="blurOut" result="blurOut2" type="matrix" values="0 0 0 0 0 0 0 0 0 0 0 0 0 0 0 0 0 0 .4 0"/><feOffset dx="4.0" dy="4.0" in="blurOut2" result="blurOut3"/><feBlend in="SourceGraphic" in2="blurOut3" mode="normal"/></filter></defs><g><text fill="#000000" font-family="sans-serif" font-size="18" lengthAdjust="spacing" textLength="182" x="1020.25" y="28.708">SD - Specify Product</text><rect fill="#FFFFFF" filter="url(#f1g4pop99ubb64)" height="820.3203" style="stroke:#A80036;stroke-width:1.0;" width="10" x="39" y="133.25"/><rect fill="#FFFFFF" filter="url(#f1g4pop99ubb64)" height="58.2656" style="stroke:#A80036;stroke-width:1.0;" width="10" x="807" y="154.3828"/><rect fill="#FFFFFF" filter="url(#f1g4pop99ubb64)" height="711.7891" style="stroke:#A80036;stroke-width:1.0;" width="10" x="807" y="241.7813"/><rect fill="#FFFFFF" filter="url(#f1g4pop99ubb64)" height="175.6641" style="stroke:#A80036;stroke-width:1.0;" width="10" x="1373" y="270.9141"/><rect fill="#FFFFFF" filter="url(#f1g4pop99ubb64)" height="309.0625" style="stroke:#A80036;stroke-width:1.0;" width="10" x="1373" y="606.375"/><rect fill="#FFFFFF" filter="url(#f1g4pop99ubb64)" height="88.2656" style="stroke:#A80036;stroke-width:1.0;" width="10" x="1559" y="709.7734"/><rect fill="#FFFFFF" filter="url(#f1g4pop99ubb64)" height="59.1328" style="stroke:#A80036;stroke-width:1.0;" width="10" x="1722" y="738.9063"/><rect fill="#FFFFFF" filter="url(#f1g4pop99ubb64)" height="30" style="stroke:#A80036;stroke-width:1.0;" width="10" x="1885" y="387.4453"/><rect fill="#FFFFFF" filter="url(#f1g4pop99ubb64)" height="30" style="stroke:#A80036;stroke-width:1.0;" width="10" x="2013" y="650.6406"/><rect fill="#FFFFFF" filter="url(#f1g4pop99ubb64)" height="30" style="stroke:#A80036;stroke-width:1.0;" width="10" x="2137" y="768.0391"/><rect fill="#FFFFFF" filter="url(#f1g4pop99ubb64)" height="30" style="stroke:#A80036;stroke-width:1.0;" width="10" x="2137" y="885.4375"/><line style="stroke:#A80036;stroke-width:1.0;stroke-dasharray:5.0,5.0;" x1="44" x2="44" y1="123.25" y2="962.5703"/><line style="stroke:#A80036;stroke-width:1.0;stroke-dasharray:5.0,5.0;" x1="811.5" x2="811.5" y1="123.25" y2="962.5703"/><line style="stroke:#A80036;stroke-width:1.0;stroke-dasharray:5.0,5.0;" x1="1377.5" x2="1377.5" y1="123.25" y2="962.5703"/><line style="stroke:#A80036;stroke-width:1.0;stroke-dasharray:5.0,5.0;" x1="1563.5" x2="1563.5" y1="123.25" y2="962.5703"/><line style="stroke:#A80036;stroke-width:1.0;stroke-dasharray:5.0,5.0;" x1="1726.5" x2="1726.5" y1="123.25" y2="962.5703"/><line style="stroke:#A80036;stroke-width:1.0;stroke-dasharray:5.0,5.0;" x1="1889.5" x2="1889.5" y1="123.25" y2="962.5703"/><line style="stroke:#A80036;stroke-width:1.0;stroke-dasharray:5.0,5.0;" x1="2017.5" x2="2017.5" y1="123.25" y2="962.5703"/><line style="stroke:#A80036;stroke-width:1.0;stroke-dasharray:5.0,5.0;" x1="2141.5" x2="2141.5" y1="123.25" y2="962.5703"/><text fill="#000000" font-family="sans-serif" font-size="14" lengthAdjust="spacing" textLength="72" x="5" y="119.9482">SalesClerk</text><ellipse cx="44" cy="49.9531" fill="#FEFECE" filter="url(#f1g4pop99ubb64)" rx="8" ry="8" style="stroke:#A80036;stroke-width:2.0;"/><path d="M44,57.9531 L44,84.9531 M31,65.9531 L57,65.9531 M44,84.9531 L31,99.9531 M44,84.9531 L57,99.9531 " fill="none" filter="url(#f1g4pop99ubb64)" style="stroke:#A80036;stroke-width:2.0;"/><rect fill="#FEFECE" filter="url(#f1g4pop99ubb64)" height="30.2969" style="stroke:#A80036;stroke-width:1.5;" width="135" x="742.5" y="87.9531"/><text fill="#000000" font-family="sans-serif" font-size="14" lengthAdjust="spacing" textLength="121" x="749.5" y="107.9482">:SpecifyProductUI</text><rect fill="#FEFECE" filter="url(#f1g4pop99ubb64)" height="30.2969" style="stroke:#A80036;stroke-width:1.5;" width="189" x="1281.5" y="87.9531"/><text fill="#000000" font-family="sans-serif" font-size="14" lengthAdjust="spacing" textLength="175" x="1288.5" y="107.9482">:SpecifyProductController</text><rect fill="#FEFECE" filter="url(#f1g4pop99ubb64)" height="30.2969" style="stroke:#A80036;stroke-width:1.5;" width="155" x="1484.5" y="87.9531"/><text fill="#000000" font-family="sans-serif" font-size="14" lengthAdjust="spacing" textLength="141" x="1491.5" y="107.9482">:PersistenceContext</text><rect fill="#FEFECE" filter="url(#f1g4pop99ubb64)" height="30.2969" style="stroke:#A80036;stroke-width:1.5;" width="143" x="1653.5" y="87.9531"/><text fill="#000000" font-family="sans-serif" font-size="14" lengthAdjust="spacing" textLength="129" x="1660.5" y="107.9482">:RepositoryFactory</text><rect fill="#FEFECE" filter="url(#f1g4pop99ubb64)" height="30.2969" style="stroke:#A80036;stroke-width:1.5;" width="155" x="1810.5" y="87.9531"/><text fill="#000000" font-family="sans-serif" font-size="14" lengthAdjust="spacing" textLength="141" x="1817.5" y="107.9482">:CategoryRepository</text><rect fill="#FEFECE" filter="url(#f1g4pop99ubb64)" height="30.2969" style="stroke:#A80036;stroke-width:1.5;" width="73" x="1979.5" y="87.9531"/><text fill="#000000" font-family="sans-serif" font-size="14" lengthAdjust="spacing" textLength="59" x="1986.5" y="107.9482">:Product</text><rect fill="#FEFECE" filter="url(#f1g4pop99ubb64)" height="30.2969" style="stroke:#A80036;stroke-width:1.5;" width="147" x="2066.5" y="87.9531"/><text fill="#000000" font-family="sans-serif" font-size="14" lengthAdjust="spacing" textLength="133" x="2073.5" y="107.9482">:ProductRepository</text><rect fill="#FFFFFF" filter="url(#f1g4pop99ubb64)" height="820.3203" style="stroke:#A80036;stroke-width:1.0;" width="10" x="39" y="133.25"/><rect fill="#FFFFFF" filter="url(#f1g4pop99ubb64)" height="58.2656" style="stroke:#A80036;stroke-width:1.0;" width="10" x="807" y="154.3828"/><rect fill="#FFFFFF" filter="url(#f1g4pop99ubb64)" height="711.7891" style="stroke:#A80036;stroke-width:1.0;" width="10" x="807" y="241.7813"/><rect fill="#FFFFFF" filter="url(#f1g4pop99ubb64)" height="175.6641" style="stroke:#A80036;stroke-width:1.0;" width="10" x="1373" y="270.9141"/><rect fill="#FFFFFF" filter="url(#f1g4pop99ubb64)" height="309.0625" style="stroke:#A80036;stroke-width:1.0;" width="10" x="1373" y="606.375"/><rect fill="#FFFFFF" filter="url(#f1g4pop99ubb64)" height="88.2656" style="stroke:#A80036;stroke-width:1.0;" width="10" x="1559" y="709.7734"/><rect fill="#FFFFFF" filter="url(#f1g4pop99ubb64)" height="59.1328" style="stroke:#A80036;stroke-width:1.0;" width="10" x="1722" y="738.9063"/><rect fill="#FFFFFF" filter="url(#f1g4pop99ubb64)" height="30" style="stroke:#A80036;stroke-width:1.0;" width="10" x="1885" y="387.4453"/><rect fill="#FFFFFF" filter="url(#f1g4pop99ubb64)" height="30" style="stroke:#A80036;stroke-width:1.0;" width="10" x="2013" y="650.6406"/><rect fill="#FFFFFF" filter="url(#f1g4pop99ubb64)" height="30" style="stroke:#A80036;stroke-width:1.0;" width="10" x="2137" y="768.0391"/><rect fill="#FFFFFF" filter="url(#f1g4pop99ubb64)" height="30" style="stroke:#A80036;stroke-width:1.0;" width="10" x="2137" y="885.4375"/><polygon fill="#A80036" points="795,150.3828,805,154.3828,795,158.3828,799,154.3828" style="stroke:#A80036;stroke-width:1.0;"/><line style="stroke:#A80036;stroke-width:1.0;" x1="49" x2="801" y1="154.3828" y2="154.3828"/><text fill="#000000" font-family="sans-serif" font-size="13" font-weight="bold" lengthAdjust="spacing" textLength="9" x="56" y="149.3169">1</text><text fill="#000000" font-family="sans-serif" font-size="13" lengthAdjust="spacing" textLength="166" x="69" y="149.3169">Inicia o registo do produto</text><polygon fill="#A80036" points="1366,179.5156,1376,183.5156,1366,187.5156,1370,183.5156" style="stroke:#A80036;stroke-width:1.0;"/><line style="stroke:#A80036;stroke-width:1.0;" x1="817" x2="1372" y1="183.5156" y2="183.5156"/><text fill="#000000" font-family="sans-serif" font-size="13" font-weight="bold" lengthAdjust="spacing" textLength="9" x="824" y="178.4497">2</text><text fill="#000000" font-family="sans-serif" font-size="13" lengthAdjust="spacing" textLength="41" x="837" y="178.4497">create</text><polygon fill="#A80036" points="60,208.6484,50,212.6484,60,216.6484,56,212.6484" style="stroke:#A80036;stroke-width:1.0;"/><line style="stroke:#A80036;stroke-width:1.0;stroke-dasharray:2.0,2.0;" x1="54" x2="811" y1="212.6484" y2="212.6484"/><text fill="#000000" font-family="sans-serif" font-size="13" font-weight="bold" lengthAdjust="spacing" textLength="9" x="66" y="207.5825">3</text><text fill="#000000" font-family="sans-serif" font-size="13" lengthAdjust="spacing" textLength="187" x="79" y="207.5825">Pede para escolher categoria</text><polygon fill="#A80036" points="795,237.7813,805,241.7813,795,245.7813,799,241.7813" style="stroke:#A80036;stroke-width:1.0;"/><line style="stroke:#A80036;stroke-width:1.0;" x1="49" x2="801" y1="241.7813" y2="241.7813"/><text fill="#000000" font-family="sans-serif" font-size="13" font-weight="bold" lengthAdjust="spacing" textLength="9" x="56" y="236.7153">4</text><text fill="#000000" font-family="sans-serif" font-size="13" lengthAdjust="spacing" textLength="138" x="69" y="236.7153">Seleciona a categoria</text><polygon fill="#A80036" points="1361,266.9141,1371,270.9141,1361,274.9141,1365,270.9141" style="stroke:#A80036;stroke-width:1.0;"/><line style="stroke:#A80036;stroke-width:1.0;" x1="817" x2="1367" y1="270.9141" y2="270.9141"/><text fill="#000000" font-family="sans-serif" font-size="13" font-weight="bold" lengthAdjust="spacing" textLength="9" x="824" y="265.8481">5</text><text fill="#000000" font-family="sans-serif" font-size="13" lengthAdjust="spacing" textLength="128" x="837" y="265.8481">getProductCategory</text><polygon fill="#A80036" points="1552,296.0469,1562,300.0469,1552,304.0469,1556,300.0469" style="stroke:#A80036;stroke-width:1.0;"/><line style="stroke:#A80036;stroke-width:1.0;" x1="1383" x2="1558" y1="300.0469" y2="300.0469"/><text fill="#000000" font-family="sans-serif" font-size="13" font-weight="bold" lengthAdjust="spacing" textLength="9" x="1390" y="294.981">6</text><text fill="#000000" font-family="sans-serif" font-size="13" lengthAdjust="spacing" textLength="85" x="1403" y="294.981">repositories()</text><polygon fill="#A80036" points="1715,325.1797,1725,329.1797,1715,333.1797,1719,329.1797" style="stroke:#A80036;stroke-width:1.0;"/><line style="stroke:#A80036;stroke-width:1.0;" x1="1564" x2="1721" y1="329.1797" y2="329.1797"/><text fill="#000000" font-family="sans-serif" font-size="13" font-weight="bold" lengthAdjust="spacing" textLength="9" x="1571" y="324.1138">7</text><text fill="#000000" font-family="sans-serif" font-size="13" lengthAdjust="spacing" textLength="41" x="1584" y="324.1138">create</text><polygon fill="#A80036" points="1878,354.3125,1888,358.3125,1878,362.3125,1882,358.3125" style="stroke:#A80036;stroke-width:1.0;"/><line style="stroke:#A80036;stroke-width:1.0;" x1="1727" x2="1884" y1="358.3125" y2="358.3125"/><text fill="#000000" font-family="sans-serif" font-size="13" font-weight="bold" lengthAdjust="spacing" textLength="9" x="1734" y="353.2466">8</text><text fill="#000000" font-family="sans-serif" font-size="13" lengthAdjust="spacing" textLength="41" x="1747" y="353.2466">create</text><polygon fill="#A80036" points="1873,383.4453,1883,387.4453,1873,391.4453,1877,387.4453" style="stroke:#A80036;stroke-width:1.0;"/><line style="stroke:#A80036;stroke-width:1.0;" x1="1383" x2="1879" y1="387.4453" y2="387.4453"/><text fill="#000000" font-family="sans-serif" font-size="13" font-weight="bold" lengthAdjust="spacing" textLength="9" x="1390" y="382.3794">9</text><text fill="#000000" font-family="sans-serif" font-size="13" lengthAdjust="spacing" textLength="38" x="1403" y="382.3794">findAll</text><polygon fill="#A80036" points="828,442.5781,818,446.5781,828,450.5781,824,446.5781" style="stroke:#A80036;stroke-width:1.0;"/><line style="stroke:#A80036;stroke-width:1.0;stroke-dasharray:2.0,2.0;" x1="822" x2="1377" y1="446.5781" y2="446.5781"/><text fill="#000000" font-family="sans-serif" font-size="13" font-weight="bold" lengthAdjust="spacing" textLength="18" x="834" y="441.5122">10</text><text fill="#000000" font-family="sans-serif" font-size="13" lengthAdjust="spacing" textLength="107" x="856" y="441.5122">ProductCategory</text><line style="stroke:#A80036;stroke-width:1.0;" x1="817" x2="859" y1="475.7109" y2="475.7109"/><line style="stroke:#A80036;stroke-width:1.0;" x1="859" x2="859" y1="475.7109" y2="488.7109"/><line style="stroke:#A80036;stroke-width:1.0;" x1="818" x2="859" y1="488.7109" y2="488.7109"/><polygon fill="#A80036" points="828,484.7109,818,488.7109,828,492.7109,824,488.7109" style="stroke:#A80036;stroke-width:1.0;"/><text fill="#000000" font-family="sans-serif" font-size="13" font-weight="bold" lengthAdjust="spacing" textLength="18" x="824" y="470.645">11</text><text fill="#000000" font-family="sans-serif" font-size="13" lengthAdjust="spacing" textLength="60" x="846" y="470.645">doShow()</text><polygon fill="#A80036" points="60,528.9766,50,532.9766,60,536.9766,56,532.9766" style="stroke:#A80036;stroke-width:1.0;"/><line style="stroke:#A80036;stroke-width:1.0;stroke-dasharray:2.0,2.0;" x1="54" x2="806" y1="532.9766" y2="532.9766"/><text fill="#000000" font-family="sans-serif" font-size="13" font-weight="bold" lengthAdjust="spacing" textLength="18" x="66" y="520.3442">12</text><text fill="#000000" font-family="sans-serif" font-size="13" lengthAdjust="spacing" textLength="712" x="88" y="512.7778">Pede para inserir a informação do produto(short description, extended description, technical description, brand,</text><text fill="#000000" font-family="sans-serif" font-size="13" lengthAdjust="spacing" textLength="408" x="92" y="527.9106">reference, production code, internal code, price, photo,barcode)</text><polygon fill="#A80036" points="795,558.1094,805,562.1094,795,566.1094,799,562.1094" style="stroke:#A80036;stroke-width:1.0;"/><line style="stroke:#A80036;stroke-width:1.0;" x1="49" x2="801" y1="562.1094" y2="562.1094"/><text fill="#000000" font-family="sans-serif" font-size="13" font-weight="bold" lengthAdjust="spacing" textLength="18" x="56" y="557.0435">13</text><text fill="#000000" font-family="sans-serif" font-size="13" lengthAdjust="spacing" textLength="155" x="78" y="557.0435">Insere os dados pedidos</text><polygon fill="#A80036" points="1361,602.375,1371,606.375,1361,610.375,1365,606.375" style="stroke:#A80036;stroke-width:1.0;"/><line style="stroke:#A80036;stroke-width:1.0;" x1="817" x2="1367" y1="606.375" y2="606.375"/><text fill="#000000" font-family="sans-serif" font-size="13" font-weight="bold" lengthAdjust="spacing" textLength="18" x="824" y="593.7427">14</text><text fill="#000000" font-family="sans-serif" font-size="13" lengthAdjust="spacing" textLength="515" x="846" y="586.1763">registerProduct(cat,short description, extended description,technical description,</text><text fill="#000000" font-family="sans-serif" font-size="13" lengthAdjust="spacing" textLength="445" x="846" y="601.3091">brand,reference,production code, internal code, price, photo,barcode)</text><polygon fill="#A80036" points="2001,646.6406,2011,650.6406,2001,654.6406,2005,650.6406" style="stroke:#A80036;stroke-width:1.0;"/><line style="stroke:#A80036;stroke-width:1.0;" x1="1383" x2="2007" y1="650.6406" y2="650.6406"/><text fill="#000000" font-family="sans-serif" font-size="13" font-weight="bold" lengthAdjust="spacing" textLength="18" x="1390" y="638.0083">15</text><text fill="#000000" font-family="sans-serif" font-size="13" lengthAdjust="spacing" textLength="551" x="1412" y="630.4419">newProduct = create(cat,short description, extended description,technical description,</text><text fill="#000000" font-family="sans-serif" font-size="13" lengthAdjust="spacing" textLength="473" x="1412" y="645.5747">brand,reference,production code, internal code, price, photo and barcode)</text><polygon fill="#A80036" points="1547,705.7734,1557,709.7734,1547,713.7734,1551,709.7734" style="stroke:#A80036;stroke-width:1.0;"/><line style="stroke:#A80036;stroke-width:1.0;" x1="1383" x2="1553" y1="709.7734" y2="709.7734"/><text fill="#000000" font-family="sans-serif" font-size="13" font-weight="bold" lengthAdjust="spacing" textLength="18" x="1390" y="704.7075">16</text><text fill="#000000" font-family="sans-serif" font-size="13" lengthAdjust="spacing" textLength="85" x="1412" y="704.7075">repositories()</text><polygon fill="#A80036" points="1710,734.9063,1720,738.9063,1710,742.9063,1714,738.9063" style="stroke:#A80036;stroke-width:1.0;"/><line style="stroke:#A80036;stroke-width:1.0;" x1="1569" x2="1716" y1="738.9063" y2="738.9063"/><text fill="#000000" font-family="sans-serif" font-size="13" font-weight="bold" lengthAdjust="spacing" textLength="18" x="1576" y="733.8403">17</text><text fill="#000000" font-family="sans-serif" font-size="13" lengthAdjust="spacing" textLength="41" x="1598" y="733.8403">create</text><polygon fill="#A80036" points="2125,764.0391,2135,768.0391,2125,772.0391,2129,768.0391" style="stroke:#A80036;stroke-width:1.0;"/><line style="stroke:#A80036;stroke-width:1.0;" x1="1732" x2="2131" y1="768.0391" y2="768.0391"/><text fill="#000000" font-family="sans-serif" font-size="13" font-weight="bold" lengthAdjust="spacing" textLength="18" x="1739" y="762.9731">18</text><text fill="#000000" font-family="sans-serif" font-size="13" lengthAdjust="spacing" textLength="41" x="1761" y="762.9731">create</text><polygon fill="#A80036" points="60,823.1719,50,827.1719,60,831.1719,56,827.1719" style="stroke:#A80036;stroke-width:1.0;"/><line style="stroke:#A80036;stroke-width:1.0;stroke-dasharray:2.0,2.0;" x1="54" x2="806" y1="827.1719" y2="827.1719"/><text fill="#000000" font-family="sans-serif" font-size="13" font-weight="bold" lengthAdjust="spacing" textLength="18" x="66" y="822.106">19</text><text fill="#000000" font-family="sans-serif" font-size="13" lengthAdjust="spacing" textLength="296" x="88" y="822.106">Mostra toda a informação e pede confirmação</text><polygon fill="#A80036" points="795,852.3047,805,856.3047,795,860.3047,799,856.3047" style="stroke:#A80036;stroke-width:1.0;"/><line style="stroke:#A80036;stroke-width:1.0;" x1="49" x2="801" y1="856.3047" y2="856.3047"/><text fill="#000000" font-family="sans-serif" font-size="13" font-weight="bold" lengthAdjust="spacing" textLength="18" x="56" y="851.2388">20</text><text fill="#000000" font-family="sans-serif" font-size="13" lengthAdjust="spacing" textLength="120" x="78" y="851.2388">Confirma os dados</text><polygon fill="#A80036" points="2125,881.4375,2135,885.4375,2125,889.4375,2129,885.4375" style="stroke:#A80036;stroke-width:1.0;"/><line style="stroke:#A80036;stroke-width:1.0;" x1="1383" x2="2131" y1="885.4375" y2="885.4375"/><text fill="#000000" font-family="sans-serif" font-size="13" font-weight="bold" lengthAdjust="spacing" textLength="18" x="1390" y="880.3716">21</text><text fill="#000000" font-family="sans-serif" font-size="13" lengthAdjust="spacing" textLength="114" x="1412" y="880.3716">save(newProduct)</text><polygon fill="#A80036" points="60,940.5703,50,944.5703,60,948.5703,56,944.5703" style="stroke:#A80036;stroke-width:1.0;"/><line style="stroke:#A80036;stroke-width:1.0;stroke-dasharray:2.0,2.0;" x1="54" x2="806" y1="944.5703" y2="944.5703"/><text fill="#000000" font-family="sans-serif" font-size="13" font-weight="bold" lengthAdjust="spacing" textLength="18" x="66" y="939.5044">22</text><text fill="#000000" font-family="sans-serif" font-size="13" lengthAdjust="spacing" textLength="209" x="88" y="939.5044">Informa do sucesso da operação</text><!--MD5=[5de421b4b08e33b1451046afba891b3c]
@startuml
autonumber
hide footbox

title SD - Specify Product
    actor "SalesClerk" as SC
		participant ":SpecifyProductUI" as ui
		participant ":SpecifyProductController" as ctrl
		participant ":PersistenceContext" as pc
		participant ":RepositoryFactory" as rf
		participant ":CategoryRepository" as repoPC
		participant ":Product" as prod
		participant ":ProductRepository" as repo

activate SC
SC -> ui : Inicia o registo do produto
activate ui
		ui->ctrl:create
    ui- ->SC: Pede para escolher categoria
deactivate ui
SC ->ui: Seleciona a categoria
activate ui
		ui->ctrl:getProductCategory
		activate ctrl
		ctrl->pc:repositories()
		pc->rf:create
		rf->repoPC:create
		ctrl->repoPC:findAll
		activate repoPC
		deactivate repoPC
		ctrl- ->ui:ProductCategory
		deactivate ctrl

		ui->ui:doShow()
    ui - -> SC : Pede para inserir a informação do produto(short description, extended description, technical description, brand,\n reference, production code, internal code, price, photo,barcode)
    SC->ui: Insere os dados pedidos
    
ui->ctrl:registerProduct(cat,short description, extended description,technical description,\nbrand,reference,production code, internal code, price, photo,barcode)
        activate ctrl
		ctrl->prod:newProduct = create(cat,short description, extended description,technical description,\nbrand,reference,production code, internal code, price, photo and barcode)
        activate prod
        deactivate prod

		ctrl->pc:repositories()
		activate pc
		pc->rf:create
		activate rf
		rf->repo:create
		activate repo
		deactivate repo
		deactivate rf
		deactivate pc
    ui- ->SC :Mostra toda a informação e pede confirmação
    SC->ui:Confirma os dados
		ctrl->repo:save(newProduct)
		activate repo
		deactivate repo
		deactivate ctrl
    ui- -> SC :  Informa do sucesso da operação
@enduml

PlantUML version 1.2021.16(Wed Dec 08 17:25:22 UTC 2021)
(GPL source distribution)
Java Runtime: OpenJDK Runtime Environment
JVM: OpenJDK 64-Bit Server VM
Default Encoding: UTF-8
Language: en
Country: US
--></g></svg>