<?xml version="1.0" encoding="UTF-8" standalone="no"?><svg xmlns="http://www.w3.org/2000/svg" xmlns:xlink="http://www.w3.org/1999/xlink" contentScriptType="application/ecmascript" contentStyleType="text/css" height="427px" preserveAspectRatio="none" style="width:563px;height:427px;background:#FFFFFF;" version="1.1" viewBox="0 0 563 427" width="563px" zoomAndPan="magnify"><defs><filter height="300%" id="f1hhrbjrxqcaju" width="300%" x="-1" y="-1"><feGaussianBlur result="blurOut" stdDeviation="2.0"/><feColorMatrix in="blurOut" result="blurOut2" type="matrix" values="0 0 0 0 0 0 0 0 0 0 0 0 0 0 0 0 0 0 .4 0"/><feOffset dx="4.0" dy="4.0" in="blurOut2" result="blurOut3"/><feBlend in="SourceGraphic" in2="blurOut3" mode="normal"/></filter></defs><g><rect fill="#FFFFFF" filter="url(#f1hhrbjrxqcaju)" height="74.7031" style="stroke:#A80036;stroke-width:1.0;" width="10" x="236.5" y="147.2734"/><rect fill="#FFFFFF" filter="url(#f1hhrbjrxqcaju)" height="155.4063" style="stroke:#A80036;stroke-width:1.0;" width="10" x="357" y="191.625"/><rect fill="#FFFFFF" filter="url(#f1hhrbjrxqcaju)" height="123.4063" style="stroke:#000000;stroke-width:2.0;" width="411" x="10" y="106.5703"/><line style="stroke:#A80036;stroke-width:1.0;stroke-dasharray:5.0,5.0;" x1="95" x2="95" y1="59.2188" y2="365.0313"/><line style="stroke:#A80036;stroke-width:1.0;stroke-dasharray:5.0,5.0;" x1="241" x2="241" y1="59.2188" y2="365.0313"/><line style="stroke:#A80036;stroke-width:1.0;stroke-dasharray:5.0,5.0;" x1="362" x2="362" y1="59.2188" y2="365.0313"/><line style="stroke:#A80036;stroke-width:1.0;stroke-dasharray:5.0,5.0;" x1="487" x2="487" y1="59.2188" y2="365.0313"/><rect fill="#FEFECE" filter="url(#f1hhrbjrxqcaju)" height="49.2188" style="stroke:#A80036;stroke-width:1.5;" width="146" x="20" y="5"/><text fill="#000000" font-family="sans-serif" font-size="14" font-style="italic" lengthAdjust="spacing" textLength="49" x="68.5" y="26.5332">«client»</text><text fill="#000000" font-family="sans-serif" font-size="14" lengthAdjust="spacing" textLength="132" x="27" y="44.1426">AGV_DIGITAL_TWIN</text><rect fill="#FEFECE" filter="url(#f1hhrbjrxqcaju)" height="49.2188" style="stroke:#A80036;stroke-width:1.5;" width="146" x="20" y="364.0313"/><text fill="#000000" font-family="sans-serif" font-size="14" font-style="italic" lengthAdjust="spacing" textLength="49" x="68.5" y="385.5645">«client»</text><text fill="#000000" font-family="sans-serif" font-size="14" lengthAdjust="spacing" textLength="132" x="27" y="403.1738">AGV_DIGITAL_TWIN</text><rect fill="#FEFECE" filter="url(#f1hhrbjrxqcaju)" height="31.6094" style="stroke:#A80036;stroke-width:1.5;" width="119" x="180" y="22.6094"/><text fill="#000000" font-family="sans-serif" font-size="14" lengthAdjust="spacing" textLength="105" x="187" y="44.1426">AVG_MANAGER</text><rect fill="#FEFECE" filter="url(#f1hhrbjrxqcaju)" height="31.6094" style="stroke:#A80036;stroke-width:1.5;" width="119" x="180" y="364.0313"/><text fill="#000000" font-family="sans-serif" font-size="14" lengthAdjust="spacing" textLength="105" x="187" y="385.5645">AVG_MANAGER</text><rect fill="#FEFECE" filter="url(#f1hhrbjrxqcaju)" height="49.2188" style="stroke:#A80036;stroke-width:1.5;" width="94" x="313" y="5"/><text fill="#000000" font-family="sans-serif" font-size="14" font-style="italic" lengthAdjust="spacing" textLength="57" x="331.5" y="26.5332">«thread»</text><text fill="#000000" font-family="sans-serif" font-size="14" lengthAdjust="spacing" textLength="80" x="320" y="44.1426">HandleClient</text><rect fill="#FEFECE" filter="url(#f1hhrbjrxqcaju)" height="49.2188" style="stroke:#A80036;stroke-width:1.5;" width="94" x="313" y="364.0313"/><text fill="#000000" font-family="sans-serif" font-size="14" font-style="italic" lengthAdjust="spacing" textLength="57" x="331.5" y="385.5645">«thread»</text><text fill="#000000" font-family="sans-serif" font-size="14" lengthAdjust="spacing" textLength="80" x="320" y="403.1738">HandleClient</text><rect fill="#FEFECE" filter="url(#f1hhrbjrxqcaju)" height="31.6094" style="stroke:#A80036;stroke-width:1.5;" width="128" x="421" y="22.6094"/><text fill="#000000" font-family="sans-serif" font-size="14" lengthAdjust="spacing" textLength="114" x="428" y="44.1426">SPOMSMenssage</text><rect fill="#FEFECE" filter="url(#f1hhrbjrxqcaju)" height="31.6094" style="stroke:#A80036;stroke-width:1.5;" width="128" x="421" y="364.0313"/><text fill="#000000" font-family="sans-serif" font-size="14" lengthAdjust="spacing" textLength="114" x="428" y="385.5645">SPOMSMenssage</text><rect fill="#FFFFFF" filter="url(#f1hhrbjrxqcaju)" height="74.7031" style="stroke:#A80036;stroke-width:1.0;" width="10" x="236.5" y="147.2734"/><rect fill="#FFFFFF" filter="url(#f1hhrbjrxqcaju)" height="155.4063" style="stroke:#A80036;stroke-width:1.0;" width="10" x="357" y="191.625"/><polygon fill="#A80036" points="229.5,87.5703,239.5,91.5703,229.5,95.5703,233.5,91.5703" style="stroke:#A80036;stroke-width:1.0;"/><line style="stroke:#A80036;stroke-width:1.0;" x1="95" x2="235.5" y1="91.5703" y2="91.5703"/><text fill="#000000" font-family="sans-serif" font-size="13" lengthAdjust="spacing" textLength="23" x="102" y="86.7139">new</text><path d="M10,106.5703 L83,106.5703 L83,114.5703 L73,124.5703 L10,124.5703 L10,106.5703 " fill="#EEEEEE" style="stroke:#000000;stroke-width:1.0;"/><rect fill="none" height="123.4063" style="stroke:#000000;stroke-width:2.0;" width="411" x="10" y="106.5703"/><text fill="#000000" font-family="sans-serif" font-size="13" font-weight="bold" lengthAdjust="spacing" textLength="28" x="25" y="121.0654">loop</text><text fill="#000000" font-family="sans-serif" font-size="11" font-weight="bold" lengthAdjust="spacing" textLength="31" x="98" y="119.9893">[true]</text><polygon fill="#A80036" points="224.5,143.2734,234.5,147.2734,224.5,151.2734,228.5,147.2734" style="stroke:#A80036;stroke-width:1.0;"/><line style="stroke:#A80036;stroke-width:1.0;" x1="95" x2="230.5" y1="147.2734" y2="147.2734"/><text fill="#000000" font-family="sans-serif" font-size="13" lengthAdjust="spacing" textLength="26" x="102" y="142.417">start</text><polygon fill="#A80036" points="224.5,173.625,234.5,177.625,224.5,181.625,228.5,177.625" style="stroke:#A80036;stroke-width:1.0;"/><line style="stroke:#A80036;stroke-width:1.0;" x1="95" x2="230.5" y1="177.625" y2="177.625"/><text fill="#000000" font-family="sans-serif" font-size="13" lengthAdjust="spacing" textLength="39" x="102" y="172.7686">accept</text><polygon fill="#A80036" points="224.5,187.625,234.5,191.625,224.5,195.625,228.5,191.625" style="stroke:#A80036;stroke-width:1.0;"/><line style="stroke:#A80036;stroke-width:1.0;stroke-dasharray:2.0,2.0;" x1="95" x2="230.5" y1="191.625" y2="191.625"/><polygon fill="#A80036" points="345,217.9766,355,221.9766,345,221.9766" style="stroke:#A80036;stroke-width:1.0;"/><line style="stroke:#A80036;stroke-width:1.0;" x1="241.5" x2="356" y1="221.9766" y2="221.9766"/><text fill="#000000" font-family="sans-serif" font-size="13" lengthAdjust="spacing" textLength="26" x="248.5" y="217.1201">start</text><polygon fill="#A80036" points="475,255.3281,485,259.3281,475,263.3281,479,259.3281" style="stroke:#A80036;stroke-width:1.0;"/><line style="stroke:#A80036;stroke-width:1.0;" x1="367" x2="481" y1="259.3281" y2="259.3281"/><text fill="#000000" font-family="sans-serif" font-size="13" lengthAdjust="spacing" textLength="32" x="374" y="254.4717">parse</text><line style="stroke:#A80036;stroke-width:1.0;" x1="367" x2="409" y1="289.6797" y2="289.6797"/><line style="stroke:#A80036;stroke-width:1.0;" x1="409" x2="409" y1="289.6797" y2="302.6797"/><line style="stroke:#A80036;stroke-width:1.0;" x1="368" x2="409" y1="302.6797" y2="302.6797"/><polygon fill="#A80036" points="378,298.6797,368,302.6797,378,306.6797,374,302.6797" style="stroke:#A80036;stroke-width:1.0;"/><text fill="#000000" font-family="sans-serif" font-size="13" lengthAdjust="spacing" textLength="46" x="374" y="284.8232">execute</text><polygon fill="#A80036" points="475,329.0313,485,333.0313,475,337.0313,479,333.0313" style="stroke:#A80036;stroke-width:1.0;"/><line style="stroke:#A80036;stroke-width:1.0;" x1="367" x2="481" y1="333.0313" y2="333.0313"/><text fill="#000000" font-family="sans-serif" font-size="13" lengthAdjust="spacing" textLength="27" x="374" y="328.1748">build</text><polygon fill="#A80036" points="106,343.0313,96,347.0313,106,351.0313,102,347.0313" style="stroke:#A80036;stroke-width:1.0;"/><line style="stroke:#A80036;stroke-width:1.0;stroke-dasharray:2.0,2.0;" x1="100" x2="361" y1="347.0313" y2="347.0313"/><!--MD5=[d4f432413e6494c8573045fbd4403693]
@startuml

participant AGV_DIGITAL_TWIN <<client>>

AGV_DIGITAL_TWIN -> AVG_MANAGER : new
loop true
AGV_DIGITAL_TWIN -> AVG_MANAGER: start
Activate AVG_MANAGER
AGV_DIGITAL_TWIN -> AVG_MANAGER: accept

AGV_DIGITAL_TWIN - -> AVG_MANAGER

participant HandleClient <<thread>>
activate HandleClient
AVG_MANAGER -\ HandleClient: start
deactivate AVG_MANAGER
end

HandleClient -> SPOMSMenssage:parse
HandleClient -> HandleClient: execute
HandleClient -> SPOMSMenssage:build

HandleClient - -> AGV_DIGITAL_TWIN
deactivate HandleClient

@enduml

PlantUML version 1.2022.1(Tue Feb 01 18:19:58 GMT 2022)
(GPL source distribution)
Java Runtime: OpenJDK Runtime Environment
JVM: OpenJDK 64-Bit Server VM
Default Encoding: Cp1252
Language: pt
Country: PT
--></g></svg>