<?xml version="1.0" encoding="UTF-8" standalone="no"?><svg xmlns="http://www.w3.org/2000/svg" xmlns:xlink="http://www.w3.org/1999/xlink" contentScriptType="application/ecmascript" contentStyleType="text/css" height="716px" preserveAspectRatio="none" style="width:824px;height:716px;background:#FFFFFF;" version="1.1" viewBox="0 0 824 716" width="824px" zoomAndPan="magnify"><defs><filter height="300%" id="fi5oqa2stwlo1" width="300%" x="-1" y="-1"><feGaussianBlur result="blurOut" stdDeviation="2.0"/><feColorMatrix in="blurOut" result="blurOut2" type="matrix" values="0 0 0 0 0 0 0 0 0 0 0 0 0 0 0 0 0 0 .4 0"/><feOffset dx="4.0" dy="4.0" in="blurOut2" result="blurOut3"/><feBlend in="SourceGraphic" in2="blurOut3" mode="normal"/></filter></defs><g><!--MD5=[d64883541e3d62e3241c4d12decf100d]
cluster Application--><polygon fill="#FFFFFF" filter="url(#fi5oqa2stwlo1)" points="505,6,589,6,596,29.6094,705,29.6094,705,161,505,161,505,6" style="stroke:#000000;stroke-width:1.5;"/><line style="stroke:#000000;stroke-width:1.5;" x1="505" x2="596" y1="29.6094" y2="29.6094"/><text fill="#000000" font-family="sans-serif" font-size="14" font-weight="bold" lengthAdjust="spacing" textLength="78" x="509" y="22.5332">Application</text><!--MD5=[121a8bf1197281ab89ed693fab589f94]
cluster Domain--><polygon fill="#FFFFFF" filter="url(#fi5oqa2stwlo1)" points="16,185,74,185,81,208.6094,407,208.6094,407,573,16,573,16,185" style="stroke:#000000;stroke-width:1.5;"/><line style="stroke:#000000;stroke-width:1.5;" x1="16" x2="81" y1="208.6094" y2="208.6094"/><text fill="#000000" font-family="sans-serif" font-size="14" font-weight="bold" lengthAdjust="spacing" textLength="52" x="20" y="201.5332">Domain</text><!--MD5=[bc6b40dadbf86ab6a0c8405a467a48af]
cluster Persistence--><polygon fill="#FFFFFF" filter="url(#fi5oqa2stwlo1)" points="431,212.5,521,212.5,528,236.1094,771,236.1094,771,709,431,709,431,212.5" style="stroke:#000000;stroke-width:1.5;"/><line style="stroke:#000000;stroke-width:1.5;" x1="431" x2="528" y1="236.1094" y2="236.1094"/><text fill="#000000" font-family="sans-serif" font-size="14" font-weight="bold" lengthAdjust="spacing" textLength="84" x="435" y="229.0332">Persistence</text><!--MD5=[fd0efc4ad03440e883940b9a6894da81]
class AutomaticTaskController--><rect codeLine="8" fill="#FEFECE" filter="url(#fi5oqa2stwlo1)" height="103.3438" id="AutomaticTaskController" style="stroke:#A80036;stroke-width:1.5;" width="167" x="521.5" y="42"/><ellipse cx="536.5" cy="58" fill="#ADD1B2" rx="11" ry="11" style="stroke:#A80036;stroke-width:1.0;"/><path d="M538.5,54.5 Q538.7031,54 538.9375,53.75 Q539.1719,53.5 539.4375,53.5 Q539.9063,53.5 540.2031,53.7813 Q540.5,54.0625 540.5,54.7188 L540.5,56.2813 Q540.5,56.9375 540.2188,57.2188 Q539.9375,57.5 539.5,57.5 Q539.1094,57.5 538.8594,57.3281 Q538.6094,57.1563 538.5,56.7031 Q538.4531,56.3906 538.2813,56.2188 Q537.9688,55.8906 537.4063,55.7031 Q536.8438,55.5 536.2813,55.5 Q535.5781,55.5 534.9844,55.7813 Q534.4063,56.0625 533.9531,56.6875 Q533.5,57.3125 533.5,58.1719 L533.5,59.0938 Q533.5,60.125 534.3438,60.8125 Q535.1875,61.5 536.6875,61.5 Q537.5781,61.5 538.2031,61.2969 Q538.5625,61.1875 538.9688,60.8281 Q539.2344,60.625 539.375,60.5625 Q539.5156,60.5 539.6875,60.5 Q540.0156,60.5 540.25,60.7656 Q540.5,61.0156 540.5,61.375 Q540.5,61.7188 540.1563,62.125 Q539.6563,62.7188 538.8594,63.0469 Q537.8125,63.5 536.5313,63.5 Q535.0313,63.5 533.8281,62.9063 Q532.8594,62.4375 532.1719,61.4219 Q531.5,60.4063 531.5,59.2031 L531.5,58.1094 Q531.5,56.8594 532.0938,55.7656 Q532.7031,54.6719 533.75,54.0938 Q534.8125,53.5 536,53.5 Q536.7188,53.5 537.3438,53.75 Q537.9688,54 538.5,54.5 Z " fill="#000000"/><text fill="#000000" font-family="sans-serif" font-size="12" lengthAdjust="spacing" textLength="135" x="550.5" y="62.9102">AutomaticTaskController</text><line style="stroke:#A80036;stroke-width:1.5;" x1="522.5" x2="687.5" y1="74" y2="74"/><line style="stroke:#A80036;stroke-width:1.5;" x1="522.5" x2="687.5" y1="82" y2="82"/><text fill="#000000" font-family="sans-serif" font-size="11" lengthAdjust="spacing" textLength="144" x="527.5" y="97.4189">+List&lt;AGV&gt; AvailableAGVs()</text><text fill="#000000" font-family="sans-serif" font-size="11" lengthAdjust="spacing" textLength="119" x="527.5" y="111.2549">+List&lt;Order&gt; OrderList()</text><text fill="#000000" font-family="sans-serif" font-size="11" lengthAdjust="spacing" textLength="90" x="527.5" y="125.0908">+List&lt;Order&gt; fifo()</text><text fill="#000000" font-family="sans-serif" font-size="11" lengthAdjust="spacing" textLength="123" x="527.5" y="138.9268">+List&lt;Task&gt; createTask()</text><!--MD5=[cf4d6237fcae255cd2e1656cf84a30e2]
class Order--><rect codeLine="19" fill="#FEFECE" filter="url(#fi5oqa2stwlo1)" height="172.5234" id="Order" style="stroke:#A80036;stroke-width:1.5;" width="194" x="32" y="384"/><ellipse cx="109.25" cy="400" fill="#ADD1B2" rx="11" ry="11" style="stroke:#A80036;stroke-width:1.0;"/><path d="M111.25,396.5 Q111.4531,396 111.6875,395.75 Q111.9219,395.5 112.1875,395.5 Q112.6563,395.5 112.9531,395.7813 Q113.25,396.0625 113.25,396.7188 L113.25,398.2813 Q113.25,398.9375 112.9688,399.2188 Q112.6875,399.5 112.25,399.5 Q111.8594,399.5 111.6094,399.3281 Q111.3594,399.1563 111.25,398.7031 Q111.2031,398.3906 111.0313,398.2188 Q110.7188,397.8906 110.1563,397.7031 Q109.5938,397.5 109.0313,397.5 Q108.3281,397.5 107.7344,397.7813 Q107.1563,398.0625 106.7031,398.6875 Q106.25,399.3125 106.25,400.1719 L106.25,401.0938 Q106.25,402.125 107.0938,402.8125 Q107.9375,403.5 109.4375,403.5 Q110.3281,403.5 110.9531,403.2969 Q111.3125,403.1875 111.7188,402.8281 Q111.9844,402.625 112.125,402.5625 Q112.2656,402.5 112.4375,402.5 Q112.7656,402.5 113,402.7656 Q113.25,403.0156 113.25,403.375 Q113.25,403.7188 112.9063,404.125 Q112.4063,404.7188 111.6094,405.0469 Q110.5625,405.5 109.2813,405.5 Q107.7813,405.5 106.5781,404.9063 Q105.6094,404.4375 104.9219,403.4219 Q104.25,402.4063 104.25,401.2031 L104.25,400.1094 Q104.25,398.8594 104.8438,397.7656 Q105.4531,396.6719 106.5,396.0938 Q107.5625,395.5 108.75,395.5 Q109.4688,395.5 110.0938,395.75 Q110.7188,396 111.25,396.5 Z " fill="#000000"/><text fill="#000000" font-family="sans-serif" font-size="12" lengthAdjust="spacing" textLength="31" x="129.75" y="404.9102">Order</text><line style="stroke:#A80036;stroke-width:1.5;" x1="33" x2="225" y1="416" y2="416"/><text fill="#000000" font-family="sans-serif" font-size="11" lengthAdjust="spacing" textLength="105" x="38" y="431.4189">-NumericID numericID;</text><text fill="#000000" font-family="sans-serif" font-size="11" lengthAdjust="spacing" textLength="101" x="38" y="445.2549">-Custumer customer;</text><text fill="#000000" font-family="sans-serif" font-size="11" lengthAdjust="spacing" textLength="139" x="38" y="459.0908">-ShoppingCart shoppingCart;</text><text fill="#000000" font-family="sans-serif" font-size="11" lengthAdjust="spacing" textLength="49" x="38" y="472.9268">-BOP bop;</text><text fill="#000000" font-family="sans-serif" font-size="11" lengthAdjust="spacing" textLength="161" x="38" y="486.7627">-ShippingMeyhd shipmentMethod;</text><text fill="#000000" font-family="sans-serif" font-size="11" lengthAdjust="spacing" textLength="162" x="38" y="500.5986">-PaymentMethod paymentMethod;</text><text fill="#000000" font-family="sans-serif" font-size="11" lengthAdjust="spacing" textLength="182" x="38" y="514.4346">-PriceWithShipping priceWithShipping;</text><text fill="#000000" font-family="sans-serif" font-size="11" lengthAdjust="spacing" textLength="123" x="38" y="528.2705">-LocalDateTime dateTime;</text><text fill="#000000" font-family="sans-serif" font-size="11" lengthAdjust="spacing" textLength="126" x="38" y="542.1064">-OrderStatus orderStatus;</text><line style="stroke:#A80036;stroke-width:1.5;" x1="33" x2="225" y1="548.5234" y2="548.5234"/><!--MD5=[b34797a66dc35cbf1d65f7e3ca75530e]
class Task--><rect codeLine="32" fill="#FEFECE" filter="url(#fi5oqa2stwlo1)" height="103.3438" id="Task" style="stroke:#A80036;stroke-width:1.5;" width="299" x="91.5" y="221"/><ellipse cx="223.25" cy="237" fill="#ADD1B2" rx="11" ry="11" style="stroke:#A80036;stroke-width:1.0;"/><path d="M225.25,233.5 Q225.4531,233 225.6875,232.75 Q225.9219,232.5 226.1875,232.5 Q226.6563,232.5 226.9531,232.7813 Q227.25,233.0625 227.25,233.7188 L227.25,235.2813 Q227.25,235.9375 226.9688,236.2188 Q226.6875,236.5 226.25,236.5 Q225.8594,236.5 225.6094,236.3281 Q225.3594,236.1563 225.25,235.7031 Q225.2031,235.3906 225.0313,235.2188 Q224.7188,234.8906 224.1563,234.7031 Q223.5938,234.5 223.0313,234.5 Q222.3281,234.5 221.7344,234.7813 Q221.1563,235.0625 220.7031,235.6875 Q220.25,236.3125 220.25,237.1719 L220.25,238.0938 Q220.25,239.125 221.0938,239.8125 Q221.9375,240.5 223.4375,240.5 Q224.3281,240.5 224.9531,240.2969 Q225.3125,240.1875 225.7188,239.8281 Q225.9844,239.625 226.125,239.5625 Q226.2656,239.5 226.4375,239.5 Q226.7656,239.5 227,239.7656 Q227.25,240.0156 227.25,240.375 Q227.25,240.7188 226.9063,241.125 Q226.4063,241.7188 225.6094,242.0469 Q224.5625,242.5 223.2813,242.5 Q221.7813,242.5 220.5781,241.9063 Q219.6094,241.4375 218.9219,240.4219 Q218.25,239.4063 218.25,238.2031 L218.25,237.1094 Q218.25,235.8594 218.8438,234.7656 Q219.4531,233.6719 220.5,233.0938 Q221.5625,232.5 222.75,232.5 Q223.4688,232.5 224.0938,232.75 Q224.7188,233 225.25,233.5 Z " fill="#000000"/><text fill="#000000" font-family="sans-serif" font-size="12" lengthAdjust="spacing" textLength="27" x="243.75" y="241.9102">Task</text><line style="stroke:#A80036;stroke-width:1.5;" x1="92.5" x2="389.5" y1="253" y2="253"/><text fill="#000000" font-family="sans-serif" font-size="11" lengthAdjust="spacing" textLength="26" x="97.5" y="268.4189">-int id</text><text fill="#000000" font-family="sans-serif" font-size="11" lengthAdjust="spacing" textLength="73" x="97.5" y="282.2549">-Priority priority</text><text fill="#000000" font-family="sans-serif" font-size="11" lengthAdjust="spacing" textLength="68" x="97.5" y="296.0908">-Status status</text><line style="stroke:#A80036;stroke-width:1.5;" x1="92.5" x2="389.5" y1="302.5078" y2="302.5078"/><text fill="#000000" font-family="sans-serif" font-size="11" lengthAdjust="spacing" textLength="287" x="97.5" y="317.9268">+Task(AGV agv,Order order,Status status , Priority priority)</text><!--MD5=[53b2c06ade5903185ca3326dce80e141]
class AGV--><rect codeLine="39" fill="#FEFECE" filter="url(#fi5oqa2stwlo1)" height="144.8516" id="AGV" style="stroke:#A80036;stroke-width:1.5;" width="129" x="261.5" y="398"/><ellipse cx="310.25" cy="414" fill="#ADD1B2" rx="11" ry="11" style="stroke:#A80036;stroke-width:1.0;"/><path d="M312.25,410.5 Q312.4531,410 312.6875,409.75 Q312.9219,409.5 313.1875,409.5 Q313.6563,409.5 313.9531,409.7813 Q314.25,410.0625 314.25,410.7188 L314.25,412.2813 Q314.25,412.9375 313.9688,413.2188 Q313.6875,413.5 313.25,413.5 Q312.8594,413.5 312.6094,413.3281 Q312.3594,413.1563 312.25,412.7031 Q312.2031,412.3906 312.0313,412.2188 Q311.7188,411.8906 311.1563,411.7031 Q310.5938,411.5 310.0313,411.5 Q309.3281,411.5 308.7344,411.7813 Q308.1563,412.0625 307.7031,412.6875 Q307.25,413.3125 307.25,414.1719 L307.25,415.0938 Q307.25,416.125 308.0938,416.8125 Q308.9375,417.5 310.4375,417.5 Q311.3281,417.5 311.9531,417.2969 Q312.3125,417.1875 312.7188,416.8281 Q312.9844,416.625 313.125,416.5625 Q313.2656,416.5 313.4375,416.5 Q313.7656,416.5 314,416.7656 Q314.25,417.0156 314.25,417.375 Q314.25,417.7188 313.9063,418.125 Q313.4063,418.7188 312.6094,419.0469 Q311.5625,419.5 310.2813,419.5 Q308.7813,419.5 307.5781,418.9063 Q306.6094,418.4375 305.9219,417.4219 Q305.25,416.4063 305.25,415.2031 L305.25,414.1094 Q305.25,412.8594 305.8438,411.7656 Q306.4531,410.6719 307.5,410.0938 Q308.5625,409.5 309.75,409.5 Q310.4688,409.5 311.0938,409.75 Q311.7188,410 312.25,410.5 Z " fill="#000000"/><text fill="#000000" font-family="sans-serif" font-size="12" lengthAdjust="spacing" textLength="23" x="330.75" y="418.9102">AGV</text><line style="stroke:#A80036;stroke-width:1.5;" x1="262.5" x2="389.5" y1="430" y2="430"/><text fill="#000000" font-family="sans-serif" font-size="11" lengthAdjust="spacing" textLength="29" x="267.5" y="445.4189">-int id;</text><text fill="#000000" font-family="sans-serif" font-size="11" lengthAdjust="spacing" textLength="117" x="267.5" y="459.2549">-Description description;</text><text fill="#000000" font-family="sans-serif" font-size="11" lengthAdjust="spacing" textLength="66" x="267.5" y="473.0908">-Model model;</text><text fill="#000000" font-family="sans-serif" font-size="11" lengthAdjust="spacing" textLength="116" x="267.5" y="486.9268">-MaxWeight maxWeight;</text><text fill="#000000" font-family="sans-serif" font-size="11" lengthAdjust="spacing" textLength="106" x="267.5" y="500.7627">-Autonomy autonomy;</text><text fill="#000000" font-family="sans-serif" font-size="11" lengthAdjust="spacing" textLength="92" x="267.5" y="514.5986">-boolean ocuppied;</text><text fill="#000000" font-family="sans-serif" font-size="11" lengthAdjust="spacing" textLength="75" x="267.5" y="528.4346">-boolean inUse;</text><line style="stroke:#A80036;stroke-width:1.5;" x1="262.5" x2="389.5" y1="534.8516" y2="534.8516"/><!--MD5=[48590afff58a68e2fcba47824d6f8a11]
class RepositoryFactory--><rect codeLine="52" fill="#FEFECE" filter="url(#fi5oqa2stwlo1)" height="48" id="RepositoryFactory" style="stroke:#A80036;stroke-width:1.5;" width="130" x="540" y="248.5"/><ellipse cx="555" cy="264.5" fill="#ADD1B2" rx="11" ry="11" style="stroke:#A80036;stroke-width:1.0;"/><path d="M557,261 Q557.2031,260.5 557.4375,260.25 Q557.6719,260 557.9375,260 Q558.4063,260 558.7031,260.2813 Q559,260.5625 559,261.2188 L559,262.7813 Q559,263.4375 558.7188,263.7188 Q558.4375,264 558,264 Q557.6094,264 557.3594,263.8281 Q557.1094,263.6563 557,263.2031 Q556.9531,262.8906 556.7813,262.7188 Q556.4688,262.3906 555.9063,262.2031 Q555.3438,262 554.7813,262 Q554.0781,262 553.4844,262.2813 Q552.9063,262.5625 552.4531,263.1875 Q552,263.8125 552,264.6719 L552,265.5938 Q552,266.625 552.8438,267.3125 Q553.6875,268 555.1875,268 Q556.0781,268 556.7031,267.7969 Q557.0625,267.6875 557.4688,267.3281 Q557.7344,267.125 557.875,267.0625 Q558.0156,267 558.1875,267 Q558.5156,267 558.75,267.2656 Q559,267.5156 559,267.875 Q559,268.2188 558.6563,268.625 Q558.1563,269.2188 557.3594,269.5469 Q556.3125,270 555.0313,270 Q553.5313,270 552.3281,269.4063 Q551.3594,268.9375 550.6719,267.9219 Q550,266.9063 550,265.7031 L550,264.6094 Q550,263.3594 550.5938,262.2656 Q551.2031,261.1719 552.25,260.5938 Q553.3125,260 554.5,260 Q555.2188,260 555.8438,260.25 Q556.4688,260.5 557,261 Z " fill="#000000"/><text fill="#000000" font-family="sans-serif" font-size="12" lengthAdjust="spacing" textLength="98" x="569" y="269.4102">RepositoryFactory</text><line style="stroke:#A80036;stroke-width:1.5;" x1="541" x2="669" y1="280.5" y2="280.5"/><line style="stroke:#A80036;stroke-width:1.5;" x1="541" x2="669" y1="288.5" y2="288.5"/><!--MD5=[708e328039b60d50c6285936843ac334]
class OrderRepository--><rect codeLine="56" fill="#FEFECE" filter="url(#fi5oqa2stwlo1)" height="48" id="OrderRepository" style="stroke:#A80036;stroke-width:1.5;" width="122" x="447" y="446.5"/><ellipse cx="462" cy="462.5" fill="#ADD1B2" rx="11" ry="11" style="stroke:#A80036;stroke-width:1.0;"/><path d="M464,459 Q464.2031,458.5 464.4375,458.25 Q464.6719,458 464.9375,458 Q465.4063,458 465.7031,458.2813 Q466,458.5625 466,459.2188 L466,460.7813 Q466,461.4375 465.7188,461.7188 Q465.4375,462 465,462 Q464.6094,462 464.3594,461.8281 Q464.1094,461.6563 464,461.2031 Q463.9531,460.8906 463.7813,460.7188 Q463.4688,460.3906 462.9063,460.2031 Q462.3438,460 461.7813,460 Q461.0781,460 460.4844,460.2813 Q459.9063,460.5625 459.4531,461.1875 Q459,461.8125 459,462.6719 L459,463.5938 Q459,464.625 459.8438,465.3125 Q460.6875,466 462.1875,466 Q463.0781,466 463.7031,465.7969 Q464.0625,465.6875 464.4688,465.3281 Q464.7344,465.125 464.875,465.0625 Q465.0156,465 465.1875,465 Q465.5156,465 465.75,465.2656 Q466,465.5156 466,465.875 Q466,466.2188 465.6563,466.625 Q465.1563,467.2188 464.3594,467.5469 Q463.3125,468 462.0313,468 Q460.5313,468 459.3281,467.4063 Q458.3594,466.9375 457.6719,465.9219 Q457,464.9063 457,463.7031 L457,462.6094 Q457,461.3594 457.5938,460.2656 Q458.2031,459.1719 459.25,458.5938 Q460.3125,458 461.5,458 Q462.2188,458 462.8438,458.25 Q463.4688,458.5 464,459 Z " fill="#000000"/><text fill="#000000" font-family="sans-serif" font-size="12" lengthAdjust="spacing" textLength="90" x="476" y="467.4102">OrderRepository</text><line style="stroke:#A80036;stroke-width:1.5;" x1="448" x2="568" y1="478.5" y2="478.5"/><line style="stroke:#A80036;stroke-width:1.5;" x1="448" x2="568" y1="486.5" y2="486.5"/><!--MD5=[2d00e6e09a1cfec9653155ee4d91c399]
class TaskRepository--><rect codeLine="59" fill="#FEFECE" filter="url(#fi5oqa2stwlo1)" height="75.6719" id="TaskRepository" style="stroke:#A80036;stroke-width:1.5;" width="146" x="570" y="617"/><ellipse cx="597.6" cy="633" fill="#ADD1B2" rx="11" ry="11" style="stroke:#A80036;stroke-width:1.0;"/><path d="M599.6,629.5 Q599.8031,629 600.0375,628.75 Q600.2719,628.5 600.5375,628.5 Q601.0063,628.5 601.3031,628.7813 Q601.6,629.0625 601.6,629.7188 L601.6,631.2813 Q601.6,631.9375 601.3188,632.2188 Q601.0375,632.5 600.6,632.5 Q600.2094,632.5 599.9594,632.3281 Q599.7094,632.1563 599.6,631.7031 Q599.5531,631.3906 599.3813,631.2188 Q599.0688,630.8906 598.5063,630.7031 Q597.9438,630.5 597.3813,630.5 Q596.6781,630.5 596.0844,630.7813 Q595.5063,631.0625 595.0531,631.6875 Q594.6,632.3125 594.6,633.1719 L594.6,634.0938 Q594.6,635.125 595.4438,635.8125 Q596.2875,636.5 597.7875,636.5 Q598.6781,636.5 599.3031,636.2969 Q599.6625,636.1875 600.0688,635.8281 Q600.3344,635.625 600.475,635.5625 Q600.6156,635.5 600.7875,635.5 Q601.1156,635.5 601.35,635.7656 Q601.6,636.0156 601.6,636.375 Q601.6,636.7188 601.2563,637.125 Q600.7563,637.7188 599.9594,638.0469 Q598.9125,638.5 597.6313,638.5 Q596.1313,638.5 594.9281,637.9063 Q593.9594,637.4375 593.2719,636.4219 Q592.6,635.4063 592.6,634.2031 L592.6,633.1094 Q592.6,631.8594 593.1938,630.7656 Q593.8031,629.6719 594.85,629.0938 Q595.9125,628.5 597.1,628.5 Q597.8188,628.5 598.4438,628.75 Q599.0688,629 599.6,629.5 Z " fill="#000000"/><text fill="#000000" font-family="sans-serif" font-size="12" lengthAdjust="spacing" textLength="86" x="614.4" y="637.9102">TaskRepository</text><line style="stroke:#A80036;stroke-width:1.5;" x1="571" x2="715" y1="649" y2="649"/><line style="stroke:#A80036;stroke-width:1.5;" x1="571" x2="715" y1="657" y2="657"/><text fill="#000000" font-family="sans-serif" font-size="11" lengthAdjust="spacing" textLength="99" x="576" y="672.4189">TaskById(Integer id);</text><text fill="#000000" font-family="sans-serif" font-size="11" lengthAdjust="spacing" textLength="134" x="576" y="686.2549">TaskByOrder(NumericID id);</text><!--MD5=[a2934c79e3adc781b0cd87c74812aba5]
class AGVRepository--><rect codeLine="64" fill="#FEFECE" filter="url(#fi5oqa2stwlo1)" height="48" id="AGVRepository" style="stroke:#A80036;stroke-width:1.5;" width="114" x="641" y="446.5"/><ellipse cx="656" cy="462.5" fill="#ADD1B2" rx="11" ry="11" style="stroke:#A80036;stroke-width:1.0;"/><path d="M658,459 Q658.2031,458.5 658.4375,458.25 Q658.6719,458 658.9375,458 Q659.4063,458 659.7031,458.2813 Q660,458.5625 660,459.2188 L660,460.7813 Q660,461.4375 659.7188,461.7188 Q659.4375,462 659,462 Q658.6094,462 658.3594,461.8281 Q658.1094,461.6563 658,461.2031 Q657.9531,460.8906 657.7813,460.7188 Q657.4688,460.3906 656.9063,460.2031 Q656.3438,460 655.7813,460 Q655.0781,460 654.4844,460.2813 Q653.9063,460.5625 653.4531,461.1875 Q653,461.8125 653,462.6719 L653,463.5938 Q653,464.625 653.8438,465.3125 Q654.6875,466 656.1875,466 Q657.0781,466 657.7031,465.7969 Q658.0625,465.6875 658.4688,465.3281 Q658.7344,465.125 658.875,465.0625 Q659.0156,465 659.1875,465 Q659.5156,465 659.75,465.2656 Q660,465.5156 660,465.875 Q660,466.2188 659.6563,466.625 Q659.1563,467.2188 658.3594,467.5469 Q657.3125,468 656.0313,468 Q654.5313,468 653.3281,467.4063 Q652.3594,466.9375 651.6719,465.9219 Q651,464.9063 651,463.7031 L651,462.6094 Q651,461.3594 651.5938,460.2656 Q652.2031,459.1719 653.25,458.5938 Q654.3125,458 655.5,458 Q656.2188,458 656.8438,458.25 Q657.4688,458.5 658,459 Z " fill="#000000"/><text fill="#000000" font-family="sans-serif" font-size="12" lengthAdjust="spacing" textLength="82" x="670" y="467.4102">AGVRepository</text><line style="stroke:#A80036;stroke-width:1.5;" x1="642" x2="754" y1="478.5" y2="478.5"/><line style="stroke:#A80036;stroke-width:1.5;" x1="642" x2="754" y1="486.5" y2="486.5"/><!--MD5=[da4973825d88bbe4889bcfb7d78be843]
link AutomaticTaskController to Task--><path codeLine="72" d="M521.21,133.84 C492.55,147.4 460.32,162.76 431,177 C403.59,190.31 374.06,204.89 346.63,218.52 " fill="none" id="AutomaticTaskController-to-Task" style="stroke:#A80036;stroke-width:1.0;stroke-dasharray:7.0,7.0;"/><polygon fill="#A80036" points="341.9,220.88,351.7398,220.4579,346.3778,218.6553,348.1804,213.2934,341.9,220.88" style="stroke:#A80036;stroke-width:1.0;"/><!--MD5=[2ed012c4430500a5d3c12badcca15ccf]
link AutomaticTaskController to TaskRepository--><path codeLine="73" d="M662.41,145.41 C671.7,155.3 680.66,166.02 688,177 C743.25,259.69 753.75,286.43 773,384 C789.95,469.9 817.23,505.44 773,581 C761.15,601.25 741.39,616.31 720.81,627.32 " fill="none" id="AutomaticTaskController-to-TaskRepository" style="stroke:#A80036;stroke-width:1.0;stroke-dasharray:7.0,7.0;"/><polygon fill="#A80036" points="716.13,629.75,725.9599,629.1397,720.5644,627.4401,722.2641,622.0446,716.13,629.75" style="stroke:#A80036;stroke-width:1.0;"/><!--MD5=[7ec7762fc5e032c2dab6703fdb5ac5be]
link AutomaticTaskController to RepositoryFactory--><path codeLine="74" d="M605,145.22 C605,177.02 605,216.82 605,243.15 " fill="none" id="AutomaticTaskController-to-RepositoryFactory" style="stroke:#A80036;stroke-width:1.0;stroke-dasharray:7.0,7.0;"/><polygon fill="#A80036" points="605,248.23,609,239.23,605,243.23,601,239.23,605,248.23" style="stroke:#A80036;stroke-width:1.0;"/><!--MD5=[4961dc0a1f38b4bb8bde6c7779428d74]
link RepositoryFactory to OrderRepository--><path codeLine="75" d="M593.49,296.75 C575.55,333 540.99,402.84 521.76,441.7 " fill="none" id="RepositoryFactory-to-OrderRepository" style="stroke:#A80036;stroke-width:1.0;stroke-dasharray:7.0,7.0;"/><polygon fill="#A80036" points="519.49,446.28,527.0605,439.9803,521.7032,441.7965,519.8869,436.4391,519.49,446.28" style="stroke:#A80036;stroke-width:1.0;"/><!--MD5=[8982f41bad9004a09ffb6c14ad72077a]
link RepositoryFactory to TaskRepository--><path codeLine="76" d="M604.71,296.83 C604.44,348.43 605.74,475.99 623,581 C624.67,591.14 627.18,601.9 629.87,611.95 " fill="none" id="RepositoryFactory-to-TaskRepository" style="stroke:#A80036;stroke-width:1.0;stroke-dasharray:7.0,7.0;"/><polygon fill="#A80036" points="631.2,616.82,632.6886,607.0843,629.8832,611.9965,624.971,609.1912,631.2,616.82" style="stroke:#A80036;stroke-width:1.0;"/><!--MD5=[d05eaea78b8765320ad56e3795dd7d42]
link RepositoryFactory to AGVRepository--><path codeLine="77" d="M616.03,296.75 C633.23,333 666.37,402.84 684.81,441.7 " fill="none" id="RepositoryFactory-to-AGVRepository" style="stroke:#A80036;stroke-width:1.0;stroke-dasharray:7.0,7.0;"/><polygon fill="#A80036" points="686.98,446.28,686.7341,436.4342,684.8359,441.7631,679.507,439.8648,686.98,446.28" style="stroke:#A80036;stroke-width:1.0;"/><!--MD5=[77e46851462bd43cd66fc6b6eeeeff62]
link OrderRepository to TaskRepository--><path codeLine="78" d="M525.1,494.61 C546.98,524.2 585.29,575.99 612.29,612.49 " fill="none" id="OrderRepository-to-TaskRepository" style="stroke:#A80036;stroke-width:1.0;stroke-dasharray:7.0,7.0;"/><polygon fill="#A80036" points="615.53,616.86,613.3905,607.2463,612.5552,612.8412,606.9604,612.006,615.53,616.86" style="stroke:#A80036;stroke-width:1.0;"/><!--MD5=[5f61192d37f527ab1cbdb2ec59a80d52]
link AGVRepository to TaskRepository--><path codeLine="79" d="M691.03,494.61 C682.15,524.08 666.64,575.57 655.64,612.04 " fill="none" id="AGVRepository-to-TaskRepository" style="stroke:#A80036;stroke-width:1.0;stroke-dasharray:7.0,7.0;"/><polygon fill="#A80036" points="654.19,616.86,660.6177,609.3977,655.6333,612.0728,652.9582,607.0885,654.19,616.86" style="stroke:#A80036;stroke-width:1.0;"/><!--MD5=[0d2aa91f5ca69bacfa9d143f7167cdda]
link Task to Order--><path codeLine="80" d="M212.01,324.23 C202.45,340.96 191.51,360.11 180.78,378.89 " fill="none" id="Task-to-Order" style="stroke:#A80036;stroke-width:1.0;stroke-dasharray:7.0,7.0;"/><polygon fill="#A80036" points="178.05,383.66,185.9779,377.8163,180.523,379.3144,179.0249,373.8595,178.05,383.66" style="stroke:#A80036;stroke-width:1.0;"/><!--MD5=[d5a317a7410acfb3c0dd4b050b7f9a13]
link Task to AGV--><path codeLine="81" d="M263,324.23 C272.13,345.28 282.92,370.17 292.97,393.33 " fill="none" id="Task-to-AGV" style="stroke:#A80036;stroke-width:1.0;stroke-dasharray:7.0,7.0;"/><polygon fill="#A80036" points="294.97,397.94,295.0643,388.0916,292.9832,393.3517,287.7231,391.2705,294.97,397.94" style="stroke:#A80036;stroke-width:1.0;"/><!--MD5=[68069d6d8e7df03a4006c356cf4a6a3a]
@startuml
skinparam classAttributeIconSize 0




Package Application{

class AutomaticTaskController {
+List<AGV> AvailableAGVs()
+List<Order> OrderList()
+List<Order> fifo()
+List<Task> createTask()

}
}

Package Domain{

class Order {
   -NumericID numericID;
    -Custumer customer;
    -ShoppingCart shoppingCart;
    -BOP bop;
    -ShippingMeyhd shipmentMethod;
    -PaymentMethod paymentMethod;
    -PriceWithShipping priceWithShipping;
    -LocalDateTime dateTime;
    -OrderStatus orderStatus;

}

class Task{
 -int id
  -Priority priority
 -Status status
 +Task(AGV agv,Order order,Status status , Priority priority)
}

class AGV{
     -int id;
     -Description description;
     -Model model;
     -MaxWeight maxWeight;
     -Autonomy autonomy;
     -boolean ocuppied;
     -boolean inUse;
}
}


Package Persistence{
class RepositoryFactory{

}

class OrderRepository{

}
class TaskRepository{
TaskById(Integer id);
TaskByOrder(NumericID id);

}
class AGVRepository{

}


}


AutomaticTaskController ..> Task
AutomaticTaskController ..> TaskRepository
AutomaticTaskController ..> RepositoryFactory
RepositoryFactory ..> OrderRepository
RepositoryFactory ..> TaskRepository
RepositoryFactory ..> AGVRepository
OrderRepository ..> TaskRepository
AGVRepository ..> TaskRepository
Task ..> Order
Task ..> AGV



@enduml

PlantUML version 1.2021.11(Sat Oct 02 14:26:11 BST 2021)
(GPL source distribution)
Java Runtime: OpenJDK Runtime Environment
JVM: OpenJDK 64-Bit Server VM
Default Encoding: Cp1252
Language: pt
Country: PT
--></g></svg>