<?xml version="1.0" encoding="UTF-8" standalone="no"?><svg xmlns="http://www.w3.org/2000/svg" xmlns:xlink="http://www.w3.org/1999/xlink" contentStyleType="text/css" height="466px" preserveAspectRatio="none" style="width:435px;height:466px;background:#FFFFFF;" version="1.1" viewBox="0 0 435 466" width="435px" zoomAndPan="magnify"><defs/><g><!--MD5=[8fd473fd151a2794da4f2c8684676405]
cluster Presentation--><g id="cluster_Presentation"><path d="M35.5,6 L137.5,6 A3.75,3.75 0 0 1 140,8.5 L147,28.2969 L186.5,28.2969 A2.5,2.5 0 0 1 189,30.7969 L189,102.5 A2.5,2.5 0 0 1 186.5,105 L35.5,105 A2.5,2.5 0 0 1 33,102.5 L33,8.5 A2.5,2.5 0 0 1 35.5,6 " style="stroke:#000000;stroke-width:1.5;fill:none;"/><line style="stroke:#000000;stroke-width:1.5;fill:none;" x1="33" x2="147" y1="28.2969" y2="28.2969"/><text fill="#000000" font-family="sans-serif" font-size="14" font-weight="bold" lengthAdjust="spacing" textLength="101" x="37" y="20.9951">Presentation</text></g><!--MD5=[d64883541e3d62e3241c4d12decf100d]
cluster Application--><g id="cluster_Application"><path d="M8.5,129 L96.5,129 A3.75,3.75 0 0 1 99,131.5 L106,151.2969 L213.5,151.2969 A2.5,2.5 0 0 1 216,153.7969 L216,225.5 A2.5,2.5 0 0 1 213.5,228 L8.5,228 A2.5,2.5 0 0 1 6,225.5 L6,131.5 A2.5,2.5 0 0 1 8.5,129 " style="stroke:#000000;stroke-width:1.5;fill:none;"/><line style="stroke:#000000;stroke-width:1.5;fill:none;" x1="6" x2="106" y1="151.2969" y2="151.2969"/><text fill="#000000" font-family="sans-serif" font-size="14" font-weight="bold" lengthAdjust="spacing" textLength="87" x="10" y="143.9951">Application</text></g><!--MD5=[121a8bf1197281ab89ed693fab589f94]
cluster Domain--><g id="cluster_Domain"><path d="M42.5,252 L101.5,252 A3.75,3.75 0 0 1 104,254.5 L111,274.2969 L179.5,274.2969 A2.5,2.5 0 0 1 182,276.7969 L182,456.5 A2.5,2.5 0 0 1 179.5,459 L42.5,459 A2.5,2.5 0 0 1 40,456.5 L40,254.5 A2.5,2.5 0 0 1 42.5,252 " style="stroke:#000000;stroke-width:1.5;fill:none;"/><line style="stroke:#000000;stroke-width:1.5;fill:none;" x1="40" x2="111" y1="274.2969" y2="274.2969"/><text fill="#000000" font-family="sans-serif" font-size="14" font-weight="bold" lengthAdjust="spacing" textLength="58" x="44" y="266.9951">Domain</text></g><!--MD5=[bc6b40dadbf86ab6a0c8405a467a48af]
cluster Persistence--><g id="cluster_Persistence"><path d="M242.5,129 L337.5,129 A3.75,3.75 0 0 1 340,131.5 L347,151.2969 L425.5,151.2969 A2.5,2.5 0 0 1 428,153.7969 L428,348.5 A2.5,2.5 0 0 1 425.5,351 L242.5,351 A2.5,2.5 0 0 1 240,348.5 L240,131.5 A2.5,2.5 0 0 1 242.5,129 " style="stroke:#000000;stroke-width:1.5;fill:none;"/><line style="stroke:#000000;stroke-width:1.5;fill:none;" x1="240" x2="347" y1="151.2969" y2="151.2969"/><text fill="#000000" font-family="sans-serif" font-size="14" font-weight="bold" lengthAdjust="spacing" textLength="94" x="244" y="143.9951">Persistence</text></g><!--MD5=[804b4fcc4538cd634dcee701e7e0a080]
class TaskAssignUI--><g id="elem_TaskAssignUI"><rect codeLine="5" fill="#F1F1F1" height="48" id="TaskAssignUI" rx="2.5" ry="2.5" style="stroke:#181818;stroke-width:0.5;" width="124" x="49" y="41"/><ellipse cx="64" cy="57" fill="#ADD1B2" rx="11" ry="11" style="stroke:#181818;stroke-width:1.0;"/><path d="M66.9688,62.6406 Q66.3906,62.9375 65.75,63.0781 Q65.1094,63.2344 64.4063,63.2344 Q61.9063,63.2344 60.5781,61.5938 Q59.2656,59.9375 59.2656,56.8125 Q59.2656,53.6875 60.5781,52.0313 Q61.9063,50.375 64.4063,50.375 Q65.1094,50.375 65.75,50.5313 Q66.4063,50.6875 66.9688,50.9844 L66.9688,53.7031 Q66.3438,53.125 65.75,52.8594 Q65.1563,52.5781 64.5313,52.5781 Q63.1875,52.5781 62.5,53.6563 Q61.8125,54.7188 61.8125,56.8125 Q61.8125,58.9063 62.5,59.9844 Q63.1875,61.0469 64.5313,61.0469 Q65.1563,61.0469 65.75,60.7813 Q66.3438,60.5 66.9688,59.9219 L66.9688,62.6406 Z " fill="#000000"/><text fill="#000000" font-family="sans-serif" font-size="14" lengthAdjust="spacing" textLength="92" x="78" y="61.8467">TaskAssignUI</text><line style="stroke:#181818;stroke-width:0.5;" x1="50" x2="172" y1="73" y2="73"/><line style="stroke:#181818;stroke-width:0.5;" x1="50" x2="172" y1="81" y2="81"/></g><!--MD5=[a2443c3914ebb1c3efe5b9e271cccfd9]
class TaskAssignController--><g id="elem_TaskAssignController"><rect codeLine="11" fill="#F1F1F1" height="48" id="TaskAssignController" rx="2.5" ry="2.5" style="stroke:#181818;stroke-width:0.5;" width="178" x="22" y="164"/><ellipse cx="37" cy="180" fill="#ADD1B2" rx="11" ry="11" style="stroke:#181818;stroke-width:1.0;"/><path d="M39.9688,185.6406 Q39.3906,185.9375 38.75,186.0781 Q38.1094,186.2344 37.4063,186.2344 Q34.9063,186.2344 33.5781,184.5938 Q32.2656,182.9375 32.2656,179.8125 Q32.2656,176.6875 33.5781,175.0313 Q34.9063,173.375 37.4063,173.375 Q38.1094,173.375 38.75,173.5313 Q39.4063,173.6875 39.9688,173.9844 L39.9688,176.7031 Q39.3438,176.125 38.75,175.8594 Q38.1563,175.5781 37.5313,175.5781 Q36.1875,175.5781 35.5,176.6563 Q34.8125,177.7188 34.8125,179.8125 Q34.8125,181.9063 35.5,182.9844 Q36.1875,184.0469 37.5313,184.0469 Q38.1563,184.0469 38.75,183.7813 Q39.3438,183.5 39.9688,182.9219 L39.9688,185.6406 Z " fill="#000000"/><text fill="#000000" font-family="sans-serif" font-size="14" lengthAdjust="spacing" textLength="146" x="51" y="184.8467">TaskAssignController</text><line style="stroke:#181818;stroke-width:0.5;" x1="23" x2="199" y1="196" y2="196"/><line style="stroke:#181818;stroke-width:0.5;" x1="23" x2="199" y1="204" y2="204"/></g><!--MD5=[cf4d6237fcae255cd2e1656cf84a30e2]
class Order--><g id="elem_Order"><rect codeLine="18" fill="#F1F1F1" height="48" id="Order" rx="2.5" ry="2.5" style="stroke:#181818;stroke-width:0.5;" width="71" x="65.5" y="395"/><ellipse cx="80.5" cy="411" fill="#ADD1B2" rx="11" ry="11" style="stroke:#181818;stroke-width:1.0;"/><path d="M83.4688,416.6406 Q82.8906,416.9375 82.25,417.0781 Q81.6094,417.2344 80.9063,417.2344 Q78.4063,417.2344 77.0781,415.5938 Q75.7656,413.9375 75.7656,410.8125 Q75.7656,407.6875 77.0781,406.0313 Q78.4063,404.375 80.9063,404.375 Q81.6094,404.375 82.25,404.5313 Q82.9063,404.6875 83.4688,404.9844 L83.4688,407.7031 Q82.8438,407.125 82.25,406.8594 Q81.6563,406.5781 81.0313,406.5781 Q79.6875,406.5781 79,407.6563 Q78.3125,408.7188 78.3125,410.8125 Q78.3125,412.9063 79,413.9844 Q79.6875,415.0469 81.0313,415.0469 Q81.6563,415.0469 82.25,414.7813 Q82.8438,414.5 83.4688,413.9219 L83.4688,416.6406 Z " fill="#000000"/><text fill="#000000" font-family="sans-serif" font-size="14" lengthAdjust="spacing" textLength="39" x="94.5" y="415.8467">Order</text><line style="stroke:#181818;stroke-width:0.5;" x1="66.5" x2="135.5" y1="427" y2="427"/><line style="stroke:#181818;stroke-width:0.5;" x1="66.5" x2="135.5" y1="435" y2="435"/></g><!--MD5=[a2cbeb9cb69431de6ce5c10d03c943a2]
class AGVFactory--><g id="elem_AGVFactory"><rect codeLine="23" fill="#F1F1F1" height="48" id="AGVFactory" rx="2.5" ry="2.5" style="stroke:#181818;stroke-width:0.5;" width="111" x="55.5" y="287"/><ellipse cx="70.5" cy="303" fill="#ADD1B2" rx="11" ry="11" style="stroke:#181818;stroke-width:1.0;"/><path d="M73.4688,308.6406 Q72.8906,308.9375 72.25,309.0781 Q71.6094,309.2344 70.9063,309.2344 Q68.4063,309.2344 67.0781,307.5938 Q65.7656,305.9375 65.7656,302.8125 Q65.7656,299.6875 67.0781,298.0313 Q68.4063,296.375 70.9063,296.375 Q71.6094,296.375 72.25,296.5313 Q72.9063,296.6875 73.4688,296.9844 L73.4688,299.7031 Q72.8438,299.125 72.25,298.8594 Q71.6563,298.5781 71.0313,298.5781 Q69.6875,298.5781 69,299.6563 Q68.3125,300.7188 68.3125,302.8125 Q68.3125,304.9063 69,305.9844 Q69.6875,307.0469 71.0313,307.0469 Q71.6563,307.0469 72.25,306.7813 Q72.8438,306.5 73.4688,305.9219 L73.4688,308.6406 Z " fill="#000000"/><text fill="#000000" font-family="sans-serif" font-size="14" lengthAdjust="spacing" textLength="79" x="84.5" y="307.8467">AGVFactory</text><line style="stroke:#181818;stroke-width:0.5;" x1="56.5" x2="165.5" y1="319" y2="319"/><line style="stroke:#181818;stroke-width:0.5;" x1="56.5" x2="165.5" y1="327" y2="327"/></g><!--MD5=[48590afff58a68e2fcba47824d6f8a11]
class RepositoryFactory--><g id="elem_RepositoryFactory"><rect codeLine="31" fill="#F1F1F1" height="48" id="RepositoryFactory" rx="2.5" ry="2.5" style="stroke:#181818;stroke-width:0.5;" width="156" x="256" y="164"/><ellipse cx="271" cy="180" fill="#ADD1B2" rx="11" ry="11" style="stroke:#181818;stroke-width:1.0;"/><path d="M273.9688,185.6406 Q273.3906,185.9375 272.75,186.0781 Q272.1094,186.2344 271.4063,186.2344 Q268.9063,186.2344 267.5781,184.5938 Q266.2656,182.9375 266.2656,179.8125 Q266.2656,176.6875 267.5781,175.0313 Q268.9063,173.375 271.4063,173.375 Q272.1094,173.375 272.75,173.5313 Q273.4063,173.6875 273.9688,173.9844 L273.9688,176.7031 Q273.3438,176.125 272.75,175.8594 Q272.1563,175.5781 271.5313,175.5781 Q270.1875,175.5781 269.5,176.6563 Q268.8125,177.7188 268.8125,179.8125 Q268.8125,181.9063 269.5,182.9844 Q270.1875,184.0469 271.5313,184.0469 Q272.1563,184.0469 272.75,183.7813 Q273.3438,183.5 273.9688,182.9219 L273.9688,185.6406 Z " fill="#000000"/><text fill="#000000" font-family="sans-serif" font-size="14" lengthAdjust="spacing" textLength="124" x="285" y="184.8467">RepositoryFactory</text><line style="stroke:#181818;stroke-width:0.5;" x1="257" x2="411" y1="196" y2="196"/><line style="stroke:#181818;stroke-width:0.5;" x1="257" x2="411" y1="204" y2="204"/></g><!--MD5=[708e328039b60d50c6285936843ac334]
class OrderRepository--><g id="elem_OrderRepository"><rect codeLine="35" fill="#F1F1F1" height="48" id="OrderRepository" rx="2.5" ry="2.5" style="stroke:#181818;stroke-width:0.5;" width="145" x="258.5" y="287"/><ellipse cx="273.5" cy="303" fill="#ADD1B2" rx="11" ry="11" style="stroke:#181818;stroke-width:1.0;"/><path d="M276.4688,308.6406 Q275.8906,308.9375 275.25,309.0781 Q274.6094,309.2344 273.9063,309.2344 Q271.4063,309.2344 270.0781,307.5938 Q268.7656,305.9375 268.7656,302.8125 Q268.7656,299.6875 270.0781,298.0313 Q271.4063,296.375 273.9063,296.375 Q274.6094,296.375 275.25,296.5313 Q275.9063,296.6875 276.4688,296.9844 L276.4688,299.7031 Q275.8438,299.125 275.25,298.8594 Q274.6563,298.5781 274.0313,298.5781 Q272.6875,298.5781 272,299.6563 Q271.3125,300.7188 271.3125,302.8125 Q271.3125,304.9063 272,305.9844 Q272.6875,307.0469 274.0313,307.0469 Q274.6563,307.0469 275.25,306.7813 Q275.8438,306.5 276.4688,305.9219 L276.4688,308.6406 Z " fill="#000000"/><text fill="#000000" font-family="sans-serif" font-size="14" lengthAdjust="spacing" textLength="113" x="287.5" y="307.8467">OrderRepository</text><line style="stroke:#181818;stroke-width:0.5;" x1="259.5" x2="402.5" y1="319" y2="319"/><line style="stroke:#181818;stroke-width:0.5;" x1="259.5" x2="402.5" y1="327" y2="327"/></g><!--MD5=[0e868bb581d65cf44ef65e65c65183ef]
link TaskAssignUI to TaskAssignController--><g id="link_TaskAssignUI_TaskAssignController"><path codeLine="42" d="M111,89.04 C111,108.77 111,137.24 111,158.41 " fill="none" id="TaskAssignUI-to-TaskAssignController" style="stroke:#181818;stroke-width:1.0;stroke-dasharray:7.0,7.0;"/><polygon fill="#181818" points="111,163.63,115,154.63,111,158.63,107,154.63,111,163.63" style="stroke:#181818;stroke-width:1.0;"/></g><!--MD5=[fb3d941a80251e86422e24f831ed0c05]
link TaskAssignController to Order--><g id="link_TaskAssignController_Order"><path codeLine="43" d="M66.76,212.26 C55.29,220.63 44.37,231.22 38,244 C15.19,289.74 17.67,312.11 38,359 C43.37,371.38 52.75,382.35 62.67,391.37 " fill="none" id="TaskAssignController-to-Order" style="stroke:#181818;stroke-width:1.0;stroke-dasharray:7.0,7.0;"/><polygon fill="#181818" points="66.63,394.86,62.5268,385.9066,62.8804,391.5524,57.2346,391.9059,66.63,394.86" style="stroke:#181818;stroke-width:1.0;"/></g><!--MD5=[2e87d5dc260ea534dec2b9d2326816f5]
link TaskAssignController to OrderRepository--><g id="link_TaskAssignController_OrderRepository"><path codeLine="44" d="M152.9,212.04 C190.4,232.67 245.3,262.86 284.22,284.27 " fill="none" id="TaskAssignController-to-OrderRepository" style="stroke:#181818;stroke-width:1.0;stroke-dasharray:7.0,7.0;"/><polygon fill="#181818" points="288.88,286.84,282.9247,278.9956,284.4998,284.4288,279.0667,286.0039,288.88,286.84" style="stroke:#181818;stroke-width:1.0;"/></g><!--MD5=[262ff89dc1882bd1ea095f0ab7c56b1a]
link TaskAssignController to AGVFactory--><g id="link_TaskAssignController_AGVFactory"><path codeLine="45" d="M100.73,212.04 C97.7,231.77 97.44,260.24 99.98,281.41 " fill="none" id="TaskAssignController-to-AGVFactory" style="stroke:#181818;stroke-width:1.0;stroke-dasharray:7.0,7.0;"/><polygon fill="#181818" points="100.68,286.63,103.4358,277.1746,100.0089,281.6752,95.5082,278.2483,100.68,286.63" style="stroke:#181818;stroke-width:1.0;"/></g><!--MD5=[262ff89dc1882bd1ea095f0ab7c56b1a]
link TaskAssignController to AGVFactory--><g id="link_TaskAssignController_AGVFactory"><path codeLine="46" d="M121.87,212.04 C125.09,231.77 125.35,260.24 122.67,281.41 " fill="none" id="TaskAssignController-to-AGVFactory-1" style="stroke:#181818;stroke-width:1.0;stroke-dasharray:7.0,7.0;"/><polygon fill="#181818" points="121.92,286.63,127.1661,278.2946,122.6351,281.6814,119.2483,277.1504,121.92,286.63" style="stroke:#181818;stroke-width:1.0;"/></g><!--MD5=[4961dc0a1f38b4bb8bde6c7779428d74]
link RepositoryFactory to OrderRepository--><g id="link_RepositoryFactory_OrderRepository"><path codeLine="47" d="M333.43,212.04 C332.94,231.77 332.23,260.24 331.71,281.41 " fill="none" id="RepositoryFactory-to-OrderRepository" style="stroke:#181818;stroke-width:1.0;stroke-dasharray:7.0,7.0;"/><polygon fill="#181818" points="331.58,286.63,335.7846,277.7238,331.6943,281.6313,327.7867,277.5409,331.58,286.63" style="stroke:#181818;stroke-width:1.0;"/></g><!--MD5=[aff63148eed46a51cb204203ed37a4fe]
link AGVFactory to Order--><g id="link_AGVFactory_Order"><path codeLine="48" d="M108.83,335 C107.32,351 105.3,372.45 103.69,389.53 " fill="none" id="AGVFactory-to-Order" style="stroke:#181818;stroke-width:1.0;stroke-dasharray:7.0,7.0;"/><polygon fill="#181818" points="103.2,394.68,108.0073,386.0841,103.6578,389.701,100.0409,385.3515,103.2,394.68" style="stroke:#181818;stroke-width:1.0;"/></g><!--MD5=[63a101be3d4ee905e004c6d138f0bdd6]
@startuml
skinparam classAttributeIconSize 0


Package Presentation{
class TaskAssignUI {
}
}

Package Application{

class TaskAssignController {

}
}

Package Domain{

class Order {


}

class AGVFactory{
}


}


Package Persistence{
class RepositoryFactory{

}

class OrderRepository{

}


}

TaskAssignUI ..> TaskAssignController
TaskAssignController ..> Order
TaskAssignController ..> OrderRepository
TaskAssignController ..> AGVFactory
TaskAssignController ..> AGVFactory
RepositoryFactory ..> OrderRepository
AGVFactory..> Order
@enduml

PlantUML version 1.2022.4(Sat Apr 09 13:29:17 UTC 2022)
(GPL source distribution)
Java Runtime: OpenJDK Runtime Environment
JVM: OpenJDK 64-Bit Server VM
Default Encoding: UTF-8
Language: en
Country: US
--></g></svg>