<?xml version="1.0" encoding="UTF-8" standalone="no"?><svg xmlns="http://www.w3.org/2000/svg" xmlns:xlink="http://www.w3.org/1999/xlink" contentScriptType="application/ecmascript" contentStyleType="text/css" height="543px" preserveAspectRatio="none" style="width:1135px;height:543px;background:#FFFFFF;" version="1.1" viewBox="0 0 1135 543" width="1135px" zoomAndPan="magnify"><defs><filter height="300%" id="fisgwtbdqaf5m" width="300%" x="-1" y="-1"><feGaussianBlur result="blurOut" stdDeviation="2.0"/><feColorMatrix in="blurOut" result="blurOut2" type="matrix" values="0 0 0 0 0 0 0 0 0 0 0 0 0 0 0 0 0 0 .4 0"/><feOffset dx="4.0" dy="4.0" in="blurOut2" result="blurOut3"/><feBlend in="SourceGraphic" in2="blurOut3" mode="normal"/></filter></defs><g><text fill="#000000" font-family="sans-serif" font-size="18" lengthAdjust="spacing" textLength="253" x="438.5" y="30.6855">SD - Automatic task assignment</text><rect fill="#FFFFFF" filter="url(#fisgwtbdqaf5m)" height="22.3516" style="stroke:#A80036;stroke-width:1.0;" width="10" x="55" y="136.25"/><rect fill="#FFFFFF" filter="url(#fisgwtbdqaf5m)" height="359.5156" style="stroke:#A80036;stroke-width:1.0;" width="10" x="258" y="158.6016"/><rect fill="#FFFFFF" filter="url(#fisgwtbdqaf5m)" height="90.7031" style="stroke:#A80036;stroke-width:1.0;" width="10" x="434" y="397.0625"/><rect fill="#FFFFFF" filter="url(#fisgwtbdqaf5m)" height="60.3516" style="stroke:#A80036;stroke-width:1.0;" width="10" x="585" y="427.4141"/><rect fill="#FFFFFF" filter="url(#fisgwtbdqaf5m)" height="30.3516" style="stroke:#A80036;stroke-width:1.0;" width="10" x="796.5" y="249.6563"/><rect fill="#FFFFFF" filter="url(#fisgwtbdqaf5m)" height="69.3516" style="stroke:#A80036;stroke-width:1.0;" width="10" x="930.5" y="457.7656"/><rect fill="#FFFFFF" filter="url(#fisgwtbdqaf5m)" height="30.3516" style="stroke:#A80036;stroke-width:1.0;" width="10" x="1060.5" y="188.9531"/><line style="stroke:#A80036;stroke-width:1.0;stroke-dasharray:5.0,5.0;" x1="60" x2="60" y1="126.25" y2="536.1172"/><line style="stroke:#A80036;stroke-width:1.0;stroke-dasharray:5.0,5.0;" x1="262.5" x2="262.5" y1="126.25" y2="536.1172"/><line style="stroke:#A80036;stroke-width:1.0;stroke-dasharray:5.0,5.0;" x1="439" x2="439" y1="126.25" y2="536.1172"/><line style="stroke:#A80036;stroke-width:1.0;stroke-dasharray:5.0,5.0;" x1="590" x2="590" y1="126.25" y2="536.1172"/><line style="stroke:#A80036;stroke-width:1.0;stroke-dasharray:5.0,5.0;" x1="698" x2="698" y1="126.25" y2="536.1172"/><line style="stroke:#A80036;stroke-width:1.0;stroke-dasharray:5.0,5.0;" x1="801" x2="801" y1="126.25" y2="536.1172"/><line style="stroke:#A80036;stroke-width:1.0;stroke-dasharray:5.0,5.0;" x1="935" x2="935" y1="126.25" y2="536.1172"/><line style="stroke:#A80036;stroke-width:1.0;stroke-dasharray:5.0,5.0;" x1="1065" x2="1065" y1="126.25" y2="536.1172"/><text fill="#000000" font-family="sans-serif" font-size="14" lengthAdjust="spacing" textLength="104" x="5" y="123.1738">Project Manager</text><ellipse cx="60" cy="51.6406" fill="#FEFECE" filter="url(#fisgwtbdqaf5m)" rx="8" ry="8" style="stroke:#A80036;stroke-width:2.0;"/><path d="M60,59.6406 L60,86.6406 M47,67.6406 L73,67.6406 M60,86.6406 L47,101.6406 M60,86.6406 L73,101.6406 " fill="none" filter="url(#fisgwtbdqaf5m)" style="stroke:#A80036;stroke-width:2.0;"/><rect fill="#FEFECE" filter="url(#fisgwtbdqaf5m)" height="31.6094" style="stroke:#A80036;stroke-width:1.5;" width="173" x="174.5" y="89.6406"/><text fill="#000000" font-family="sans-serif" font-size="14" lengthAdjust="spacing" textLength="159" x="181.5" y="111.1738">:AutomaticTaskController</text><rect fill="#FEFECE" filter="url(#fisgwtbdqaf5m)" height="31.6094" style="stroke:#A80036;stroke-width:1.5;" width="140" x="367" y="89.6406"/><text fill="#000000" font-family="sans-serif" font-size="14" lengthAdjust="spacing" textLength="126" x="374" y="111.1738">:PersistenceContext</text><rect fill="#FEFECE" filter="url(#fisgwtbdqaf5m)" height="31.6094" style="stroke:#A80036;stroke-width:1.5;" width="134" x="521" y="89.6406"/><text fill="#000000" font-family="sans-serif" font-size="14" lengthAdjust="spacing" textLength="120" x="528" y="111.1738">:RepositoryFactory</text><rect fill="#FEFECE" filter="url(#fisgwtbdqaf5m)" height="31.6094" style="stroke:#A80036;stroke-width:1.5;" width="55" x="669" y="89.6406"/><text fill="#000000" font-family="sans-serif" font-size="14" lengthAdjust="spacing" textLength="41" x="676" y="111.1738">:Order</text><rect fill="#FEFECE" filter="url(#fisgwtbdqaf5m)" height="31.6094" style="stroke:#A80036;stroke-width:1.5;" width="123" x="738" y="89.6406"/><text fill="#000000" font-family="sans-serif" font-size="14" lengthAdjust="spacing" textLength="109" x="745" y="111.1738">:OrderRepository</text><rect fill="#FEFECE" filter="url(#fisgwtbdqaf5m)" height="31.6094" style="stroke:#A80036;stroke-width:1.5;" width="117" x="875" y="89.6406"/><text fill="#000000" font-family="sans-serif" font-size="14" lengthAdjust="spacing" textLength="103" x="882" y="111.1738">:TaskRepository</text><rect fill="#FEFECE" filter="url(#fisgwtbdqaf5m)" height="31.6094" style="stroke:#A80036;stroke-width:1.5;" width="115" x="1006" y="89.6406"/><text fill="#000000" font-family="sans-serif" font-size="14" lengthAdjust="spacing" textLength="101" x="1013" y="111.1738">:AGVRepository</text><rect fill="#FFFFFF" filter="url(#fisgwtbdqaf5m)" height="22.3516" style="stroke:#A80036;stroke-width:1.0;" width="10" x="55" y="136.25"/><rect fill="#FFFFFF" filter="url(#fisgwtbdqaf5m)" height="359.5156" style="stroke:#A80036;stroke-width:1.0;" width="10" x="258" y="158.6016"/><rect fill="#FFFFFF" filter="url(#fisgwtbdqaf5m)" height="90.7031" style="stroke:#A80036;stroke-width:1.0;" width="10" x="434" y="397.0625"/><rect fill="#FFFFFF" filter="url(#fisgwtbdqaf5m)" height="60.3516" style="stroke:#A80036;stroke-width:1.0;" width="10" x="585" y="427.4141"/><rect fill="#FFFFFF" filter="url(#fisgwtbdqaf5m)" height="30.3516" style="stroke:#A80036;stroke-width:1.0;" width="10" x="796.5" y="249.6563"/><rect fill="#FFFFFF" filter="url(#fisgwtbdqaf5m)" height="69.3516" style="stroke:#A80036;stroke-width:1.0;" width="10" x="930.5" y="457.7656"/><rect fill="#FFFFFF" filter="url(#fisgwtbdqaf5m)" height="30.3516" style="stroke:#A80036;stroke-width:1.0;" width="10" x="1060.5" y="188.9531"/><polygon fill="#A80036" points="246,154.6016,256,158.6016,246,162.6016,250,158.6016" style="stroke:#A80036;stroke-width:1.0;"/><line style="stroke:#A80036;stroke-width:1.0;" x1="60" x2="252" y1="158.6016" y2="158.6016"/><text fill="#000000" font-family="sans-serif" font-size="13" font-weight="bold" lengthAdjust="spacing" textLength="7" x="67" y="153.7451">1</text><text fill="#000000" font-family="sans-serif" font-size="13" lengthAdjust="spacing" textLength="163" x="78" y="153.7451">Automatic task assignment.</text><polygon fill="#A80036" points="1048.5,184.9531,1058.5,188.9531,1048.5,192.9531,1052.5,188.9531" style="stroke:#A80036;stroke-width:1.0;"/><line style="stroke:#A80036;stroke-width:1.0;" x1="268" x2="1054.5" y1="188.9531" y2="188.9531"/><text fill="#000000" font-family="sans-serif" font-size="13" font-weight="bold" lengthAdjust="spacing" textLength="7" x="275" y="184.0967">2</text><text fill="#000000" font-family="sans-serif" font-size="13" lengthAdjust="spacing" textLength="163" x="286" y="184.0967">List&lt;AGV&gt; AvailableAGVs()</text><polygon fill="#A80036" points="279,215.3047,269,219.3047,279,223.3047,275,219.3047" style="stroke:#A80036;stroke-width:1.0;"/><line style="stroke:#A80036;stroke-width:1.0;" x1="273" x2="1064.5" y1="219.3047" y2="219.3047"/><text fill="#000000" font-family="sans-serif" font-size="13" font-weight="bold" lengthAdjust="spacing" textLength="7" x="285" y="214.4482">3</text><text fill="#000000" font-family="sans-serif" font-size="13" lengthAdjust="spacing" textLength="86" x="296" y="214.4482">AvailableAGVs</text><polygon fill="#A80036" points="784.5,245.6563,794.5,249.6563,784.5,253.6563,788.5,249.6563" style="stroke:#A80036;stroke-width:1.0;"/><line style="stroke:#A80036;stroke-width:1.0;" x1="268" x2="790.5" y1="249.6563" y2="249.6563"/><text fill="#000000" font-family="sans-serif" font-size="13" font-weight="bold" lengthAdjust="spacing" textLength="7" x="275" y="244.7998">4</text><text fill="#000000" font-family="sans-serif" font-size="13" lengthAdjust="spacing" textLength="134" x="286" y="244.7998">List&lt;Order&gt; OrderList()</text><polygon fill="#A80036" points="279,276.0078,269,280.0078,279,284.0078,275,280.0078" style="stroke:#A80036;stroke-width:1.0;"/><line style="stroke:#A80036;stroke-width:1.0;" x1="273" x2="800.5" y1="280.0078" y2="280.0078"/><text fill="#000000" font-family="sans-serif" font-size="13" font-weight="bold" lengthAdjust="spacing" textLength="7" x="285" y="275.1514">5</text><text fill="#000000" font-family="sans-serif" font-size="13" lengthAdjust="spacing" textLength="53" x="296" y="275.1514">OrderList</text><line style="stroke:#A80036;stroke-width:1.0;" x1="268" x2="310" y1="310.3594" y2="310.3594"/><line style="stroke:#A80036;stroke-width:1.0;" x1="310" x2="310" y1="310.3594" y2="323.3594"/><line style="stroke:#A80036;stroke-width:1.0;" x1="269" x2="310" y1="323.3594" y2="323.3594"/><polygon fill="#A80036" points="279,319.3594,269,323.3594,279,327.3594,275,323.3594" style="stroke:#A80036;stroke-width:1.0;"/><text fill="#000000" font-family="sans-serif" font-size="13" font-weight="bold" lengthAdjust="spacing" textLength="7" x="275" y="305.5029">6</text><text fill="#000000" font-family="sans-serif" font-size="13" lengthAdjust="spacing" textLength="97" x="286" y="305.5029">List&lt;Order&gt; fifo()</text><line style="stroke:#A80036;stroke-width:1.0;" x1="268" x2="310" y1="353.7109" y2="353.7109"/><line style="stroke:#A80036;stroke-width:1.0;" x1="310" x2="310" y1="353.7109" y2="366.7109"/><line style="stroke:#A80036;stroke-width:1.0;" x1="269" x2="310" y1="366.7109" y2="366.7109"/><polygon fill="#A80036" points="279,362.7109,269,366.7109,279,370.7109,275,366.7109" style="stroke:#A80036;stroke-width:1.0;"/><text fill="#000000" font-family="sans-serif" font-size="13" font-weight="bold" lengthAdjust="spacing" textLength="7" x="275" y="348.8545">7</text><text fill="#000000" font-family="sans-serif" font-size="13" lengthAdjust="spacing" textLength="141" x="286" y="348.8545">List&lt;Task&gt; createTask()</text><polygon fill="#A80036" points="422,393.0625,432,397.0625,422,401.0625,426,397.0625" style="stroke:#A80036;stroke-width:1.0;"/><line style="stroke:#A80036;stroke-width:1.0;" x1="268" x2="428" y1="397.0625" y2="397.0625"/><text fill="#000000" font-family="sans-serif" font-size="13" font-weight="bold" lengthAdjust="spacing" textLength="7" x="275" y="392.2061">8</text><text fill="#000000" font-family="sans-serif" font-size="13" lengthAdjust="spacing" textLength="79" x="286" y="392.2061">repositories();</text><polygon fill="#A80036" points="573,423.4141,583,427.4141,573,431.4141,577,427.4141" style="stroke:#A80036;stroke-width:1.0;"/><line style="stroke:#A80036;stroke-width:1.0;" x1="444" x2="579" y1="427.4141" y2="427.4141"/><text fill="#000000" font-family="sans-serif" font-size="13" font-weight="bold" lengthAdjust="spacing" textLength="7" x="451" y="422.5576">9</text><text fill="#000000" font-family="sans-serif" font-size="13" lengthAdjust="spacing" textLength="59" x="462" y="422.5576">save(task)</text><polygon fill="#A80036" points="918.5,453.7656,928.5,457.7656,918.5,461.7656,922.5,457.7656" style="stroke:#A80036;stroke-width:1.0;"/><line style="stroke:#A80036;stroke-width:1.0;" x1="595" x2="924.5" y1="457.7656" y2="457.7656"/><text fill="#000000" font-family="sans-serif" font-size="13" font-weight="bold" lengthAdjust="spacing" textLength="14" x="602" y="452.9092">10</text><text fill="#000000" font-family="sans-serif" font-size="13" lengthAdjust="spacing" textLength="59" x="620" y="452.9092">save(task)</text><polygon fill="#A80036" points="71,514.1172,61,518.1172,71,522.1172,67,518.1172" style="stroke:#A80036;stroke-width:1.0;"/><line style="stroke:#A80036;stroke-width:1.0;" x1="65" x2="262" y1="518.1172" y2="518.1172"/><text fill="#000000" font-family="sans-serif" font-size="13" font-weight="bold" lengthAdjust="spacing" textLength="14" x="77" y="513.2607">11</text><text fill="#000000" font-family="sans-serif" font-size="13" lengthAdjust="spacing" textLength="49" x="95" y="513.2607">success</text><!--MD5=[20d97fc8825d265ad5dcf346ba14fc80]
@startuml
autonumber
hide footbox

title SD - Automatic task assignment

actor "Project Manager" as C

		participant ":AutomaticTaskController" as ui
		participant ":PersistenceContext" as pc
		participant ":RepositoryFactory" as rf
		participant ":Order" as prod
		participant ":OrderRepository" as repoC
		participant ":TaskRepository" as repoT
		participant ":AGVRepository" as repoA

        activate C
        C->ui:Automatic task assignment.
        deactivate C
        activate ui
        ui->repoA:  List<AGV> AvailableAGVs()
        activate repoA
        repoA -> ui : AvailableAGVs
        deactivate repoA
        ui -> repoC:List<Order> OrderList()
         activate repoC
        repoC -> ui: OrderList
         deactivate repoC
         ui->ui: List<Order> fifo()
         ui->ui: List<Task> createTask()

         ui->pc: repositories();
         activate pc
         pc->rf: save(task)
         activate rf
         rf->repoT: save(task)
         activate repoT
         deactivate pc
          deactivate rf
          ui->C: success
           deactivate ui










@enduml

PlantUML version 1.2021.11(Sat Oct 02 14:26:11 BST 2021)
(GPL source distribution)
Java Runtime: OpenJDK Runtime Environment
JVM: OpenJDK 64-Bit Server VM
Default Encoding: Cp1252
Language: pt
Country: PT
--></g></svg>