<?xml version="1.0" encoding="UTF-8" standalone="no"?><svg xmlns="http://www.w3.org/2000/svg" xmlns:xlink="http://www.w3.org/1999/xlink" contentStyleType="text/css" height="649px" preserveAspectRatio="none" style="width:581px;height:649px;background:#FFFFFF;" version="1.1" viewBox="0 0 581 649" width="581px" zoomAndPan="magnify"><defs/><g><!--MD5=[8fd473fd151a2794da4f2c8684676405]
cluster Presentation--><g id="cluster_Presentation"><path d="M176.5,6 L267.5,6 A3.75,3.75 0 0 1 270,8.5 L277,29.6094 L365.5,29.6094 A2.5,2.5 0 0 1 368,32.1094 L368,121.5 A2.5,2.5 0 0 1 365.5,124 L176.5,124 A2.5,2.5 0 0 1 174,121.5 L174,8.5 A2.5,2.5 0 0 1 176.5,6 " style="stroke:#000000;stroke-width:1.5;fill:none;"/><line style="stroke:#000000;stroke-width:1.5;fill:none;" x1="174" x2="277" y1="29.6094" y2="29.6094"/><text fill="#000000" font-family="sans-serif" font-size="14" font-weight="bold" lengthAdjust="spacing" textLength="90" x="178" y="22.5332">Presentation</text></g><!--MD5=[d64883541e3d62e3241c4d12decf100d]
cluster Application--><g id="cluster_Application"><path d="M151.5,148 L230.5,148 A3.75,3.75 0 0 1 233,150.5 L240,171.6094 L390.5,171.6094 A2.5,2.5 0 0 1 393,174.1094 L393,263.5 A2.5,2.5 0 0 1 390.5,266 L151.5,266 A2.5,2.5 0 0 1 149,263.5 L149,150.5 A2.5,2.5 0 0 1 151.5,148 " style="stroke:#000000;stroke-width:1.5;fill:none;"/><line style="stroke:#000000;stroke-width:1.5;fill:none;" x1="149" x2="240" y1="171.6094" y2="171.6094"/><text fill="#000000" font-family="sans-serif" font-size="14" font-weight="bold" lengthAdjust="spacing" textLength="78" x="153" y="164.5332">Application</text></g><!--MD5=[121a8bf1197281ab89ed693fab589f94]
cluster Domain--><g id="cluster_Domain"><path d="M308.5,524 L361.5,524 A3.75,3.75 0 0 1 364,526.5 L371,547.6094 L571.5,547.6094 A2.5,2.5 0 0 1 574,550.1094 L574,639.5 A2.5,2.5 0 0 1 571.5,642 L308.5,642 A2.5,2.5 0 0 1 306,639.5 L306,526.5 A2.5,2.5 0 0 1 308.5,524 " style="stroke:#000000;stroke-width:1.5;fill:none;"/><line style="stroke:#000000;stroke-width:1.5;fill:none;" x1="306" x2="371" y1="547.6094" y2="547.6094"/><text fill="#000000" font-family="sans-serif" font-size="14" font-weight="bold" lengthAdjust="spacing" textLength="52" x="310" y="540.5332">Domain</text></g><!--MD5=[bc6b40dadbf86ab6a0c8405a467a48af]
cluster Persistence--><g id="cluster_Persistence"><path d="M8.5,290 L93.5,290 A3.75,3.75 0 0 1 96,292.5 L103,313.6094 L279.5,313.6094 A2.5,2.5 0 0 1 282,316.1094 L282,639.5 A2.5,2.5 0 0 1 279.5,642 L8.5,642 A2.5,2.5 0 0 1 6,639.5 L6,292.5 A2.5,2.5 0 0 1 8.5,290 " style="stroke:#000000;stroke-width:1.5;fill:none;"/><line style="stroke:#000000;stroke-width:1.5;fill:none;" x1="6" x2="103" y1="313.6094" y2="313.6094"/><text fill="#000000" font-family="sans-serif" font-size="14" font-weight="bold" lengthAdjust="spacing" textLength="84" x="10" y="306.5332">Persistence</text></g><!--MD5=[a910786d4a409c304237213f7df78b94]
class CheckOrderStatusUI--><g id="elem_CheckOrderStatusUI"><rect codeLine="5" fill="#F1F1F1" height="65.6094" id="CheckOrderStatusUI" rx="2.5" ry="2.5" style="stroke:#181818;stroke-width:0.5;" width="161" x="190.5" y="42"/><ellipse cx="205.5" cy="58" fill="#ADD1B2" rx="11" ry="11" style="stroke:#181818;stroke-width:1.0;"/><path d="M207.5,54.5 Q207.7031,54 207.9375,53.75 Q208.1719,53.5 208.4375,53.5 Q208.9063,53.5 209.2031,53.7813 Q209.5,54.0625 209.5,54.7188 L209.5,56.2813 Q209.5,56.9375 209.2188,57.2188 Q208.9375,57.5 208.5,57.5 Q208.1094,57.5 207.8594,57.3281 Q207.6094,57.1563 207.5,56.7031 Q207.4531,56.3906 207.2813,56.2188 Q206.9688,55.8906 206.4063,55.7031 Q205.8438,55.5 205.2813,55.5 Q204.5781,55.5 203.9844,55.7813 Q203.4063,56.0625 202.9531,56.6875 Q202.5,57.3125 202.5,58.1719 L202.5,59.0938 Q202.5,60.125 203.3438,60.8125 Q204.1875,61.5 205.6875,61.5 Q206.5781,61.5 207.2031,61.2969 Q207.5625,61.1875 207.9688,60.8281 Q208.2344,60.625 208.375,60.5625 Q208.5156,60.5 208.6875,60.5 Q209.0156,60.5 209.25,60.7656 Q209.5,61.0156 209.5,61.375 Q209.5,61.7188 209.1563,62.125 Q208.6563,62.7188 207.8594,63.0469 Q206.8125,63.5 205.5313,63.5 Q204.0313,63.5 202.8281,62.9063 Q201.8594,62.4375 201.1719,61.4219 Q200.5,60.4063 200.5,59.2031 L200.5,58.1094 Q200.5,56.8594 201.0938,55.7656 Q201.7031,54.6719 202.75,54.0938 Q203.8125,53.5 205,53.5 Q205.7188,53.5 206.3438,53.75 Q206.9688,54 207.5,54.5 Z " fill="#000000"/><text fill="#000000" font-family="sans-serif" font-size="14" lengthAdjust="spacing" textLength="129" x="219.5" y="63.7285">CheckOrderStatusUI</text><line style="stroke:#181818;stroke-width:0.5;" x1="191.5" x2="350.5" y1="74" y2="74"/><line style="stroke:#181818;stroke-width:0.5;" x1="191.5" x2="350.5" y1="82" y2="82"/><text fill="#000000" font-family="sans-serif" font-size="14" lengthAdjust="spacing" textLength="72" x="196.5" y="100.5332">+doShow();</text></g><!--MD5=[61b48618aecc2d5babd954237e9b6210]
class CheckOrderStatusController--><g id="elem_CheckOrderStatusController"><rect codeLine="11" fill="#F1F1F1" height="65.6094" id="CheckOrderStatusController" rx="2.5" ry="2.5" style="stroke:#181818;stroke-width:0.5;" width="211" x="165.5" y="184"/><ellipse cx="180.5" cy="200" fill="#ADD1B2" rx="11" ry="11" style="stroke:#181818;stroke-width:1.0;"/><path d="M182.5,196.5 Q182.7031,196 182.9375,195.75 Q183.1719,195.5 183.4375,195.5 Q183.9063,195.5 184.2031,195.7813 Q184.5,196.0625 184.5,196.7188 L184.5,198.2813 Q184.5,198.9375 184.2188,199.2188 Q183.9375,199.5 183.5,199.5 Q183.1094,199.5 182.8594,199.3281 Q182.6094,199.1563 182.5,198.7031 Q182.4531,198.3906 182.2813,198.2188 Q181.9688,197.8906 181.4063,197.7031 Q180.8438,197.5 180.2813,197.5 Q179.5781,197.5 178.9844,197.7813 Q178.4063,198.0625 177.9531,198.6875 Q177.5,199.3125 177.5,200.1719 L177.5,201.0938 Q177.5,202.125 178.3438,202.8125 Q179.1875,203.5 180.6875,203.5 Q181.5781,203.5 182.2031,203.2969 Q182.5625,203.1875 182.9688,202.8281 Q183.2344,202.625 183.375,202.5625 Q183.5156,202.5 183.6875,202.5 Q184.0156,202.5 184.25,202.7656 Q184.5,203.0156 184.5,203.375 Q184.5,203.7188 184.1563,204.125 Q183.6563,204.7188 182.8594,205.0469 Q181.8125,205.5 180.5313,205.5 Q179.0313,205.5 177.8281,204.9063 Q176.8594,204.4375 176.1719,203.4219 Q175.5,202.4063 175.5,201.2031 L175.5,200.1094 Q175.5,198.8594 176.0938,197.7656 Q176.7031,196.6719 177.75,196.0938 Q178.8125,195.5 180,195.5 Q180.7188,195.5 181.3438,195.75 Q181.9688,196 182.5,196.5 Z " fill="#000000"/><text fill="#000000" font-family="sans-serif" font-size="14" lengthAdjust="spacing" textLength="179" x="194.5" y="205.7285">CheckOrderStatusController</text><line style="stroke:#181818;stroke-width:0.5;" x1="166.5" x2="375.5" y1="216" y2="216"/><line style="stroke:#181818;stroke-width:0.5;" x1="166.5" x2="375.5" y1="224" y2="224"/><text fill="#000000" font-family="sans-serif" font-size="14" lengthAdjust="spacing" textLength="132" x="171.5" y="242.5332">+checkOrderStatus()</text></g><!--MD5=[2ce0c9fb7f55b1e256ab28a8ea6b25ec]
class Customer--><g id="elem_Customer"><rect codeLine="18" fill="#F1F1F1" height="65.6094" id="Customer" rx="2.5" ry="2.5" style="stroke:#181818;stroke-width:0.5;" width="236" x="322" y="560"/><ellipse cx="405.25" cy="576" fill="#ADD1B2" rx="11" ry="11" style="stroke:#181818;stroke-width:1.0;"/><path d="M407.25,572.5 Q407.4531,572 407.6875,571.75 Q407.9219,571.5 408.1875,571.5 Q408.6563,571.5 408.9531,571.7813 Q409.25,572.0625 409.25,572.7188 L409.25,574.2813 Q409.25,574.9375 408.9688,575.2188 Q408.6875,575.5 408.25,575.5 Q407.8594,575.5 407.6094,575.3281 Q407.3594,575.1563 407.25,574.7031 Q407.2031,574.3906 407.0313,574.2188 Q406.7188,573.8906 406.1563,573.7031 Q405.5938,573.5 405.0313,573.5 Q404.3281,573.5 403.7344,573.7813 Q403.1563,574.0625 402.7031,574.6875 Q402.25,575.3125 402.25,576.1719 L402.25,577.0938 Q402.25,578.125 403.0938,578.8125 Q403.9375,579.5 405.4375,579.5 Q406.3281,579.5 406.9531,579.2969 Q407.3125,579.1875 407.7188,578.8281 Q407.9844,578.625 408.125,578.5625 Q408.2656,578.5 408.4375,578.5 Q408.7656,578.5 409,578.7656 Q409.25,579.0156 409.25,579.375 Q409.25,579.7188 408.9063,580.125 Q408.4063,580.7188 407.6094,581.0469 Q406.5625,581.5 405.2813,581.5 Q403.7813,581.5 402.5781,580.9063 Q401.6094,580.4375 400.9219,579.4219 Q400.25,578.4063 400.25,577.2031 L400.25,576.1094 Q400.25,574.8594 400.8438,573.7656 Q401.4531,572.6719 402.5,572.0938 Q403.5625,571.5 404.75,571.5 Q405.4688,571.5 406.0938,571.75 Q406.7188,572 407.25,572.5 Z " fill="#000000"/><text fill="#000000" font-family="sans-serif" font-size="14" lengthAdjust="spacing" textLength="61" x="425.75" y="581.7285">Customer</text><line style="stroke:#181818;stroke-width:0.5;" x1="323" x2="557" y1="592" y2="592"/><line style="stroke:#181818;stroke-width:0.5;" x1="323" x2="557" y1="600" y2="600"/><text fill="#000000" font-family="sans-serif" font-size="14" lengthAdjust="spacing" textLength="224" x="328" y="618.5332">findCustomerByVATiD(VATiD vatId)</text></g><!--MD5=[48590afff58a68e2fcba47824d6f8a11]
class RepositoryFactory--><g id="elem_RepositoryFactory"><rect codeLine="26" fill="#F1F1F1" height="48" id="RepositoryFactory" rx="2.5" ry="2.5" style="stroke:#181818;stroke-width:0.5;" width="148" x="70" y="326"/><ellipse cx="85" cy="342" fill="#ADD1B2" rx="11" ry="11" style="stroke:#181818;stroke-width:1.0;"/><path d="M87,338.5 Q87.2031,338 87.4375,337.75 Q87.6719,337.5 87.9375,337.5 Q88.4063,337.5 88.7031,337.7813 Q89,338.0625 89,338.7188 L89,340.2813 Q89,340.9375 88.7188,341.2188 Q88.4375,341.5 88,341.5 Q87.6094,341.5 87.3594,341.3281 Q87.1094,341.1563 87,340.7031 Q86.9531,340.3906 86.7813,340.2188 Q86.4688,339.8906 85.9063,339.7031 Q85.3438,339.5 84.7813,339.5 Q84.0781,339.5 83.4844,339.7813 Q82.9063,340.0625 82.4531,340.6875 Q82,341.3125 82,342.1719 L82,343.0938 Q82,344.125 82.8438,344.8125 Q83.6875,345.5 85.1875,345.5 Q86.0781,345.5 86.7031,345.2969 Q87.0625,345.1875 87.4688,344.8281 Q87.7344,344.625 87.875,344.5625 Q88.0156,344.5 88.1875,344.5 Q88.5156,344.5 88.75,344.7656 Q89,345.0156 89,345.375 Q89,345.7188 88.6563,346.125 Q88.1563,346.7188 87.3594,347.0469 Q86.3125,347.5 85.0313,347.5 Q83.5313,347.5 82.3281,346.9063 Q81.3594,346.4375 80.6719,345.4219 Q80,344.4063 80,343.2031 L80,342.1094 Q80,340.8594 80.5938,339.7656 Q81.2031,338.6719 82.25,338.0938 Q83.3125,337.5 84.5,337.5 Q85.2188,337.5 85.8438,337.75 Q86.4688,338 87,338.5 Z " fill="#000000"/><text fill="#000000" font-family="sans-serif" font-size="14" lengthAdjust="spacing" textLength="116" x="99" y="347.7285">RepositoryFactory</text><line style="stroke:#181818;stroke-width:0.5;" x1="71" x2="217" y1="358" y2="358"/><line style="stroke:#181818;stroke-width:0.5;" x1="71" x2="217" y1="366" y2="366"/></g><!--MD5=[e69d6994dde37a3d0167e5476c791457]
class CustomerRepository--><g id="elem_CustomerRepository"><rect codeLine="29" fill="#F1F1F1" height="65.6094" id="CustomerRepository" rx="2.5" ry="2.5" style="stroke:#181818;stroke-width:0.5;" width="244" x="22" y="434"/><ellipse cx="75.25" cy="450" fill="#ADD1B2" rx="11" ry="11" style="stroke:#181818;stroke-width:1.0;"/><path d="M77.25,446.5 Q77.4531,446 77.6875,445.75 Q77.9219,445.5 78.1875,445.5 Q78.6563,445.5 78.9531,445.7813 Q79.25,446.0625 79.25,446.7188 L79.25,448.2813 Q79.25,448.9375 78.9688,449.2188 Q78.6875,449.5 78.25,449.5 Q77.8594,449.5 77.6094,449.3281 Q77.3594,449.1563 77.25,448.7031 Q77.2031,448.3906 77.0313,448.2188 Q76.7188,447.8906 76.1563,447.7031 Q75.5938,447.5 75.0313,447.5 Q74.3281,447.5 73.7344,447.7813 Q73.1563,448.0625 72.7031,448.6875 Q72.25,449.3125 72.25,450.1719 L72.25,451.0938 Q72.25,452.125 73.0938,452.8125 Q73.9375,453.5 75.4375,453.5 Q76.3281,453.5 76.9531,453.2969 Q77.3125,453.1875 77.7188,452.8281 Q77.9844,452.625 78.125,452.5625 Q78.2656,452.5 78.4375,452.5 Q78.7656,452.5 79,452.7656 Q79.25,453.0156 79.25,453.375 Q79.25,453.7188 78.9063,454.125 Q78.4063,454.7188 77.6094,455.0469 Q76.5625,455.5 75.2813,455.5 Q73.7813,455.5 72.5781,454.9063 Q71.6094,454.4375 70.9219,453.4219 Q70.25,452.4063 70.25,451.2031 L70.25,450.1094 Q70.25,448.8594 70.8438,447.7656 Q71.4531,446.6719 72.5,446.0938 Q73.5625,445.5 74.75,445.5 Q75.4688,445.5 76.0938,445.75 Q76.7188,446 77.25,446.5 Z " fill="#000000"/><text fill="#000000" font-family="sans-serif" font-size="14" lengthAdjust="spacing" textLength="129" x="95.75" y="455.7285">CustomerRepository</text><line style="stroke:#181818;stroke-width:0.5;" x1="23" x2="265" y1="466" y2="466"/><line style="stroke:#181818;stroke-width:0.5;" x1="23" x2="265" y1="474" y2="474"/><text fill="#000000" font-family="sans-serif" font-size="14" lengthAdjust="spacing" textLength="232" x="28" y="492.5332">+findCustomerByVATiD(VATiD vatId)</text></g><!--MD5=[708e328039b60d50c6285936843ac334]
class OrderRepository--><g id="elem_OrderRepository"><rect codeLine="33" fill="#F1F1F1" height="65.6094" id="OrderRepository" rx="2.5" ry="2.5" style="stroke:#181818;stroke-width:0.5;" width="241" x="23.5" y="560"/><ellipse cx="87.25" cy="576" fill="#ADD1B2" rx="11" ry="11" style="stroke:#181818;stroke-width:1.0;"/><path d="M89.25,572.5 Q89.4531,572 89.6875,571.75 Q89.9219,571.5 90.1875,571.5 Q90.6563,571.5 90.9531,571.7813 Q91.25,572.0625 91.25,572.7188 L91.25,574.2813 Q91.25,574.9375 90.9688,575.2188 Q90.6875,575.5 90.25,575.5 Q89.8594,575.5 89.6094,575.3281 Q89.3594,575.1563 89.25,574.7031 Q89.2031,574.3906 89.0313,574.2188 Q88.7188,573.8906 88.1563,573.7031 Q87.5938,573.5 87.0313,573.5 Q86.3281,573.5 85.7344,573.7813 Q85.1563,574.0625 84.7031,574.6875 Q84.25,575.3125 84.25,576.1719 L84.25,577.0938 Q84.25,578.125 85.0938,578.8125 Q85.9375,579.5 87.4375,579.5 Q88.3281,579.5 88.9531,579.2969 Q89.3125,579.1875 89.7188,578.8281 Q89.9844,578.625 90.125,578.5625 Q90.2656,578.5 90.4375,578.5 Q90.7656,578.5 91,578.7656 Q91.25,579.0156 91.25,579.375 Q91.25,579.7188 90.9063,580.125 Q90.4063,580.7188 89.6094,581.0469 Q88.5625,581.5 87.2813,581.5 Q85.7813,581.5 84.5781,580.9063 Q83.6094,580.4375 82.9219,579.4219 Q82.25,578.4063 82.25,577.2031 L82.25,576.1094 Q82.25,574.8594 82.8438,573.7656 Q83.4531,572.6719 84.5,572.0938 Q85.5625,571.5 86.75,571.5 Q87.4688,571.5 88.0938,571.75 Q88.7188,572 89.25,572.5 Z " fill="#000000"/><text fill="#000000" font-family="sans-serif" font-size="14" lengthAdjust="spacing" textLength="105" x="107.75" y="581.7285">OrderRepository</text><line style="stroke:#181818;stroke-width:0.5;" x1="24.5" x2="263.5" y1="592" y2="592"/><line style="stroke:#181818;stroke-width:0.5;" x1="24.5" x2="263.5" y1="600" y2="600"/><text fill="#000000" font-family="sans-serif" font-size="14" lengthAdjust="spacing" textLength="229" x="29.5" y="618.5332">+findOrderByCustomer(VATiD vatId)</text></g><!--MD5=[5e3cb930e677138c1f93c3d642cba1f3]
link CheckOrderStatusUI to CheckOrderStatusController--><g id="link_CheckOrderStatusUI_CheckOrderStatusController"><path codeLine="41" d="M271,108.12 C271,129.05 271,156.43 271,178.38 " fill="none" id="CheckOrderStatusUI-to-CheckOrderStatusController" style="stroke:#181818;stroke-width:1.0;stroke-dasharray:7.0,7.0;"/><polygon fill="#181818" points="271,183.55,275,174.55,271,178.55,267,174.55,271,183.55" style="stroke:#181818;stroke-width:1.0;"/></g><!--MD5=[23e3dec6d38a1c70b4eafa80eeeba440]
link CheckOrderStatusController to Customer--><g id="link_CheckOrderStatusController_Customer"><path codeLine="42" d="M285.56,250.21 C316.85,319.48 390.39,482.22 423.42,555.32 " fill="none" id="CheckOrderStatusController-to-Customer" style="stroke:#181818;stroke-width:1.0;stroke-dasharray:7.0,7.0;"/><polygon fill="#181818" points="425.54,560,425.4829,550.1513,423.4828,555.4428,418.1913,553.4428,425.54,560" style="stroke:#181818;stroke-width:1.0;"/></g><!--MD5=[73b27766cde320571762bc9dd3ada88f]
link CheckOrderStatusController to RepositoryFactory--><g id="link_CheckOrderStatusController_RepositoryFactory"><path codeLine="43" d="M239.93,250.05 C218.5,272.15 190.33,301.21 170.07,322.11 " fill="none" id="CheckOrderStatusController-to-RepositoryFactory" style="stroke:#181818;stroke-width:1.0;stroke-dasharray:7.0,7.0;"/><polygon fill="#181818" points="166.38,325.91,175.5215,322.2448,169.8652,322.3248,169.7852,316.6685,166.38,325.91" style="stroke:#181818;stroke-width:1.0;"/></g><!--MD5=[4a5a80706f7b5b82b478eb4261d98356]
link CheckOrderStatusController to CustomerRepository--><g id="link_CheckOrderStatusController_CustomerRepository"><path codeLine="44" d="M269.05,250.02 C265.88,282.92 257.61,334.73 236,374 C224.36,395.16 206.39,414.69 189.42,430.26 " fill="none" id="CheckOrderStatusController-to-CustomerRepository" style="stroke:#181818;stroke-width:1.0;stroke-dasharray:7.0,7.0;"/><polygon fill="#181818" points="185.59,433.73,194.9431,430.6447,189.2929,430.3702,189.5674,424.72,185.59,433.73" style="stroke:#181818;stroke-width:1.0;"/></g><!--MD5=[5480e33a89de9b63c80dfd73aefa71de]
link RepositoryFactory to CustomerRepository--><g id="link_RepositoryFactory_CustomerRepository"><path codeLine="45" d="M144,374.27 C144,385.6 144,399.72 144,413.46 " fill="none" id="RepositoryFactory-to-CustomerRepository" style="stroke:#181818;stroke-width:1.0;stroke-dasharray:7.0,7.0;"/><polygon fill="none" points="151,413.61,144,433.61,137,413.61,151,413.61" style="stroke:#181818;stroke-width:1.0;"/></g><!--MD5=[3ae97d11c2ca570632e7e7ed3510da9a]
link CustomerRepository to Customer--><g id="link_CustomerRepository_Customer"><path codeLine="46" d="M240.67,500.05 C254.63,505.14 268.75,510.53 282,516 C307.45,526.51 334.64,539.07 359.16,550.94 " fill="none" id="CustomerRepository-to-Customer" style="stroke:#181818;stroke-width:1.0;stroke-dasharray:7.0,7.0;"/><polygon fill="none" points="362.43,544.75,377.32,559.83,356.28,557.32,362.43,544.75" style="stroke:#181818;stroke-width:1.0;"/></g><!--MD5=[3662b91c5cdd13be27c9d785334bdf53]
link CustomerRepository to OrderRepository--><g id="link_CustomerRepository_OrderRepository"><path codeLine="47" d="M144,500.26 C144,512.31 144,526.33 144,539.73 " fill="none" id="CustomerRepository-to-OrderRepository" style="stroke:#181818;stroke-width:1.0;stroke-dasharray:7.0,7.0;"/><polygon fill="none" points="151,539.91,144,559.91,137,539.91,151,539.91" style="stroke:#181818;stroke-width:1.0;"/></g><!--MD5=[373d7708da53839de5ae25c54161b0ad]
@startuml
skinparam classAttributeIconSize 0


Package Presentation{
class CheckOrderStatusUI {
+doShow();
}
}

Package Application{
class CheckOrderStatusController {
  +checkOrderStatus()
}
}


Package Domain{
class Customer {
findCustomerByVATiD(VATiD vatId)
}

}

Package Persistence{

class RepositoryFactory{
}

class CustomerRepository{
  +findCustomerByVATiD(VATiD vatId)
}

class OrderRepository{
  +findOrderByCustomer(VATiD vatId)
}

}



CheckOrderStatusUI ..> CheckOrderStatusController
CheckOrderStatusController ..> Customer
CheckOrderStatusController ..> RepositoryFactory
CheckOrderStatusController ..> CustomerRepository
RepositoryFactory ..|> CustomerRepository
CustomerRepository ..|> Customer
CustomerRepository ..|> OrderRepository




@enduml

PlantUML version 1.2022.5(Sat Apr 30 11:55:52 BST 2022)
(GPL source distribution)
Java Runtime: OpenJDK Runtime Environment
JVM: OpenJDK 64-Bit Server VM
Default Encoding: Cp1252
Language: pt
Country: PT
--></g></svg>