<?xml version="1.0" encoding="UTF-8" standalone="no"?><svg xmlns="http://www.w3.org/2000/svg" xmlns:xlink="http://www.w3.org/1999/xlink" contentScriptType="application/ecmascript" contentStyleType="text/css" height="677px" preserveAspectRatio="none" style="width:397px;height:677px;background:#FFFFFF;" version="1.1" viewBox="0 0 397 677" width="397px" zoomAndPan="magnify"><defs><filter height="300%" id="f3foj7wqa7xm1" width="300%" x="-1" y="-1"><feGaussianBlur result="blurOut" stdDeviation="2.0"/><feColorMatrix in="blurOut" result="blurOut2" type="matrix" values="0 0 0 0 0 0 0 0 0 0 0 0 0 0 0 0 0 0 .4 0"/><feOffset dx="4.0" dy="4.0" in="blurOut2" result="blurOut3"/><feBlend in="SourceGraphic" in2="blurOut3" mode="normal"/></filter></defs><g><!--MD5=[8fd473fd151a2794da4f2c8684676405]
cluster Presentation--><polygon fill="#FFFFFF" filter="url(#f3foj7wqa7xm1)" points="133,6,229,6,236,29.6094,297,29.6094,297,120,133,120,133,6" style="stroke:#000000;stroke-width:1.5;"/><line style="stroke:#000000;stroke-width:1.5;" x1="133" x2="236" y1="29.6094" y2="29.6094"/><text fill="#000000" font-family="sans-serif" font-size="14" font-weight="bold" lengthAdjust="spacing" textLength="90" x="137" y="22.5332">Presentation</text><!--MD5=[d64883541e3d62e3241c4d12decf100d]
cluster Application--><polygon fill="#FFFFFF" filter="url(#f3foj7wqa7xm1)" points="50,144,134,144,141,167.6094,380,167.6094,380,286,50,286,50,144" style="stroke:#000000;stroke-width:1.5;"/><line style="stroke:#000000;stroke-width:1.5;" x1="50" x2="141" y1="167.6094" y2="167.6094"/><text fill="#000000" font-family="sans-serif" font-size="14" font-weight="bold" lengthAdjust="spacing" textLength="78" x="54" y="160.5332">Application</text><!--MD5=[121a8bf1197281ab89ed693fab589f94]
cluster Domain--><polygon fill="#FFFFFF" filter="url(#f3foj7wqa7xm1)" points="137,570,195,570,202,593.6094,251,593.6094,251,670,137,670,137,570" style="stroke:#000000;stroke-width:1.5;"/><line style="stroke:#000000;stroke-width:1.5;" x1="137" x2="202" y1="593.6094" y2="593.6094"/><text fill="#000000" font-family="sans-serif" font-size="14" font-weight="bold" lengthAdjust="spacing" textLength="52" x="141" y="586.5332">Domain</text><!--MD5=[bc6b40dadbf86ab6a0c8405a467a48af]
cluster Persistence--><polygon fill="#FFFFFF" filter="url(#f3foj7wqa7xm1)" points="16,310,106,310,113,333.6094,188,333.6094,188,546,16,546,16,310" style="stroke:#000000;stroke-width:1.5;"/><line style="stroke:#000000;stroke-width:1.5;" x1="16" x2="113" y1="333.6094" y2="333.6094"/><text fill="#000000" font-family="sans-serif" font-size="14" font-weight="bold" lengthAdjust="spacing" textLength="84" x="20" y="326.5332">Persistence</text><!--MD5=[0cee6ebab926d773bb9a2945a66ce79a]
class SpecifyCategoryUI--><rect codeLine="5" fill="#FEFECE" filter="url(#f3foj7wqa7xm1)" height="61.8359" id="SpecifyCategoryUI" style="stroke:#A80036;stroke-width:1.5;" width="132" x="149" y="42"/><ellipse cx="164" cy="58" fill="#ADD1B2" rx="11" ry="11" style="stroke:#A80036;stroke-width:1.0;"/><path d="M166,54.5 Q166.2031,54 166.4375,53.75 Q166.6719,53.5 166.9375,53.5 Q167.4063,53.5 167.7031,53.7813 Q168,54.0625 168,54.7188 L168,56.2813 Q168,56.9375 167.7188,57.2188 Q167.4375,57.5 167,57.5 Q166.6094,57.5 166.3594,57.3281 Q166.1094,57.1563 166,56.7031 Q165.9531,56.3906 165.7813,56.2188 Q165.4688,55.8906 164.9063,55.7031 Q164.3438,55.5 163.7813,55.5 Q163.0781,55.5 162.4844,55.7813 Q161.9063,56.0625 161.4531,56.6875 Q161,57.3125 161,58.1719 L161,59.0938 Q161,60.125 161.8438,60.8125 Q162.6875,61.5 164.1875,61.5 Q165.0781,61.5 165.7031,61.2969 Q166.0625,61.1875 166.4688,60.8281 Q166.7344,60.625 166.875,60.5625 Q167.0156,60.5 167.1875,60.5 Q167.5156,60.5 167.75,60.7656 Q168,61.0156 168,61.375 Q168,61.7188 167.6563,62.125 Q167.1563,62.7188 166.3594,63.0469 Q165.3125,63.5 164.0313,63.5 Q162.5313,63.5 161.3281,62.9063 Q160.3594,62.4375 159.6719,61.4219 Q159,60.4063 159,59.2031 L159,58.1094 Q159,56.8594 159.5938,55.7656 Q160.2031,54.6719 161.25,54.0938 Q162.3125,53.5 163.5,53.5 Q164.2188,53.5 164.8438,53.75 Q165.4688,54 166,54.5 Z " fill="#000000"/><text fill="#000000" font-family="sans-serif" font-size="12" lengthAdjust="spacing" textLength="100" x="178" y="62.9102">SpecifyCategoryUI</text><line style="stroke:#A80036;stroke-width:1.5;" x1="150" x2="280" y1="74" y2="74"/><line style="stroke:#A80036;stroke-width:1.5;" x1="150" x2="280" y1="82" y2="82"/><text fill="#000000" font-family="sans-serif" font-size="11" lengthAdjust="spacing" textLength="58" x="155" y="97.4189">+doShow();</text><!--MD5=[aa477c0cbe15aaa124b618c1b2ef165c]
class SpecifyCategoryController--><rect codeLine="11" fill="#FEFECE" filter="url(#f3foj7wqa7xm1)" height="89.5078" id="SpecifyCategoryController" style="stroke:#A80036;stroke-width:1.5;" width="297" x="66.5" y="180"/><ellipse cx="139.75" cy="196" fill="#ADD1B2" rx="11" ry="11" style="stroke:#A80036;stroke-width:1.0;"/><path d="M141.75,192.5 Q141.9531,192 142.1875,191.75 Q142.4219,191.5 142.6875,191.5 Q143.1563,191.5 143.4531,191.7813 Q143.75,192.0625 143.75,192.7188 L143.75,194.2813 Q143.75,194.9375 143.4688,195.2188 Q143.1875,195.5 142.75,195.5 Q142.3594,195.5 142.1094,195.3281 Q141.8594,195.1563 141.75,194.7031 Q141.7031,194.3906 141.5313,194.2188 Q141.2188,193.8906 140.6563,193.7031 Q140.0938,193.5 139.5313,193.5 Q138.8281,193.5 138.2344,193.7813 Q137.6563,194.0625 137.2031,194.6875 Q136.75,195.3125 136.75,196.1719 L136.75,197.0938 Q136.75,198.125 137.5938,198.8125 Q138.4375,199.5 139.9375,199.5 Q140.8281,199.5 141.4531,199.2969 Q141.8125,199.1875 142.2188,198.8281 Q142.4844,198.625 142.625,198.5625 Q142.7656,198.5 142.9375,198.5 Q143.2656,198.5 143.5,198.7656 Q143.75,199.0156 143.75,199.375 Q143.75,199.7188 143.4063,200.125 Q142.9063,200.7188 142.1094,201.0469 Q141.0625,201.5 139.7813,201.5 Q138.2813,201.5 137.0781,200.9063 Q136.1094,200.4375 135.4219,199.4219 Q134.75,198.4063 134.75,197.2031 L134.75,196.1094 Q134.75,194.8594 135.3438,193.7656 Q135.9531,192.6719 137,192.0938 Q138.0625,191.5 139.25,191.5 Q139.9688,191.5 140.5938,191.75 Q141.2188,192 141.75,192.5 Z " fill="#000000"/><text fill="#000000" font-family="sans-serif" font-size="12" lengthAdjust="spacing" textLength="142" x="160.25" y="200.9102">SpecifyCategoryController</text><line style="stroke:#A80036;stroke-width:1.5;" x1="67.5" x2="362.5" y1="212" y2="212"/><line style="stroke:#A80036;stroke-width:1.5;" x1="67.5" x2="362.5" y1="220" y2="220"/><text fill="#000000" font-family="sans-serif" font-size="11" lengthAdjust="spacing" textLength="198" x="72.5" y="235.4189">+registerAlphaNumericCode(String code)</text><text fill="#000000" font-family="sans-serif" font-size="11" lengthAdjust="spacing" textLength="184" x="72.5" y="249.2549">+registerDescription(String descricao)</text><text fill="#000000" font-family="sans-serif" font-size="11" lengthAdjust="spacing" textLength="285" x="72.5" y="263.0908">+specifyCategory(final String code, final String description)</text><!--MD5=[a96594a83e2ecdc78cbf17c2ddf01934]
class Category--><rect codeLine="20" fill="#FEFECE" filter="url(#f3foj7wqa7xm1)" height="48" id="Category" style="stroke:#A80036;stroke-width:1.5;" width="81" x="153.5" y="606"/><ellipse cx="168.5" cy="622" fill="#ADD1B2" rx="11" ry="11" style="stroke:#A80036;stroke-width:1.0;"/><path d="M170.5,618.5 Q170.7031,618 170.9375,617.75 Q171.1719,617.5 171.4375,617.5 Q171.9063,617.5 172.2031,617.7813 Q172.5,618.0625 172.5,618.7188 L172.5,620.2813 Q172.5,620.9375 172.2188,621.2188 Q171.9375,621.5 171.5,621.5 Q171.1094,621.5 170.8594,621.3281 Q170.6094,621.1563 170.5,620.7031 Q170.4531,620.3906 170.2813,620.2188 Q169.9688,619.8906 169.4063,619.7031 Q168.8438,619.5 168.2813,619.5 Q167.5781,619.5 166.9844,619.7813 Q166.4063,620.0625 165.9531,620.6875 Q165.5,621.3125 165.5,622.1719 L165.5,623.0938 Q165.5,624.125 166.3438,624.8125 Q167.1875,625.5 168.6875,625.5 Q169.5781,625.5 170.2031,625.2969 Q170.5625,625.1875 170.9688,624.8281 Q171.2344,624.625 171.375,624.5625 Q171.5156,624.5 171.6875,624.5 Q172.0156,624.5 172.25,624.7656 Q172.5,625.0156 172.5,625.375 Q172.5,625.7188 172.1563,626.125 Q171.6563,626.7188 170.8594,627.0469 Q169.8125,627.5 168.5313,627.5 Q167.0313,627.5 165.8281,626.9063 Q164.8594,626.4375 164.1719,625.4219 Q163.5,624.4063 163.5,623.2031 L163.5,622.1094 Q163.5,620.8594 164.0938,619.7656 Q164.7031,618.6719 165.75,618.0938 Q166.8125,617.5 168,617.5 Q168.7188,617.5 169.3438,617.75 Q169.9688,618 170.5,618.5 Z " fill="#000000"/><text fill="#000000" font-family="sans-serif" font-size="12" lengthAdjust="spacing" textLength="49" x="182.5" y="626.9102">Category</text><line style="stroke:#A80036;stroke-width:1.5;" x1="154.5" x2="233.5" y1="638" y2="638"/><line style="stroke:#A80036;stroke-width:1.5;" x1="154.5" x2="233.5" y1="646" y2="646"/><!--MD5=[48590afff58a68e2fcba47824d6f8a11]
class RepositoryFactory--><rect codeLine="26" fill="#FEFECE" filter="url(#f3foj7wqa7xm1)" height="61.8359" id="RepositoryFactory" style="stroke:#A80036;stroke-width:1.5;" width="130" x="32" y="346"/><ellipse cx="47" cy="362" fill="#ADD1B2" rx="11" ry="11" style="stroke:#A80036;stroke-width:1.0;"/><path d="M49,358.5 Q49.2031,358 49.4375,357.75 Q49.6719,357.5 49.9375,357.5 Q50.4063,357.5 50.7031,357.7813 Q51,358.0625 51,358.7188 L51,360.2813 Q51,360.9375 50.7188,361.2188 Q50.4375,361.5 50,361.5 Q49.6094,361.5 49.3594,361.3281 Q49.1094,361.1563 49,360.7031 Q48.9531,360.3906 48.7813,360.2188 Q48.4688,359.8906 47.9063,359.7031 Q47.3438,359.5 46.7813,359.5 Q46.0781,359.5 45.4844,359.7813 Q44.9063,360.0625 44.4531,360.6875 Q44,361.3125 44,362.1719 L44,363.0938 Q44,364.125 44.8438,364.8125 Q45.6875,365.5 47.1875,365.5 Q48.0781,365.5 48.7031,365.2969 Q49.0625,365.1875 49.4688,364.8281 Q49.7344,364.625 49.875,364.5625 Q50.0156,364.5 50.1875,364.5 Q50.5156,364.5 50.75,364.7656 Q51,365.0156 51,365.375 Q51,365.7188 50.6563,366.125 Q50.1563,366.7188 49.3594,367.0469 Q48.3125,367.5 47.0313,367.5 Q45.5313,367.5 44.3281,366.9063 Q43.3594,366.4375 42.6719,365.4219 Q42,364.4063 42,363.2031 L42,362.1094 Q42,360.8594 42.5938,359.7656 Q43.2031,358.6719 44.25,358.0938 Q45.3125,357.5 46.5,357.5 Q47.2188,357.5 47.8438,357.75 Q48.4688,358 49,358.5 Z " fill="#000000"/><text fill="#000000" font-family="sans-serif" font-size="12" lengthAdjust="spacing" textLength="98" x="61" y="366.9102">RepositoryFactory</text><line style="stroke:#A80036;stroke-width:1.5;" x1="33" x2="161" y1="378" y2="378"/><line style="stroke:#A80036;stroke-width:1.5;" x1="33" x2="161" y1="386" y2="386"/><text fill="#000000" font-family="sans-serif" font-size="11" lengthAdjust="spacing" textLength="57" x="38" y="401.4189">+category()</text><!--MD5=[b3c2230271250b561f28a9e8cd979a92]
class CategoryRepository--><rect codeLine="30" fill="#FEFECE" filter="url(#f3foj7wqa7xm1)" height="61.8359" id="CategoryRepository" style="stroke:#A80036;stroke-width:1.5;" width="140" x="32" y="468"/><ellipse cx="47" cy="484" fill="#ADD1B2" rx="11" ry="11" style="stroke:#A80036;stroke-width:1.0;"/><path d="M49,480.5 Q49.2031,480 49.4375,479.75 Q49.6719,479.5 49.9375,479.5 Q50.4063,479.5 50.7031,479.7813 Q51,480.0625 51,480.7188 L51,482.2813 Q51,482.9375 50.7188,483.2188 Q50.4375,483.5 50,483.5 Q49.6094,483.5 49.3594,483.3281 Q49.1094,483.1563 49,482.7031 Q48.9531,482.3906 48.7813,482.2188 Q48.4688,481.8906 47.9063,481.7031 Q47.3438,481.5 46.7813,481.5 Q46.0781,481.5 45.4844,481.7813 Q44.9063,482.0625 44.4531,482.6875 Q44,483.3125 44,484.1719 L44,485.0938 Q44,486.125 44.8438,486.8125 Q45.6875,487.5 47.1875,487.5 Q48.0781,487.5 48.7031,487.2969 Q49.0625,487.1875 49.4688,486.8281 Q49.7344,486.625 49.875,486.5625 Q50.0156,486.5 50.1875,486.5 Q50.5156,486.5 50.75,486.7656 Q51,487.0156 51,487.375 Q51,487.7188 50.6563,488.125 Q50.1563,488.7188 49.3594,489.0469 Q48.3125,489.5 47.0313,489.5 Q45.5313,489.5 44.3281,488.9063 Q43.3594,488.4375 42.6719,487.4219 Q42,486.4063 42,485.2031 L42,484.1094 Q42,482.8594 42.5938,481.7656 Q43.2031,480.6719 44.25,480.0938 Q45.3125,479.5 46.5,479.5 Q47.2188,479.5 47.8438,479.75 Q48.4688,480 49,480.5 Z " fill="#000000"/><text fill="#000000" font-family="sans-serif" font-size="12" lengthAdjust="spacing" textLength="108" x="61" y="488.9102">CategoryRepository</text><line style="stroke:#A80036;stroke-width:1.5;" x1="33" x2="171" y1="500" y2="500"/><line style="stroke:#A80036;stroke-width:1.5;" x1="33" x2="171" y1="508" y2="508"/><text fill="#000000" font-family="sans-serif" font-size="11" lengthAdjust="spacing" textLength="81" x="38" y="523.4189">+save(category)</text><!--MD5=[76fe84a235a38b27c36ed84134c01f42]
link SpecifyCategoryUI to SpecifyCategoryController--><path codeLine="38" d="M215,104.35 C215,124.49 215,151.38 215,174.56 " fill="none" id="SpecifyCategoryUI-to-SpecifyCategoryController" style="stroke:#A80036;stroke-width:1.0;stroke-dasharray:7.0,7.0;"/><polygon fill="#A80036" points="215,179.75,219,170.75,215,174.75,211,170.75,215,179.75" style="stroke:#A80036;stroke-width:1.0;"/><!--MD5=[6fdb8fda94a415e0a864089b1c2c1556]
link SpecifyCategoryController to Category--><path codeLine="39" d="M218.4,270.18 C219.06,280.61 219.66,291.69 220,302 C221.55,349.09 222.76,360.97 220,408 C215.92,477.53 204.69,558.74 198.41,600.69 " fill="none" id="SpecifyCategoryController-to-Category" style="stroke:#A80036;stroke-width:1.0;stroke-dasharray:7.0,7.0;"/><polygon fill="#A80036" points="197.63,605.85,202.9196,597.5422,198.371,600.9052,195.008,596.3566,197.63,605.85" style="stroke:#A80036;stroke-width:1.0;"/><!--MD5=[23ac1e34da6fa8fc3d77fb9c162b9898]
link SpecifyCategoryController to RepositoryFactory--><path codeLine="40" d="M180.23,270.19 C162.26,293.04 140.66,320.5 123.96,341.72 " fill="none" id="SpecifyCategoryController-to-RepositoryFactory" style="stroke:#A80036;stroke-width:1.0;stroke-dasharray:7.0,7.0;"/><polygon fill="#A80036" points="120.69,345.88,129.3949,341.273,123.7785,341.9479,123.1036,336.3315,120.69,345.88" style="stroke:#A80036;stroke-width:1.0;"/><!--MD5=[f66da45a6572d30e262a8064141a471e]
link SpecifyCategoryController to CategoryRepository--><path codeLine="41" d="M212.91,270.3 C209.64,308.46 201.29,364.15 180,408 C170.01,428.58 154.09,448.18 139.23,463.8 " fill="none" id="SpecifyCategoryController-to-CategoryRepository" style="stroke:#A80036;stroke-width:1.0;stroke-dasharray:7.0,7.0;"/><polygon fill="#A80036" points="135.48,467.68,144.6066,463.9779,138.9507,464.0808,138.8478,458.4249,135.48,467.68" style="stroke:#A80036;stroke-width:1.0;"/><!--MD5=[982d16d4d7400e6c46bfc612526ecb29]
link RepositoryFactory to CategoryRepository--><path codeLine="42" d="M98.26,408.28 C98.76,420.22 99.34,434.26 99.9,447.64 " fill="none" id="RepositoryFactory-to-CategoryRepository" style="stroke:#A80036;stroke-width:1.0;stroke-dasharray:7.0,7.0;"/><polygon fill="none" points="106.9,447.45,100.74,467.73,92.91,448.04,106.9,447.45" style="stroke:#A80036;stroke-width:1.0;"/><!--MD5=[fb0b92275b6fb9ced4ecc1678c39a4eb]
link CategoryRepository to Category--><path codeLine="43" d="M123.57,530.24 C136.18,547.92 152.23,570.43 165.82,589.49 " fill="none" id="CategoryRepository-to-Category" style="stroke:#A80036;stroke-width:1.0;stroke-dasharray:7.0,7.0;"/><polygon fill="none" points="171.54,585.45,177.45,605.79,160.14,593.58,171.54,585.45" style="stroke:#A80036;stroke-width:1.0;"/><!--MD5=[03e115e3f7ab3c5a17b8c0985257c151]
@startuml
skinparam classAttributeIconSize 0


Package Presentation{
class SpecifyCategoryUI {
+doShow();
}
}

Package Application{
class SpecifyCategoryController {
  +registerAlphaNumericCode(String code)
  +registerDescription(String descricao)
  +specifyCategory(final String code, final String description)
}
}


Package Domain{
class Category {
}

}

Package Persistence{
class RepositoryFactory{
  +category()
}

class CategoryRepository{
  +save(category)
}

}



SpecifyCategoryUI ..> SpecifyCategoryController
SpecifyCategoryController ..> Category
SpecifyCategoryController ..> RepositoryFactory
SpecifyCategoryController ..> CategoryRepository
RepositoryFactory ..|> CategoryRepository
CategoryRepository ..|> Category




@enduml

PlantUML version 1.2021.11(Sat Oct 02 14:26:11 BST 2021)
(GPL source distribution)
Java Runtime: OpenJDK Runtime Environment
JVM: OpenJDK 64-Bit Server VM
Default Encoding: Cp1252
Language: pt
Country: PT
--></g></svg>