<?xml version="1.0" encoding="UTF-8" standalone="no"?><svg xmlns="http://www.w3.org/2000/svg" xmlns:xlink="http://www.w3.org/1999/xlink" contentScriptType="application/ecmascript" contentStyleType="text/css" height="316px" preserveAspectRatio="none" style="width:459px;height:316px;background:#FFFFFF;" version="1.1" viewBox="0 0 459 316" width="459px" zoomAndPan="magnify"><defs><filter height="300%" id="f15r4flky3dhkw" width="300%" x="-1" y="-1"><feGaussianBlur result="blurOut" stdDeviation="2.0"/><feColorMatrix in="blurOut" result="blurOut2" type="matrix" values="0 0 0 0 0 0 0 0 0 0 0 0 0 0 0 0 0 0 .4 0"/><feOffset dx="4.0" dy="4.0" in="blurOut2" result="blurOut3"/><feBlend in="SourceGraphic" in2="blurOut3" mode="normal"/></filter></defs><g><rect fill="#FFFFFF" filter="url(#f15r4flky3dhkw)" height="113.4063" style="stroke:#A80036;stroke-width:1.0;" width="10" x="37" y="99.6094"/><rect fill="#FFFFFF" filter="url(#f15r4flky3dhkw)" height="30.3516" style="stroke:#A80036;stroke-width:1.0;" width="10" x="410" y="121.9609"/><rect fill="#FFFFFF" filter="url(#f15r4flky3dhkw)" height="30.3516" style="stroke:#A80036;stroke-width:1.0;" width="10" x="410" y="182.6641"/><line style="stroke:#A80036;stroke-width:1.0;stroke-dasharray:5.0,5.0;" x1="42" x2="42" y1="89.6094" y2="231.0156"/><line style="stroke:#A80036;stroke-width:1.0;stroke-dasharray:5.0,5.0;" x1="415" x2="415" y1="89.6094" y2="231.0156"/><text fill="#000000" font-family="sans-serif" font-size="14" lengthAdjust="spacing" textLength="68" x="5" y="86.5332">SalesClerk</text><ellipse cx="42" cy="15" fill="#FEFECE" filter="url(#f15r4flky3dhkw)" rx="8" ry="8" style="stroke:#A80036;stroke-width:2.0;"/><path d="M42,23 L42,50 M29,31 L55,31 M42,50 L29,65 M42,50 L55,65 " fill="none" filter="url(#f15r4flky3dhkw)" style="stroke:#A80036;stroke-width:2.0;"/><text fill="#000000" font-family="sans-serif" font-size="14" lengthAdjust="spacing" textLength="68" x="5" y="244.5488">SalesClerk</text><ellipse cx="42" cy="257.625" fill="#FEFECE" filter="url(#f15r4flky3dhkw)" rx="8" ry="8" style="stroke:#A80036;stroke-width:2.0;"/><path d="M42,265.625 L42,292.625 M29,273.625 L55,273.625 M42,292.625 L29,307.625 M42,292.625 L55,307.625 " fill="none" filter="url(#f15r4flky3dhkw)" style="stroke:#A80036;stroke-width:2.0;"/><rect fill="#FEFECE" filter="url(#f15r4flky3dhkw)" height="31.6094" style="stroke:#A80036;stroke-width:1.5;" width="64" x="381" y="53"/><text fill="#000000" font-family="sans-serif" font-size="14" lengthAdjust="spacing" textLength="50" x="388" y="74.5332">:System</text><rect fill="#FEFECE" filter="url(#f15r4flky3dhkw)" height="31.6094" style="stroke:#A80036;stroke-width:1.5;" width="64" x="381" y="230.0156"/><text fill="#000000" font-family="sans-serif" font-size="14" lengthAdjust="spacing" textLength="50" x="388" y="251.5488">:System</text><rect fill="#FFFFFF" filter="url(#f15r4flky3dhkw)" height="113.4063" style="stroke:#A80036;stroke-width:1.0;" width="10" x="37" y="99.6094"/><rect fill="#FFFFFF" filter="url(#f15r4flky3dhkw)" height="30.3516" style="stroke:#A80036;stroke-width:1.0;" width="10" x="410" y="121.9609"/><rect fill="#FFFFFF" filter="url(#f15r4flky3dhkw)" height="30.3516" style="stroke:#A80036;stroke-width:1.0;" width="10" x="410" y="182.6641"/><polygon fill="#A80036" points="398,117.9609,408,121.9609,398,125.9609,402,121.9609" style="stroke:#A80036;stroke-width:1.0;"/><line style="stroke:#A80036;stroke-width:1.0;" x1="47" x2="404" y1="121.9609" y2="121.9609"/><text fill="#000000" font-family="sans-serif" font-size="13" font-weight="bold" lengthAdjust="spacing" textLength="7" x="54" y="117.1045">1</text><text fill="#000000" font-family="sans-serif" font-size="13" lengthAdjust="spacing" textLength="258" x="65" y="117.1045">inicia a especificação de uma nova categoria</text><polygon fill="#A80036" points="58,148.3125,48,152.3125,58,156.3125,54,152.3125" style="stroke:#A80036;stroke-width:1.0;"/><line style="stroke:#A80036;stroke-width:1.0;stroke-dasharray:2.0,2.0;" x1="52" x2="414" y1="152.3125" y2="152.3125"/><text fill="#000000" font-family="sans-serif" font-size="13" font-weight="bold" lengthAdjust="spacing" textLength="7" x="64" y="147.4561">2</text><text fill="#000000" font-family="sans-serif" font-size="13" lengthAdjust="spacing" textLength="328" x="75" y="147.4561">solicita o código alfanumérico e a descrição da categoria</text><polygon fill="#A80036" points="398,178.6641,408,182.6641,398,186.6641,402,182.6641" style="stroke:#A80036;stroke-width:1.0;"/><line style="stroke:#A80036;stroke-width:1.0;" x1="47" x2="404" y1="182.6641" y2="182.6641"/><text fill="#000000" font-family="sans-serif" font-size="13" font-weight="bold" lengthAdjust="spacing" textLength="7" x="54" y="177.8076">3</text><text fill="#000000" font-family="sans-serif" font-size="13" lengthAdjust="spacing" textLength="113" x="65" y="177.8076">insere a informação</text><polygon fill="#A80036" points="53,209.0156,43,213.0156,53,217.0156,49,213.0156" style="stroke:#A80036;stroke-width:1.0;"/><line style="stroke:#A80036;stroke-width:1.0;stroke-dasharray:2.0,2.0;" x1="47" x2="414" y1="213.0156" y2="213.0156"/><text fill="#000000" font-family="sans-serif" font-size="13" font-weight="bold" lengthAdjust="spacing" textLength="7" x="59" y="208.1592">4</text><text fill="#000000" font-family="sans-serif" font-size="13" lengthAdjust="spacing" textLength="188" x="70" y="208.1592">informa do sucesso da operação</text><!--MD5=[4e1d9f55f8f757f5d5c075b34599902e]
@startuml
autonumber
actor "SalesClerk" as SC

activate SC
SC -> ":System" : inicia a especificação de uma nova categoria
activate ":System"
":System" - -> SC : solicita o código alfanumérico e a descrição da categoria
deactivate ":System"
SC -> ":System" : insere a informação
activate ":System"
":System" - -> SC : informa do sucesso da operação
deactivate ":System"

deactivate SC

@enduml

PlantUML version 1.2021.11(Sat Oct 02 14:26:11 BST 2021)
(GPL source distribution)
Java Runtime: OpenJDK Runtime Environment
JVM: OpenJDK 64-Bit Server VM
Default Encoding: Cp1252
Language: pt
Country: PT
--></g></svg>