<?xml version="1.0" encoding="UTF-8" standalone="no"?><svg xmlns="http://www.w3.org/2000/svg" xmlns:xlink="http://www.w3.org/1999/xlink" contentScriptType="application/ecmascript" contentStyleType="text/css" height="891px" preserveAspectRatio="none" style="width:1528px;height:891px;background:#FFFFFF;" version="1.1" viewBox="0 0 1528 891" width="1528px" zoomAndPan="magnify"><defs><filter height="300%" id="f14j39xxtdsjka" width="300%" x="-1" y="-1"><feGaussianBlur result="blurOut" stdDeviation="2.0"/><feColorMatrix in="blurOut" result="blurOut2" type="matrix" values="0 0 0 0 0 0 0 0 0 0 0 0 0 0 0 0 0 0 .4 0"/><feOffset dx="4.0" dy="4.0" in="blurOut2" result="blurOut3"/><feBlend in="SourceGraphic" in2="blurOut3" mode="normal"/></filter></defs><g><!--MD5=[8fd473fd151a2794da4f2c8684676405]
cluster Presentation--><polygon fill="#FFFFFF" filter="url(#f14j39xxtdsjka)" points="79,6,175,6,182,29.6094,899,29.6094,899,134,79,134,79,6" style="stroke:#000000;stroke-width:1.5;"/><line style="stroke:#000000;stroke-width:1.5;" x1="79" x2="182" y1="29.6094" y2="29.6094"/><text fill="#000000" font-family="sans-serif" font-size="14" font-weight="bold" lengthAdjust="spacing" textLength="90" x="83" y="22.5332">Presentation</text><!--MD5=[d64883541e3d62e3241c4d12decf100d]
cluster Application--><polygon fill="#FFFFFF" filter="url(#f14j39xxtdsjka)" points="16,167,100,167,107,190.6094,962,190.6094,962,440,16,440,16,167" style="stroke:#000000;stroke-width:1.5;"/><line style="stroke:#000000;stroke-width:1.5;" x1="16" x2="107" y1="190.6094" y2="190.6094"/><text fill="#000000" font-family="sans-serif" font-size="14" font-weight="bold" lengthAdjust="spacing" textLength="78" x="20" y="183.5332">Application</text><!--MD5=[121a8bf1197281ab89ed693fab589f94]
cluster Domain--><polygon fill="#FFFFFF" filter="url(#f14j39xxtdsjka)" points="576,497,634,497,641,520.6094,726,520.6094,726,884,576,884,576,497" style="stroke:#000000;stroke-width:1.5;"/><line style="stroke:#000000;stroke-width:1.5;" x1="576" x2="641" y1="520.6094" y2="520.6094"/><text fill="#000000" font-family="sans-serif" font-size="14" font-weight="bold" lengthAdjust="spacing" textLength="52" x="580" y="513.5332">Domain</text><!--MD5=[bc6b40dadbf86ab6a0c8405a467a48af]
cluster Persistence--><polygon fill="#FFFFFF" filter="url(#f14j39xxtdsjka)" points="750,490,840,490,847,513.6094,962,513.6094,962,836,750,836,750,490" style="stroke:#000000;stroke-width:1.5;"/><line style="stroke:#000000;stroke-width:1.5;" x1="750" x2="847" y1="513.6094" y2="513.6094"/><text fill="#000000" font-family="sans-serif" font-size="14" font-weight="bold" lengthAdjust="spacing" textLength="84" x="754" y="506.5332">Persistence</text><!--MD5=[d86c9240975d27a48f443482a3abcdcc]
cluster InMemory--><polygon fill="#FFFFFF" filter="url(#f14j39xxtdsjka)" points="986,312,1061,312,1068,335.6094,1248,335.6094,1248,618,986,618,986,312" style="stroke:#000000;stroke-width:1.5;"/><line style="stroke:#000000;stroke-width:1.5;" x1="986" x2="1068" y1="335.6094" y2="335.6094"/><text fill="#000000" font-family="sans-serif" font-size="14" font-weight="bold" lengthAdjust="spacing" textLength="69" x="990" y="328.5332">InMemory</text><!--MD5=[effab6c14dcd767910b6a86ff64046e3]
cluster Jpa--><polygon fill="#FFFFFF" filter="url(#f14j39xxtdsjka)" points="1283,312,1314,312,1321,335.6094,1511,335.6094,1511,618,1283,618,1283,312" style="stroke:#000000;stroke-width:1.5;"/><line style="stroke:#000000;stroke-width:1.5;" x1="1283" x2="1321" y1="335.6094" y2="335.6094"/><text fill="#000000" font-family="sans-serif" font-size="14" font-weight="bold" lengthAdjust="spacing" textLength="25" x="1287" y="328.5332">Jpa</text><!--MD5=[7d674599bfbe2684419e3220965754ee]
class SearchProductCatalogByBrandUI--><rect codeLine="4" fill="#FEFECE" filter="url(#f14j39xxtdsjka)" height="75.6719" id="SearchProductCatalogByBrandUI" style="stroke:#A80036;stroke-width:1.5;" width="214" x="95" y="42"/><ellipse cx="110" cy="58" fill="#ADD1B2" rx="11" ry="11" style="stroke:#A80036;stroke-width:1.0;"/><path d="M112,54.5 Q112.2031,54 112.4375,53.75 Q112.6719,53.5 112.9375,53.5 Q113.4063,53.5 113.7031,53.7813 Q114,54.0625 114,54.7188 L114,56.2813 Q114,56.9375 113.7188,57.2188 Q113.4375,57.5 113,57.5 Q112.6094,57.5 112.3594,57.3281 Q112.1094,57.1563 112,56.7031 Q111.9531,56.3906 111.7813,56.2188 Q111.4688,55.8906 110.9063,55.7031 Q110.3438,55.5 109.7813,55.5 Q109.0781,55.5 108.4844,55.7813 Q107.9063,56.0625 107.4531,56.6875 Q107,57.3125 107,58.1719 L107,59.0938 Q107,60.125 107.8438,60.8125 Q108.6875,61.5 110.1875,61.5 Q111.0781,61.5 111.7031,61.2969 Q112.0625,61.1875 112.4688,60.8281 Q112.7344,60.625 112.875,60.5625 Q113.0156,60.5 113.1875,60.5 Q113.5156,60.5 113.75,60.7656 Q114,61.0156 114,61.375 Q114,61.7188 113.6563,62.125 Q113.1563,62.7188 112.3594,63.0469 Q111.3125,63.5 110.0313,63.5 Q108.5313,63.5 107.3281,62.9063 Q106.3594,62.4375 105.6719,61.4219 Q105,60.4063 105,59.2031 L105,58.1094 Q105,56.8594 105.5938,55.7656 Q106.2031,54.6719 107.25,54.0938 Q108.3125,53.5 109.5,53.5 Q110.2188,53.5 110.8438,53.75 Q111.4688,54 112,54.5 Z " fill="#000000"/><text fill="#000000" font-family="sans-serif" font-size="12" lengthAdjust="spacing" textLength="182" x="124" y="62.9102">SearchProductCatalogByBrandUI</text><line style="stroke:#A80036;stroke-width:1.5;" x1="96" x2="308" y1="74" y2="74"/><line style="stroke:#A80036;stroke-width:1.5;" x1="96" x2="308" y1="82" y2="82"/><text fill="#000000" font-family="sans-serif" font-size="11" lengthAdjust="spacing" textLength="55" x="101" y="97.4189">+doShow()</text><text fill="#000000" font-family="sans-serif" font-size="11" lengthAdjust="spacing" textLength="117" x="101" y="111.2549">+findProductsByBrand()</text><!--MD5=[460f23505d90a1d40c31456b1490ea1e]
class SearchProductCatalogByCategoryUI--><rect codeLine="9" fill="#FEFECE" filter="url(#f14j39xxtdsjka)" height="75.6719" id="SearchProductCatalogByCategoryUI" style="stroke:#A80036;stroke-width:1.5;" width="230" x="344" y="42"/><ellipse cx="359" cy="58" fill="#ADD1B2" rx="11" ry="11" style="stroke:#A80036;stroke-width:1.0;"/><path d="M361,54.5 Q361.2031,54 361.4375,53.75 Q361.6719,53.5 361.9375,53.5 Q362.4063,53.5 362.7031,53.7813 Q363,54.0625 363,54.7188 L363,56.2813 Q363,56.9375 362.7188,57.2188 Q362.4375,57.5 362,57.5 Q361.6094,57.5 361.3594,57.3281 Q361.1094,57.1563 361,56.7031 Q360.9531,56.3906 360.7813,56.2188 Q360.4688,55.8906 359.9063,55.7031 Q359.3438,55.5 358.7813,55.5 Q358.0781,55.5 357.4844,55.7813 Q356.9063,56.0625 356.4531,56.6875 Q356,57.3125 356,58.1719 L356,59.0938 Q356,60.125 356.8438,60.8125 Q357.6875,61.5 359.1875,61.5 Q360.0781,61.5 360.7031,61.2969 Q361.0625,61.1875 361.4688,60.8281 Q361.7344,60.625 361.875,60.5625 Q362.0156,60.5 362.1875,60.5 Q362.5156,60.5 362.75,60.7656 Q363,61.0156 363,61.375 Q363,61.7188 362.6563,62.125 Q362.1563,62.7188 361.3594,63.0469 Q360.3125,63.5 359.0313,63.5 Q357.5313,63.5 356.3281,62.9063 Q355.3594,62.4375 354.6719,61.4219 Q354,60.4063 354,59.2031 L354,58.1094 Q354,56.8594 354.5938,55.7656 Q355.2031,54.6719 356.25,54.0938 Q357.3125,53.5 358.5,53.5 Q359.2188,53.5 359.8438,53.75 Q360.4688,54 361,54.5 Z " fill="#000000"/><text fill="#000000" font-family="sans-serif" font-size="12" lengthAdjust="spacing" textLength="198" x="373" y="62.9102">SearchProductCatalogByCategoryUI</text><line style="stroke:#A80036;stroke-width:1.5;" x1="345" x2="573" y1="74" y2="74"/><line style="stroke:#A80036;stroke-width:1.5;" x1="345" x2="573" y1="82" y2="82"/><text fill="#000000" font-family="sans-serif" font-size="11" lengthAdjust="spacing" textLength="55" x="350" y="97.4189">+doShow()</text><text fill="#000000" font-family="sans-serif" font-size="11" lengthAdjust="spacing" textLength="132" x="350" y="111.2549">+findProductsByCategory()</text><!--MD5=[857a945c1a1d0e567946463023442a96]
class SearchProductCatalogByShortDescriptionUI--><rect codeLine="14" fill="#FEFECE" filter="url(#f14j39xxtdsjka)" height="75.6719" id="SearchProductCatalogByShortDescriptionUI" style="stroke:#A80036;stroke-width:1.5;" width="273" x="609.5" y="42"/><ellipse cx="624.5" cy="58" fill="#ADD1B2" rx="11" ry="11" style="stroke:#A80036;stroke-width:1.0;"/><path d="M626.5,54.5 Q626.7031,54 626.9375,53.75 Q627.1719,53.5 627.4375,53.5 Q627.9063,53.5 628.2031,53.7813 Q628.5,54.0625 628.5,54.7188 L628.5,56.2813 Q628.5,56.9375 628.2188,57.2188 Q627.9375,57.5 627.5,57.5 Q627.1094,57.5 626.8594,57.3281 Q626.6094,57.1563 626.5,56.7031 Q626.4531,56.3906 626.2813,56.2188 Q625.9688,55.8906 625.4063,55.7031 Q624.8438,55.5 624.2813,55.5 Q623.5781,55.5 622.9844,55.7813 Q622.4063,56.0625 621.9531,56.6875 Q621.5,57.3125 621.5,58.1719 L621.5,59.0938 Q621.5,60.125 622.3438,60.8125 Q623.1875,61.5 624.6875,61.5 Q625.5781,61.5 626.2031,61.2969 Q626.5625,61.1875 626.9688,60.8281 Q627.2344,60.625 627.375,60.5625 Q627.5156,60.5 627.6875,60.5 Q628.0156,60.5 628.25,60.7656 Q628.5,61.0156 628.5,61.375 Q628.5,61.7188 628.1563,62.125 Q627.6563,62.7188 626.8594,63.0469 Q625.8125,63.5 624.5313,63.5 Q623.0313,63.5 621.8281,62.9063 Q620.8594,62.4375 620.1719,61.4219 Q619.5,60.4063 619.5,59.2031 L619.5,58.1094 Q619.5,56.8594 620.0938,55.7656 Q620.7031,54.6719 621.75,54.0938 Q622.8125,53.5 624,53.5 Q624.7188,53.5 625.3438,53.75 Q625.9688,54 626.5,54.5 Z " fill="#000000"/><text fill="#000000" font-family="sans-serif" font-size="12" lengthAdjust="spacing" textLength="241" x="638.5" y="62.9102">SearchProductCatalogByShortDescriptionUI</text><line style="stroke:#A80036;stroke-width:1.5;" x1="610.5" x2="881.5" y1="74" y2="74"/><line style="stroke:#A80036;stroke-width:1.5;" x1="610.5" x2="881.5" y1="82" y2="82"/><text fill="#000000" font-family="sans-serif" font-size="11" lengthAdjust="spacing" textLength="55" x="615.5" y="97.4189">+doShow()</text><text fill="#000000" font-family="sans-serif" font-size="11" lengthAdjust="spacing" textLength="168" x="615.5" y="111.2549">+findProductsByShortDescription()</text><!--MD5=[cc4bacac0a6935e91720a18076c0fd42]
class SearchProductCatalogByBrandController--><rect codeLine="23" fill="#FEFECE" filter="url(#f14j39xxtdsjka)" height="61.8359" id="SearchProductCatalogByBrandController" style="stroke:#A80036;stroke-width:1.5;" width="256" x="32" y="203"/><ellipse cx="47" cy="219" fill="#ADD1B2" rx="11" ry="11" style="stroke:#A80036;stroke-width:1.0;"/><path d="M49,215.5 Q49.2031,215 49.4375,214.75 Q49.6719,214.5 49.9375,214.5 Q50.4063,214.5 50.7031,214.7813 Q51,215.0625 51,215.7188 L51,217.2813 Q51,217.9375 50.7188,218.2188 Q50.4375,218.5 50,218.5 Q49.6094,218.5 49.3594,218.3281 Q49.1094,218.1563 49,217.7031 Q48.9531,217.3906 48.7813,217.2188 Q48.4688,216.8906 47.9063,216.7031 Q47.3438,216.5 46.7813,216.5 Q46.0781,216.5 45.4844,216.7813 Q44.9063,217.0625 44.4531,217.6875 Q44,218.3125 44,219.1719 L44,220.0938 Q44,221.125 44.8438,221.8125 Q45.6875,222.5 47.1875,222.5 Q48.0781,222.5 48.7031,222.2969 Q49.0625,222.1875 49.4688,221.8281 Q49.7344,221.625 49.875,221.5625 Q50.0156,221.5 50.1875,221.5 Q50.5156,221.5 50.75,221.7656 Q51,222.0156 51,222.375 Q51,222.7188 50.6563,223.125 Q50.1563,223.7188 49.3594,224.0469 Q48.3125,224.5 47.0313,224.5 Q45.5313,224.5 44.3281,223.9063 Q43.3594,223.4375 42.6719,222.4219 Q42,221.4063 42,220.2031 L42,219.1094 Q42,217.8594 42.5938,216.7656 Q43.2031,215.6719 44.25,215.0938 Q45.3125,214.5 46.5,214.5 Q47.2188,214.5 47.8438,214.75 Q48.4688,215 49,215.5 Z " fill="#000000"/><text fill="#000000" font-family="sans-serif" font-size="12" lengthAdjust="spacing" textLength="224" x="61" y="223.9102">SearchProductCatalogByBrandController</text><line style="stroke:#A80036;stroke-width:1.5;" x1="33" x2="287" y1="235" y2="235"/><line style="stroke:#A80036;stroke-width:1.5;" x1="33" x2="287" y1="243" y2="243"/><text fill="#000000" font-family="sans-serif" font-size="11" lengthAdjust="spacing" textLength="117" x="38" y="258.4189">+findProductsByBrand()</text><!--MD5=[db959975faf39fe40c04f1e4d5996c01]
class SearchProductCatalogByCategoryController--><rect codeLine="27" fill="#FEFECE" filter="url(#f14j39xxtdsjka)" height="61.8359" id="SearchProductCatalogByCategoryController" style="stroke:#A80036;stroke-width:1.5;" width="272" x="323" y="203"/><ellipse cx="338" cy="219" fill="#ADD1B2" rx="11" ry="11" style="stroke:#A80036;stroke-width:1.0;"/><path d="M340,215.5 Q340.2031,215 340.4375,214.75 Q340.6719,214.5 340.9375,214.5 Q341.4063,214.5 341.7031,214.7813 Q342,215.0625 342,215.7188 L342,217.2813 Q342,217.9375 341.7188,218.2188 Q341.4375,218.5 341,218.5 Q340.6094,218.5 340.3594,218.3281 Q340.1094,218.1563 340,217.7031 Q339.9531,217.3906 339.7813,217.2188 Q339.4688,216.8906 338.9063,216.7031 Q338.3438,216.5 337.7813,216.5 Q337.0781,216.5 336.4844,216.7813 Q335.9063,217.0625 335.4531,217.6875 Q335,218.3125 335,219.1719 L335,220.0938 Q335,221.125 335.8438,221.8125 Q336.6875,222.5 338.1875,222.5 Q339.0781,222.5 339.7031,222.2969 Q340.0625,222.1875 340.4688,221.8281 Q340.7344,221.625 340.875,221.5625 Q341.0156,221.5 341.1875,221.5 Q341.5156,221.5 341.75,221.7656 Q342,222.0156 342,222.375 Q342,222.7188 341.6563,223.125 Q341.1563,223.7188 340.3594,224.0469 Q339.3125,224.5 338.0313,224.5 Q336.5313,224.5 335.3281,223.9063 Q334.3594,223.4375 333.6719,222.4219 Q333,221.4063 333,220.2031 L333,219.1094 Q333,217.8594 333.5938,216.7656 Q334.2031,215.6719 335.25,215.0938 Q336.3125,214.5 337.5,214.5 Q338.2188,214.5 338.8438,214.75 Q339.4688,215 340,215.5 Z " fill="#000000"/><text fill="#000000" font-family="sans-serif" font-size="12" lengthAdjust="spacing" textLength="240" x="352" y="223.9102">SearchProductCatalogByCategoryController</text><line style="stroke:#A80036;stroke-width:1.5;" x1="324" x2="594" y1="235" y2="235"/><line style="stroke:#A80036;stroke-width:1.5;" x1="324" x2="594" y1="243" y2="243"/><text fill="#000000" font-family="sans-serif" font-size="11" lengthAdjust="spacing" textLength="132" x="329" y="258.4189">+findProductsByCategory()</text><!--MD5=[db839170d0b30ac7ba2b1ef3bd8d20a2]
class SearchProductCatalogByShortDescriptionController--><rect codeLine="31" fill="#FEFECE" filter="url(#f14j39xxtdsjka)" height="61.8359" id="SearchProductCatalogByShortDescriptionController" style="stroke:#A80036;stroke-width:1.5;" width="315" x="630.5" y="203"/><ellipse cx="645.5" cy="219" fill="#ADD1B2" rx="11" ry="11" style="stroke:#A80036;stroke-width:1.0;"/><path d="M647.5,215.5 Q647.7031,215 647.9375,214.75 Q648.1719,214.5 648.4375,214.5 Q648.9063,214.5 649.2031,214.7813 Q649.5,215.0625 649.5,215.7188 L649.5,217.2813 Q649.5,217.9375 649.2188,218.2188 Q648.9375,218.5 648.5,218.5 Q648.1094,218.5 647.8594,218.3281 Q647.6094,218.1563 647.5,217.7031 Q647.4531,217.3906 647.2813,217.2188 Q646.9688,216.8906 646.4063,216.7031 Q645.8438,216.5 645.2813,216.5 Q644.5781,216.5 643.9844,216.7813 Q643.4063,217.0625 642.9531,217.6875 Q642.5,218.3125 642.5,219.1719 L642.5,220.0938 Q642.5,221.125 643.3438,221.8125 Q644.1875,222.5 645.6875,222.5 Q646.5781,222.5 647.2031,222.2969 Q647.5625,222.1875 647.9688,221.8281 Q648.2344,221.625 648.375,221.5625 Q648.5156,221.5 648.6875,221.5 Q649.0156,221.5 649.25,221.7656 Q649.5,222.0156 649.5,222.375 Q649.5,222.7188 649.1563,223.125 Q648.6563,223.7188 647.8594,224.0469 Q646.8125,224.5 645.5313,224.5 Q644.0313,224.5 642.8281,223.9063 Q641.8594,223.4375 641.1719,222.4219 Q640.5,221.4063 640.5,220.2031 L640.5,219.1094 Q640.5,217.8594 641.0938,216.7656 Q641.7031,215.6719 642.75,215.0938 Q643.8125,214.5 645,214.5 Q645.7188,214.5 646.3438,214.75 Q646.9688,215 647.5,215.5 Z " fill="#000000"/><text fill="#000000" font-family="sans-serif" font-size="12" lengthAdjust="spacing" textLength="283" x="659.5" y="223.9102">SearchProductCatalogByShortDescriptionController</text><line style="stroke:#A80036;stroke-width:1.5;" x1="631.5" x2="944.5" y1="235" y2="235"/><line style="stroke:#A80036;stroke-width:1.5;" x1="631.5" x2="944.5" y1="243" y2="243"/><text fill="#000000" font-family="sans-serif" font-size="11" lengthAdjust="spacing" textLength="168" x="636.5" y="258.4189">+findProductsByShortDescription()</text><!--MD5=[ff4ce870f84bc31df380b9e19aeac4ba]
class SearchProductCatalogService--><rect codeLine="35" fill="#FEFECE" filter="url(#f14j39xxtdsjka)" height="89.5078" id="SearchProductCatalogService" style="stroke:#A80036;stroke-width:1.5;" width="196" x="609" y="334"/><ellipse cx="624" cy="350" fill="#ADD1B2" rx="11" ry="11" style="stroke:#A80036;stroke-width:1.0;"/><path d="M626,346.5 Q626.2031,346 626.4375,345.75 Q626.6719,345.5 626.9375,345.5 Q627.4063,345.5 627.7031,345.7813 Q628,346.0625 628,346.7188 L628,348.2813 Q628,348.9375 627.7188,349.2188 Q627.4375,349.5 627,349.5 Q626.6094,349.5 626.3594,349.3281 Q626.1094,349.1563 626,348.7031 Q625.9531,348.3906 625.7813,348.2188 Q625.4688,347.8906 624.9063,347.7031 Q624.3438,347.5 623.7813,347.5 Q623.0781,347.5 622.4844,347.7813 Q621.9063,348.0625 621.4531,348.6875 Q621,349.3125 621,350.1719 L621,351.0938 Q621,352.125 621.8438,352.8125 Q622.6875,353.5 624.1875,353.5 Q625.0781,353.5 625.7031,353.2969 Q626.0625,353.1875 626.4688,352.8281 Q626.7344,352.625 626.875,352.5625 Q627.0156,352.5 627.1875,352.5 Q627.5156,352.5 627.75,352.7656 Q628,353.0156 628,353.375 Q628,353.7188 627.6563,354.125 Q627.1563,354.7188 626.3594,355.0469 Q625.3125,355.5 624.0313,355.5 Q622.5313,355.5 621.3281,354.9063 Q620.3594,354.4375 619.6719,353.4219 Q619,352.4063 619,351.2031 L619,350.1094 Q619,348.8594 619.5938,347.7656 Q620.2031,346.6719 621.25,346.0938 Q622.3125,345.5 623.5,345.5 Q624.2188,345.5 624.8438,345.75 Q625.4688,346 626,346.5 Z " fill="#000000"/><text fill="#000000" font-family="sans-serif" font-size="12" lengthAdjust="spacing" textLength="164" x="638" y="354.9102">SearchProductCatalogService</text><line style="stroke:#A80036;stroke-width:1.5;" x1="610" x2="804" y1="366" y2="366"/><line style="stroke:#A80036;stroke-width:1.5;" x1="610" x2="804" y1="374" y2="374"/><text fill="#000000" font-family="sans-serif" font-size="11" lengthAdjust="spacing" textLength="117" x="615" y="389.4189">+findProductsByBrand()</text><text fill="#000000" font-family="sans-serif" font-size="11" lengthAdjust="spacing" textLength="132" x="615" y="403.2549">+findProductsByCategory()</text><text fill="#000000" font-family="sans-serif" font-size="11" lengthAdjust="spacing" textLength="168" x="615" y="417.0908">+findProductsByShortDescription()</text><!--MD5=[3854aa698878ea31bbbf1eb5d36dee80]
class ProductCatalog--><rect codeLine="44" fill="#FEFECE" filter="url(#f14j39xxtdsjka)" height="48" id="ProductCatalog" style="stroke:#A80036;stroke-width:1.5;" width="117" x="592.5" y="533"/><ellipse cx="607.5" cy="549" fill="#ADD1B2" rx="11" ry="11" style="stroke:#A80036;stroke-width:1.0;"/><path d="M609.5,545.5 Q609.7031,545 609.9375,544.75 Q610.1719,544.5 610.4375,544.5 Q610.9063,544.5 611.2031,544.7813 Q611.5,545.0625 611.5,545.7188 L611.5,547.2813 Q611.5,547.9375 611.2188,548.2188 Q610.9375,548.5 610.5,548.5 Q610.1094,548.5 609.8594,548.3281 Q609.6094,548.1563 609.5,547.7031 Q609.4531,547.3906 609.2813,547.2188 Q608.9688,546.8906 608.4063,546.7031 Q607.8438,546.5 607.2813,546.5 Q606.5781,546.5 605.9844,546.7813 Q605.4063,547.0625 604.9531,547.6875 Q604.5,548.3125 604.5,549.1719 L604.5,550.0938 Q604.5,551.125 605.3438,551.8125 Q606.1875,552.5 607.6875,552.5 Q608.5781,552.5 609.2031,552.2969 Q609.5625,552.1875 609.9688,551.8281 Q610.2344,551.625 610.375,551.5625 Q610.5156,551.5 610.6875,551.5 Q611.0156,551.5 611.25,551.7656 Q611.5,552.0156 611.5,552.375 Q611.5,552.7188 611.1563,553.125 Q610.6563,553.7188 609.8594,554.0469 Q608.8125,554.5 607.5313,554.5 Q606.0313,554.5 604.8281,553.9063 Q603.8594,553.4375 603.1719,552.4219 Q602.5,551.4063 602.5,550.2031 L602.5,549.1094 Q602.5,547.8594 603.0938,546.7656 Q603.7031,545.6719 604.75,545.0938 Q605.8125,544.5 607,544.5 Q607.7188,544.5 608.3438,544.75 Q608.9688,545 609.5,545.5 Z " fill="#000000"/><text fill="#000000" font-family="sans-serif" font-size="12" lengthAdjust="spacing" textLength="85" x="621.5" y="553.9102">ProductCatalog</text><line style="stroke:#A80036;stroke-width:1.5;" x1="593.5" x2="708.5" y1="565" y2="565"/><line style="stroke:#A80036;stroke-width:1.5;" x1="593.5" x2="708.5" y1="573" y2="573"/><!--MD5=[72136138052d025cffdce3c22fbd185f]
class Product--><rect codeLine="47" fill="#FEFECE" filter="url(#f14j39xxtdsjka)" height="186.3594" id="Product" style="stroke:#A80036;stroke-width:1.5;" width="115" x="593.5" y="682"/><ellipse cx="626.95" cy="698" fill="#ADD1B2" rx="11" ry="11" style="stroke:#A80036;stroke-width:1.0;"/><path d="M628.95,694.5 Q629.1531,694 629.3875,693.75 Q629.6219,693.5 629.8875,693.5 Q630.3563,693.5 630.6531,693.7813 Q630.95,694.0625 630.95,694.7188 L630.95,696.2813 Q630.95,696.9375 630.6688,697.2188 Q630.3875,697.5 629.95,697.5 Q629.5594,697.5 629.3094,697.3281 Q629.0594,697.1563 628.95,696.7031 Q628.9031,696.3906 628.7313,696.2188 Q628.4188,695.8906 627.8563,695.7031 Q627.2938,695.5 626.7313,695.5 Q626.0281,695.5 625.4344,695.7813 Q624.8563,696.0625 624.4031,696.6875 Q623.95,697.3125 623.95,698.1719 L623.95,699.0938 Q623.95,700.125 624.7938,700.8125 Q625.6375,701.5 627.1375,701.5 Q628.0281,701.5 628.6531,701.2969 Q629.0125,701.1875 629.4188,700.8281 Q629.6844,700.625 629.825,700.5625 Q629.9656,700.5 630.1375,700.5 Q630.4656,700.5 630.7,700.7656 Q630.95,701.0156 630.95,701.375 Q630.95,701.7188 630.6063,702.125 Q630.1063,702.7188 629.3094,703.0469 Q628.2625,703.5 626.9813,703.5 Q625.4813,703.5 624.2781,702.9063 Q623.3094,702.4375 622.6219,701.4219 Q621.95,700.4063 621.95,699.2031 L621.95,698.1094 Q621.95,696.8594 622.5438,695.7656 Q623.1531,694.6719 624.2,694.0938 Q625.2625,693.5 626.45,693.5 Q627.1688,693.5 627.7938,693.75 Q628.4188,694 628.95,694.5 Z " fill="#000000"/><text fill="#000000" font-family="sans-serif" font-size="12" lengthAdjust="spacing" textLength="42" x="645.05" y="702.9102">Product</text><line style="stroke:#A80036;stroke-width:1.5;" x1="594.5" x2="707.5" y1="714" y2="714"/><text fill="#000000" font-family="sans-serif" font-size="11" lengthAdjust="spacing" textLength="64" x="599.5" y="729.4189">-internalCode</text><text fill="#000000" font-family="sans-serif" font-size="11" lengthAdjust="spacing" textLength="83" x="599.5" y="743.2549">-shortDescription</text><text fill="#000000" font-family="sans-serif" font-size="11" lengthAdjust="spacing" textLength="103" x="599.5" y="757.0908">-extendedDescription</text><text fill="#000000" font-family="sans-serif" font-size="11" lengthAdjust="spacing" textLength="101" x="599.5" y="770.9268">-technicalDescription</text><text fill="#000000" font-family="sans-serif" font-size="11" lengthAdjust="spacing" textLength="32" x="599.5" y="784.7627">-brand</text><text fill="#000000" font-family="sans-serif" font-size="11" lengthAdjust="spacing" textLength="52" x="599.5" y="798.5986">-reference</text><text fill="#000000" font-family="sans-serif" font-size="11" lengthAdjust="spacing" textLength="80" x="599.5" y="812.4346">-productionCode</text><text fill="#000000" font-family="sans-serif" font-size="11" lengthAdjust="spacing" textLength="28" x="599.5" y="826.2705">-price</text><text fill="#000000" font-family="sans-serif" font-size="11" lengthAdjust="spacing" textLength="44" x="599.5" y="840.1064">-barcode</text><text fill="#000000" font-family="sans-serif" font-size="11" lengthAdjust="spacing" textLength="31" x="599.5" y="853.9424">-photo</text><line style="stroke:#A80036;stroke-width:1.5;" x1="594.5" x2="707.5" y1="860.3594" y2="860.3594"/><!--MD5=[48590afff58a68e2fcba47824d6f8a11]
class RepositoryFactory--><rect codeLine="63" fill="#FEFECE" filter="url(#f14j39xxtdsjka)" height="61.8359" id="RepositoryFactory" style="stroke:#A80036;stroke-width:1.5;" width="130" x="816" y="526"/><ellipse cx="831" cy="542" fill="#ADD1B2" rx="11" ry="11" style="stroke:#A80036;stroke-width:1.0;"/><path d="M833,538.5 Q833.2031,538 833.4375,537.75 Q833.6719,537.5 833.9375,537.5 Q834.4063,537.5 834.7031,537.7813 Q835,538.0625 835,538.7188 L835,540.2813 Q835,540.9375 834.7188,541.2188 Q834.4375,541.5 834,541.5 Q833.6094,541.5 833.3594,541.3281 Q833.1094,541.1563 833,540.7031 Q832.9531,540.3906 832.7813,540.2188 Q832.4688,539.8906 831.9063,539.7031 Q831.3438,539.5 830.7813,539.5 Q830.0781,539.5 829.4844,539.7813 Q828.9063,540.0625 828.4531,540.6875 Q828,541.3125 828,542.1719 L828,543.0938 Q828,544.125 828.8438,544.8125 Q829.6875,545.5 831.1875,545.5 Q832.0781,545.5 832.7031,545.2969 Q833.0625,545.1875 833.4688,544.8281 Q833.7344,544.625 833.875,544.5625 Q834.0156,544.5 834.1875,544.5 Q834.5156,544.5 834.75,544.7656 Q835,545.0156 835,545.375 Q835,545.7188 834.6563,546.125 Q834.1563,546.7188 833.3594,547.0469 Q832.3125,547.5 831.0313,547.5 Q829.5313,547.5 828.3281,546.9063 Q827.3594,546.4375 826.6719,545.4219 Q826,544.4063 826,543.2031 L826,542.1094 Q826,540.8594 826.5938,539.7656 Q827.2031,538.6719 828.25,538.0938 Q829.3125,537.5 830.5,537.5 Q831.2188,537.5 831.8438,537.75 Q832.4688,538 833,538.5 Z " fill="#000000"/><text fill="#000000" font-family="sans-serif" font-size="12" lengthAdjust="spacing" textLength="98" x="845" y="546.9102">RepositoryFactory</text><line style="stroke:#A80036;stroke-width:1.5;" x1="817" x2="945" y1="558" y2="558"/><line style="stroke:#A80036;stroke-width:1.5;" x1="817" x2="945" y1="566" y2="566"/><text fill="#000000" font-family="sans-serif" font-size="11" lengthAdjust="spacing" textLength="81" x="822" y="581.4189">productCatalog()</text><!--MD5=[742ad70b13746f46655a8b071f23587b]
class ProductCatalogRepository--><rect codeLine="67" fill="#FEFECE" filter="url(#f14j39xxtdsjka)" height="89.5078" id="ProductCatalogRepository" style="stroke:#A80036;stroke-width:1.5;" width="180" x="766" y="730"/><ellipse cx="782.8" cy="746" fill="#ADD1B2" rx="11" ry="11" style="stroke:#A80036;stroke-width:1.0;"/><path d="M784.8,742.5 Q785.0031,742 785.2375,741.75 Q785.4719,741.5 785.7375,741.5 Q786.2063,741.5 786.5031,741.7813 Q786.8,742.0625 786.8,742.7188 L786.8,744.2813 Q786.8,744.9375 786.5188,745.2188 Q786.2375,745.5 785.8,745.5 Q785.4094,745.5 785.1594,745.3281 Q784.9094,745.1563 784.8,744.7031 Q784.7531,744.3906 784.5813,744.2188 Q784.2688,743.8906 783.7063,743.7031 Q783.1438,743.5 782.5813,743.5 Q781.8781,743.5 781.2844,743.7813 Q780.7063,744.0625 780.2531,744.6875 Q779.8,745.3125 779.8,746.1719 L779.8,747.0938 Q779.8,748.125 780.6438,748.8125 Q781.4875,749.5 782.9875,749.5 Q783.8781,749.5 784.5031,749.2969 Q784.8625,749.1875 785.2688,748.8281 Q785.5344,748.625 785.675,748.5625 Q785.8156,748.5 785.9875,748.5 Q786.3156,748.5 786.55,748.7656 Q786.8,749.0156 786.8,749.375 Q786.8,749.7188 786.4563,750.125 Q785.9563,750.7188 785.1594,751.0469 Q784.1125,751.5 782.8313,751.5 Q781.3313,751.5 780.1281,750.9063 Q779.1594,750.4375 778.4719,749.4219 Q777.8,748.4063 777.8,747.2031 L777.8,746.1094 Q777.8,744.8594 778.3938,743.7656 Q779.0031,742.6719 780.05,742.0938 Q781.1125,741.5 782.3,741.5 Q783.0188,741.5 783.6438,741.75 Q784.2688,742 784.8,742.5 Z " fill="#000000"/><text fill="#000000" font-family="sans-serif" font-size="12" lengthAdjust="spacing" textLength="144" x="797.2" y="750.9102">ProductCatalogRepository</text><line style="stroke:#A80036;stroke-width:1.5;" x1="767" x2="945" y1="762" y2="762"/><line style="stroke:#A80036;stroke-width:1.5;" x1="767" x2="945" y1="770" y2="770"/><text fill="#000000" font-family="sans-serif" font-size="11" lengthAdjust="spacing" textLength="117" x="772" y="785.4189">+findProductsByBrand()</text><text fill="#000000" font-family="sans-serif" font-size="11" lengthAdjust="spacing" textLength="132" x="772" y="799.2549">+findProductsByCategory()</text><text fill="#000000" font-family="sans-serif" font-size="11" lengthAdjust="spacing" textLength="168" x="772" y="813.0908">+findProductsByShortDescription()</text><!--MD5=[6b7d79bc9f2ed7989f92638c30210a47]
class InMemoryProductCatalogRepository--><rect codeLine="75" fill="#FEFECE" filter="url(#f14j39xxtdsjka)" height="89.5078" id="InMemoryProductCatalogRepository" style="stroke:#A80036;stroke-width:1.5;" width="229" x="1002.5" y="512"/><ellipse cx="1017.5" cy="528" fill="#ADD1B2" rx="11" ry="11" style="stroke:#A80036;stroke-width:1.0;"/><path d="M1019.5,524.5 Q1019.7031,524 1019.9375,523.75 Q1020.1719,523.5 1020.4375,523.5 Q1020.9063,523.5 1021.2031,523.7813 Q1021.5,524.0625 1021.5,524.7188 L1021.5,526.2813 Q1021.5,526.9375 1021.2188,527.2188 Q1020.9375,527.5 1020.5,527.5 Q1020.1094,527.5 1019.8594,527.3281 Q1019.6094,527.1563 1019.5,526.7031 Q1019.4531,526.3906 1019.2813,526.2188 Q1018.9688,525.8906 1018.4063,525.7031 Q1017.8438,525.5 1017.2813,525.5 Q1016.5781,525.5 1015.9844,525.7813 Q1015.4063,526.0625 1014.9531,526.6875 Q1014.5,527.3125 1014.5,528.1719 L1014.5,529.0938 Q1014.5,530.125 1015.3438,530.8125 Q1016.1875,531.5 1017.6875,531.5 Q1018.5781,531.5 1019.2031,531.2969 Q1019.5625,531.1875 1019.9688,530.8281 Q1020.2344,530.625 1020.375,530.5625 Q1020.5156,530.5 1020.6875,530.5 Q1021.0156,530.5 1021.25,530.7656 Q1021.5,531.0156 1021.5,531.375 Q1021.5,531.7188 1021.1563,532.125 Q1020.6563,532.7188 1019.8594,533.0469 Q1018.8125,533.5 1017.5313,533.5 Q1016.0313,533.5 1014.8281,532.9063 Q1013.8594,532.4375 1013.1719,531.4219 Q1012.5,530.4063 1012.5,529.2031 L1012.5,528.1094 Q1012.5,526.8594 1013.0938,525.7656 Q1013.7031,524.6719 1014.75,524.0938 Q1015.8125,523.5 1017,523.5 Q1017.7188,523.5 1018.3438,523.75 Q1018.9688,524 1019.5,524.5 Z " fill="#000000"/><text fill="#000000" font-family="sans-serif" font-size="12" lengthAdjust="spacing" textLength="197" x="1031.5" y="532.9102">InMemoryProductCatalogRepository</text><line style="stroke:#A80036;stroke-width:1.5;" x1="1003.5" x2="1230.5" y1="544" y2="544"/><line style="stroke:#A80036;stroke-width:1.5;" x1="1003.5" x2="1230.5" y1="552" y2="552"/><text fill="#000000" font-family="sans-serif" font-size="11" lengthAdjust="spacing" textLength="117" x="1008.5" y="567.4189">+findProductsByBrand()</text><text fill="#000000" font-family="sans-serif" font-size="11" lengthAdjust="spacing" textLength="132" x="1008.5" y="581.2549">+findProductsByCategory()</text><text fill="#000000" font-family="sans-serif" font-size="11" lengthAdjust="spacing" textLength="168" x="1008.5" y="595.0908">+findProductsByShortDescription()</text><!--MD5=[47545f48d04ab1389b500c1908aaf0ef]
class InMemoryRepositoryFactory--><rect codeLine="81" fill="#FEFECE" filter="url(#f14j39xxtdsjka)" height="61.8359" id="InMemoryRepositoryFactory" style="stroke:#A80036;stroke-width:1.5;" width="183" x="1013.5" y="348"/><ellipse cx="1028.5" cy="364" fill="#ADD1B2" rx="11" ry="11" style="stroke:#A80036;stroke-width:1.0;"/><path d="M1030.5,360.5 Q1030.7031,360 1030.9375,359.75 Q1031.1719,359.5 1031.4375,359.5 Q1031.9063,359.5 1032.2031,359.7813 Q1032.5,360.0625 1032.5,360.7188 L1032.5,362.2813 Q1032.5,362.9375 1032.2188,363.2188 Q1031.9375,363.5 1031.5,363.5 Q1031.1094,363.5 1030.8594,363.3281 Q1030.6094,363.1563 1030.5,362.7031 Q1030.4531,362.3906 1030.2813,362.2188 Q1029.9688,361.8906 1029.4063,361.7031 Q1028.8438,361.5 1028.2813,361.5 Q1027.5781,361.5 1026.9844,361.7813 Q1026.4063,362.0625 1025.9531,362.6875 Q1025.5,363.3125 1025.5,364.1719 L1025.5,365.0938 Q1025.5,366.125 1026.3438,366.8125 Q1027.1875,367.5 1028.6875,367.5 Q1029.5781,367.5 1030.2031,367.2969 Q1030.5625,367.1875 1030.9688,366.8281 Q1031.2344,366.625 1031.375,366.5625 Q1031.5156,366.5 1031.6875,366.5 Q1032.0156,366.5 1032.25,366.7656 Q1032.5,367.0156 1032.5,367.375 Q1032.5,367.7188 1032.1563,368.125 Q1031.6563,368.7188 1030.8594,369.0469 Q1029.8125,369.5 1028.5313,369.5 Q1027.0313,369.5 1025.8281,368.9063 Q1024.8594,368.4375 1024.1719,367.4219 Q1023.5,366.4063 1023.5,365.2031 L1023.5,364.1094 Q1023.5,362.8594 1024.0938,361.7656 Q1024.7031,360.6719 1025.75,360.0938 Q1026.8125,359.5 1028,359.5 Q1028.7188,359.5 1029.3438,359.75 Q1029.9688,360 1030.5,360.5 Z " fill="#000000"/><text fill="#000000" font-family="sans-serif" font-size="12" lengthAdjust="spacing" textLength="151" x="1042.5" y="368.9102">InMemoryRepositoryFactory</text><line style="stroke:#A80036;stroke-width:1.5;" x1="1014.5" x2="1195.5" y1="380" y2="380"/><line style="stroke:#A80036;stroke-width:1.5;" x1="1014.5" x2="1195.5" y1="388" y2="388"/><text fill="#000000" font-family="sans-serif" font-size="11" lengthAdjust="spacing" textLength="81" x="1019.5" y="403.4189">productCatalog()</text><!--MD5=[cd3132ef912ec058800efabc66d55a00]
class JpaProductCatalogRepository--><rect codeLine="87" fill="#FEFECE" filter="url(#f14j39xxtdsjka)" height="89.5078" id="JpaProductCatalogRepository" style="stroke:#A80036;stroke-width:1.5;" width="196" x="1299" y="512"/><ellipse cx="1314" cy="528" fill="#ADD1B2" rx="11" ry="11" style="stroke:#A80036;stroke-width:1.0;"/><path d="M1316,524.5 Q1316.2031,524 1316.4375,523.75 Q1316.6719,523.5 1316.9375,523.5 Q1317.4063,523.5 1317.7031,523.7813 Q1318,524.0625 1318,524.7188 L1318,526.2813 Q1318,526.9375 1317.7188,527.2188 Q1317.4375,527.5 1317,527.5 Q1316.6094,527.5 1316.3594,527.3281 Q1316.1094,527.1563 1316,526.7031 Q1315.9531,526.3906 1315.7813,526.2188 Q1315.4688,525.8906 1314.9063,525.7031 Q1314.3438,525.5 1313.7813,525.5 Q1313.0781,525.5 1312.4844,525.7813 Q1311.9063,526.0625 1311.4531,526.6875 Q1311,527.3125 1311,528.1719 L1311,529.0938 Q1311,530.125 1311.8438,530.8125 Q1312.6875,531.5 1314.1875,531.5 Q1315.0781,531.5 1315.7031,531.2969 Q1316.0625,531.1875 1316.4688,530.8281 Q1316.7344,530.625 1316.875,530.5625 Q1317.0156,530.5 1317.1875,530.5 Q1317.5156,530.5 1317.75,530.7656 Q1318,531.0156 1318,531.375 Q1318,531.7188 1317.6563,532.125 Q1317.1563,532.7188 1316.3594,533.0469 Q1315.3125,533.5 1314.0313,533.5 Q1312.5313,533.5 1311.3281,532.9063 Q1310.3594,532.4375 1309.6719,531.4219 Q1309,530.4063 1309,529.2031 L1309,528.1094 Q1309,526.8594 1309.5938,525.7656 Q1310.2031,524.6719 1311.25,524.0938 Q1312.3125,523.5 1313.5,523.5 Q1314.2188,523.5 1314.8438,523.75 Q1315.4688,524 1316,524.5 Z " fill="#000000"/><text fill="#000000" font-family="sans-serif" font-size="12" lengthAdjust="spacing" textLength="164" x="1328" y="532.9102">JpaProductCatalogRepository</text><line style="stroke:#A80036;stroke-width:1.5;" x1="1300" x2="1494" y1="544" y2="544"/><line style="stroke:#A80036;stroke-width:1.5;" x1="1300" x2="1494" y1="552" y2="552"/><text fill="#000000" font-family="sans-serif" font-size="11" lengthAdjust="spacing" textLength="117" x="1305" y="567.4189">+findProductsByBrand()</text><text fill="#000000" font-family="sans-serif" font-size="11" lengthAdjust="spacing" textLength="132" x="1305" y="581.2549">+findProductsByCategory()</text><text fill="#000000" font-family="sans-serif" font-size="11" lengthAdjust="spacing" textLength="168" x="1305" y="595.0908">+findProductsByShortDescription()</text><!--MD5=[e0087e3f3b69767d7a6ef6888f2693a1]
class JpaRepositoryFactory--><rect codeLine="93" fill="#FEFECE" filter="url(#f14j39xxtdsjka)" height="61.8359" id="JpaRepositoryFactory" style="stroke:#A80036;stroke-width:1.5;" width="150" x="1316" y="348"/><ellipse cx="1331" cy="364" fill="#ADD1B2" rx="11" ry="11" style="stroke:#A80036;stroke-width:1.0;"/><path d="M1333,360.5 Q1333.2031,360 1333.4375,359.75 Q1333.6719,359.5 1333.9375,359.5 Q1334.4063,359.5 1334.7031,359.7813 Q1335,360.0625 1335,360.7188 L1335,362.2813 Q1335,362.9375 1334.7188,363.2188 Q1334.4375,363.5 1334,363.5 Q1333.6094,363.5 1333.3594,363.3281 Q1333.1094,363.1563 1333,362.7031 Q1332.9531,362.3906 1332.7813,362.2188 Q1332.4688,361.8906 1331.9063,361.7031 Q1331.3438,361.5 1330.7813,361.5 Q1330.0781,361.5 1329.4844,361.7813 Q1328.9063,362.0625 1328.4531,362.6875 Q1328,363.3125 1328,364.1719 L1328,365.0938 Q1328,366.125 1328.8438,366.8125 Q1329.6875,367.5 1331.1875,367.5 Q1332.0781,367.5 1332.7031,367.2969 Q1333.0625,367.1875 1333.4688,366.8281 Q1333.7344,366.625 1333.875,366.5625 Q1334.0156,366.5 1334.1875,366.5 Q1334.5156,366.5 1334.75,366.7656 Q1335,367.0156 1335,367.375 Q1335,367.7188 1334.6563,368.125 Q1334.1563,368.7188 1333.3594,369.0469 Q1332.3125,369.5 1331.0313,369.5 Q1329.5313,369.5 1328.3281,368.9063 Q1327.3594,368.4375 1326.6719,367.4219 Q1326,366.4063 1326,365.2031 L1326,364.1094 Q1326,362.8594 1326.5938,361.7656 Q1327.2031,360.6719 1328.25,360.0938 Q1329.3125,359.5 1330.5,359.5 Q1331.2188,359.5 1331.8438,359.75 Q1332.4688,360 1333,360.5 Z " fill="#000000"/><text fill="#000000" font-family="sans-serif" font-size="12" lengthAdjust="spacing" textLength="118" x="1345" y="368.9102">JpaRepositoryFactory</text><line style="stroke:#A80036;stroke-width:1.5;" x1="1317" x2="1465" y1="380" y2="380"/><line style="stroke:#A80036;stroke-width:1.5;" x1="1317" x2="1465" y1="388" y2="388"/><text fill="#000000" font-family="sans-serif" font-size="11" lengthAdjust="spacing" textLength="81" x="1322" y="403.4189">productCatalog()</text><!--MD5=[2dad1050b2db9bb01e406f890311946d]
link SearchProductCatalogByBrandUI to SearchProductCatalogByBrandController--><path codeLine="98" d="M191.73,118.18 C185.01,142.47 176.31,173.99 169.71,197.86 " fill="none" id="SearchProductCatalogByBrandUI-to-SearchProductCatalogByBrandController" style="stroke:#A80036;stroke-width:1.0;stroke-dasharray:7.0,7.0;"/><polygon fill="#A80036" points="168.34,202.83,174.5843,195.2136,169.6664,198.0092,166.8709,193.0913,168.34,202.83" style="stroke:#A80036;stroke-width:1.0;"/><!--MD5=[368ea7de988778b0b3ab92cc11940dfc]
link SearchProductCatalogByCategoryUI to SearchProductCatalogByCategoryController--><path codeLine="99" d="M459,118.18 C459,142.37 459,173.72 459,197.56 " fill="none" id="SearchProductCatalogByCategoryUI-to-SearchProductCatalogByCategoryController" style="stroke:#A80036;stroke-width:1.0;stroke-dasharray:7.0,7.0;"/><polygon fill="#A80036" points="459,202.83,463,193.83,459,197.83,455,193.83,459,202.83" style="stroke:#A80036;stroke-width:1.0;"/><!--MD5=[fed68aacb7a7ea3fa0625ced9288832c]
link SearchProductCatalogByShortDescriptionUI to SearchProductCatalogByShortDescriptionController--><path codeLine="100" d="M756.27,118.18 C762.99,142.47 771.69,173.99 778.29,197.86 " fill="none" id="SearchProductCatalogByShortDescriptionUI-to-SearchProductCatalogByShortDescriptionController" style="stroke:#A80036;stroke-width:1.0;stroke-dasharray:7.0,7.0;"/><polygon fill="#A80036" points="779.66,202.83,781.1291,193.0913,778.3336,198.0092,773.4157,195.2136,779.66,202.83" style="stroke:#A80036;stroke-width:1.0;"/><!--MD5=[0822cd79aeddfe9a1da461ea12ee8f45]
link SearchProductCatalogByBrandController to SearchProductCatalogService--><path codeLine="101" d="M275,265.06 C372.13,290.46 509.98,326.49 603.65,350.98 " fill="none" id="SearchProductCatalogByBrandController-to-SearchProductCatalogService" style="stroke:#A80036;stroke-width:1.0;stroke-dasharray:7.0,7.0;"/><polygon fill="#A80036" points="608.64,352.29,600.9382,346.1514,603.8013,351.0302,598.9225,353.8934,608.64,352.29" style="stroke:#A80036;stroke-width:1.0;"/><!--MD5=[21615668452fd999925b194203c49a7a]
link SearchProductCatalogByCategoryController to SearchProductCatalogService--><path codeLine="102" d="M511.29,265.15 C544.48,284.29 588.1,309.44 625.74,331.14 " fill="none" id="SearchProductCatalogByCategoryController-to-SearchProductCatalogService" style="stroke:#A80036;stroke-width:1.0;stroke-dasharray:7.0,7.0;"/><polygon fill="#A80036" points="630.3,333.77,624.507,325.805,625.9703,331.2693,620.5059,332.7326,630.3,333.77" style="stroke:#A80036;stroke-width:1.0;"/><!--MD5=[68c4f5a44b75d89175c42e6a7b6a4327]
link SearchProductCatalogByShortDescriptionController to SearchProductCatalogService--><path codeLine="103" d="M770.82,265.33 C760.29,283.93 746.56,308.16 734.53,329.39 " fill="none" id="SearchProductCatalogByShortDescriptionController-to-SearchProductCatalogService" style="stroke:#A80036;stroke-width:1.0;stroke-dasharray:7.0,7.0;"/><polygon fill="#A80036" points="731.99,333.87,739.9179,328.0263,734.463,329.5244,732.9649,324.0695,731.99,333.87" style="stroke:#A80036;stroke-width:1.0;"/><!--MD5=[8c5d04c63f9241fc9d89dedb225e5dae]
link SearchProductCatalogService to ProductCatalog--><path codeLine="104" d="M692.87,424.41 C682.56,456.82 668.89,499.77 660.02,527.64 " fill="none" id="SearchProductCatalogService-to-ProductCatalog" style="stroke:#A80036;stroke-width:1.0;stroke-dasharray:7.0,7.0;"/><polygon fill="#A80036" points="658.43,532.66,664.9651,525.2916,659.9425,527.8942,657.3399,522.8717,658.43,532.66" style="stroke:#A80036;stroke-width:1.0;"/><!--MD5=[775cc16ae84e9d28faaed1ac152eeedb]
link ProductCatalog to Product--><path codeLine="105" d="M651,581.12 C651,604.14 651,641.08 651,676.5 " fill="none" id="ProductCatalog-to-Product" style="stroke:#A80036;stroke-width:1.0;stroke-dasharray:7.0,7.0;"/><polygon fill="#A80036" points="651,681.71,655,672.71,651,676.71,647,672.71,651,681.71" style="stroke:#A80036;stroke-width:1.0;"/><!--MD5=[6faf4dfe4561060ad981c21ffd714b01]
link SearchProductCatalogService to ProductCatalogRepository--><path codeLine="106" d="M723.32,424.04 C741.62,473.3 772.22,555.45 799,626 C811.52,658.97 825.78,696 836.9,724.77 " fill="none" id="SearchProductCatalogService-to-ProductCatalogRepository" style="stroke:#A80036;stroke-width:1.0;stroke-dasharray:7.0,7.0;"/><polygon fill="#A80036" points="838.8,729.68,839.2864,719.8432,836.9974,725.0162,831.8244,722.7273,838.8,729.68" style="stroke:#A80036;stroke-width:1.0;"/><!--MD5=[9761327407a1c4a18f351ae76539d398]
link SearchProductCatalogService to RepositoryFactory--><path codeLine="107" d="M756.17,424.38 C767.13,434.61 778.59,445.55 789,456 C810.23,477.31 833.13,502.2 850.78,521.81 " fill="none" id="SearchProductCatalogService-to-RepositoryFactory" style="stroke:#A80036;stroke-width:1.0;stroke-dasharray:7.0,7.0;"/><polygon fill="#A80036" points="854.23,525.66,851.2004,516.2887,850.8923,521.9372,845.2438,521.6291,854.23,525.66" style="stroke:#A80036;stroke-width:1.0;"/><!--MD5=[688a8d6acb0119dc675e6a9583565a17]
link RepositoryFactory to ProductCatalogRepository--><path codeLine="108" d="M877.52,588.03 C873.44,623.35 866.59,682.47 861.72,724.57 " fill="none" id="RepositoryFactory-to-ProductCatalogRepository" style="stroke:#A80036;stroke-width:1.0;stroke-dasharray:7.0,7.0;"/><polygon fill="#A80036" points="861.14,729.61,866.1656,721.1398,861.725,724.6443,858.2205,720.2038,861.14,729.61" style="stroke:#A80036;stroke-width:1.0;"/><!--MD5=[a9ef8a702a9f41f5c657e5dd5d26ce58]
link InMemoryRepositoryFactory to RepositoryFactory--><path codeLine="109" d="M1066.75,410.06 C1027,441.28 964.95,490.04 923.65,522.49 " fill="none" id="InMemoryRepositoryFactory-to-RepositoryFactory" style="stroke:#A80036;stroke-width:1.0;stroke-dasharray:7.0,7.0;"/><polygon fill="#A80036" points="919.47,525.77,929.0185,523.3564,923.4021,522.6815,924.077,517.0651,919.47,525.77" style="stroke:#A80036;stroke-width:1.0;"/><text fill="#000000" font-family="sans-serif" font-size="13" lengthAdjust="spacing" textLength="67" x="1007" y="470.4951">implements</text><!--MD5=[64c025371283769589f6ae2398a1561b]
link JpaRepositoryFactory to RepositoryFactory--><path codeLine="110" d="M1357.11,410.14 C1329.78,432.39 1289.22,460.98 1248,474 C1192.46,491.55 1041.25,463.55 986,482 C960.83,490.4 936.37,506.98 917.4,522.32 " fill="none" id="JpaRepositoryFactory-to-RepositoryFactory" style="stroke:#A80036;stroke-width:1.0;stroke-dasharray:7.0,7.0;"/><polygon fill="#A80036" points="913.19,525.78,922.687,523.171,917.0579,522.6115,917.6174,516.9824,913.19,525.78" style="stroke:#A80036;stroke-width:1.0;"/><text fill="#000000" font-family="sans-serif" font-size="13" lengthAdjust="spacing" textLength="67" x="1287" y="470.4951">implements</text><!--MD5=[e3f4028e2078a876f15af6fabace2e5b]
link InMemoryRepositoryFactory to InMemoryProductCatalogRepository--><path codeLine="111" d="M1107.06,410.26 C1108.87,436.73 1111.53,475.7 1113.64,506.68 " fill="none" id="InMemoryRepositoryFactory-to-InMemoryProductCatalogRepository" style="stroke:#A80036;stroke-width:1.0;stroke-dasharray:7.0,7.0;"/><polygon fill="#A80036" points="1114,511.98,1117.3731,502.7268,1113.657,506.9918,1109.392,503.2756,1114,511.98" style="stroke:#A80036;stroke-width:1.0;"/><text fill="#000000" font-family="sans-serif" font-size="13" lengthAdjust="spacing" textLength="43" x="1112" y="470.4951">creates</text><!--MD5=[8ff76280d520429cfcd33fdc35b7b574]
link JpaRepositoryFactory to JpaProductCatalogRepository--><path codeLine="112" d="M1392.03,410.26 C1392.93,436.73 1394.26,475.7 1395.32,506.68 " fill="none" id="JpaRepositoryFactory-to-JpaProductCatalogRepository" style="stroke:#A80036;stroke-width:1.0;stroke-dasharray:7.0,7.0;"/><polygon fill="#A80036" points="1395.5,511.98,1399.1893,502.8482,1395.3287,506.9829,1391.194,503.1223,1395.5,511.98" style="stroke:#A80036;stroke-width:1.0;"/><text fill="#000000" font-family="sans-serif" font-size="13" lengthAdjust="spacing" textLength="43" x="1395" y="470.4951">creates</text><!--MD5=[a37302fb838e015a00012c0d10521477]
link InMemoryProductCatalogRepository to ProductCatalogRepository--><path codeLine="113" d="M1063.55,602.23 C1019.83,638.41 958.14,689.47 913.38,726.51 " fill="none" id="InMemoryProductCatalogRepository-to-ProductCatalogRepository" style="stroke:#A80036;stroke-width:1.0;stroke-dasharray:7.0,7.0;"/><polygon fill="#A80036" points="909.38,729.83,918.8664,727.1828,913.2351,726.646,913.772,721.0146,909.38,729.83" style="stroke:#A80036;stroke-width:1.0;"/><text fill="#000000" font-family="sans-serif" font-size="13" lengthAdjust="spacing" textLength="67" x="1026" y="648.4951">implements</text><!--MD5=[15a70d902f17b3e8f0197479d134e044]
link JpaProductCatalogRepository to ProductCatalogRepository--><path codeLine="114" d="M1302.83,602.13 C1284.73,610.29 1265.85,618.57 1248,626 C1147.59,667.81 1030.75,711.27 950.92,740.19 " fill="none" id="JpaProductCatalogRepository-to-ProductCatalogRepository" style="stroke:#A80036;stroke-width:1.0;stroke-dasharray:7.0,7.0;"/><polygon fill="#A80036" points="946.19,741.9,956.0139,742.6003,950.8919,740.1993,953.2928,735.0773,946.19,741.9" style="stroke:#A80036;stroke-width:1.0;"/><text fill="#000000" font-family="sans-serif" font-size="13" lengthAdjust="spacing" textLength="67" x="1228" y="648.4951">implements</text><!--MD5=[ebef20914c62046790cd59220c62240d]
@startuml
skinparam classAttributeIconSize 0

Package Presentation{
class SearchProductCatalogByBrandUI {
    +doShow()
    +findProductsByBrand()
}

class SearchProductCatalogByCategoryUI {
    +doShow()
    +findProductsByCategory()
}

class SearchProductCatalogByShortDescriptionUI {
    +doShow()
    +findProductsByShortDescription()
}

}

Package Application{

class SearchProductCatalogByBrandController {
    +findProductsByBrand()
}

class SearchProductCatalogByCategoryController {
    +findProductsByCategory()
}

class SearchProductCatalogByShortDescriptionController {
    +findProductsByShortDescription()
}

class SearchProductCatalogService{
    +findProductsByBrand()
    +findProductsByCategory()
    +findProductsByShortDescription()
}
}

Package Domain{

class ProductCatalog {
}

class Product{
  -internalCode
  -shortDescription
  -extendedDescription
  -technicalDescription
  -brand
  -reference
  -productionCode
  -price
  -barcode
  -photo
}
}


Package Persistence{
class RepositoryFactory{
    productCatalog()
}

class ProductCatalogRepository{
    +findProductsByBrand()
    +findProductsByCategory()
    +findProductsByShortDescription()
}
}

Package InMemory{
class InMemoryProductCatalogRepository{
    +findProductsByBrand()
    +findProductsByCategory()
    +findProductsByShortDescription()
}

class InMemoryRepositoryFactory{
    productCatalog()
}
}

Package Jpa{
class JpaProductCatalogRepository{
    +findProductsByBrand()
    +findProductsByCategory()
    +findProductsByShortDescription()
}

class JpaRepositoryFactory{
    productCatalog()
}   
}

SearchProductCatalogByBrandUI ..> SearchProductCatalogByBrandController
SearchProductCatalogByCategoryUI ..> SearchProductCatalogByCategoryController
SearchProductCatalogByShortDescriptionUI ..> SearchProductCatalogByShortDescriptionController
SearchProductCatalogByBrandController ..> SearchProductCatalogService
SearchProductCatalogByCategoryController ..> SearchProductCatalogService
SearchProductCatalogByShortDescriptionController ..> SearchProductCatalogService
SearchProductCatalogService ..> ProductCatalog
ProductCatalog ..> Product
SearchProductCatalogService ..> ProductCatalogRepository
SearchProductCatalogService ..> RepositoryFactory
RepositoryFactory ..> ProductCatalogRepository
InMemoryRepositoryFactory ..> RepositoryFactory : implements
JpaRepositoryFactory ..> RepositoryFactory : implements
InMemoryRepositoryFactory ..> InMemoryProductCatalogRepository : creates
JpaRepositoryFactory ..> JpaProductCatalogRepository : creates
InMemoryProductCatalogRepository ..> ProductCatalogRepository : implements
JpaProductCatalogRepository ..> ProductCatalogRepository : implements

@enduml

PlantUML version 1.2021.11(Sat Oct 02 14:26:11 BST 2021)
(GPL source distribution)
Java Runtime: OpenJDK Runtime Environment
JVM: OpenJDK 64-Bit Server VM
Default Encoding: Cp1252
Language: pt
Country: PT
--></g></svg>