<?xml version="1.0" encoding="UTF-8" standalone="no"?><svg xmlns="http://www.w3.org/2000/svg" xmlns:xlink="http://www.w3.org/1999/xlink" contentScriptType="application/ecmascript" contentStyleType="text/css" height="802px" preserveAspectRatio="none" style="width:1416px;height:802px;background:#FFFFFF;" version="1.1" viewBox="0 0 1416 802" width="1416px" zoomAndPan="magnify"><defs><filter height="300%" id="f189ywgkj8moxp" width="300%" x="-1" y="-1"><feGaussianBlur result="blurOut" stdDeviation="2.0"/><feColorMatrix in="blurOut" result="blurOut2" type="matrix" values="0 0 0 0 0 0 0 0 0 0 0 0 0 0 0 0 0 0 .4 0"/><feOffset dx="4.0" dy="4.0" in="blurOut2" result="blurOut3"/><feBlend in="SourceGraphic" in2="blurOut3" mode="normal"/></filter></defs><g><rect fill="#FFFFFF" filter="url(#f189ywgkj8moxp)" height="599.0313" style="stroke:#A80036;stroke-width:1.0;" width="10" x="37" y="99.6094"/><rect fill="#FFFFFF" filter="url(#f189ywgkj8moxp)" height="576.6797" style="stroke:#A80036;stroke-width:1.0;" width="10" x="354" y="121.9609"/><rect fill="#FFFFFF" filter="url(#f189ywgkj8moxp)" height="212.4609" style="stroke:#A80036;stroke-width:1.0;" width="10" x="566" y="152.3125"/><rect fill="#FFFFFF" filter="url(#f189ywgkj8moxp)" height="151.7578" style="stroke:#A80036;stroke-width:1.0;" width="10" x="566" y="516.5313"/><rect fill="#FFFFFF" filter="url(#f189ywgkj8moxp)" height="151.7578" style="stroke:#A80036;stroke-width:1.0;" width="10" x="795.5" y="182.6641"/><rect fill="#FFFFFF" filter="url(#f189ywgkj8moxp)" height="91.0547" style="stroke:#A80036;stroke-width:1.0;" width="10" x="795.5" y="546.8828"/><rect fill="#FFFFFF" filter="url(#f189ywgkj8moxp)" height="30.3516" style="stroke:#A80036;stroke-width:1.0;" width="10" x="1134.5" y="243.3672"/><line style="stroke:#A80036;stroke-width:1.0;stroke-dasharray:5.0,5.0;" x1="42" x2="42" y1="89.6094" y2="716.6406"/><line style="stroke:#A80036;stroke-width:1.0;stroke-dasharray:5.0,5.0;" x1="358.5" x2="358.5" y1="89.6094" y2="716.6406"/><line style="stroke:#A80036;stroke-width:1.0;stroke-dasharray:5.0,5.0;" x1="570.5" x2="570.5" y1="89.6094" y2="716.6406"/><line style="stroke:#A80036;stroke-width:1.0;stroke-dasharray:5.0,5.0;" x1="800.5" x2="800.5" y1="89.6094" y2="716.6406"/><line style="stroke:#A80036;stroke-width:1.0;stroke-dasharray:5.0,5.0;" x1="988.5" x2="988.5" y1="89.6094" y2="716.6406"/><line style="stroke:#A80036;stroke-width:1.0;stroke-dasharray:5.0,5.0;" x1="1139.5" x2="1139.5" y1="89.6094" y2="716.6406"/><line style="stroke:#A80036;stroke-width:1.0;stroke-dasharray:5.0,5.0;" x1="1312.5" x2="1312.5" y1="89.6094" y2="716.6406"/><text fill="#000000" font-family="sans-serif" font-size="14" lengthAdjust="spacing" textLength="68" x="5" y="86.5332">SalesClerk</text><ellipse cx="42" cy="15" fill="#FEFECE" filter="url(#f189ywgkj8moxp)" rx="8" ry="8" style="stroke:#A80036;stroke-width:2.0;"/><path d="M42,23 L42,50 M29,31 L55,31 M42,50 L29,65 M42,50 L55,65 " fill="none" filter="url(#f189ywgkj8moxp)" style="stroke:#A80036;stroke-width:2.0;"/><text fill="#000000" font-family="sans-serif" font-size="14" lengthAdjust="spacing" textLength="68" x="5" y="730.1738">SalesClerk</text><ellipse cx="42" cy="743.25" fill="#FEFECE" filter="url(#f189ywgkj8moxp)" rx="8" ry="8" style="stroke:#A80036;stroke-width:2.0;"/><path d="M42,751.25 L42,778.25 M29,759.25 L55,759.25 M42,778.25 L29,793.25 M42,778.25 L55,793.25 " fill="none" filter="url(#f189ywgkj8moxp)" style="stroke:#A80036;stroke-width:2.0;"/><rect fill="#FEFECE" filter="url(#f189ywgkj8moxp)" height="31.6094" style="stroke:#A80036;stroke-width:1.5;" width="173" x="270.5" y="53"/><text fill="#000000" font-family="sans-serif" font-size="14" lengthAdjust="spacing" textLength="159" x="277.5" y="74.5332">:SearchProductCatalogUI</text><rect fill="#FEFECE" filter="url(#f189ywgkj8moxp)" height="31.6094" style="stroke:#A80036;stroke-width:1.5;" width="173" x="270.5" y="715.6406"/><text fill="#000000" font-family="sans-serif" font-size="14" lengthAdjust="spacing" textLength="159" x="277.5" y="737.1738">:SearchProductCatalogUI</text><rect fill="#FEFECE" filter="url(#f189ywgkj8moxp)" height="31.6094" style="stroke:#A80036;stroke-width:1.5;" width="223" x="457.5" y="53"/><text fill="#000000" font-family="sans-serif" font-size="14" lengthAdjust="spacing" textLength="209" x="464.5" y="74.5332">:SearchProductCatalogController</text><rect fill="#FEFECE" filter="url(#f189ywgkj8moxp)" height="31.6094" style="stroke:#A80036;stroke-width:1.5;" width="223" x="457.5" y="715.6406"/><text fill="#000000" font-family="sans-serif" font-size="14" lengthAdjust="spacing" textLength="209" x="464.5" y="737.1738">:SearchProductCatalogController</text><rect fill="#FEFECE" filter="url(#f189ywgkj8moxp)" height="31.6094" style="stroke:#A80036;stroke-width:1.5;" width="208" x="694.5" y="53"/><text fill="#000000" font-family="sans-serif" font-size="14" lengthAdjust="spacing" textLength="194" x="701.5" y="74.5332">:SearchProductCatalogService</text><rect fill="#FEFECE" filter="url(#f189ywgkj8moxp)" height="31.6094" style="stroke:#A80036;stroke-width:1.5;" width="208" x="694.5" y="715.6406"/><text fill="#000000" font-family="sans-serif" font-size="14" lengthAdjust="spacing" textLength="194" x="701.5" y="737.1738">:SearchProductCatalogService</text><rect fill="#FEFECE" filter="url(#f189ywgkj8moxp)" height="31.6094" style="stroke:#A80036;stroke-width:1.5;" width="140" x="916.5" y="53"/><text fill="#000000" font-family="sans-serif" font-size="14" lengthAdjust="spacing" textLength="126" x="923.5" y="74.5332">:PersistenceContext</text><rect fill="#FEFECE" filter="url(#f189ywgkj8moxp)" height="31.6094" style="stroke:#A80036;stroke-width:1.5;" width="140" x="916.5" y="715.6406"/><text fill="#000000" font-family="sans-serif" font-size="14" lengthAdjust="spacing" textLength="126" x="923.5" y="737.1738">:PersistenceContext</text><rect fill="#FEFECE" filter="url(#f189ywgkj8moxp)" height="31.6094" style="stroke:#A80036;stroke-width:1.5;" width="134" x="1070.5" y="53"/><text fill="#000000" font-family="sans-serif" font-size="14" lengthAdjust="spacing" textLength="120" x="1077.5" y="74.5332">:RepositoryFactory</text><rect fill="#FEFECE" filter="url(#f189ywgkj8moxp)" height="31.6094" style="stroke:#A80036;stroke-width:1.5;" width="134" x="1070.5" y="715.6406"/><text fill="#000000" font-family="sans-serif" font-size="14" lengthAdjust="spacing" textLength="120" x="1077.5" y="737.1738">:RepositoryFactory</text><rect fill="#FEFECE" filter="url(#f189ywgkj8moxp)" height="31.6094" style="stroke:#A80036;stroke-width:1.5;" width="184" x="1218.5" y="53"/><text fill="#000000" font-family="sans-serif" font-size="14" lengthAdjust="spacing" textLength="170" x="1225.5" y="74.5332">:ProductCatalogRepository</text><rect fill="#FEFECE" filter="url(#f189ywgkj8moxp)" height="31.6094" style="stroke:#A80036;stroke-width:1.5;" width="184" x="1218.5" y="715.6406"/><text fill="#000000" font-family="sans-serif" font-size="14" lengthAdjust="spacing" textLength="170" x="1225.5" y="737.1738">:ProductCatalogRepository</text><rect fill="#FFFFFF" filter="url(#f189ywgkj8moxp)" height="599.0313" style="stroke:#A80036;stroke-width:1.0;" width="10" x="37" y="99.6094"/><rect fill="#FFFFFF" filter="url(#f189ywgkj8moxp)" height="576.6797" style="stroke:#A80036;stroke-width:1.0;" width="10" x="354" y="121.9609"/><rect fill="#FFFFFF" filter="url(#f189ywgkj8moxp)" height="212.4609" style="stroke:#A80036;stroke-width:1.0;" width="10" x="566" y="152.3125"/><rect fill="#FFFFFF" filter="url(#f189ywgkj8moxp)" height="151.7578" style="stroke:#A80036;stroke-width:1.0;" width="10" x="566" y="516.5313"/><rect fill="#FFFFFF" filter="url(#f189ywgkj8moxp)" height="151.7578" style="stroke:#A80036;stroke-width:1.0;" width="10" x="795.5" y="182.6641"/><rect fill="#FFFFFF" filter="url(#f189ywgkj8moxp)" height="91.0547" style="stroke:#A80036;stroke-width:1.0;" width="10" x="795.5" y="546.8828"/><rect fill="#FFFFFF" filter="url(#f189ywgkj8moxp)" height="30.3516" style="stroke:#A80036;stroke-width:1.0;" width="10" x="1134.5" y="243.3672"/><polygon fill="#A80036" points="342,117.9609,352,121.9609,342,125.9609,346,121.9609" style="stroke:#A80036;stroke-width:1.0;"/><line style="stroke:#A80036;stroke-width:1.0;" x1="47" x2="348" y1="121.9609" y2="121.9609"/><text fill="#000000" font-family="sans-serif" font-size="13" font-weight="bold" lengthAdjust="spacing" textLength="7" x="54" y="117.1045">1</text><text fill="#000000" font-family="sans-serif" font-size="13" lengthAdjust="spacing" textLength="192" x="65" y="117.1045">Asks to view the Product Catalog</text><polygon fill="#A80036" points="554,148.3125,564,152.3125,554,156.3125,558,152.3125" style="stroke:#A80036;stroke-width:1.0;"/><line style="stroke:#A80036;stroke-width:1.0;" x1="364" x2="560" y1="152.3125" y2="152.3125"/><text fill="#000000" font-family="sans-serif" font-size="13" font-weight="bold" lengthAdjust="spacing" textLength="7" x="371" y="147.4561">2</text><text fill="#000000" font-family="sans-serif" font-size="13" lengthAdjust="spacing" textLength="44" x="382" y="147.4561">create()</text><polygon fill="#A80036" points="783.5,178.6641,793.5,182.6641,783.5,186.6641,787.5,182.6641" style="stroke:#A80036;stroke-width:1.0;"/><line style="stroke:#A80036;stroke-width:1.0;" x1="576" x2="789.5" y1="182.6641" y2="182.6641"/><text fill="#000000" font-family="sans-serif" font-size="13" font-weight="bold" lengthAdjust="spacing" textLength="7" x="583" y="177.8076">3</text><text fill="#000000" font-family="sans-serif" font-size="13" lengthAdjust="spacing" textLength="44" x="594" y="177.8076">create()</text><polygon fill="#A80036" points="976.5,209.0156,986.5,213.0156,976.5,217.0156,980.5,213.0156" style="stroke:#A80036;stroke-width:1.0;"/><line style="stroke:#A80036;stroke-width:1.0;" x1="805.5" x2="982.5" y1="213.0156" y2="213.0156"/><text fill="#000000" font-family="sans-serif" font-size="13" font-weight="bold" lengthAdjust="spacing" textLength="7" x="812.5" y="208.1592">4</text><text fill="#000000" font-family="sans-serif" font-size="13" lengthAdjust="spacing" textLength="75" x="823.5" y="208.1592">repositories()</text><polygon fill="#A80036" points="1122.5,239.3672,1132.5,243.3672,1122.5,247.3672,1126.5,243.3672" style="stroke:#A80036;stroke-width:1.0;"/><line style="stroke:#A80036;stroke-width:1.0;" x1="988.5" x2="1128.5" y1="243.3672" y2="243.3672"/><text fill="#000000" font-family="sans-serif" font-size="13" font-weight="bold" lengthAdjust="spacing" textLength="7" x="995.5" y="238.5107">5</text><text fill="#000000" font-family="sans-serif" font-size="13" lengthAdjust="spacing" textLength="44" x="1006.5" y="238.5107">create()</text><polygon fill="#A80036" points="1300.5,269.7188,1310.5,273.7188,1300.5,277.7188,1304.5,273.7188" style="stroke:#A80036;stroke-width:1.0;"/><line style="stroke:#A80036;stroke-width:1.0;" x1="1139.5" x2="1306.5" y1="273.7188" y2="273.7188"/><text fill="#000000" font-family="sans-serif" font-size="13" font-weight="bold" lengthAdjust="spacing" textLength="7" x="1146.5" y="268.8623">6</text><text fill="#000000" font-family="sans-serif" font-size="13" lengthAdjust="spacing" textLength="44" x="1157.5" y="268.8623">create()</text><polygon fill="#A80036" points="816.5,300.0703,806.5,304.0703,816.5,308.0703,812.5,304.0703" style="stroke:#A80036;stroke-width:1.0;"/><line style="stroke:#A80036;stroke-width:1.0;stroke-dasharray:2.0,2.0;" x1="810.5" x2="1311.5" y1="304.0703" y2="304.0703"/><text fill="#000000" font-family="sans-serif" font-size="13" font-weight="bold" lengthAdjust="spacing" textLength="7" x="822.5" y="299.2139">7</text><text fill="#000000" font-family="sans-serif" font-size="13" lengthAdjust="spacing" textLength="0" x="837.5" y="299.2139"/><polygon fill="#A80036" points="587,330.4219,577,334.4219,587,338.4219,583,334.4219" style="stroke:#A80036;stroke-width:1.0;"/><line style="stroke:#A80036;stroke-width:1.0;stroke-dasharray:2.0,2.0;" x1="581" x2="799.5" y1="334.4219" y2="334.4219"/><text fill="#000000" font-family="sans-serif" font-size="13" font-weight="bold" lengthAdjust="spacing" textLength="7" x="593" y="329.5654">8</text><text fill="#000000" font-family="sans-serif" font-size="13" lengthAdjust="spacing" textLength="0" x="608" y="329.5654"/><polygon fill="#A80036" points="375,360.7734,365,364.7734,375,368.7734,371,364.7734" style="stroke:#A80036;stroke-width:1.0;"/><line style="stroke:#A80036;stroke-width:1.0;stroke-dasharray:2.0,2.0;" x1="369" x2="570" y1="364.7734" y2="364.7734"/><text fill="#000000" font-family="sans-serif" font-size="13" font-weight="bold" lengthAdjust="spacing" textLength="7" x="381" y="359.917">9</text><text fill="#000000" font-family="sans-serif" font-size="13" lengthAdjust="spacing" textLength="0" x="396" y="359.917"/><polygon fill="#A80036" points="58,391.125,48,395.125,58,399.125,54,395.125" style="stroke:#A80036;stroke-width:1.0;"/><line style="stroke:#A80036;stroke-width:1.0;stroke-dasharray:2.0,2.0;" x1="52" x2="353" y1="395.125" y2="395.125"/><text fill="#000000" font-family="sans-serif" font-size="13" font-weight="bold" lengthAdjust="spacing" textLength="14" x="64" y="390.2686">10</text><text fill="#000000" font-family="sans-serif" font-size="13" lengthAdjust="spacing" textLength="160" x="82" y="390.2686">Asks what he wants to filter</text><polygon fill="#A80036" points="342,421.4766,352,425.4766,342,429.4766,346,425.4766" style="stroke:#A80036;stroke-width:1.0;"/><line style="stroke:#A80036;stroke-width:1.0;" x1="47" x2="348" y1="425.4766" y2="425.4766"/><text fill="#000000" font-family="sans-serif" font-size="13" font-weight="bold" lengthAdjust="spacing" textLength="14" x="54" y="420.6201">11</text><text fill="#000000" font-family="sans-serif" font-size="13" lengthAdjust="spacing" textLength="106" x="72" y="420.6201">Gives filter options</text><polygon fill="#A80036" points="58,451.8281,48,455.8281,58,459.8281,54,455.8281" style="stroke:#A80036;stroke-width:1.0;"/><line style="stroke:#A80036;stroke-width:1.0;stroke-dasharray:2.0,2.0;" x1="52" x2="353" y1="455.8281" y2="455.8281"/><text fill="#000000" font-family="sans-serif" font-size="13" font-weight="bold" lengthAdjust="spacing" textLength="14" x="64" y="450.9717">12</text><text fill="#000000" font-family="sans-serif" font-size="13" lengthAdjust="spacing" textLength="205" x="82" y="450.9717">Asks how he wants to sort the data</text><polygon fill="#A80036" points="342,482.1797,352,486.1797,342,490.1797,346,486.1797" style="stroke:#A80036;stroke-width:1.0;"/><line style="stroke:#A80036;stroke-width:1.0;" x1="47" x2="348" y1="486.1797" y2="486.1797"/><text fill="#000000" font-family="sans-serif" font-size="13" font-weight="bold" lengthAdjust="spacing" textLength="14" x="54" y="481.3232">13</text><text fill="#000000" font-family="sans-serif" font-size="13" lengthAdjust="spacing" textLength="126" x="72" y="481.3232">Gives the sort options</text><polygon fill="#A80036" points="554,512.5313,564,516.5313,554,520.5313,558,516.5313" style="stroke:#A80036;stroke-width:1.0;"/><line style="stroke:#A80036;stroke-width:1.0;" x1="364" x2="560" y1="516.5313" y2="516.5313"/><text fill="#000000" font-family="sans-serif" font-size="13" font-weight="bold" lengthAdjust="spacing" textLength="14" x="371" y="511.6748">14</text><text fill="#000000" font-family="sans-serif" font-size="13" lengthAdjust="spacing" textLength="96" x="389" y="511.6748">findProductsBy()</text><polygon fill="#A80036" points="783.5,542.8828,793.5,546.8828,783.5,550.8828,787.5,546.8828" style="stroke:#A80036;stroke-width:1.0;"/><line style="stroke:#A80036;stroke-width:1.0;" x1="576" x2="789.5" y1="546.8828" y2="546.8828"/><text fill="#000000" font-family="sans-serif" font-size="13" font-weight="bold" lengthAdjust="spacing" textLength="14" x="583" y="542.0264">15</text><text fill="#000000" font-family="sans-serif" font-size="13" lengthAdjust="spacing" textLength="96" x="601" y="542.0264">findProductsBy()</text><polygon fill="#A80036" points="1300.5,573.2344,1310.5,577.2344,1300.5,581.2344,1304.5,577.2344" style="stroke:#A80036;stroke-width:1.0;"/><line style="stroke:#A80036;stroke-width:1.0;" x1="805.5" x2="1306.5" y1="577.2344" y2="577.2344"/><text fill="#000000" font-family="sans-serif" font-size="13" font-weight="bold" lengthAdjust="spacing" textLength="14" x="812.5" y="572.3779">16</text><text fill="#000000" font-family="sans-serif" font-size="13" lengthAdjust="spacing" textLength="96" x="830.5" y="572.3779">findProductsBy()</text><polygon fill="#A80036" points="816.5,603.5859,806.5,607.5859,816.5,611.5859,812.5,607.5859" style="stroke:#A80036;stroke-width:1.0;"/><line style="stroke:#A80036;stroke-width:1.0;stroke-dasharray:2.0,2.0;" x1="810.5" x2="1311.5" y1="607.5859" y2="607.5859"/><text fill="#000000" font-family="sans-serif" font-size="13" font-weight="bold" lengthAdjust="spacing" textLength="14" x="822.5" y="602.7295">17</text><text fill="#000000" font-family="sans-serif" font-size="13" lengthAdjust="spacing" textLength="0" x="844.5" y="602.7295"/><polygon fill="#A80036" points="587,633.9375,577,637.9375,587,641.9375,583,637.9375" style="stroke:#A80036;stroke-width:1.0;"/><line style="stroke:#A80036;stroke-width:1.0;stroke-dasharray:2.0,2.0;" x1="581" x2="799.5" y1="637.9375" y2="637.9375"/><text fill="#000000" font-family="sans-serif" font-size="13" font-weight="bold" lengthAdjust="spacing" textLength="14" x="593" y="633.0811">18</text><text fill="#000000" font-family="sans-serif" font-size="13" lengthAdjust="spacing" textLength="0" x="615" y="633.0811"/><polygon fill="#A80036" points="375,664.2891,365,668.2891,375,672.2891,371,668.2891" style="stroke:#A80036;stroke-width:1.0;"/><line style="stroke:#A80036;stroke-width:1.0;stroke-dasharray:2.0,2.0;" x1="369" x2="570" y1="668.2891" y2="668.2891"/><text fill="#000000" font-family="sans-serif" font-size="13" font-weight="bold" lengthAdjust="spacing" textLength="14" x="381" y="663.4326">19</text><text fill="#000000" font-family="sans-serif" font-size="13" lengthAdjust="spacing" textLength="0" x="403" y="663.4326"/><polygon fill="#A80036" points="53,694.6406,43,698.6406,53,702.6406,49,698.6406" style="stroke:#A80036;stroke-width:1.0;"/><line style="stroke:#A80036;stroke-width:1.0;stroke-dasharray:2.0,2.0;" x1="47" x2="358" y1="698.6406" y2="698.6406"/><text fill="#000000" font-family="sans-serif" font-size="13" font-weight="bold" lengthAdjust="spacing" textLength="14" x="59" y="693.7842">20</text><text fill="#000000" font-family="sans-serif" font-size="13" lengthAdjust="spacing" textLength="265" x="77" y="693.7842">Shows the Product Catalog sorted and filtered</text><!--MD5=[daa8e274c0f665021e460eba0f47cd84]
@startuml

autonumber

actor "SalesClerk" as SC

participant ":SearchProductCatalogUI" as UI
participant ":SearchProductCatalogController" as CTRL
participant ":SearchProductCatalogService" as SERV
participant ":PersistenceContext" as PERS
participant ":RepositoryFactory" as REPF
participant ":ProductCatalogRepository" as REP


activate SC

SC -> UI : Asks to view the Product Catalog
activate UI

UI -> CTRL : create()
activate CTRL

CTRL -> SERV : create()
activate SERV

SERV -> PERS : repositories()

PERS -> REPF : create()

activate REPF

REPF -> REP : create()

deactivate REPF

REP - -> SERV


SERV - -> CTRL
deactivate SERV


CTRL - -> UI
deactivate CTRL


UI - -> SC : Asks what he wants to filter

SC -> UI : Gives filter options

UI - -> SC : Asks how he wants to sort the data

SC -> UI : Gives the sort options


UI -> CTRL :findProductsBy()

activate CTRL

CTRL -> SERV : findProductsBy()
activate SERV

SERV -> REP : findProductsBy()

REP - -> SERV


SERV - -> CTRL
deactivate SERV


CTRL - -> UI
deactivate CTRL


UI - -> SC : Shows the Product Catalog sorted and filtered

deactivate UI

deactivate SC

@enduml

PlantUML version 1.2021.11(Sat Oct 02 14:26:11 BST 2021)
(GPL source distribution)
Java Runtime: OpenJDK Runtime Environment
JVM: OpenJDK 64-Bit Server VM
Default Encoding: Cp1252
Language: pt
Country: PT
--></g></svg>