<?xml version="1.0" encoding="UTF-8" standalone="no"?><svg xmlns="http://www.w3.org/2000/svg" xmlns:xlink="http://www.w3.org/1999/xlink" contentStyleType="text/css" height="130px" preserveAspectRatio="none" style="width:969px;height:130px;background:#FFFFFF;" version="1.1" viewBox="0 0 969 130" width="969px" zoomAndPan="magnify"><defs/><g><!--MD5=[79eb2d862cef9730b5f9dcab29e35f17]
class Battery--><g id="elem_Battery"><rect codeLine="3" fill="#F1F1F1" height="48" id="Battery" rx="2.5" ry="2.5" style="stroke:#181818;stroke-width:0.5;" width="77" x="585.5" y="75.74"/><ellipse cx="600.5" cy="91.74" fill="#ADD1B2" rx="11" ry="11" style="stroke:#181818;stroke-width:1.0;"/><path d="M602.5,88.24 Q602.7031,87.74 602.9375,87.49 Q603.1719,87.24 603.4375,87.24 Q603.9063,87.24 604.2031,87.5213 Q604.5,87.8025 604.5,88.4588 L604.5,90.0213 Q604.5,90.6775 604.2188,90.9588 Q603.9375,91.24 603.5,91.24 Q603.1094,91.24 602.8594,91.0681 Q602.6094,90.8963 602.5,90.4431 Q602.4531,90.1306 602.2813,89.9588 Q601.9688,89.6306 601.4063,89.4431 Q600.8438,89.24 600.2813,89.24 Q599.5781,89.24 598.9844,89.5213 Q598.4063,89.8025 597.9531,90.4275 Q597.5,91.0525 597.5,91.9119 L597.5,92.8338 Q597.5,93.865 598.3438,94.5525 Q599.1875,95.24 600.6875,95.24 Q601.5781,95.24 602.2031,95.0369 Q602.5625,94.9275 602.9688,94.5681 Q603.2344,94.365 603.375,94.3025 Q603.5156,94.24 603.6875,94.24 Q604.0156,94.24 604.25,94.5056 Q604.5,94.7556 604.5,95.115 Q604.5,95.4588 604.1563,95.865 Q603.6563,96.4588 602.8594,96.7869 Q601.8125,97.24 600.5313,97.24 Q599.0313,97.24 597.8281,96.6463 Q596.8594,96.1775 596.1719,95.1619 Q595.5,94.1463 595.5,92.9431 L595.5,91.8494 Q595.5,90.5994 596.0938,89.5056 Q596.7031,88.4119 597.75,87.8338 Q598.8125,87.24 600,87.24 Q600.7188,87.24 601.3438,87.49 Q601.9688,87.74 602.5,88.24 Z " fill="#000000"/><text fill="#000000" font-family="sans-serif" font-size="14" lengthAdjust="spacing" textLength="45" x="614.5" y="97.4685">Battery</text><line style="stroke:#181818;stroke-width:0.5;" x1="586.5" x2="661.5" y1="107.74" y2="107.74"/><line style="stroke:#181818;stroke-width:0.5;" x1="586.5" x2="661.5" y1="115.74" y2="115.74"/></g><!--MD5=[5a003185503afd2518b4e3319f88402b]
class ControlSystem--><g id="elem_ControlSystem"><rect codeLine="5" fill="#F1F1F1" height="48" id="ControlSystem" rx="2.5" ry="2.5" style="stroke:#181818;stroke-width:0.5;" width="124" x="104" y="75.74"/><ellipse cx="119" cy="91.74" fill="#ADD1B2" rx="11" ry="11" style="stroke:#181818;stroke-width:1.0;"/><path d="M121,88.24 Q121.2031,87.74 121.4375,87.49 Q121.6719,87.24 121.9375,87.24 Q122.4063,87.24 122.7031,87.5213 Q123,87.8025 123,88.4588 L123,90.0213 Q123,90.6775 122.7188,90.9588 Q122.4375,91.24 122,91.24 Q121.6094,91.24 121.3594,91.0681 Q121.1094,90.8963 121,90.4431 Q120.9531,90.1306 120.7813,89.9588 Q120.4688,89.6306 119.9063,89.4431 Q119.3438,89.24 118.7813,89.24 Q118.0781,89.24 117.4844,89.5213 Q116.9063,89.8025 116.4531,90.4275 Q116,91.0525 116,91.9119 L116,92.8338 Q116,93.865 116.8438,94.5525 Q117.6875,95.24 119.1875,95.24 Q120.0781,95.24 120.7031,95.0369 Q121.0625,94.9275 121.4688,94.5681 Q121.7344,94.365 121.875,94.3025 Q122.0156,94.24 122.1875,94.24 Q122.5156,94.24 122.75,94.5056 Q123,94.7556 123,95.115 Q123,95.4588 122.6563,95.865 Q122.1563,96.4588 121.3594,96.7869 Q120.3125,97.24 119.0313,97.24 Q117.5313,97.24 116.3281,96.6463 Q115.3594,96.1775 114.6719,95.1619 Q114,94.1463 114,92.9431 L114,91.8494 Q114,90.5994 114.5938,89.5056 Q115.2031,88.4119 116.25,87.8338 Q117.3125,87.24 118.5,87.24 Q119.2188,87.24 119.8438,87.49 Q120.4688,87.74 121,88.24 Z " fill="#000000"/><text fill="#000000" font-family="sans-serif" font-size="14" lengthAdjust="spacing" textLength="92" x="133" y="97.4685">ControlSystem</text><line style="stroke:#181818;stroke-width:0.5;" x1="105" x2="227" y1="107.74" y2="107.74"/><line style="stroke:#181818;stroke-width:0.5;" x1="105" x2="227" y1="115.74" y2="115.74"/></g><!--MD5=[b7e26fc08cc846d47c044979a1c2da15]
class PositioningInformation--><g id="elem_PositioningInformation"><rect codeLine="7" fill="#F1F1F1" height="48" id="PositioningInformation" rx="2.5" ry="2.5" style="stroke:#181818;stroke-width:0.5;" width="171" x="697.5" y="75.74"/><ellipse cx="712.5" cy="91.74" fill="#ADD1B2" rx="11" ry="11" style="stroke:#181818;stroke-width:1.0;"/><path d="M714.5,88.24 Q714.7031,87.74 714.9375,87.49 Q715.1719,87.24 715.4375,87.24 Q715.9063,87.24 716.2031,87.5213 Q716.5,87.8025 716.5,88.4588 L716.5,90.0213 Q716.5,90.6775 716.2188,90.9588 Q715.9375,91.24 715.5,91.24 Q715.1094,91.24 714.8594,91.0681 Q714.6094,90.8963 714.5,90.4431 Q714.4531,90.1306 714.2813,89.9588 Q713.9688,89.6306 713.4063,89.4431 Q712.8438,89.24 712.2813,89.24 Q711.5781,89.24 710.9844,89.5213 Q710.4063,89.8025 709.9531,90.4275 Q709.5,91.0525 709.5,91.9119 L709.5,92.8338 Q709.5,93.865 710.3438,94.5525 Q711.1875,95.24 712.6875,95.24 Q713.5781,95.24 714.2031,95.0369 Q714.5625,94.9275 714.9688,94.5681 Q715.2344,94.365 715.375,94.3025 Q715.5156,94.24 715.6875,94.24 Q716.0156,94.24 716.25,94.5056 Q716.5,94.7556 716.5,95.115 Q716.5,95.4588 716.1563,95.865 Q715.6563,96.4588 714.8594,96.7869 Q713.8125,97.24 712.5313,97.24 Q711.0313,97.24 709.8281,96.6463 Q708.8594,96.1775 708.1719,95.1619 Q707.5,94.1463 707.5,92.9431 L707.5,91.8494 Q707.5,90.5994 708.0938,89.5056 Q708.7031,88.4119 709.75,87.8338 Q710.8125,87.24 712,87.24 Q712.7188,87.24 713.3438,87.49 Q713.9688,87.74 714.5,88.24 Z " fill="#000000"/><text fill="#000000" font-family="sans-serif" font-size="14" lengthAdjust="spacing" textLength="139" x="726.5" y="97.4685">PositioningInformation</text><line style="stroke:#181818;stroke-width:0.5;" x1="698.5" x2="867.5" y1="107.74" y2="107.74"/><line style="stroke:#181818;stroke-width:0.5;" x1="698.5" x2="867.5" y1="115.74" y2="115.74"/></g><!--MD5=[d8458a9e7c513ad152741785d5afa3d9]
class PathPlanner--><g id="elem_PathPlanner"><rect codeLine="9" fill="#F1F1F1" height="48" id="PathPlanner" rx="2.5" ry="2.5" style="stroke:#181818;stroke-width:0.5;" width="110" x="440" y="75.74"/><ellipse cx="455" cy="91.74" fill="#ADD1B2" rx="11" ry="11" style="stroke:#181818;stroke-width:1.0;"/><path d="M457,88.24 Q457.2031,87.74 457.4375,87.49 Q457.6719,87.24 457.9375,87.24 Q458.4063,87.24 458.7031,87.5213 Q459,87.8025 459,88.4588 L459,90.0213 Q459,90.6775 458.7188,90.9588 Q458.4375,91.24 458,91.24 Q457.6094,91.24 457.3594,91.0681 Q457.1094,90.8963 457,90.4431 Q456.9531,90.1306 456.7813,89.9588 Q456.4688,89.6306 455.9063,89.4431 Q455.3438,89.24 454.7813,89.24 Q454.0781,89.24 453.4844,89.5213 Q452.9063,89.8025 452.4531,90.4275 Q452,91.0525 452,91.9119 L452,92.8338 Q452,93.865 452.8438,94.5525 Q453.6875,95.24 455.1875,95.24 Q456.0781,95.24 456.7031,95.0369 Q457.0625,94.9275 457.4688,94.5681 Q457.7344,94.365 457.875,94.3025 Q458.0156,94.24 458.1875,94.24 Q458.5156,94.24 458.75,94.5056 Q459,94.7556 459,95.115 Q459,95.4588 458.6563,95.865 Q458.1563,96.4588 457.3594,96.7869 Q456.3125,97.24 455.0313,97.24 Q453.5313,97.24 452.3281,96.6463 Q451.3594,96.1775 450.6719,95.1619 Q450,94.1463 450,92.9431 L450,91.8494 Q450,90.5994 450.5938,89.5056 Q451.2031,88.4119 452.25,87.8338 Q453.3125,87.24 454.5,87.24 Q455.2188,87.24 455.8438,87.49 Q456.4688,87.74 457,88.24 Z " fill="#000000"/><text fill="#000000" font-family="sans-serif" font-size="14" lengthAdjust="spacing" textLength="78" x="469" y="97.4685">PathPlanner</text><line style="stroke:#181818;stroke-width:0.5;" x1="441" x2="549" y1="107.74" y2="107.74"/><line style="stroke:#181818;stroke-width:0.5;" x1="441" x2="549" y1="115.74" y2="115.74"/></g><!--MD5=[41d1430d4ad3cddb8fb13251dedb5c6d]
class MovementSensor--><g id="elem_MovementSensor"><rect codeLine="11" fill="#F1F1F1" height="48" id="MovementSensor" rx="2.5" ry="2.5" style="stroke:#181818;stroke-width:0.5;" width="142" x="263" y="75.74"/><ellipse cx="278" cy="91.74" fill="#ADD1B2" rx="11" ry="11" style="stroke:#181818;stroke-width:1.0;"/><path d="M280,88.24 Q280.2031,87.74 280.4375,87.49 Q280.6719,87.24 280.9375,87.24 Q281.4063,87.24 281.7031,87.5213 Q282,87.8025 282,88.4588 L282,90.0213 Q282,90.6775 281.7188,90.9588 Q281.4375,91.24 281,91.24 Q280.6094,91.24 280.3594,91.0681 Q280.1094,90.8963 280,90.4431 Q279.9531,90.1306 279.7813,89.9588 Q279.4688,89.6306 278.9063,89.4431 Q278.3438,89.24 277.7813,89.24 Q277.0781,89.24 276.4844,89.5213 Q275.9063,89.8025 275.4531,90.4275 Q275,91.0525 275,91.9119 L275,92.8338 Q275,93.865 275.8438,94.5525 Q276.6875,95.24 278.1875,95.24 Q279.0781,95.24 279.7031,95.0369 Q280.0625,94.9275 280.4688,94.5681 Q280.7344,94.365 280.875,94.3025 Q281.0156,94.24 281.1875,94.24 Q281.5156,94.24 281.75,94.5056 Q282,94.7556 282,95.115 Q282,95.4588 281.6563,95.865 Q281.1563,96.4588 280.3594,96.7869 Q279.3125,97.24 278.0313,97.24 Q276.5313,97.24 275.3281,96.6463 Q274.3594,96.1775 273.6719,95.1619 Q273,94.1463 273,92.9431 L273,91.8494 Q273,90.5994 273.5938,89.5056 Q274.2031,88.4119 275.25,87.8338 Q276.3125,87.24 277.5,87.24 Q278.2188,87.24 278.8438,87.49 Q279.4688,87.74 280,88.24 Z " fill="#000000"/><text fill="#000000" font-family="sans-serif" font-size="14" lengthAdjust="spacing" textLength="110" x="292" y="97.4685">MovementSensor</text><line style="stroke:#181818;stroke-width:0.5;" x1="264" x2="404" y1="107.74" y2="107.74"/><line style="stroke:#181818;stroke-width:0.5;" x1="264" x2="404" y1="115.74" y2="115.74"/></g><!--MD5=[84718776d214be480e4c259efcb737fc]
class Main--><g id="elem_Main"><rect fill="#F1F1F1" height="48" id="Main" rx="2.5" ry="2.5" style="stroke:#181818;stroke-width:0.5;" width="62" x="7" y="75.74"/><ellipse cx="22" cy="91.74" fill="#ADD1B2" rx="11" ry="11" style="stroke:#181818;stroke-width:1.0;"/><path d="M24,88.24 Q24.2031,87.74 24.4375,87.49 Q24.6719,87.24 24.9375,87.24 Q25.4063,87.24 25.7031,87.5213 Q26,87.8025 26,88.4588 L26,90.0213 Q26,90.6775 25.7188,90.9588 Q25.4375,91.24 25,91.24 Q24.6094,91.24 24.3594,91.0681 Q24.1094,90.8963 24,90.4431 Q23.9531,90.1306 23.7813,89.9588 Q23.4688,89.6306 22.9063,89.4431 Q22.3438,89.24 21.7813,89.24 Q21.0781,89.24 20.4844,89.5213 Q19.9063,89.8025 19.4531,90.4275 Q19,91.0525 19,91.9119 L19,92.8338 Q19,93.865 19.8438,94.5525 Q20.6875,95.24 22.1875,95.24 Q23.0781,95.24 23.7031,95.0369 Q24.0625,94.9275 24.4688,94.5681 Q24.7344,94.365 24.875,94.3025 Q25.0156,94.24 25.1875,94.24 Q25.5156,94.24 25.75,94.5056 Q26,94.7556 26,95.115 Q26,95.4588 25.6563,95.865 Q25.1563,96.4588 24.3594,96.7869 Q23.3125,97.24 22.0313,97.24 Q20.5313,97.24 19.3281,96.6463 Q18.3594,96.1775 17.6719,95.1619 Q17,94.1463 17,92.9431 L17,91.8494 Q17,90.5994 17.5938,89.5056 Q18.2031,88.4119 19.25,87.8338 Q20.3125,87.24 21.5,87.24 Q22.2188,87.24 22.8438,87.49 Q23.4688,87.74 24,88.24 Z " fill="#000000"/><text fill="#000000" font-family="sans-serif" font-size="14" lengthAdjust="spacing" textLength="30" x="36" y="97.4685">Main</text><line style="stroke:#181818;stroke-width:0.5;" x1="8" x2="68" y1="107.74" y2="107.74"/><line style="stroke:#181818;stroke-width:0.5;" x1="8" x2="68" y1="115.74" y2="115.74"/></g><!--MD5=[4dfc6a72b8dd60daa1b635d583ff79da]
class Map--><g id="elem_Map"><rect fill="#F1F1F1" height="48" id="Map" rx="2.5" ry="2.5" style="stroke:#181818;stroke-width:0.5;" width="59" x="903.5" y="75.74"/><ellipse cx="918.5" cy="91.74" fill="#ADD1B2" rx="11" ry="11" style="stroke:#181818;stroke-width:1.0;"/><path d="M920.5,88.24 Q920.7031,87.74 920.9375,87.49 Q921.1719,87.24 921.4375,87.24 Q921.9063,87.24 922.2031,87.5213 Q922.5,87.8025 922.5,88.4588 L922.5,90.0213 Q922.5,90.6775 922.2188,90.9588 Q921.9375,91.24 921.5,91.24 Q921.1094,91.24 920.8594,91.0681 Q920.6094,90.8963 920.5,90.4431 Q920.4531,90.1306 920.2813,89.9588 Q919.9688,89.6306 919.4063,89.4431 Q918.8438,89.24 918.2813,89.24 Q917.5781,89.24 916.9844,89.5213 Q916.4063,89.8025 915.9531,90.4275 Q915.5,91.0525 915.5,91.9119 L915.5,92.8338 Q915.5,93.865 916.3438,94.5525 Q917.1875,95.24 918.6875,95.24 Q919.5781,95.24 920.2031,95.0369 Q920.5625,94.9275 920.9688,94.5681 Q921.2344,94.365 921.375,94.3025 Q921.5156,94.24 921.6875,94.24 Q922.0156,94.24 922.25,94.5056 Q922.5,94.7556 922.5,95.115 Q922.5,95.4588 922.1563,95.865 Q921.6563,96.4588 920.8594,96.7869 Q919.8125,97.24 918.5313,97.24 Q917.0313,97.24 915.8281,96.6463 Q914.8594,96.1775 914.1719,95.1619 Q913.5,94.1463 913.5,92.9431 L913.5,91.8494 Q913.5,90.5994 914.0938,89.5056 Q914.7031,88.4119 915.75,87.8338 Q916.8125,87.24 918,87.24 Q918.7188,87.24 919.3438,87.49 Q919.9688,87.74 920.5,88.24 Z " fill="#000000"/><text fill="#000000" font-family="sans-serif" font-size="14" lengthAdjust="spacing" textLength="27" x="932.5" y="97.4685">Map</text><line style="stroke:#181818;stroke-width:0.5;" x1="904.5" x2="961.5" y1="107.74" y2="107.74"/><line style="stroke:#181818;stroke-width:0.5;" x1="904.5" x2="961.5" y1="115.74" y2="115.74"/></g><!--MD5=[b6953f2a0171d772c077dd62cc586809]
link Main to ControlSystem--><g id="link_Main_ControlSystem"><path codeLine="15" d="M69.5,99.74 C79.24,99.74 88.97,99.74 98.71,99.74 " fill="none" id="Main-to-ControlSystem" style="stroke:#181818;stroke-width:1.0;"/><polygon fill="#181818" points="103.8,99.74,94.8,95.74,98.8,99.74,94.8,103.74,103.8,99.74" style="stroke:#181818;stroke-width:1.0;"/></g><!--MD5=[94a9838dfc53383e1a1a3de8f47cfbfe]
link ControlSystem to Map--><g id="link_ControlSystem_Map"><path codeLine="16" d="M199.39,75.7 C217.43,64.19 240.64,51.65 263.5,45.74 C328.58,28.92 805.32,22.78 868.5,45.74 C883.42,51.16 897.3,61.72 908.33,72.07 " fill="none" id="ControlSystem-to-Map" style="stroke:#181818;stroke-width:1.0;"/><polygon fill="#181818" points="911.96,75.56,908.2579,66.4334,908.3608,72.0893,902.7049,72.1922,911.96,75.56" style="stroke:#181818;stroke-width:1.0;"/></g><!--MD5=[944042c2e6809ceb1bc76e2a57286624]
link ControlSystem to PositioningInformation--><g id="link_ControlSystem_PositioningInformation"><path codeLine="17" d="M199.39,75.7 C217.43,64.19 240.64,51.65 263.5,45.74 C349.35,23.55 575.79,27.2 662.5,45.74 C688.03,51.2 714.7,62.49 736.44,73.34 " fill="none" id="ControlSystem-to-PositioningInformation" style="stroke:#181818;stroke-width:1.0;"/><polygon fill="#181818" points="741,75.65,734.778,68.0154,736.5394,73.3911,731.1637,75.1525,741,75.65" style="stroke:#181818;stroke-width:1.0;"/></g><!--MD5=[e82fd3da757112f92245d5861b4f1cf0]
link ControlSystem to Battery--><g id="link_ControlSystem_Battery"><path codeLine="18" d="M199.39,75.7 C217.43,64.19 240.64,51.65 263.5,45.74 C387,13.82 429.29,6 550.5,45.74 C567,51.15 582.85,61.83 595.58,72.28 " fill="none" id="ControlSystem-to-Battery" style="stroke:#181818;stroke-width:1.0;"/><polygon fill="#181818" points="599.43,75.51,595.1091,66.6596,595.6006,72.295,589.9652,72.7866,599.43,75.51" style="stroke:#181818;stroke-width:1.0;"/></g><!--MD5=[b4ce58715e55768056b32222109dfe69]
link ControlSystem to PathPlanner--><g id="link_ControlSystem_PathPlanner"><path codeLine="19" d="M199.39,75.7 C217.43,64.19 240.64,51.65 263.5,45.74 C324.6,29.95 344.7,28.82 405.5,45.74 C425,51.17 444.49,62.11 460.28,72.74 " fill="none" id="ControlSystem-to-PathPlanner" style="stroke:#181818;stroke-width:1.0;"/><polygon fill="#181818" points="464.64,75.72,459.4762,67.3334,460.5152,72.894,454.9546,73.9331,464.64,75.72" style="stroke:#181818;stroke-width:1.0;"/></g><!--MD5=[c30831c3f1c96becdffd95d137705e23]
link ControlSystem to MovementSensor--><g id="link_ControlSystem_MovementSensor"><path codeLine="20" d="M228.02,99.74 C237.89,99.74 247.76,99.74 257.63,99.74 " fill="none" id="ControlSystem-to-MovementSensor" style="stroke:#181818;stroke-width:1.0;"/><polygon fill="#181818" points="262.79,99.74,253.79,95.74,257.79,99.74,253.79,103.74,262.79,99.74" style="stroke:#181818;stroke-width:1.0;"/></g><!--MD5=[b376aad2a71f74bcbfe57816883115b1]
@startuml
skinparam classAttributeIconSize 0

class Battery{}

class ControlSystem{}

class PositioningInformation{}

class PathPlanner{}

class MovementSensor{}



Main->ControlSystem
ControlSystem->Map
ControlSystem->PositioningInformation
ControlSystem->Battery
ControlSystem->PathPlanner
ControlSystem->MovementSensor

@enduml

PlantUML version 1.2022.4(Sat Apr 09 14:29:17 BST 2022)
(GPL source distribution)
Java Runtime: OpenJDK Runtime Environment
JVM: OpenJDK 64-Bit Server VM
Default Encoding: Cp1252
Language: pt
Country: PT
--></g></svg>