<?xml version="1.0" encoding="UTF-8" standalone="no"?><svg xmlns="http://www.w3.org/2000/svg" xmlns:xlink="http://www.w3.org/1999/xlink" contentStyleType="text/css" height="400px" preserveAspectRatio="none" style="width:821px;height:400px;background:#FFFFFF;" version="1.1" viewBox="0 0 821 400" width="821px" zoomAndPan="magnify"><defs/><g><rect fill="#FFFFFF" height="72.2656" style="stroke:#181818;stroke-width:1.0;" width="10" x="202.5" y="136.9922"/><rect fill="#FFFFFF" height="150.5313" style="stroke:#181818;stroke-width:1.0;" width="10" x="417.5" y="180.125"/><rect height="118.5313" style="stroke:#000000;stroke-width:1.5;fill:none;" width="473" x="10" y="98.7266"/><line style="stroke:#181818;stroke-width:0.5;fill:none;stroke-dasharray:5.0,5.0;" x1="80" x2="80" y1="52.5938" y2="348.6563"/><line style="stroke:#181818;stroke-width:0.5;fill:none;stroke-dasharray:5.0,5.0;" x1="207" x2="207" y1="52.5938" y2="348.6563"/><line style="stroke:#181818;stroke-width:0.5;fill:none;stroke-dasharray:5.0,5.0;" x1="318" x2="318" y1="52.5938" y2="348.6563"/><line style="stroke:#181818;stroke-width:0.5;fill:none;stroke-dasharray:5.0,5.0;" x1="422" x2="422" y1="52.5938" y2="348.6563"/><line style="stroke:#181818;stroke-width:0.5;fill:none;stroke-dasharray:5.0,5.0;" x1="551" x2="551" y1="52.5938" y2="348.6563"/><line style="stroke:#181818;stroke-width:0.5;fill:none;stroke-dasharray:5.0,5.0;" x1="691" x2="691" y1="52.5938" y2="348.6563"/><line style="stroke:#181818;stroke-width:0.5;fill:none;stroke-dasharray:5.0,5.0;" x1="789" x2="789" y1="52.5938" y2="348.6563"/><rect fill="#E2E2F0" height="46.5938" rx="2.5" ry="2.5" style="stroke:#181818;stroke-width:0.5;" width="120" x="20" y="5"/><text fill="#000000" font-family="sans-serif" font-size="14" font-style="italic" lengthAdjust="spacing" textLength="61" x="49.5" y="24.9951">«server»</text><text fill="#000000" font-family="sans-serif" font-size="14" lengthAdjust="spacing" textLength="106" x="27" y="41.292">AVG_MANAGER</text><rect fill="#E2E2F0" height="46.5938" rx="2.5" ry="2.5" style="stroke:#181818;stroke-width:0.5;" width="120" x="20" y="347.6563"/><text fill="#000000" font-family="sans-serif" font-size="14" font-style="italic" lengthAdjust="spacing" textLength="61" x="49.5" y="367.6514">«server»</text><text fill="#000000" font-family="sans-serif" font-size="14" lengthAdjust="spacing" textLength="106" x="27" y="383.9482">AVG_MANAGER</text><rect fill="#E2E2F0" height="30.2969" rx="2.5" ry="2.5" style="stroke:#181818;stroke-width:0.5;" width="115" x="150" y="21.2969"/><text fill="#000000" font-family="sans-serif" font-size="14" lengthAdjust="spacing" textLength="101" x="157" y="41.292">BookingServer</text><rect fill="#E2E2F0" height="30.2969" rx="2.5" ry="2.5" style="stroke:#181818;stroke-width:0.5;" width="115" x="150" y="347.6563"/><text fill="#000000" font-family="sans-serif" font-size="14" lengthAdjust="spacing" textLength="101" x="157" y="367.6514">BookingServer</text><rect fill="#E2E2F0" height="30.2969" rx="2.5" ry="2.5" style="stroke:#181818;stroke-width:0.5;" width="87" x="275" y="21.2969"/><text fill="#000000" font-family="sans-serif" font-size="14" lengthAdjust="spacing" textLength="73" x="282" y="41.292">BackOffice</text><rect fill="#E2E2F0" height="30.2969" rx="2.5" ry="2.5" style="stroke:#181818;stroke-width:0.5;" width="87" x="275" y="347.6563"/><text fill="#000000" font-family="sans-serif" font-size="14" lengthAdjust="spacing" textLength="73" x="282" y="367.6514">BackOffice</text><rect fill="#E2E2F0" height="46.5938" rx="2.5" ry="2.5" style="stroke:#181818;stroke-width:0.5;" width="101" x="372" y="5"/><text fill="#000000" font-family="sans-serif" font-size="14" font-style="italic" lengthAdjust="spacing" textLength="63" x="391" y="24.9951">«thread»</text><text fill="#000000" font-family="sans-serif" font-size="14" lengthAdjust="spacing" textLength="87" x="379" y="41.292">HandleClient</text><rect fill="#E2E2F0" height="46.5938" rx="2.5" ry="2.5" style="stroke:#181818;stroke-width:0.5;" width="101" x="372" y="347.6563"/><text fill="#000000" font-family="sans-serif" font-size="14" font-style="italic" lengthAdjust="spacing" textLength="63" x="391" y="367.6514">«thread»</text><text fill="#000000" font-family="sans-serif" font-size="14" lengthAdjust="spacing" textLength="87" x="379" y="383.9482">HandleClient</text><rect fill="#E2E2F0" height="30.2969" rx="2.5" ry="2.5" style="stroke:#181818;stroke-width:0.5;" width="136" x="483" y="21.2969"/><text fill="#000000" font-family="sans-serif" font-size="14" lengthAdjust="spacing" textLength="122" x="490" y="41.292">SPOMSMenssage</text><rect fill="#E2E2F0" height="30.2969" rx="2.5" ry="2.5" style="stroke:#181818;stroke-width:0.5;" width="136" x="483" y="347.6563"/><text fill="#000000" font-family="sans-serif" font-size="14" lengthAdjust="spacing" textLength="122" x="490" y="367.6514">SPOMSMenssage</text><rect fill="#E2E2F0" height="30.2969" rx="2.5" ry="2.5" style="stroke:#181818;stroke-width:0.5;" width="125" x="629" y="21.2969"/><text fill="#000000" font-family="sans-serif" font-size="14" lengthAdjust="spacing" textLength="111" x="636" y="41.292">MessageBuilder</text><rect fill="#E2E2F0" height="30.2969" rx="2.5" ry="2.5" style="stroke:#181818;stroke-width:0.5;" width="125" x="629" y="347.6563"/><text fill="#000000" font-family="sans-serif" font-size="14" lengthAdjust="spacing" textLength="111" x="636" y="367.6514">MessageBuilder</text><rect fill="#E2E2F0" height="30.2969" rx="2.5" ry="2.5" style="stroke:#181818;stroke-width:0.5;" width="51" x="764" y="21.2969"/><text fill="#000000" font-family="sans-serif" font-size="14" lengthAdjust="spacing" textLength="37" x="771" y="41.292">Kiosk</text><rect fill="#E2E2F0" height="30.2969" rx="2.5" ry="2.5" style="stroke:#181818;stroke-width:0.5;" width="51" x="764" y="347.6563"/><text fill="#000000" font-family="sans-serif" font-size="14" lengthAdjust="spacing" textLength="37" x="771" y="367.6514">Kiosk</text><rect fill="#FFFFFF" height="72.2656" style="stroke:#181818;stroke-width:1.0;" width="10" x="202.5" y="136.9922"/><rect fill="#FFFFFF" height="150.5313" style="stroke:#181818;stroke-width:1.0;" width="10" x="417.5" y="180.125"/><polygon fill="#181818" points="195.5,79.7266,205.5,83.7266,195.5,87.7266,199.5,83.7266" style="stroke:#181818;stroke-width:1.0;"/><line style="stroke:#181818;stroke-width:1.0;" x1="80" x2="201.5" y1="83.7266" y2="83.7266"/><text fill="#000000" font-family="sans-serif" font-size="13" lengthAdjust="spacing" textLength="25" x="87" y="78.6606">new</text><path d="M10,98.7266 L87,98.7266 L87,105.8594 L77,115.8594 L10,115.8594 L10,98.7266 " fill="#EEEEEE" style="stroke:#000000;stroke-width:1.5;"/><rect fill="none" height="118.5313" style="stroke:#000000;stroke-width:1.5;" width="473" x="10" y="98.7266"/><text fill="#000000" font-family="sans-serif" font-size="13" font-weight="bold" lengthAdjust="spacing" textLength="32" x="25" y="111.7935">loop</text><text fill="#000000" font-family="sans-serif" font-size="11" font-weight="bold" lengthAdjust="spacing" textLength="36" x="102" y="110.937">[true]</text><polygon fill="#181818" points="190.5,132.9922,200.5,136.9922,190.5,140.9922,194.5,136.9922" style="stroke:#181818;stroke-width:1.0;"/><line style="stroke:#181818;stroke-width:1.0;" x1="80" x2="196.5" y1="136.9922" y2="136.9922"/><text fill="#000000" font-family="sans-serif" font-size="13" lengthAdjust="spacing" textLength="30" x="87" y="131.9263">start</text><polygon fill="#181818" points="190.5,162.125,200.5,166.125,190.5,170.125,194.5,166.125" style="stroke:#181818;stroke-width:1.0;"/><line style="stroke:#181818;stroke-width:1.0;" x1="80" x2="196.5" y1="166.125" y2="166.125"/><text fill="#000000" font-family="sans-serif" font-size="13" lengthAdjust="spacing" textLength="43" x="87" y="161.0591">accept</text><polygon fill="#181818" points="223.5,176.125,213.5,180.125,223.5,184.125,219.5,180.125" style="stroke:#181818;stroke-width:1.0;"/><line style="stroke:#181818;stroke-width:1.0;stroke-dasharray:2.0,2.0;" x1="217.5" x2="317.5" y1="180.125" y2="180.125"/><polygon fill="#181818" points="405.5,205.2578,415.5,209.2578,405.5,209.2578" style="stroke:#181818;stroke-width:1.0;"/><line style="stroke:#181818;stroke-width:1.0;" x1="207.5" x2="416.5" y1="209.2578" y2="209.2578"/><text fill="#000000" font-family="sans-serif" font-size="13" lengthAdjust="spacing" textLength="30" x="214.5" y="204.1919">start</text><polygon fill="#181818" points="539,241.3906,549,245.3906,539,249.3906,543,245.3906" style="stroke:#181818;stroke-width:1.0;"/><line style="stroke:#181818;stroke-width:1.0;" x1="427.5" x2="545" y1="245.3906" y2="245.3906"/><text fill="#000000" font-family="sans-serif" font-size="13" lengthAdjust="spacing" textLength="36" x="434.5" y="240.3247">parse</text><line style="stroke:#181818;stroke-width:1.0;" x1="427.5" x2="469.5" y1="274.5234" y2="274.5234"/><line style="stroke:#181818;stroke-width:1.0;" x1="469.5" x2="469.5" y1="274.5234" y2="287.5234"/><line style="stroke:#181818;stroke-width:1.0;" x1="428.5" x2="469.5" y1="287.5234" y2="287.5234"/><polygon fill="#181818" points="438.5,283.5234,428.5,287.5234,438.5,291.5234,434.5,287.5234" style="stroke:#181818;stroke-width:1.0;"/><text fill="#000000" font-family="sans-serif" font-size="13" lengthAdjust="spacing" textLength="51" x="434.5" y="269.4575">execute</text><polygon fill="#181818" points="679.5,312.6563,689.5,316.6563,679.5,320.6563,683.5,316.6563" style="stroke:#181818;stroke-width:1.0;"/><line style="stroke:#181818;stroke-width:1.0;" x1="427.5" x2="685.5" y1="316.6563" y2="316.6563"/><text fill="#000000" font-family="sans-serif" font-size="13" lengthAdjust="spacing" textLength="30" x="434.5" y="311.5903">build</text><polygon fill="#181818" points="777.5,326.6563,787.5,330.6563,777.5,334.6563,781.5,330.6563" style="stroke:#181818;stroke-width:1.0;"/><line style="stroke:#181818;stroke-width:1.0;stroke-dasharray:2.0,2.0;" x1="422.5" x2="783.5" y1="330.6563" y2="330.6563"/><!--MD5=[b6f2e23a5ddb80efa06a42d1436d3903]
@startuml
participant AVG_MANAGER <<server>>

AVG_MANAGER -> BookingServer : new
loop true
AVG_MANAGER -> BookingServer: start
Activate BookingServer
AVG_MANAGER -> BookingServer: accept

BackOffice - -> BookingServer

participant HandleClient <<thread>>
activate HandleClient
BookingServer -\ HandleClient: start
deactivate BookingServer
end

HandleClient -> SPOMSMenssage:parse
HandleClient -> HandleClient: execute
HandleClient -> MessageBuilder:build

HandleClient - -> Kiosk
deactivate HandleClient
@enduml

PlantUML version 1.2022.4(Sat Apr 09 13:29:17 UTC 2022)
(GPL source distribution)
Java Runtime: OpenJDK Runtime Environment
JVM: OpenJDK 64-Bit Server VM
Default Encoding: UTF-8
Language: en
Country: US
--></g></svg>