<?xml version="1.0" encoding="UTF-8" standalone="no"?><svg xmlns="http://www.w3.org/2000/svg" xmlns:xlink="http://www.w3.org/1999/xlink" contentScriptType="application/ecmascript" contentStyleType="text/css" height="469px" preserveAspectRatio="none" style="width:467px;height:469px;background:#FFFFFF;" version="1.1" viewBox="0 0 467 469" width="467px" zoomAndPan="magnify"><defs><filter height="300%" id="fvdvg1zu6v74f" width="300%" x="-1" y="-1"><feGaussianBlur result="blurOut" stdDeviation="2.0"/><feColorMatrix in="blurOut" result="blurOut2" type="matrix" values="0 0 0 0 0 0 0 0 0 0 0 0 0 0 0 0 0 0 .4 0"/><feOffset dx="4.0" dy="4.0" in="blurOut2" result="blurOut3"/><feBlend in="SourceGraphic" in2="blurOut3" mode="normal"/></filter></defs><g><!--MD5=[8fd473fd151a2794da4f2c8684676405]
cluster Presentation--><polygon fill="#FFFFFF" filter="url(#fvdvg1zu6v74f)" points="37,6,133,6,140,29.6094,237,29.6094,237,106,37,106,37,6" style="stroke:#000000;stroke-width:1.5;"/><line style="stroke:#000000;stroke-width:1.5;" x1="37" x2="140" y1="29.6094" y2="29.6094"/><text fill="#000000" font-family="sans-serif" font-size="14" font-weight="bold" lengthAdjust="spacing" textLength="90" x="41" y="22.5332">Presentation</text><!--MD5=[d64883541e3d62e3241c4d12decf100d]
cluster Application--><polygon fill="#FFFFFF" filter="url(#fvdvg1zu6v74f)" points="16,130,100,130,107,153.6094,258,153.6094,258,230,16,230,16,130" style="stroke:#000000;stroke-width:1.5;"/><line style="stroke:#000000;stroke-width:1.5;" x1="16" x2="107" y1="153.6094" y2="153.6094"/><text fill="#000000" font-family="sans-serif" font-size="14" font-weight="bold" lengthAdjust="spacing" textLength="78" x="20" y="146.5332">Application</text><!--MD5=[121a8bf1197281ab89ed693fab589f94]
cluster Domain--><polygon fill="#FFFFFF" filter="url(#fvdvg1zu6v74f)" points="30,254,88,254,95,277.6094,218,277.6094,218,462,30,462,30,254" style="stroke:#000000;stroke-width:1.5;"/><line style="stroke:#000000;stroke-width:1.5;" x1="30" x2="95" y1="277.6094" y2="277.6094"/><text fill="#000000" font-family="sans-serif" font-size="14" font-weight="bold" lengthAdjust="spacing" textLength="52" x="34" y="270.5332">Domain</text><!--MD5=[bc6b40dadbf86ab6a0c8405a467a48af]
cluster Persistence--><polygon fill="#FFFFFF" filter="url(#fvdvg1zu6v74f)" points="242,254,332,254,339,277.6094,450,277.6094,450,462,242,462,242,254" style="stroke:#000000;stroke-width:1.5;"/><line style="stroke:#000000;stroke-width:1.5;" x1="242" x2="339" y1="277.6094" y2="277.6094"/><text fill="#000000" font-family="sans-serif" font-size="14" font-weight="bold" lengthAdjust="spacing" textLength="84" x="246" y="270.5332">Persistence</text><!--MD5=[fc6d76d791b0d02014158073cc3bdc52]
class SearchProductCatalogUI--><rect codeLine="4" fill="#FEFECE" filter="url(#fvdvg1zu6v74f)" height="48" id="SearchProductCatalogUI" style="stroke:#A80036;stroke-width:1.5;" width="168" x="53" y="42"/><ellipse cx="68" cy="58" fill="#ADD1B2" rx="11" ry="11" style="stroke:#A80036;stroke-width:1.0;"/><path d="M70,54.5 Q70.2031,54 70.4375,53.75 Q70.6719,53.5 70.9375,53.5 Q71.4063,53.5 71.7031,53.7813 Q72,54.0625 72,54.7188 L72,56.2813 Q72,56.9375 71.7188,57.2188 Q71.4375,57.5 71,57.5 Q70.6094,57.5 70.3594,57.3281 Q70.1094,57.1563 70,56.7031 Q69.9531,56.3906 69.7813,56.2188 Q69.4688,55.8906 68.9063,55.7031 Q68.3438,55.5 67.7813,55.5 Q67.0781,55.5 66.4844,55.7813 Q65.9063,56.0625 65.4531,56.6875 Q65,57.3125 65,58.1719 L65,59.0938 Q65,60.125 65.8438,60.8125 Q66.6875,61.5 68.1875,61.5 Q69.0781,61.5 69.7031,61.2969 Q70.0625,61.1875 70.4688,60.8281 Q70.7344,60.625 70.875,60.5625 Q71.0156,60.5 71.1875,60.5 Q71.5156,60.5 71.75,60.7656 Q72,61.0156 72,61.375 Q72,61.7188 71.6563,62.125 Q71.1563,62.7188 70.3594,63.0469 Q69.3125,63.5 68.0313,63.5 Q66.5313,63.5 65.3281,62.9063 Q64.3594,62.4375 63.6719,61.4219 Q63,60.4063 63,59.2031 L63,58.1094 Q63,56.8594 63.5938,55.7656 Q64.2031,54.6719 65.25,54.0938 Q66.3125,53.5 67.5,53.5 Q68.2188,53.5 68.8438,53.75 Q69.4688,54 70,54.5 Z " fill="#000000"/><text fill="#000000" font-family="sans-serif" font-size="12" lengthAdjust="spacing" textLength="136" x="82" y="62.9102">SearchProductCatalogUI</text><line style="stroke:#A80036;stroke-width:1.5;" x1="54" x2="220" y1="74" y2="74"/><line style="stroke:#A80036;stroke-width:1.5;" x1="54" x2="220" y1="82" y2="82"/><!--MD5=[30dd52242c555c7124133f544891d84a]
class SearchProductCatalogController--><rect codeLine="10" fill="#FEFECE" filter="url(#fvdvg1zu6v74f)" height="48" id="SearchProductCatalogController" style="stroke:#A80036;stroke-width:1.5;" width="210" x="32" y="166"/><ellipse cx="47" cy="182" fill="#ADD1B2" rx="11" ry="11" style="stroke:#A80036;stroke-width:1.0;"/><path d="M49,178.5 Q49.2031,178 49.4375,177.75 Q49.6719,177.5 49.9375,177.5 Q50.4063,177.5 50.7031,177.7813 Q51,178.0625 51,178.7188 L51,180.2813 Q51,180.9375 50.7188,181.2188 Q50.4375,181.5 50,181.5 Q49.6094,181.5 49.3594,181.3281 Q49.1094,181.1563 49,180.7031 Q48.9531,180.3906 48.7813,180.2188 Q48.4688,179.8906 47.9063,179.7031 Q47.3438,179.5 46.7813,179.5 Q46.0781,179.5 45.4844,179.7813 Q44.9063,180.0625 44.4531,180.6875 Q44,181.3125 44,182.1719 L44,183.0938 Q44,184.125 44.8438,184.8125 Q45.6875,185.5 47.1875,185.5 Q48.0781,185.5 48.7031,185.2969 Q49.0625,185.1875 49.4688,184.8281 Q49.7344,184.625 49.875,184.5625 Q50.0156,184.5 50.1875,184.5 Q50.5156,184.5 50.75,184.7656 Q51,185.0156 51,185.375 Q51,185.7188 50.6563,186.125 Q50.1563,186.7188 49.3594,187.0469 Q48.3125,187.5 47.0313,187.5 Q45.5313,187.5 44.3281,186.9063 Q43.3594,186.4375 42.6719,185.4219 Q42,184.4063 42,183.2031 L42,182.1094 Q42,180.8594 42.5938,179.7656 Q43.2031,178.6719 44.25,178.0938 Q45.3125,177.5 46.5,177.5 Q47.2188,177.5 47.8438,177.75 Q48.4688,178 49,178.5 Z " fill="#000000"/><text fill="#000000" font-family="sans-serif" font-size="12" lengthAdjust="spacing" textLength="178" x="61" y="186.9102">SearchProductCatalogController</text><line style="stroke:#A80036;stroke-width:1.5;" x1="33" x2="241" y1="198" y2="198"/><line style="stroke:#A80036;stroke-width:1.5;" x1="33" x2="241" y1="206" y2="206"/><!--MD5=[3854aa698878ea31bbbf1eb5d36dee80]
class ProductCatalog--><rect codeLine="16" fill="#FEFECE" filter="url(#fvdvg1zu6v74f)" height="48" id="ProductCatalog" style="stroke:#A80036;stroke-width:1.5;" width="117" x="55.5" y="398"/><ellipse cx="70.5" cy="414" fill="#ADD1B2" rx="11" ry="11" style="stroke:#A80036;stroke-width:1.0;"/><path d="M72.5,410.5 Q72.7031,410 72.9375,409.75 Q73.1719,409.5 73.4375,409.5 Q73.9063,409.5 74.2031,409.7813 Q74.5,410.0625 74.5,410.7188 L74.5,412.2813 Q74.5,412.9375 74.2188,413.2188 Q73.9375,413.5 73.5,413.5 Q73.1094,413.5 72.8594,413.3281 Q72.6094,413.1563 72.5,412.7031 Q72.4531,412.3906 72.2813,412.2188 Q71.9688,411.8906 71.4063,411.7031 Q70.8438,411.5 70.2813,411.5 Q69.5781,411.5 68.9844,411.7813 Q68.4063,412.0625 67.9531,412.6875 Q67.5,413.3125 67.5,414.1719 L67.5,415.0938 Q67.5,416.125 68.3438,416.8125 Q69.1875,417.5 70.6875,417.5 Q71.5781,417.5 72.2031,417.2969 Q72.5625,417.1875 72.9688,416.8281 Q73.2344,416.625 73.375,416.5625 Q73.5156,416.5 73.6875,416.5 Q74.0156,416.5 74.25,416.7656 Q74.5,417.0156 74.5,417.375 Q74.5,417.7188 74.1563,418.125 Q73.6563,418.7188 72.8594,419.0469 Q71.8125,419.5 70.5313,419.5 Q69.0313,419.5 67.8281,418.9063 Q66.8594,418.4375 66.1719,417.4219 Q65.5,416.4063 65.5,415.2031 L65.5,414.1094 Q65.5,412.8594 66.0938,411.7656 Q66.7031,410.6719 67.75,410.0938 Q68.8125,409.5 70,409.5 Q70.7188,409.5 71.3438,409.75 Q71.9688,410 72.5,410.5 Z " fill="#000000"/><text fill="#000000" font-family="sans-serif" font-size="12" lengthAdjust="spacing" textLength="85" x="84.5" y="418.9102">ProductCatalog</text><line style="stroke:#A80036;stroke-width:1.5;" x1="56.5" x2="171.5" y1="430" y2="430"/><line style="stroke:#A80036;stroke-width:1.5;" x1="56.5" x2="171.5" y1="438" y2="438"/><!--MD5=[8b41f424ad976f3032d488c95395e0ee]
class ProductCatalogFactory--><rect codeLine="19" fill="#FEFECE" filter="url(#fvdvg1zu6v74f)" height="48" id="ProductCatalogFactory" style="stroke:#A80036;stroke-width:1.5;" width="156" x="46" y="290"/><ellipse cx="61" cy="306" fill="#ADD1B2" rx="11" ry="11" style="stroke:#A80036;stroke-width:1.0;"/><path d="M63,302.5 Q63.2031,302 63.4375,301.75 Q63.6719,301.5 63.9375,301.5 Q64.4063,301.5 64.7031,301.7813 Q65,302.0625 65,302.7188 L65,304.2813 Q65,304.9375 64.7188,305.2188 Q64.4375,305.5 64,305.5 Q63.6094,305.5 63.3594,305.3281 Q63.1094,305.1563 63,304.7031 Q62.9531,304.3906 62.7813,304.2188 Q62.4688,303.8906 61.9063,303.7031 Q61.3438,303.5 60.7813,303.5 Q60.0781,303.5 59.4844,303.7813 Q58.9063,304.0625 58.4531,304.6875 Q58,305.3125 58,306.1719 L58,307.0938 Q58,308.125 58.8438,308.8125 Q59.6875,309.5 61.1875,309.5 Q62.0781,309.5 62.7031,309.2969 Q63.0625,309.1875 63.4688,308.8281 Q63.7344,308.625 63.875,308.5625 Q64.0156,308.5 64.1875,308.5 Q64.5156,308.5 64.75,308.7656 Q65,309.0156 65,309.375 Q65,309.7188 64.6563,310.125 Q64.1563,310.7188 63.3594,311.0469 Q62.3125,311.5 61.0313,311.5 Q59.5313,311.5 58.3281,310.9063 Q57.3594,310.4375 56.6719,309.4219 Q56,308.4063 56,307.2031 L56,306.1094 Q56,304.8594 56.5938,303.7656 Q57.2031,302.6719 58.25,302.0938 Q59.3125,301.5 60.5,301.5 Q61.2188,301.5 61.8438,301.75 Q62.4688,302 63,302.5 Z " fill="#000000"/><text fill="#000000" font-family="sans-serif" font-size="12" lengthAdjust="spacing" textLength="124" x="75" y="310.9102">ProductCatalogFactory</text><line style="stroke:#A80036;stroke-width:1.5;" x1="47" x2="201" y1="322" y2="322"/><line style="stroke:#A80036;stroke-width:1.5;" x1="47" x2="201" y1="330" y2="330"/><!--MD5=[48590afff58a68e2fcba47824d6f8a11]
class RepositoryFactory--><rect codeLine="25" fill="#FEFECE" filter="url(#fvdvg1zu6v74f)" height="48" id="RepositoryFactory" style="stroke:#A80036;stroke-width:1.5;" width="130" x="258" y="290"/><ellipse cx="273" cy="306" fill="#ADD1B2" rx="11" ry="11" style="stroke:#A80036;stroke-width:1.0;"/><path d="M275,302.5 Q275.2031,302 275.4375,301.75 Q275.6719,301.5 275.9375,301.5 Q276.4063,301.5 276.7031,301.7813 Q277,302.0625 277,302.7188 L277,304.2813 Q277,304.9375 276.7188,305.2188 Q276.4375,305.5 276,305.5 Q275.6094,305.5 275.3594,305.3281 Q275.1094,305.1563 275,304.7031 Q274.9531,304.3906 274.7813,304.2188 Q274.4688,303.8906 273.9063,303.7031 Q273.3438,303.5 272.7813,303.5 Q272.0781,303.5 271.4844,303.7813 Q270.9063,304.0625 270.4531,304.6875 Q270,305.3125 270,306.1719 L270,307.0938 Q270,308.125 270.8438,308.8125 Q271.6875,309.5 273.1875,309.5 Q274.0781,309.5 274.7031,309.2969 Q275.0625,309.1875 275.4688,308.8281 Q275.7344,308.625 275.875,308.5625 Q276.0156,308.5 276.1875,308.5 Q276.5156,308.5 276.75,308.7656 Q277,309.0156 277,309.375 Q277,309.7188 276.6563,310.125 Q276.1563,310.7188 275.3594,311.0469 Q274.3125,311.5 273.0313,311.5 Q271.5313,311.5 270.3281,310.9063 Q269.3594,310.4375 268.6719,309.4219 Q268,308.4063 268,307.2031 L268,306.1094 Q268,304.8594 268.5938,303.7656 Q269.2031,302.6719 270.25,302.0938 Q271.3125,301.5 272.5,301.5 Q273.2188,301.5 273.8438,301.75 Q274.4688,302 275,302.5 Z " fill="#000000"/><text fill="#000000" font-family="sans-serif" font-size="12" lengthAdjust="spacing" textLength="98" x="287" y="310.9102">RepositoryFactory</text><line style="stroke:#A80036;stroke-width:1.5;" x1="259" x2="387" y1="322" y2="322"/><line style="stroke:#A80036;stroke-width:1.5;" x1="259" x2="387" y1="330" y2="330"/><!--MD5=[742ad70b13746f46655a8b071f23587b]
class ProductCatalogRepository--><rect codeLine="28" fill="#FEFECE" filter="url(#fvdvg1zu6v74f)" height="48" id="ProductCatalogRepository" style="stroke:#A80036;stroke-width:1.5;" width="176" x="258" y="398"/><ellipse cx="273" cy="414" fill="#ADD1B2" rx="11" ry="11" style="stroke:#A80036;stroke-width:1.0;"/><path d="M275,410.5 Q275.2031,410 275.4375,409.75 Q275.6719,409.5 275.9375,409.5 Q276.4063,409.5 276.7031,409.7813 Q277,410.0625 277,410.7188 L277,412.2813 Q277,412.9375 276.7188,413.2188 Q276.4375,413.5 276,413.5 Q275.6094,413.5 275.3594,413.3281 Q275.1094,413.1563 275,412.7031 Q274.9531,412.3906 274.7813,412.2188 Q274.4688,411.8906 273.9063,411.7031 Q273.3438,411.5 272.7813,411.5 Q272.0781,411.5 271.4844,411.7813 Q270.9063,412.0625 270.4531,412.6875 Q270,413.3125 270,414.1719 L270,415.0938 Q270,416.125 270.8438,416.8125 Q271.6875,417.5 273.1875,417.5 Q274.0781,417.5 274.7031,417.2969 Q275.0625,417.1875 275.4688,416.8281 Q275.7344,416.625 275.875,416.5625 Q276.0156,416.5 276.1875,416.5 Q276.5156,416.5 276.75,416.7656 Q277,417.0156 277,417.375 Q277,417.7188 276.6563,418.125 Q276.1563,418.7188 275.3594,419.0469 Q274.3125,419.5 273.0313,419.5 Q271.5313,419.5 270.3281,418.9063 Q269.3594,418.4375 268.6719,417.4219 Q268,416.4063 268,415.2031 L268,414.1094 Q268,412.8594 268.5938,411.7656 Q269.2031,410.6719 270.25,410.0938 Q271.3125,409.5 272.5,409.5 Q273.2188,409.5 273.8438,409.75 Q274.4688,410 275,410.5 Z " fill="#000000"/><text fill="#000000" font-family="sans-serif" font-size="12" lengthAdjust="spacing" textLength="144" x="287" y="418.9102">ProductCatalogRepository</text><line style="stroke:#A80036;stroke-width:1.5;" x1="259" x2="433" y1="430" y2="430"/><line style="stroke:#A80036;stroke-width:1.5;" x1="259" x2="433" y1="438" y2="438"/><!--MD5=[81ec67da279fdd2da8b472f9c6f9b9f7]
link SearchProductCatalogUI to SearchProductCatalogController--><path codeLine="32" d="M137,90.23 C137,110.25 137,139.2 137,160.59 " fill="none" id="SearchProductCatalogUI-to-SearchProductCatalogController" style="stroke:#A80036;stroke-width:1.0;stroke-dasharray:7.0,7.0;"/><polygon fill="#A80036" points="137,165.85,141,156.85,137,160.85,133,156.85,137,165.85" style="stroke:#A80036;stroke-width:1.0;"/><!--MD5=[1e7b22f03fd1f54db4c768f882e86664]
link SearchProductCatalogController to ProductCatalog--><path codeLine="33" d="M64.3,214.11 C50.27,221.98 37.36,232.37 29,246 C7.63,280.86 13.13,300.32 29,338 C38.53,360.62 57.56,380.14 75.21,394.56 " fill="none" id="SearchProductCatalogController-to-ProductCatalog" style="stroke:#A80036;stroke-width:1.0;stroke-dasharray:7.0,7.0;"/><polygon fill="#A80036" points="79.19,397.75,74.6727,388.9982,75.2898,394.6213,69.6668,395.2385,79.19,397.75" style="stroke:#A80036;stroke-width:1.0;"/><!--MD5=[5071bb4398911f04c3e51d0a678773d9]
link SearchProductCatalogController to ProductCatalogRepository--><path codeLine="34" d="M242.15,199 C308.38,206.48 385.16,220.47 406,246 C441.96,290.05 399.48,356.88 369.86,393.9 " fill="none" id="SearchProductCatalogController-to-ProductCatalogRepository" style="stroke:#A80036;stroke-width:1.0;stroke-dasharray:7.0,7.0;"/><polygon fill="#A80036" points="366.68,397.83,375.4598,393.3673,369.833,393.9494,369.2509,388.3226,366.68,397.83" style="stroke:#A80036;stroke-width:1.0;"/><!--MD5=[32cd44ae96051490fa2b43175b71c15f]
link SearchProductCatalogController to RepositoryFactory--><path codeLine="35" d="M172.42,214.23 C204.1,235.01 250.46,265.42 283.36,287 " fill="none" id="SearchProductCatalogController-to-RepositoryFactory" style="stroke:#A80036;stroke-width:1.0;stroke-dasharray:7.0,7.0;"/><polygon fill="#A80036" points="287.71,289.85,282.3876,281.5631,283.5322,287.103,277.9924,288.2476,287.71,289.85" style="stroke:#A80036;stroke-width:1.0;"/><!--MD5=[8c129af292db061cceac0832190e446a]
link SearchProductCatalogController to ProductCatalogFactory--><path codeLine="36" d="M134.52,214.23 C132.38,234.33 129.28,263.45 127,284.86 " fill="none" id="SearchProductCatalogController-to-ProductCatalogFactory" style="stroke:#A80036;stroke-width:1.0;stroke-dasharray:7.0,7.0;"/><polygon fill="#A80036" points="126.47,289.85,131.4233,281.3374,127.0128,284.8795,123.4706,280.469,126.47,289.85" style="stroke:#A80036;stroke-width:1.0;"/><!--MD5=[688a8d6acb0119dc675e6a9583565a17]
link RepositoryFactory to ProductCatalogRepository--><path codeLine="37" d="M327.99,338 C331.46,354 336.12,375.45 339.82,392.53 " fill="none" id="RepositoryFactory-to-ProductCatalogRepository" style="stroke:#A80036;stroke-width:1.0;stroke-dasharray:7.0,7.0;"/><polygon fill="#A80036" points="340.94,397.68,342.9462,388.0376,339.8826,392.7931,335.1271,389.7295,340.94,397.68" style="stroke:#A80036;stroke-width:1.0;"/><!--MD5=[55baccf031a4ec398406f0a332ca2f71]
link ProductCatalogFactory to ProductCatalog--><path codeLine="38" d="M121.83,338 C120.32,354 118.3,375.45 116.69,392.53 " fill="none" id="ProductCatalogFactory-to-ProductCatalog" style="stroke:#A80036;stroke-width:1.0;stroke-dasharray:7.0,7.0;"/><polygon fill="#A80036" points="116.2,397.68,121.0073,389.0841,116.6578,392.701,113.0409,388.3515,116.2,397.68" style="stroke:#A80036;stroke-width:1.0;"/><!--MD5=[3596ef496711395e7d4181a74c041e44]
@startuml
skinparam classAttributeIconSize 0

Package Presentation{
class SearchProductCatalogUI {
}
}

Package Application{

class SearchProductCatalogController {
}
}

Package Domain{

class ProductCatalog {
}

class ProductCatalogFactory{
}
}


Package Persistence{
class RepositoryFactory{
}

class ProductCatalogRepository{
}
}

SearchProductCatalogUI ..> SearchProductCatalogController
SearchProductCatalogController ..> ProductCatalog
SearchProductCatalogController ..> ProductCatalogRepository
SearchProductCatalogController ..> RepositoryFactory
SearchProductCatalogController ..> ProductCatalogFactory
RepositoryFactory ..> ProductCatalogRepository
ProductCatalogFactory..> ProductCatalog
@enduml

PlantUML version 1.2021.11(Sat Oct 02 14:26:11 BST 2021)
(GPL source distribution)
Java Runtime: OpenJDK Runtime Environment
JVM: OpenJDK 64-Bit Server VM
Default Encoding: Cp1252
Language: pt
Country: PT
--></g></svg>