<?xml version="1.0" encoding="UTF-8" standalone="no"?><svg xmlns="http://www.w3.org/2000/svg" xmlns:xlink="http://www.w3.org/1999/xlink" contentScriptType="application/ecmascript" contentStyleType="text/css" height="377px" preserveAspectRatio="none" style="width:398px;height:377px;background:#FFFFFF;" version="1.1" viewBox="0 0 398 377" width="398px" zoomAndPan="magnify"><defs><filter height="300%" id="f4xznyxoupqjk" width="300%" x="-1" y="-1"><feGaussianBlur result="blurOut" stdDeviation="2.0"/><feColorMatrix in="blurOut" result="blurOut2" type="matrix" values="0 0 0 0 0 0 0 0 0 0 0 0 0 0 0 0 0 0 .4 0"/><feOffset dx="4.0" dy="4.0" in="blurOut2" result="blurOut3"/><feBlend in="SourceGraphic" in2="blurOut3" mode="normal"/></filter></defs><g><rect fill="#FFFFFF" filter="url(#f4xznyxoupqjk)" height="174.1094" style="stroke:#A80036;stroke-width:1.0;" width="10" x="39" y="99.6094"/><rect fill="#FFFFFF" filter="url(#f4xznyxoupqjk)" height="30.3516" style="stroke:#A80036;stroke-width:1.0;" width="10" x="349" y="121.9609"/><rect fill="#FFFFFF" filter="url(#f4xznyxoupqjk)" height="30.3516" style="stroke:#A80036;stroke-width:1.0;" width="10" x="349" y="182.6641"/><rect fill="#FFFFFF" filter="url(#f4xznyxoupqjk)" height="30.3516" style="stroke:#A80036;stroke-width:1.0;" width="10" x="349" y="243.3672"/><line style="stroke:#A80036;stroke-width:1.0;stroke-dasharray:5.0,5.0;" x1="44" x2="44" y1="89.6094" y2="291.7188"/><line style="stroke:#A80036;stroke-width:1.0;stroke-dasharray:5.0,5.0;" x1="354" x2="354" y1="89.6094" y2="291.7188"/><text fill="#000000" font-family="sans-serif" font-size="14" lengthAdjust="spacing" textLength="72" x="5" y="86.5332">Sales Clerk</text><ellipse cx="44" cy="15" fill="#FEFECE" filter="url(#f4xznyxoupqjk)" rx="8" ry="8" style="stroke:#A80036;stroke-width:2.0;"/><path d="M44,23 L44,50 M31,31 L57,31 M44,50 L31,65 M44,50 L57,65 " fill="none" filter="url(#f4xznyxoupqjk)" style="stroke:#A80036;stroke-width:2.0;"/><text fill="#000000" font-family="sans-serif" font-size="14" lengthAdjust="spacing" textLength="72" x="5" y="305.252">Sales Clerk</text><ellipse cx="44" cy="318.3281" fill="#FEFECE" filter="url(#f4xznyxoupqjk)" rx="8" ry="8" style="stroke:#A80036;stroke-width:2.0;"/><path d="M44,326.3281 L44,353.3281 M31,334.3281 L57,334.3281 M44,353.3281 L31,368.3281 M44,353.3281 L57,368.3281 " fill="none" filter="url(#f4xznyxoupqjk)" style="stroke:#A80036;stroke-width:2.0;"/><rect fill="#FEFECE" filter="url(#f4xznyxoupqjk)" height="31.6094" style="stroke:#A80036;stroke-width:1.5;" width="64" x="320" y="53"/><text fill="#000000" font-family="sans-serif" font-size="14" lengthAdjust="spacing" textLength="50" x="327" y="74.5332">:System</text><rect fill="#FEFECE" filter="url(#f4xznyxoupqjk)" height="31.6094" style="stroke:#A80036;stroke-width:1.5;" width="64" x="320" y="290.7188"/><text fill="#000000" font-family="sans-serif" font-size="14" lengthAdjust="spacing" textLength="50" x="327" y="312.252">:System</text><rect fill="#FFFFFF" filter="url(#f4xznyxoupqjk)" height="174.1094" style="stroke:#A80036;stroke-width:1.0;" width="10" x="39" y="99.6094"/><rect fill="#FFFFFF" filter="url(#f4xznyxoupqjk)" height="30.3516" style="stroke:#A80036;stroke-width:1.0;" width="10" x="349" y="121.9609"/><rect fill="#FFFFFF" filter="url(#f4xznyxoupqjk)" height="30.3516" style="stroke:#A80036;stroke-width:1.0;" width="10" x="349" y="182.6641"/><rect fill="#FFFFFF" filter="url(#f4xznyxoupqjk)" height="30.3516" style="stroke:#A80036;stroke-width:1.0;" width="10" x="349" y="243.3672"/><polygon fill="#A80036" points="337,117.9609,347,121.9609,337,125.9609,341,121.9609" style="stroke:#A80036;stroke-width:1.0;"/><line style="stroke:#A80036;stroke-width:1.0;" x1="49" x2="343" y1="121.9609" y2="121.9609"/><text fill="#000000" font-family="sans-serif" font-size="13" font-weight="bold" lengthAdjust="spacing" textLength="7" x="56" y="117.1045">1</text><text fill="#000000" font-family="sans-serif" font-size="13" lengthAdjust="spacing" textLength="192" x="67" y="117.1045">Asks to view the Product Catalog</text><polygon fill="#A80036" points="60,148.3125,50,152.3125,60,156.3125,56,152.3125" style="stroke:#A80036;stroke-width:1.0;"/><line style="stroke:#A80036;stroke-width:1.0;stroke-dasharray:2.0,2.0;" x1="54" x2="353" y1="152.3125" y2="152.3125"/><text fill="#000000" font-family="sans-serif" font-size="13" font-weight="bold" lengthAdjust="spacing" textLength="7" x="66" y="147.4561">2</text><text fill="#000000" font-family="sans-serif" font-size="13" lengthAdjust="spacing" textLength="160" x="77" y="147.4561">Asks what he wants to filter</text><polygon fill="#A80036" points="337,178.6641,347,182.6641,337,186.6641,341,182.6641" style="stroke:#A80036;stroke-width:1.0;"/><line style="stroke:#A80036;stroke-width:1.0;" x1="49" x2="343" y1="182.6641" y2="182.6641"/><text fill="#000000" font-family="sans-serif" font-size="13" font-weight="bold" lengthAdjust="spacing" textLength="7" x="56" y="177.8076">3</text><text fill="#000000" font-family="sans-serif" font-size="13" lengthAdjust="spacing" textLength="106" x="67" y="177.8076">Gives filter options</text><polygon fill="#A80036" points="60,209.0156,50,213.0156,60,217.0156,56,213.0156" style="stroke:#A80036;stroke-width:1.0;"/><line style="stroke:#A80036;stroke-width:1.0;stroke-dasharray:2.0,2.0;" x1="54" x2="353" y1="213.0156" y2="213.0156"/><text fill="#000000" font-family="sans-serif" font-size="13" font-weight="bold" lengthAdjust="spacing" textLength="7" x="66" y="208.1592">4</text><text fill="#000000" font-family="sans-serif" font-size="13" lengthAdjust="spacing" textLength="205" x="77" y="208.1592">Asks how he wants to sort the data</text><polygon fill="#A80036" points="337,239.3672,347,243.3672,337,247.3672,341,243.3672" style="stroke:#A80036;stroke-width:1.0;"/><line style="stroke:#A80036;stroke-width:1.0;" x1="49" x2="343" y1="243.3672" y2="243.3672"/><text fill="#000000" font-family="sans-serif" font-size="13" font-weight="bold" lengthAdjust="spacing" textLength="7" x="56" y="238.5107">5</text><text fill="#000000" font-family="sans-serif" font-size="13" lengthAdjust="spacing" textLength="126" x="67" y="238.5107">Gives the sort options</text><polygon fill="#A80036" points="55,269.7188,45,273.7188,55,277.7188,51,273.7188" style="stroke:#A80036;stroke-width:1.0;"/><line style="stroke:#A80036;stroke-width:1.0;stroke-dasharray:2.0,2.0;" x1="49" x2="353" y1="273.7188" y2="273.7188"/><text fill="#000000" font-family="sans-serif" font-size="13" font-weight="bold" lengthAdjust="spacing" textLength="7" x="61" y="268.8623">6</text><text fill="#000000" font-family="sans-serif" font-size="13" lengthAdjust="spacing" textLength="265" x="72" y="268.8623">Shows the Product Catalog sorted and filtered</text><!--MD5=[ba6223cd88f682f1a83de135372198b1]
@startuml

autonumber

actor "Sales Clerk" as SC

activate SC
SC -> ":System" : Asks to view the Product Catalog
activate ":System"
":System" - -> SC : Asks what he wants to filter
deactivate ":System"

SC -> ":System" : Gives filter options
activate ":System"
":System" - -> SC : Asks how he wants to sort the data
deactivate ":System"

SC -> ":System" : Gives the sort options
activate ":System"
":System" - -> SC : Shows the Product Catalog sorted and filtered
deactivate ":System"

deactivate SC


@enduml

PlantUML version 1.2021.11(Sat Oct 02 14:26:11 BST 2021)
(GPL source distribution)
Java Runtime: OpenJDK Runtime Environment
JVM: OpenJDK 64-Bit Server VM
Default Encoding: Cp1252
Language: pt
Country: PT
--></g></svg>